<svg width="24" height="24" viewBox="0 0 24 24" fill="none" xmlns="http://www.w3.org/2000/svg">
<path d="M0 4.25H24V19.75H0V4.25Z" fill="white"/>
<path d="M0 4.25H8V19.75H0V4.25ZM16 4.25H24V19.75H16V4.25Z" fill="#338AF3"/>
<path d="M11.9766 12.4668C12.6355 12.4668 13.1696 11.9494 13.1696 11.3111C13.1696 10.6728 12.6355 10.1554 11.9766 10.1554C11.3177 10.1554 10.7836 10.6728 10.7836 11.3111C10.7836 11.9494 11.3177 12.4668 11.9766 12.4668Z" fill="#DCC26D"/>
<path d="M9.08537 11.3157C9.08537 12.3173 9.63742 13.2418 10.5263 13.7404C10.8023 13.8945 11.1579 13.8038 11.317 13.5364C11.476 13.269 11.3824 12.9246 11.1064 12.7705C10.5684 12.4714 10.2409 11.9139 10.2409 11.3157C10.2409 11.0075 9.98362 10.7537 9.66081 10.7537C9.338 10.7537 9.08537 11.0029 9.08537 11.3157ZM13.5345 13.6769C14.3672 13.1602 14.8725 12.2719 14.8678 11.3157C14.8678 11.0075 14.6105 10.7537 14.2877 10.7537C13.9696 10.7537 13.7076 11.0029 13.7076 11.3157C13.7076 11.8912 13.4035 12.426 12.9076 12.7342C12.6363 12.8974 12.5474 13.2418 12.7158 13.5047C12.8842 13.7676 13.2398 13.8537 13.5111 13.6905C13.5205 13.686 13.5251 13.6814 13.5345 13.6769Z" fill="#628A40"/>
</svg>
