<svg width="24" height="24" viewBox="0 0 24 24" fill="none" xmlns="http://www.w3.org/2000/svg">
<path d="M16 4.25H0V19.7183H24V4.25H16Z" fill="#DC2339"/>
<path d="M0 4.25H8V19.75H0V4.25Z" fill="#11865D"/>
<path d="M8 4.25H16V19.75H8V4.25Z" fill="white"/>
<path d="M9.16022 12.0091C9.16022 12.988 9.69823 13.899 10.5778 14.3885C10.8491 14.5425 11.1953 14.4519 11.3544 14.189C11.5134 13.9262 11.4199 13.5908 11.1485 13.4367C10.6199 13.1421 10.2971 12.5983 10.2971 12.0091C10.2971 11.7054 10.0444 11.4607 9.73098 11.4607C9.41753 11.4607 9.16022 11.7054 9.16022 12.0091V12.0091ZM13.5298 14.325C14.3485 13.8219 14.8397 12.9472 14.8397 12.0091C14.8397 11.7054 14.5871 11.4607 14.2737 11.4607C13.9602 11.4607 13.7076 11.7054 13.7076 12.0091C13.7076 12.5711 13.4128 13.0968 12.9216 13.4004C12.655 13.5591 12.5707 13.8945 12.7298 14.1573C12.8889 14.4202 13.2397 14.4972 13.5111 14.3431C13.5111 14.3341 13.5205 14.3295 13.5298 14.325V14.325Z" fill="#8C9157"/>
<path d="M12 13.1104C12.6279 13.1104 13.1368 12.3718 13.1368 11.4607C13.1368 10.5496 12.6279 9.81096 12 9.81096C11.3721 9.81096 10.8632 10.5496 10.8632 11.4607C10.8632 12.3718 11.3721 13.1104 12 13.1104Z" fill="#C59262"/>
</svg>
