<svg width="24" height="24" viewBox="0 0 24 24" fill="none" xmlns="http://www.w3.org/2000/svg">
<path d="M0 4.2504H24V19.7501H0V4.2504Z" fill="#496E2D"/>
<path d="M16.7441 8.71601C17.1377 7.65323 16.6956 6.49736 15.7466 5.92165C15.9205 5.94347 16.0916 5.98337 16.2568 6.04067C17.5225 6.48061 18.1804 7.83111 17.7263 9.05732C17.2722 10.2835 15.8781 10.9209 14.6123 10.4809C14.4472 10.4234 14.289 10.3489 14.1404 10.2586C15.2506 10.3987 16.3505 9.77884 16.7441 8.71601V8.71601ZM14.5611 5.63039L14.2191 6.05847L13.6931 5.87565L14.0077 6.32303L13.6657 6.75111L14.2021 6.59953L14.5168 7.04692L14.5337 6.5059L15.0701 6.35427L14.5441 6.1715L14.5611 5.63039Z" fill="white"/>
<path d="M15.4846 7.02535L15.1426 7.45343L14.6166 7.27061L14.9312 7.71799L14.5892 8.14607L15.1256 7.99444L15.4403 8.44187L15.4571 7.90081L15.9936 7.74914L15.4676 7.56641L15.4846 7.02535ZM12.9328 6.13839L12.5908 6.56648L12.0649 6.38374L12.3795 6.83108L12.0375 7.25912L12.5739 7.10754L12.8885 7.55492L12.9054 7.01386L13.4419 6.86232L12.9159 6.67946L12.9328 6.13839ZM12.8954 7.73633L12.5534 8.16441L12.0274 7.98159L12.342 8.42897L12 8.85706L12.5364 8.70548L12.851 9.15286L12.868 8.6118L13.4044 8.46022L12.8784 8.2774L12.8954 7.73633ZM14.4649 8.28185L14.1229 8.70993L13.597 8.52711L13.9116 8.97453L13.5696 9.40257L14.106 9.25099L14.4206 9.69837L14.4375 9.15731L14.9739 9.00573L14.448 8.82295L14.4649 8.28185Z" fill="white"/>
<path d="M3.91302 4.25029H8.08692V19.75H3.91302V4.25029Z" fill="#D80027"/>
<path d="M5.50585 8.33057L4.80704 7.82629V7.11312L5.50585 6.60884H6.49416L7.19297 7.11312V7.82629L6.49416 8.33057H5.50585Z" fill="white"/>
<path d="M6.00001 6.60884H5.50585L4.80704 7.11312V7.46178H6.00001V6.60884ZM6.00001 8.33057H6.49416L7.19297 7.82629V7.46247H6.00001V8.33057Z" fill="#FF9811"/>
<path d="M5.50585 17.3915L4.80704 16.8871V16.174L5.50585 15.6697H6.49416L7.19297 16.174V16.8871L6.49416 17.3915H5.50585Z" fill="white"/>
<path d="M6.00001 15.6697H5.50585L4.80704 16.174V16.5227H6.00001V15.6697ZM6.00001 17.3914H6.49416L7.19297 16.8871V16.5233H6.00001V17.3914Z" fill="#FF9811"/>
<path d="M5.50586 12.861L4.80705 12.3567V11.6436L5.50586 11.1393H6.49417L7.19298 11.6436V12.3567L6.49417 12.861H5.50586ZM7.2174 13.9705H6.91305V13.6757H6.37815L5.99997 13.3093L5.62183 13.6757H5.08698V13.9705H4.78262V14.5602H5.08698V14.855H5.62183L6.00001 15.2214L6.3782 14.855H6.91305V14.5602H7.2174V13.9705ZM7.2174 9.44003H6.91305V9.14523H6.37815L5.99997 8.77882L5.62183 9.14523H5.08698V9.44003H4.78262V10.0297H5.08698V10.3245H5.62183L6.00001 10.691L6.3782 10.3245H6.91305V10.0297H7.2174V9.44003Z" fill="#496E2D"/>
<path d="M5.65201 11.663H6.34763V12.3369H5.65201V11.663Z" fill="#D80027"/>
<path d="M6.00008 10.0717C6.1922 10.0717 6.34794 9.92086 6.34794 9.73474C6.34794 9.54863 6.1922 9.39775 6.00008 9.39775C5.80796 9.39775 5.65222 9.54863 5.65222 9.73474C5.65222 9.92086 5.80796 10.0717 6.00008 10.0717Z" fill="#D80027"/>
<path d="M6.00002 14.6025C6.19214 14.6025 6.34788 14.4516 6.34788 14.2655C6.34788 14.0794 6.19214 13.9285 6.00002 13.9285C5.8079 13.9285 5.65216 14.0794 5.65216 14.2655C5.65216 14.4516 5.8079 14.6025 6.00002 14.6025Z" fill="#D80027"/>
</svg>
