<svg width="24" height="24" viewBox="0 0 24 24" fill="none" xmlns="http://www.w3.org/2000/svg">
<path d="M0 4.25H24V19.75H0V4.25Z" fill="#1E509C"/>
<path d="M24 12.2311V7.93465L0 19.75L24 12.2311Z" fill="white"/>
<path d="M24 4.25V7.93465L0 19.75L24 4.25Z" fill="#F18D36"/>
<path d="M5.92747 8.75044L5.56256 6.29854L5.20232 8.75044L4.22922 7.67632L4.72981 9.10848L3.25612 8.62354L4.36022 9.56623L1.82922 9.9152L4.36022 10.2642L3.25612 11.2069L4.72981 10.7219L4.22922 12.1541L5.20232 11.08L5.56256 13.5319L5.92747 11.08L6.89589 12.1541L6.39998 10.7219L7.87367 11.2069L6.76957 10.2642L9.29589 9.9152L6.76957 9.56623L7.87367 8.62354L6.39998 9.10848L6.89589 7.67632L5.92747 8.75044Z" fill="white"/>
</svg>
