<svg width="24" height="24" viewBox="0 0 24 24" fill="none" xmlns="http://www.w3.org/2000/svg">
<path d="M0 4.25014H24V19.7503H0V4.25014Z" fill="#FFDA44"/>
<path d="M0 4.25014H12V12H0V4.25014Z" fill="white"/>
<path d="M6.75 4.24985H5.25V7.39827H0V8.8514H5.25V11.9999H6.75V8.8514H12V7.39827H6.75V4.24985Z" fill="#D80027"/>
<path d="M0 4.24969V4.93462L2.68955 6.6716H3.75L0 4.24969Z" fill="#D80027"/>
<path d="M0 5.27692V6.67156H2.15948L0 5.27692ZM4.5 4.24974V6.47089L1.06069 4.24974H4.5Z" fill="#2E52B2"/>
<path d="M12 4.2498V4.93472L9.31045 6.67171H8.25L12 4.2498Z" fill="#D80027"/>
<path d="M12 5.27707V6.67171H9.84052L12 5.27707ZM7.5 4.24989V6.47104L10.9393 4.24989H7.5Z" fill="#2E52B2"/>
<path d="M0 4.24969V4.93462L2.68955 6.6716H3.75L0 4.24969Z" fill="#D80027"/>
<path d="M0 5.27692V6.67156H2.15948L0 5.27692ZM4.5 4.24974V6.47089L1.06069 4.24974H4.5Z" fill="#2E52B2"/>
<path d="M12 4.2498V4.93472L9.31045 6.67171H8.25L12 4.2498Z" fill="#D80027"/>
<path d="M12 5.27707V6.67171H9.84052L12 5.27707ZM7.5 4.24989V6.47104L10.9393 4.24989H7.5Z" fill="#2E52B2"/>
<path d="M0 11.9999V11.315L2.68955 9.57797H3.75L0 11.9999Z" fill="#D80027"/>
<path d="M0 10.9727V9.57797H2.15948L0 10.9727ZM4.5 11.9997V9.77864L1.06069 11.9997H4.5Z" fill="#2E52B2"/>
<path d="M12 11.9999V11.315L9.31045 9.57797H8.25L12 11.9999Z" fill="#D80027"/>
<path d="M12 10.9726V9.57796H9.84052L12 10.9726ZM7.5 11.9997V9.77863L10.9393 11.9997H7.5Z" fill="#2E52B2"/>
<path d="M6 9.15219C6.58578 9.15219 7.06064 8.69217 7.06064 8.1247C7.06064 7.55722 6.58578 7.0972 6 7.0972C5.41423 7.0972 4.93936 7.55722 4.93936 8.1247C4.93936 8.69217 5.41423 9.15219 6 9.15219Z" fill="#2E52B2"/>
<path d="M5.99999 7.39828L6.18608 7.95328H6.78861L6.30121 8.2964L6.48735 8.8514L5.99999 8.50837L5.51258 8.8514L5.69877 8.2964L5.21136 7.95328H5.81385L5.99999 7.39828ZM5.99999 10.3563L6.1108 10.6868H6.46954L6.17938 10.891L6.29019 11.2215L5.99999 11.0173L5.70979 11.2215L5.8206 10.891L5.53044 10.6868H5.88913L5.99999 10.3563ZM5.99999 5.02814L6.1108 5.35863H6.46954L6.17938 5.56289L6.29019 5.89338L5.99999 5.68913L5.70979 5.89338L5.8206 5.56289L5.53044 5.35863H5.88913L5.99999 5.02814ZM9.278 7.69222L9.38886 8.02267H9.7476L9.45735 8.22697L9.56821 8.55751L9.278 8.35325L8.9878 8.55751L9.09866 8.22697L8.80846 8.02267H9.16714L9.278 7.69222ZM2.72197 7.69222L2.83279 8.02267H3.19152L2.90132 8.22697L3.01213 8.55751L2.72197 8.35325L2.43177 8.55751L2.54263 8.22697L2.25238 8.02267H2.61111L2.72197 7.69222Z" fill="#FFDA44"/>
</svg>
