<svg width="24" height="24" viewBox="0 0 24 24" fill="none" xmlns="http://www.w3.org/2000/svg">
<path d="M0 4.25H24V19.75H0V4.25Z" fill="white"/>
<path d="M0 4.25H24V9.4076H0V4.25Z" fill="#6DA544"/>
<path d="M0 14.5652H24V19.75H0V14.5652Z" fill="#D80027"/>
<path d="M5.89474 11.9864L0 19.7183V4.25L5.89474 11.9864Z" fill="#0070C8"/>
<path fill-rule="evenodd" clip-rule="evenodd" d="M10.938 10.5452H14.2924V12.3988C14.2924 12.8061 14.1872 13.1132 14.0282 13.3442C13.8693 13.575 13.6577 13.7287 13.4467 13.8309C13.2358 13.933 13.0253 13.984 12.8676 14.0094C12.7887 14.0222 12.7229 14.0285 12.6767 14.0317C12.6536 14.0333 12.6355 14.0341 12.623 14.0345C12.6167 14.0347 12.6119 14.0348 12.6087 14.0349C12.607 14.0349 12.6058 14.0349 12.6049 14.0349L12.6039 14.0349L12.6036 14.0349H12.6035C12.6035 14.0349 12.6035 14.0349 12.6035 14.0123C12.6035 14.0349 12.6035 14.0349 12.6035 14.0349H12.6034L12.6031 14.0349L12.6021 14.0349C12.6012 14.0349 12.6 14.0349 12.5983 14.0349C12.5951 14.0348 12.5903 14.0347 12.584 14.0345C12.5715 14.0341 12.5534 14.0333 12.5303 14.0317C12.4841 14.0285 12.4183 14.0222 12.3394 14.0094C12.1817 13.984 11.9712 13.933 11.7603 13.8309C11.5493 13.7287 11.3377 13.575 11.1788 13.3442C11.0198 13.1132 10.9146 12.8061 10.9146 12.3988V10.5678H10.938V10.5452ZM10.9614 10.5905V12.3988C10.9614 12.7982 11.0644 13.0963 11.2177 13.319C11.3711 13.5419 11.5758 13.6908 11.7812 13.7903C11.9867 13.8899 12.1925 13.9397 12.3471 13.9647C12.4244 13.9772 12.4887 13.9834 12.5336 13.9865C12.5561 13.9881 12.5737 13.9888 12.5856 13.9892C12.5915 13.9894 12.5961 13.9895 12.5991 13.9896C12.6006 13.9896 12.6017 13.9896 12.6025 13.9896L12.6033 13.9896L12.6035 13.9896H12.6035L12.6037 13.9896L12.6045 13.9896C12.6053 13.9896 12.6064 13.9896 12.6079 13.9896C12.6109 13.9895 12.6155 13.9894 12.6214 13.9892C12.6333 13.9888 12.6509 13.9881 12.6734 13.9865C12.7183 13.9834 12.7826 13.9772 12.8599 13.9647C13.0145 13.9397 13.2203 13.8899 13.4258 13.7903C13.6312 13.6908 13.8359 13.5419 13.9893 13.319C14.1426 13.0963 14.2456 12.7982 14.2456 12.3988V10.5905H10.9614Z" fill="black"/>
<path d="M12.3743 12.3988H12.8327L13.0199 13.5681H12.1871L12.3743 12.3988Z" fill="#786145"/>
<path d="M13.4362 11.5921C13.4362 11.148 13.062 10.9214 12.6035 10.9214C12.145 10.9214 11.7707 11.148 11.7707 11.5921C11.5415 11.5921 11.3544 11.7734 11.3544 11.9955C11.3544 12.2176 11.5415 12.3988 11.7707 12.3988H13.4362C13.6655 12.3988 13.8526 12.2176 13.8526 11.9955C13.8526 11.7734 13.6655 11.5921 13.4362 11.5921Z" fill="#6DA544"/>
<path d="M10.793 9.6886L10.8819 9.83816H11.0596L10.9708 9.98772L11.0596 10.1328H10.8819L10.793 10.2823L10.7041 10.1328H10.5263L10.6152 9.98772L10.5263 9.83816H10.7041L10.793 9.6886ZM11.5088 9.6886L11.5977 9.83816H11.7708L11.6819 9.98772L11.7708 10.1328H11.5977L11.5088 10.2823L11.4199 10.1328H11.2421L11.331 9.98772L11.2421 9.83816H11.4199L11.5088 9.6886ZM12.2246 9.6886L12.3134 9.83816H12.4865L12.3977 9.98772L12.4865 10.1328H12.3134L12.2246 10.2823L12.1357 10.1328H11.9579L12.0468 9.98772L11.9579 9.83816H12.1357L12.2246 9.6886ZM12.9637 9.6886L13.0526 9.83816H13.2304L13.1415 9.98772L13.2304 10.1328H13.0526L12.9637 10.2823L12.8748 10.1328H12.7017L12.786 9.98772L12.7017 9.83816H12.8748L12.9637 9.6886ZM13.7123 9.6886L13.8012 9.83816H13.9789L13.89 9.98772L13.9789 10.1328H13.8012L13.7123 10.2823L13.6234 10.1328H13.4503L13.5345 9.98772L13.4503 9.83816H13.6234L13.7123 9.6886ZM14.414 9.6886L14.5029 9.83816H14.676L14.5871 9.98772L14.676 10.1328H14.5029L14.414 10.2823L14.3251 10.1328H14.1474L14.2362 9.98772L14.1474 9.83816H14.3251L14.414 9.6886Z" fill="#FFDA00"/>
<path fill-rule="evenodd" clip-rule="evenodd" d="M11.5088 9.64319L11.6112 9.81551H11.8112L11.709 9.98755L11.8119 10.1554H11.6112L11.5088 10.3277L11.4064 10.1554H11.201L11.3039 9.98755L11.2017 9.81551H11.4064L11.5088 9.64319ZM12.9637 9.64319L13.0662 9.81551H13.2709L13.1686 9.98755L13.2715 10.1554H13.0662L12.9637 10.3277L12.8613 10.1554H12.6618L12.7592 9.98756L12.6624 9.81551H12.8613L12.9637 9.64319ZM13.7123 9.64319L13.8147 9.81551H14.0194L13.9172 9.98755L14.02 10.1554H13.8147L13.7123 10.3277L13.6099 10.1554H13.4103L13.5078 9.98756L13.4109 9.81551H13.6099L13.7123 9.64319ZM14.414 9.64319L14.5165 9.81551H14.7165L14.6142 9.98755L14.7171 10.1554H14.5165L14.414 10.3277L14.3116 10.1554H14.1063L14.2092 9.98755L14.1069 9.81551H14.3116L14.414 9.64319ZM10.793 9.64319L10.8954 9.81551H11.1001L10.9979 9.98755L11.1007 10.1554H10.8954L10.793 10.3277L10.6906 10.1554H10.4852L10.5881 9.98755L10.4859 9.81551H10.6906L10.793 9.64319ZM12.2246 9.64319L12.327 9.81551H12.527L12.4248 9.98755L12.5276 10.1554H12.327L12.2246 10.3277L12.1222 10.1554H11.9168L12.0197 9.98755L11.9174 9.81551H12.1222L12.2246 9.64319ZM12.2246 9.73402L12.1492 9.86083H11.9984L12.0739 9.9879L11.999 10.1101H12.1492L12.2246 10.2369L12.2999 10.1101H12.4455L12.3706 9.9879L12.4461 9.86083H12.2999L12.2246 9.73402ZM10.793 9.73402L10.7176 9.86083H10.5668L10.6423 9.9879L10.5674 10.1101H10.7176L10.793 10.2369L10.8684 10.1101H11.0186L10.9437 9.9879L11.0192 9.86083H10.8684L10.793 9.73402ZM11.5088 9.73402L11.4334 9.86083H11.2826L11.3581 9.9879L11.2832 10.1101H11.4334L11.5088 10.2369L11.5841 10.1101H11.7297L11.6548 9.9879L11.7303 9.86083H11.5841L11.5088 9.73402ZM12.9637 9.73402L12.8884 9.86083H12.7412L12.8127 9.9879L12.7418 10.1101H12.8884L12.9637 10.2369L13.0391 10.1101H13.1893L13.1144 9.9879L13.19 9.86083H13.0391L12.9637 9.73402ZM13.7123 9.73402L13.6369 9.86083H13.4897L13.5612 9.9879L13.4903 10.1101H13.6369L13.7123 10.2369L13.7877 10.1101H13.9379L13.863 9.9879L13.9385 9.86083H13.7877L13.7123 9.73402ZM14.414 9.73402L14.3387 9.86083H14.1878L14.2634 9.9879L14.1885 10.1101H14.3387L14.414 10.2369L14.4894 10.1101H14.6349L14.56 9.9879L14.6356 9.86083H14.4894L14.414 9.73402Z" fill="black"/>
</svg>
