<svg width="24" height="24" viewBox="0 0 24 24" fill="none" xmlns="http://www.w3.org/2000/svg">
<g clip-path="url(#clip0_97_2891)">
<path d="M0 4.2504H24V19.7501H0V4.2504Z" fill="white"/>
<path d="M5.34487 12.0002L0 6.82001V17.1813L5.34487 12.0002Z" fill="black"/>
<path d="M7.55587 12.0001L0 4.67546V6.82001L5.34487 12.0002L0 17.1813V19.3218L7.55587 12.0001Z" fill="#FFB915"/>
<path d="M23.8984 13.5165C23.9011 13.4966 23.9361 13.4767 24 13.4567V10.4839H10.4345L3.99984 4.2504H0V4.67557L7.55588 12.0002L0 19.3219V19.7501H3.99984L10.4345 13.5165H23.8984V13.5165Z" fill="#007847"/>
<path d="M23.5866 15.0328H11.0828L6.21338 19.75H24V15.0328H23.5866Z" fill="#000C8A"/>
<path d="M23.5866 8.96751H24V4.25029H6.21338L11.0828 8.96751H23.5866Z" fill="#E1392D"/>
</g>
<defs>
<clipPath id="clip0_97_2891">
<rect width="24" height="24" fill="white"/>
</clipPath>
</defs>
</svg>
