<svg width="24" height="24" viewBox="0 0 24 24" fill="none" xmlns="http://www.w3.org/2000/svg">
<path d="M0.0233765 4.24999H23.9766V19.75H0.0233765V4.24999Z" fill="white"/>
<path d="M0.0233765 4.24999H23.9766V8.38333H0.0233765V4.24999ZM0.0233765 15.6167H23.9766V19.75H0.0233765V15.6167Z" fill="#D03433"/>
<path d="M0.0233765 8.37426H23.9766V15.6257H0.0233765V8.37426Z" fill="#FBCA46"/>
<path d="M8.32715 11.4833H9.39174V12H8.32715V11.4833V11.4833Z" fill="white"/>
<path d="M7.68843 13.0333C7.68843 13.3433 8.00781 13.55 8.32719 13.55C8.64656 13.55 8.96594 13.3433 8.96594 13.0333L9.0724 11.4833H7.58198L7.68843 13.0333V13.0333ZM7.04968 11.4833C7.04968 11.1733 7.2626 10.9667 7.47552 10.9667H9.0724C9.39177 10.9667 9.60469 11.1733 9.60469 11.38V11.4833L9.49823 13.0333C9.39177 13.6533 8.96594 14.0667 8.32719 14.0667C7.68844 14.0667 7.2626 13.6533 7.15614 13.0333L7.04968 11.4833Z" fill="#A41517"/>
<path d="M7.26259 12H9.39177V12.5167H8.85947L8.32718 13.55L7.79489 12.5167H7.26259V12V12ZM5.66571 10.45H6.7303V14.0667H5.66571V10.45ZM9.92406 10.45H10.9886V14.0667H9.92406V10.45ZM7.26259 9.93333C7.26259 9.62333 7.47551 9.41666 7.79489 9.41666H8.85947C9.17885 9.41666 9.39177 9.62333 9.39177 9.93333V10.14C9.39177 10.3467 9.28531 10.45 9.07239 10.45H7.47551C7.36905 10.45 7.26259 10.3467 7.26259 10.2433V9.93333V9.93333Z" fill="#A41517"/>
</svg>
