<svg width="24" height="24" viewBox="0 0 24 24" fill="none" xmlns="http://www.w3.org/2000/svg">
<path d="M0 4.25015H24V19.7498H0V4.25015Z" fill="black"/>
<path d="M0 4.25015H24V9.4167H0V4.25015Z" fill="#D80027"/>
<path d="M0 14.5832H24V19.7497H0V14.5832Z" fill="#496E2D"/>
<path d="M13.1918 11.0929L13.6119 11.6537L14.2922 11.44L13.8715 12.0003L14.2915 12.5611L13.6114 12.3466L13.1907 12.9069L13.1911 12.214L12.511 11.9995L13.1913 11.7858L13.1918 11.0929Z" fill="white"/>
<path d="M12.0453 13.4016C11.2461 13.4016 10.5983 12.774 10.5983 11.9999C10.5983 11.2258 11.2462 10.5982 12.0453 10.5982C12.2856 10.5978 12.5222 10.6557 12.7336 10.7666C12.4124 10.4625 11.9734 10.2747 11.4888 10.2747C10.5052 10.2747 9.70789 11.0471 9.70789 11.9999C9.70789 12.9527 10.5052 13.7252 11.4888 13.7252C11.9734 13.7252 12.4125 13.5374 12.7336 13.2332C12.5222 13.3441 12.2856 13.402 12.0453 13.4016V13.4016Z" fill="white"/>
</svg>
