<svg width="24" height="24" viewBox="0 0 24 24" fill="none" xmlns="http://www.w3.org/2000/svg">
<path d="M0 4.25H24V19.75H0V4.25Z" fill="#0021AD"/>
<path d="M0 4.25H24V19.75" fill="#1C8A42"/>
<path d="M3.6375 16.6028L3.90469 17.1432L4.50469 17.007L4.2375 17.5474L4.72031 17.9153L4.12032 18.047V18.6465L3.6375 18.2695L3.15938 18.6465V18.047L2.55938 17.9153L3.04219 17.5474L2.77032 17.007L3.375 17.1432L3.6375 16.6028ZM1.89844 12.1113L2.16563 12.6517L2.76563 12.5155L2.49844 13.0514L2.98125 13.4238L2.37657 13.5555L2.38125 14.155L1.89844 13.778L1.41563 14.155L1.42032 13.5555L0.815628 13.4238L1.30313 13.0514L1.03125 12.5155L1.63125 12.6517L1.89844 12.1113ZM3.6375 8.43726L3.90469 8.97315L4.50469 8.84145L4.2375 9.37734L4.72031 9.74974L4.12032 9.88144V10.4764L3.6375 10.104L3.15938 10.4764V9.88144L2.55938 9.74974L3.04219 9.37734L2.77032 8.84145L3.375 8.97315L3.6375 8.43726ZM5.79844 11.2938L6.06563 11.8343L6.66563 11.698L6.39844 12.2385L6.88125 12.6063L6.28125 12.738V13.3375L5.79844 12.9651L5.32031 13.3375V12.738L4.72031 12.6063L5.20313 12.2385L4.93594 11.698L5.53594 11.8343L5.79844 11.2938ZM4.25625 13.7462L4.4625 14.3684H5.14219L4.59375 14.7544L4.80469 15.3766L4.25625 14.9951L3.70781 15.3766L3.91875 14.7544L3.37032 14.3684H4.04531L4.25625 13.7462Z" fill="white"/>
<path d="M12.5203 15.3857C14.449 15.3857 16.0125 13.8709 16.0125 12.0023C16.0125 10.1337 14.449 8.6189 12.5203 8.6189C10.5916 8.6189 9.02812 10.1337 9.02812 12.0023C9.02812 13.8709 10.5916 15.3857 12.5203 15.3857Z" fill="#FFC639"/>
<path d="M12.5203 14.2549H13.6828C13.6828 14.2549 14.1891 13.392 13.6828 12.5654L14.8453 11.4391L14.2641 10.3129H13.6828C13.6828 10.3129 13.3922 11.1576 12.2297 11.1576C11.0672 11.1576 10.7766 10.3129 10.7766 10.3129H10.1953L10.7766 11.4391L10.1953 12.5654L10.7766 13.1286C10.7766 13.1286 11.3578 12.0023 12.5203 12.5654C12.5203 12.5654 13.0125 13.2694 12.5203 14.2549Z" fill="#1C8A42"/>
<path d="M21.7687 8.43722C21.7969 8.30552 21.7594 7.63792 21.7594 7.49714C21.7594 6.52981 21.1078 5.7078 20.2031 5.42169C20.4797 5.96667 20.6344 6.57522 20.6344 7.22465C20.6344 7.44264 20.6156 7.65609 20.5828 7.865C20.4469 7.65155 20.2734 7.46081 20.0578 7.29277C19.2562 6.67513 18.1547 6.65697 17.3437 7.17924C17.9719 7.31094 18.5766 7.58343 19.1109 7.9967C19.5328 8.31914 19.8703 8.75967 20.1281 9.18202C20.1281 9.18202 19.2937 9.67704 18.675 9.86778C18.0562 10.0585 16.6922 10.2266 16.6922 10.2266C20.0672 10.7715 22.8797 8.59163 22.8797 8.59163C22.575 7.98308 22.1391 8.40997 21.7687 8.43722Z" fill="#FFC639"/>
</svg>
