<svg width="24" height="24" viewBox="0 0 24 24" fill="none" xmlns="http://www.w3.org/2000/svg">
<path d="M0 4.25H24V19.75H0V4.25Z" fill="#FFDA44"/>
<path d="M0 4.25H8V19.75H0V4.25Z" fill="#0052B4"/>
<path d="M16 4.25H24V19.75H16V4.25ZM9.30524 9.39854H11.9766V12.3354H9.30524V9.39854Z" fill="#D80027"/>
<path d="M12.5193 9.39856V12.3309V9.39856ZM13.2959 9.39856V12.3309V9.39856ZM14.0725 9.39856V12.3309V9.39856Z" fill="black"/>
<path fill-rule="evenodd" clip-rule="evenodd" d="M12.683 9.39856V12.3309H12.3555V9.39856H12.683ZM13.4596 9.39856V12.3309H13.1321V9.39856H13.4596ZM13.9087 12.3309V9.39856H14.2362V12.3309H13.9087Z" fill="#D80027"/>
<path d="M11.5742 12.3354V15.2677V12.3354ZM10.952 12.3354V15.2677V12.3354ZM10.3298 12.3399V14.7828V12.3399ZM9.68884 12.3399V14.4746V12.3399Z" fill="black"/>
<path fill-rule="evenodd" clip-rule="evenodd" d="M11.069 12.3354V15.2677H10.8351V12.3354H11.069ZM11.6912 12.3354V15.2677H11.4573V12.3354H11.6912ZM9.5719 14.4746V12.3399H9.80582V14.4746H9.5719ZM10.4468 12.3399V14.7828H10.2128V12.3399H10.4468Z" fill="#D80027"/>
<path d="M9.35205 10.867L10.6433 9.39856L11.9766 10.8624L10.662 12.3309L9.35205 10.867Z" fill="#FFDA44"/>
<path d="M8.52399 8.59637V12.775C8.52399 14.3296 9.80118 15.2315 10.7977 15.6983C10.7602 15.7617 11.9719 16.0744 11.9719 16.0744C11.9719 16.0744 13.1836 15.7617 13.1462 15.6983C14.1474 15.2315 15.4199 14.3341 15.4199 12.775V8.59637H8.52399ZM14.6012 12.775C14.6012 13.541 14.1333 14.1075 13.0667 14.7646C12.6643 15.0139 12.248 15.1725 11.9766 15.2632C11.7053 15.1725 11.2889 15.0139 10.8866 14.7646C9.81989 14.1075 9.35206 13.4956 9.35206 12.775V9.39857H14.6012V12.775Z" fill="#BC8B00"/>
<path d="M12.3696 12.8113H13.7497V13.201H12.3696V12.8113ZM12.3696 13.6089H13.7497V13.9987H12.3696V13.6089Z" fill="#D80027"/>
</svg>
