<svg width="24" height="24" viewBox="0 0 24 24" fill="none" xmlns="http://www.w3.org/2000/svg">
<path d="M0 4.25H24V19.75H0V4.25Z" fill="#2E52B2"/>
<path d="M12 4.25V5.27637L9.83906 6.6706H12V9.57713H9.83906L12 10.9714V12.0023H10.9406L7.5 9.77696V12.0023H4.5V9.77696L1.05938 12.0023H0V10.9714L2.16094 9.57713H0V6.6706H2.16094L0 5.27637V4.25H1.05938L4.5 6.47077V4.25H7.5V6.47077L10.9406 4.25H12Z" fill="white"/>
<path d="M6.75 4.25H5.25V7.39723H0V8.8505H5.25V12.0023H6.75V8.8505H12V7.39723H6.75V4.25Z" fill="#D80027"/>
<path d="M0 4.25V4.93576L2.69063 6.6706H3.75L0 4.25ZM12 4.25V4.93576L9.30938 6.6706H8.25L12 4.25Z" fill="#D80027"/>
<path d="M0 4.25V4.93576L2.69063 6.6706H3.75L0 4.25ZM12 4.25V4.93576L9.30938 6.6706H8.25L12 4.25ZM0 12.0023V11.3165L2.69063 9.57713H3.75L0 12.0023ZM12 12.0023V11.3165L9.30938 9.57713H8.25L12 12.0023Z" fill="#D80027"/>
<path d="M14.3953 10.0222V14.2003C14.3953 16.9979 18.1688 17.8562 18.1688 17.8562C18.1688 17.8562 21.9375 16.9933 21.9375 14.1958V10.0176L18.1641 8.97311L14.3953 10.0222Z" fill="#F3F3F3"/>
<path d="M21.9375 10.2811V8.71426H14.3953V10.2811H17.6297V13.4147H14.3953V14.4592H17.6297V17.6927C17.9531 17.8063 18.1688 17.8517 18.1688 17.8517C18.1688 17.8517 18.3844 17.8017 18.7078 17.6927V14.4592H21.9422V13.4147H18.7078V10.2811H21.9375Z" fill="#D80027"/>
</svg>
