<svg width="24" height="24" viewBox="0 0 24 24" fill="none" xmlns="http://www.w3.org/2000/svg">
<path d="M0 4.24773H24V19.7477H0V4.24773Z" fill="white"/>
<path d="M0 4.24773H24V9.41591H0V4.24773Z" fill="black"/>
<path d="M0 14.5841H24V19.7523H0V14.5841Z" fill="#428823"/>
<path d="M12 12L0 19.7477V4.24773L12 12ZM14.4891 12C14.4891 10.96 15.1031 10.088 16.1109 9.87459C15.9563 9.8428 15.7969 9.82464 15.6281 9.82464C14.3906 9.82464 13.3828 10.7965 13.3828 12C13.3828 13.2035 14.3859 14.1754 15.6281 14.1754C15.7922 14.1754 15.9563 14.1572 16.1109 14.1254C15.1031 13.9074 14.4891 13.04 14.4891 12Z" fill="#D80027"/>
<path d="M17.1094 10.1153L17.5922 11.5549H19.1531L17.8875 12.4451L18.3703 13.8847L17.1094 12.9946L15.8438 13.8847L16.3266 12.4451L15.0609 11.5549H16.6266L17.1094 10.1153Z" fill="#D80027"/>
</svg>
