<svg width="24" height="24" viewBox="0 0 24 24" fill="none" xmlns="http://www.w3.org/2000/svg">
<path d="M0 4.24991H24V19.7501H0V4.24991Z" fill="#00745A"/>
<path d="M13.3913 11.6768C13.1949 11.6768 13.0086 11.7147 12.8354 11.775C12.9302 11.5703 12.9937 11.3424 12.9937 11.0991C12.9937 10.1364 11.9999 9.41434 11.9999 9.41434C11.9999 9.41434 11.0061 10.1364 11.0061 11.0991C11.0061 11.3424 11.0697 11.5702 11.1645 11.775C10.9914 11.7147 10.805 11.6768 10.6086 11.6768C9.61476 11.6768 8.86945 12.6395 8.86945 12.6395C8.86945 12.6395 9.61481 13.6022 10.6086 13.6022C11.1912 13.6022 11.6881 13.2714 11.9999 12.9976C12.3116 13.2714 12.8085 13.6022 13.3912 13.6022C14.385 13.6022 15.1304 12.6395 15.1304 12.6395C15.1304 12.6395 14.3851 11.6768 13.3913 11.6768V11.6768Z" fill="white"/>
<path d="M12 7.28255L12.2053 7.8945H12.8696L12.3322 8.27285L12.5373 8.8848L12 8.50653L11.4627 8.8848L11.6678 8.27285L11.1304 7.8945H11.7947L12 7.28255ZM9.474 8.35296L9.86893 8.69739L10.3291 8.44005L10.1131 8.91028L10.5079 9.25485L9.97941 9.20104L9.76327 9.67126L9.65274 9.16775L9.12422 9.11394L9.58444 8.85651L9.474 8.35296ZM7.62479 10.1443L8.14463 10.2514L8.41032 9.80558L8.46591 10.3175L8.98571 10.4246L8.50022 10.634L8.55582 11.1459L8.20018 10.7634L7.71469 10.9728L7.98043 10.5269L7.62479 10.1443ZM14.5261 8.35296L14.1311 8.69739L13.6709 8.44005L13.8871 8.91028L13.4921 9.25485L14.0206 9.20104L14.2367 9.67126L14.3473 9.16775L14.8758 9.11394L14.4156 8.85651L14.5261 8.35296ZM16.3752 10.1443L15.8554 10.2514L15.5897 9.80558L15.5341 10.3175L15.0143 10.4246L15.4998 10.634L15.4443 11.1459L15.7999 10.7634L16.2854 10.9728L16.0196 10.5269L16.3752 10.1443Z" fill="#FFDA44"/>
<path d="M12 16.2979C12.7894 16.2979 13.517 16.0427 14.1008 15.6134H9.89935C10.483 16.0427 11.2106 16.2979 12 16.2979V16.2979ZM8.81143 14.2761C8.92137 14.5193 9.06062 14.7491 9.22628 14.9606H14.7737C14.9394 14.7491 15.0786 14.5193 15.1885 14.2761H8.81143Z" fill="white"/>
</svg>
