<svg width="24" height="24" viewBox="0 0 24 24" fill="none" xmlns="http://www.w3.org/2000/svg">
<path d="M0 4.25014H24V19.7503H0V4.25014Z" fill="#0052B4"/>
<path d="M12 4.25014V9.57793H9.84052L12 10.9729V12H10.9393L7.5 9.77856V12H4.5V9.77856L1.06069 12H0V10.9729L2.15948 9.57793H0V6.67168H2.15948L0 5.27718V4.25014H1.06069L4.5 6.47101V4.25014H7.5V6.47101L10.9393 4.25014H12Z" fill="white"/>
<path d="M6.75 4.24985H5.25V7.39827H0V8.8514H5.25V11.9999H6.75V8.8514H12V7.39827H6.75V4.24985Z" fill="#D80027"/>
<path d="M0 4.24969V4.93461L2.68955 6.67159H3.75L0 4.24969ZM12 4.24969V4.93461L9.31045 6.67159H8.25L12 4.24969Z" fill="#D80027"/>
<path d="M12 5.27706V6.6717H9.84052L12 5.27706Z" fill="#2E52B2"/>
<path d="M0 4.24969V4.93461L2.68955 6.67159H3.75L0 4.24969ZM12 4.24969V4.93461L9.31045 6.67159H8.25L12 4.24969Z" fill="#D80027"/>
<path d="M12 5.27706V6.6717H9.84052L12 5.27706Z" fill="#2E52B2"/>
<path d="M0 11.9999V11.315L2.68955 9.57796H3.75L0 11.9999ZM12 11.9999V11.315L9.31045 9.57796H8.25L12 11.9999Z" fill="#D80027"/>
<path d="M18 12.1683L15.8377 14.263C16.2429 15.0202 17.0588 15.5379 18 15.5379C18.9412 15.5379 19.7571 15.0202 20.1623 14.263L18 12.1683Z" fill="#FFDA44"/>
<path d="M15.5652 8.46181V12.1684C15.5653 13.9738 18 14.527 18 14.527C18 14.527 20.4347 13.9738 20.4348 12.1683V8.46181H15.5652Z" fill="#6DA544"/>
<path d="M17.4783 10.1464H18.5218V12.8419H17.4783V10.1464Z" fill="white"/>
<path d="M18 10.6518C18.2881 10.6518 18.5217 10.4255 18.5217 10.1464C18.5217 9.86727 18.2881 9.64098 18 9.64098C17.7119 9.64098 17.4783 9.86727 17.4783 10.1464C17.4783 10.4255 17.7119 10.6518 18 10.6518Z" fill="#A2001D"/>
<path d="M16.261 9.13552H16.9567V9.80941H16.261V9.13552ZM16.261 10.6519H16.9567V11.3257H16.261V10.6519ZM16.261 12.1681H16.9567V12.842H16.261V12.1681ZM19.0435 9.13552H19.7391V9.80941H19.0435V9.13552ZM19.0435 10.6519H19.7391V11.3257H19.0435V10.6519ZM19.0435 12.1681H19.7391V12.842H19.0435V12.1681Z" fill="#FFDA44"/>
</svg>
