<svg width="24" height="24" viewBox="0 0 24 24" fill="none" xmlns="http://www.w3.org/2000/svg">
<path d="M0 4.2498H24V19.75H0V4.2498Z" fill="#FFDA44"/>
<path d="M17.9941 19.7495L12 11.8311L13.2575 19.7495H17.9941ZM6.26086 4.24959L12 11.8311L10.796 4.24959H6.26086ZM10.7424 19.7495L12 11.8311L6.00581 19.7495H10.7424ZM0 4.24959V10.0426L12 11.8311L1.32811 4.24959H0ZM0 19.7495H0.853687L12 11.8311L0 13.6195V19.7495ZM12 11.8311L24 10.0426V4.24959H22.672L12 11.8311ZM13.204 4.24959L12 11.8311L17.7391 4.24959H13.204ZM24 19.7495V13.6196L12 11.8311L23.1463 19.7495H24Z" fill="#D80027"/>
<path d="M12 14.5269C13.5367 14.5269 14.7825 13.32 14.7825 11.8314C14.7825 10.3427 13.5367 9.13585 12 9.13585C10.4633 9.13585 9.21756 10.3427 9.21756 11.8314C9.21756 13.32 10.4633 14.5269 12 14.5269Z" fill="#D80027"/>
<path d="M12 13.8531C13.1526 13.8531 14.087 12.9479 14.087 11.8314C14.087 10.7148 13.1526 9.8096 12 9.8096C10.8474 9.8096 9.91302 10.7148 9.91302 11.8314C9.91302 12.9479 10.8474 13.8531 12 13.8531Z" fill="#FFDA44"/>
</svg>
