<svg width="24" height="24" viewBox="0 0 24 24" fill="none" xmlns="http://www.w3.org/2000/svg">
<g clip-path="url(#clip0_97_4458)">
<path d="M-0.00234985 4.25H24.0023V19.75H-0.00234985V4.25Z" fill="#10338C"/>
<path d="M4.67133 4.25H20.6713V19.75" fill="#F6C500"/>
<path d="M0.92865 5.20629L1.88304 4.53099L2.84678 5.20175L2.52397 4.25H1.24678L0.92865 5.20629Z" fill="white"/>
<path d="M4.31577 5.40568L3.94618 4.3089L3.58127 5.40568H2.39764L3.35671 6.07644L2.9918 7.16416L3.94618 6.4934L4.90992 7.16416L4.54033 6.07644L5.4994 5.40115L4.31577 5.40568Z" fill="white"/>
<path d="M6.37426 7.38624L6.00934 6.29852L5.64443 7.38624H4.46548L5.41987 8.06153L5.05496 9.14925L6.00934 8.47849L6.97309 9.14925L6.60817 8.06153L7.56256 7.38624H6.37426Z" fill="white"/>
<path d="M8.39062 9.33963L8.02571 8.24738L7.6608 9.33963H6.47717L7.43624 10.0149L7.07132 11.1026L8.02571 10.4319L8.98945 11.1026L8.61986 10.0149L9.57893 9.33509L8.39062 9.33963Z" fill="white"/>
<path d="M10.407 11.2885L10.0421 10.2007L9.6772 11.2885H8.48889L9.45263 11.9683L9.08772 13.056L10.0421 12.3807L10.9965 13.056L10.6316 11.9683L11.5953 11.2885H10.407Z" fill="white"/>
<path d="M12.4234 13.2418L12.0585 12.1541L11.6936 13.2418H10.5052L11.469 13.9171L11.1041 15.0094L12.0585 14.3341L13.0129 15.0094L12.6479 13.9126L13.607 13.2418H12.4234Z" fill="white"/>
<path d="M14.4398 15.1952L14.0702 14.1075L13.7053 15.1952H12.5216L13.4807 15.866L13.1111 16.9627L14.0749 16.2875L15.0292 16.9582L14.6643 15.866L15.6234 15.1952H14.4398Z" fill="white"/>
<path d="M16.4514 17.1485L16.0865 16.0518L15.7216 17.1485H14.538L15.4924 17.8193L15.1275 18.9116L16.0865 18.2363L17.0456 18.9116L16.6807 17.8193L17.6351 17.1485H16.4514Z" fill="white"/>
<path d="M18.1029 18.0051L17.7333 19.0974L16.5497 19.1019L17.476 19.75H18.7205L19.6515 19.0974H18.4678L18.1029 18.0051Z" fill="white"/>
</g>
<defs>
<clipPath id="clip0_97_4458">
<rect width="24" height="24" fill="white"/>
</clipPath>
</defs>
</svg>
