<svg width="24" height="24" viewBox="0 0 24 24" fill="none" xmlns="http://www.w3.org/2000/svg">
<path d="M0 4.24991H24V19.7501H0V4.24991Z" fill="#0052B4"/>
<path d="M0 4.24991H24V9.41645H0V4.24991Z" fill="#D80027"/>
<path d="M0 14.5832H24V19.7497H0V14.5832Z" fill="white"/>
<path d="M6.06882 8.63042V12.4965C6.06882 14.6956 9.03446 15.3694 9.03446 15.3694C9.03446 15.3694 12 14.6955 12 12.4965V8.63042H6.06882V8.63042Z" fill="#D80027"/>
<path d="M7.29534 9.30435H10.7735V7.95653L10.0778 8.29348L9.03436 7.28265L7.99096 8.29348L7.29534 7.95653V9.30435ZM11.3044 13.0347L9.04354 10.8445L6.78271 13.0347L7.52057 13.7495L9.04354 12.2741L10.5665 13.7495L11.3044 13.0347Z" fill="#FFDA44"/>
<path d="M11.3044 10.9891H10.2495C10.311 10.8868 10.3433 10.7706 10.3433 10.6522C10.3433 10.28 10.0318 9.97833 9.64767 9.97833C9.38221 9.97833 9.15168 10.1224 9.0344 10.3342C8.91712 10.1224 8.68654 9.97833 8.42114 9.97833C8.037 9.97833 7.72551 10.28 7.72551 10.6522C7.72551 10.7751 7.76001 10.8899 7.81931 10.9891H6.78271C6.78271 11.3613 7.11736 11.663 7.5015 11.663H7.47834C7.47834 12.0351 7.78978 12.3368 8.17397 12.3368C8.17397 12.6664 8.41823 12.9402 8.74087 12.9987L8.19271 14.1976C8.46287 14.3041 8.75179 14.3587 9.04345 14.3586C9.33511 14.3587 9.62403 14.3041 9.89418 14.1976L9.34603 12.9987C9.66867 12.9402 9.91293 12.6664 9.91293 12.3368C10.2971 12.3368 10.6086 12.0351 10.6086 11.663H10.5854C10.9697 11.663 11.3044 11.3613 11.3044 10.9891V10.9891Z" fill="white"/>
</svg>
