<svg width="24" height="24" viewBox="0 0 24 24" fill="none" xmlns="http://www.w3.org/2000/svg">
<g clip-path="url(#clip0_97_4135)">
<path d="M0 4.25003H24V9.4167H0V4.25003Z" fill="#20AA46"/>
<path d="M-3.05176e-05 14.5833H24V19.75H-3.05176e-05V14.5833Z" fill="#E92F3B"/>
<path d="M-3.05176e-05 9.41666H24V14.5833H-3.05176e-05V9.41666Z" fill="#FADF50"/>
<path d="M12.0529 17.3731C15.1162 17.3731 17.5996 14.9674 17.5996 11.9998C17.5996 9.03216 15.1162 6.62643 12.0529 6.62643C8.98955 6.62643 6.50623 9.03216 6.50623 11.9998C6.50623 14.9674 8.98955 17.3731 12.0529 17.3731Z" fill="#205CCA"/>
<path fill-rule="evenodd" clip-rule="evenodd" d="M12.0533 7.70013L13.0962 10.6048H16.5121L13.7552 12.5125L14.8056 15.5651L12.0533 13.6606L9.301 15.5651L10.3529 12.5081L7.73331 10.6048H11.0078L11.0537 10.4715L11.0578 10.4728L12.0533 7.70013ZM10.83 11.1215L10.5307 11.9914L9.33331 11.1215H10.83ZM10.8076 12.8203L10.3256 14.2212L11.5503 13.3737L10.8076 12.8203ZM12.5132 13.3439L13.781 14.2212L13.299 12.8205L12.5132 13.3439ZM13.6152 11.9745L14.8478 11.1215H13.2728L13.6152 11.9745ZM12.5315 10.6048L12.0533 9.27284L11.5751 10.6048H12.5315ZM11.3922 11.1215L10.9862 12.3015L12.0012 13.0579L13.1663 12.2819L12.7005 11.1215H11.3922Z" fill="#FFDB3D"/>
<path fill-rule="evenodd" clip-rule="evenodd" d="M13.5402 9.76115L14.6069 8.10782L14.833 8.24474L13.7664 9.89807L13.5402 9.76115ZM10.3434 10.0061L9.17008 8.35279L9.38983 8.20643L10.5632 9.85977L10.3434 10.0061ZM7.52496 13.4292L9.44496 12.7059L9.54162 12.9467L7.62162 13.67L7.52496 13.4292ZM14.6616 12.7059L16.5816 13.4292L16.485 13.67L14.565 12.9467L14.6616 12.7059ZM11.92 16.6496V14.6863H12.1866V16.6496H11.92Z" fill="#FFDB3D"/>
</g>
<defs>
<clipPath id="clip0_97_4135">
<rect width="24" height="24" fill="white"/>
</clipPath>
</defs>
</svg>
