<svg width="24" height="24" viewBox="0 0 24 24" fill="none" xmlns="http://www.w3.org/2000/svg">
<path d="M0 4.25003H24V19.75H0V4.25003Z" fill="#01237A"/>
<path d="M17.9649 7.48473L18.2121 8.22138H19.0116L18.3647 8.67664L18.6118 9.4133L17.9649 8.95795L17.3181 9.4133L17.5651 8.67664L16.9184 8.22138H17.7178L17.9649 7.48473ZM14.6803 8.80272L15.3927 9.15433L15.958 8.60671L15.833 9.37169L16.5454 9.72334L15.7557 9.84449L15.6306 10.6095L15.2676 9.9194L14.4779 10.0405L15.0434 9.49288L14.6803 8.80272ZM13.3198 11.9847L14.0802 11.7454L14.0802 10.9709L14.5501 11.5974L15.3105 11.358L14.8406 11.9847L15.3105 12.6113L14.5501 12.372L14.0802 12.9986V12.2241L13.3198 11.9847ZM14.6803 15.1667L15.0433 14.4765L14.4779 13.9288L15.2677 14.05L15.6306 13.3599L15.7557 14.1249L16.5454 14.246L15.833 14.5976L15.958 15.3628L15.3927 14.815L14.6803 15.1667ZM17.9649 16.4847L17.7178 15.748H16.9183L17.5651 15.2928L17.3181 14.5561L17.9649 15.0113L18.6118 14.5561L18.3647 15.2928L19.0116 15.748H18.2121L17.9649 16.4847ZM21.2495 15.1667L20.5371 14.8151L19.9718 15.3628L20.0968 14.5976L19.3845 14.2461L20.1741 14.1249L20.2993 13.3599L20.6621 14.05L21.4519 13.9288L20.8865 14.4765L21.2495 15.1667ZM22.6101 11.9847L21.8496 12.2241V12.9986L21.3797 12.372L20.6193 12.6113L21.0893 11.9847L20.6193 11.358L21.3797 11.5974L21.8496 10.9709V11.7454L22.6101 11.9847ZM21.2495 8.80281L20.8866 9.49288L21.4519 10.0405L20.6621 9.9194L20.2993 10.6095L20.1741 9.84449L19.3845 9.72325L20.0968 9.37169L19.9718 8.60675L20.5371 9.15433L21.2495 8.80281ZM0 8.84256V9.56771H2.15527L0 10.9596V11.3013L2.6843 9.56766H3.74269L0 11.9848H5.23977V8.84252H0V8.84256ZM4.49123 11.9848H1.05862L4.49123 9.76794V11.9848ZM8.23392 6.66712L11.9766 4.24994H6.73684V7.39227H11.9766V6.66712H9.82133L11.9766 5.27511V4.93343L9.2923 6.66703H8.23392V6.66712ZM7.48538 4.25003H10.918L7.48538 6.46685V4.25003ZM6.73684 11.9848H11.9766L8.23392 9.56766H9.2923L11.9766 11.3014V10.9597L9.82133 9.56771H11.9766V8.84256H6.73684V11.9848ZM7.48538 9.76794L10.918 11.9848H7.48538V9.76794ZM5.23977 4.24994H0L3.74269 6.66712H2.6843L0 4.93348V5.27516L2.15527 6.66708H0V7.39222H5.23977V4.24994ZM4.49123 6.46685L1.05862 4.25003H4.49123V6.46685Z" fill="white"/>
<path d="M6.73684 4.24994H5.23977V7.39227H0V8.84256H5.23977V11.9848H6.73684V8.84256H11.9766V7.39227H6.73684V4.24994Z" fill="#D80027"/>
<path d="M3.74269 6.66712L0 4.24994V4.93348L2.6843 6.66712H3.74269ZM8.23392 6.66712H9.2923L11.9766 4.93348V4.24994L8.23392 6.66712ZM2.6843 9.56771L0 11.3014V11.9848L3.74269 9.56771H2.6843ZM8.23392 9.56771L11.9766 11.9848V11.3014L9.2923 9.56771H8.23392Z" fill="#D80027"/>
</svg>
