<svg width="24" height="24" viewBox="0 0 24 24" fill="none" xmlns="http://www.w3.org/2000/svg">
<path d="M0 4.25H24V19.75H0V4.25Z" fill="#0052B4"/>
<path d="M23.9532 10.9757V12.9925H13.0199V19.7183H10.9333V12.9925H0V10.9757H10.9333V4.25H13.0199V10.9757H23.9532Z" fill="white"/>
<path d="M4.72516 5.88611C4.92165 5.87704 5.11347 5.88158 5.30996 5.89517C5.56727 5.9133 5.74972 5.96769 5.73569 5.91783C5.7123 5.83626 5.73101 5.81813 5.69826 5.83626C5.63744 5.88158 5.73101 5.82719 5.35206 6.03567C4.80002 6.33933 4.56142 6.57047 4.68306 6.98742C4.79066 7.35453 5.06668 7.45424 5.72633 7.55395L5.81522 7.56754C6.07721 7.60833 6.19417 7.63099 6.2737 7.66725C6.29241 7.67631 6.25967 7.62193 6.26902 7.5902C6.25967 7.6174 6.08657 7.68538 5.6468 7.76696L5.42692 7.80775C4.58013 7.97544 4.15908 8.19298 4.09358 8.7595C4.02341 9.38041 4.68774 9.8155 5.52516 9.91973C6.37662 10.0285 7.12048 9.75658 7.19534 9.08582C7.24212 8.65979 6.93803 8.40599 6.45148 8.31082C6.12399 8.24737 5.68891 8.24737 5.16961 8.29722C4.58949 8.35614 4.01405 8.45131 3.44329 8.58275C3.27487 8.61447 3.16727 8.7731 3.20002 8.93626C3.23277 9.09941 3.39651 9.20365 3.56493 9.17193C3.57429 9.17193 3.57896 9.1674 3.58832 9.1674C4.13101 9.04503 4.67838 8.95438 5.23043 8.9C5.69358 8.85468 6.07253 8.85468 6.32516 8.90453C6.53101 8.94532 6.57312 8.98158 6.56844 9.02237C6.54505 9.25351 6.15206 9.394 5.60002 9.32602C5.05733 9.25804 4.68774 9.01783 4.70645 8.82748C4.72984 8.6326 4.9544 8.5193 5.54388 8.40146L5.75908 8.36067C6.48423 8.22471 6.74622 8.12047 6.8585 7.76242C6.94739 7.46783 6.79768 7.23669 6.52165 7.11886C6.37195 7.05541 6.22692 7.02368 5.90411 6.97836L5.8199 6.96476C5.44563 6.90585 5.28657 6.84693 5.28189 6.8288C5.27721 6.81067 5.3661 6.72456 5.66084 6.5614L5.86668 6.4481C5.93686 6.41184 6.00236 6.36652 6.06785 6.32573C6.28306 6.17164 6.4047 6.00395 6.3392 5.76827C6.25031 5.43742 5.91815 5.33772 5.36142 5.29693C5.14154 5.28333 4.92633 5.2788 4.70645 5.28333L4.61288 5.28786C4.43978 5.29693 4.30879 5.44196 4.31815 5.60511C4.3275 5.7728 4.47721 5.89971 4.64563 5.89064L4.72516 5.88611ZM18.0117 5.88611C18.2082 5.87704 18.4 5.88158 18.5965 5.89517C18.8538 5.9133 19.0363 5.96769 19.0222 5.91783C18.9988 5.83626 19.0176 5.81813 18.9848 5.83626C18.924 5.88158 19.0176 5.82719 18.6386 6.03567C18.0866 6.33933 17.848 6.57047 17.9696 6.98742C18.0772 7.35453 18.3532 7.45424 19.0129 7.55395L19.1018 7.56754C19.3638 7.60833 19.4807 7.63099 19.5603 7.66725C19.579 7.67631 19.5462 7.62193 19.5556 7.5902C19.5462 7.6174 19.3731 7.68538 18.9334 7.76696L18.7135 7.80775C17.8667 7.97544 17.4456 8.19298 17.3801 8.7595C17.31 9.38041 17.9743 9.8155 18.8117 9.91973C19.6632 10.0285 20.407 9.75658 20.4819 9.08582C20.5287 8.65979 20.2246 8.40599 19.738 8.31082C19.4105 8.24737 18.9755 8.24737 18.4562 8.29722C17.876 8.35614 17.3006 8.45131 16.7298 8.58275C16.5614 8.61447 16.4538 8.7731 16.4866 8.93626C16.5193 9.09941 16.6831 9.20365 16.8515 9.17193C16.8608 9.17193 16.8655 9.1674 16.8749 9.1674C17.4176 9.04503 17.9649 8.95438 18.517 8.9C18.9801 8.85468 19.3591 8.85468 19.6117 8.90453C19.8176 8.94532 19.8597 8.98158 19.855 9.02237C19.8316 9.25351 19.4386 9.394 18.8866 9.32602C18.3439 9.25804 17.9743 9.01783 17.993 8.82748C18.0164 8.6326 18.241 8.5193 18.8304 8.40146L19.0456 8.36067C19.7708 8.22471 20.0328 8.12047 20.145 7.76242C20.2339 7.46783 20.0842 7.23669 19.8082 7.11886C19.6585 7.05541 19.5135 7.02368 19.1907 6.97836L19.1064 6.96476C18.7322 6.90585 18.5731 6.84693 18.5684 6.8288C18.5638 6.81067 18.6526 6.72456 18.9474 6.5614L19.1532 6.4481C19.2234 6.41184 19.2889 6.36652 19.3544 6.32573C19.5696 6.17164 19.6912 6.00395 19.6257 5.76827C19.5369 5.43742 19.2047 5.33772 18.648 5.29693C18.4281 5.28333 18.2129 5.2788 17.993 5.28333L17.8994 5.28786C17.7263 5.29693 17.5953 5.44196 17.6047 5.60511C17.6141 5.7728 17.7638 5.89971 17.9322 5.89064L18.0117 5.88611V5.88611ZM17.7591 14.9051C17.9556 14.8961 18.1474 14.9006 18.3439 14.9142C18.6012 14.9323 18.7836 14.9867 18.7696 14.9368C18.7462 14.8553 18.7649 14.8371 18.7322 14.8553C18.6714 14.9006 18.7649 14.8462 18.386 15.0547C17.8339 15.3583 17.5953 15.5895 17.717 16.0064C17.8246 16.3735 18.1006 16.4732 18.7603 16.573L18.8491 16.5865C19.1111 16.6273 19.2281 16.65 19.3076 16.6863C19.3263 16.6953 19.2936 16.6409 19.3029 16.6092C19.2936 16.6364 19.1205 16.7044 18.6807 16.786L18.4608 16.8268C17.6141 16.9944 17.193 17.212 17.1275 17.7785C17.0573 18.3994 17.7217 18.8345 18.5591 18.9387C19.4105 19.0475 20.1544 18.7756 20.2293 18.1048C20.276 17.6788 19.9719 17.425 19.4854 17.3298C19.1579 17.2664 18.7228 17.2664 18.2035 17.3162C17.6234 17.3751 17.048 17.4703 16.4772 17.6018C16.3088 17.6335 16.2012 17.7921 16.2339 17.9553C16.2667 18.1184 16.4304 18.2227 16.5988 18.1909C16.6082 18.1909 16.6129 18.1864 16.6222 18.1864C17.1649 18.064 17.7123 17.9734 18.2643 17.919C18.7275 17.8737 19.1064 17.8737 19.3591 17.9235C19.5649 17.9643 19.607 18.0006 19.6024 18.0414C19.579 18.2725 19.186 18.413 18.6339 18.345C18.0912 18.277 17.7217 18.0368 17.7404 17.8465C17.7638 17.6516 17.9883 17.5383 18.5778 17.4205L18.793 17.3797C19.5181 17.2437 19.7801 17.1395 19.8924 16.7814C19.9813 16.4868 19.8316 16.2557 19.5556 16.1379C19.4059 16.0744 19.2608 16.0427 18.938 15.9974L18.8538 15.9838C18.4795 15.9249 18.3205 15.8659 18.3158 15.8478C18.3111 15.8297 18.4 15.7436 18.6948 15.5804L18.9006 15.4671C18.9708 15.4308 19.0363 15.3855 19.1018 15.3447C19.317 15.1906 19.4386 15.023 19.3731 14.7873C19.2842 14.4564 18.9521 14.3567 18.3953 14.3159C18.1755 14.3023 17.9603 14.2978 17.7404 14.3023L17.6468 14.3069C17.4737 14.3159 17.3427 14.461 17.3521 14.6241C17.3614 14.7873 17.5111 14.9187 17.6795 14.9096L17.7591 14.9051V14.9051ZM4.72516 14.9051C4.92165 14.8961 5.11347 14.9006 5.30996 14.9142C5.56727 14.9323 5.74972 14.9867 5.73569 14.9368C5.7123 14.8553 5.73101 14.8371 5.69826 14.8553C5.63744 14.9006 5.73101 14.8462 5.35206 15.0547C4.80002 15.3583 4.56142 15.5895 4.68306 16.0064C4.79066 16.3735 5.06668 16.4732 5.72633 16.573L5.81522 16.5865C6.07721 16.6273 6.19417 16.65 6.2737 16.6863C6.29241 16.6953 6.25967 16.6409 6.26902 16.6092C6.25967 16.6364 6.08657 16.7044 5.6468 16.786L5.42692 16.8268C4.58013 16.9944 4.15908 17.212 4.09358 17.7785C4.02341 18.3994 4.68774 18.8345 5.52516 18.9387C6.37662 19.0475 7.12048 18.7756 7.19534 18.1048C7.24212 17.6788 6.93803 17.425 6.45148 17.3298C6.12399 17.2664 5.68891 17.2664 5.16961 17.3162C4.58949 17.3751 4.01405 17.4703 3.44329 17.6018C3.27487 17.6335 3.16727 17.7921 3.20002 17.9553C3.23277 18.1184 3.39651 18.2227 3.56493 18.1909C3.57429 18.1909 3.57896 18.1864 3.58832 18.1864C4.13101 18.064 4.67838 17.9734 5.23043 17.919C5.69358 17.8737 6.07253 17.8737 6.32516 17.9235C6.53101 17.9643 6.57312 18.0006 6.56844 18.0414C6.54505 18.2725 6.15206 18.413 5.60002 18.345C5.05733 18.277 4.68774 18.0368 4.70645 17.8465C4.72984 17.6516 4.9544 17.5383 5.54388 17.4205L5.75908 17.3797C6.48423 17.2437 6.74622 17.1395 6.8585 16.7814C6.94739 16.4868 6.79768 16.2557 6.52165 16.1379C6.37195 16.0744 6.22692 16.0427 5.90411 15.9974L5.8199 15.9838C5.44563 15.9249 5.28657 15.8659 5.28189 15.8478C5.27721 15.8297 5.3661 15.7436 5.66084 15.5804L5.86668 15.4671C5.93686 15.4308 6.00236 15.3855 6.06785 15.3447C6.28306 15.1906 6.4047 15.023 6.3392 14.7873C6.25031 14.4564 5.91815 14.3567 5.36142 14.3159C5.14154 14.3023 4.92633 14.2978 4.70645 14.3023L4.61288 14.3069C4.43978 14.3159 4.30879 14.461 4.31815 14.6241C4.3275 14.7918 4.47721 14.9187 4.64563 14.9096L4.72516 14.9051V14.9051Z" fill="white"/>
</svg>
