<svg width="24" height="24" viewBox="0 0 24 24" fill="none" xmlns="http://www.w3.org/2000/svg">
<path d="M0 4.25H24V19.75H0V4.25Z" fill="#0052B4"/>
<path d="M0 12H12V4.25H24V19.75H0V12Z" fill="#00B2EE"/>
<path d="M9.208 16.6733L9.992 19.0138L7.936 17.5671H10.48L8.424 19.0138L9.208 16.6733V16.6733ZM18.8373 13.0333L19.6213 15.3738L17.5653 13.9272H20.1067L18.0507 15.3738L18.8373 13.0333ZM21.6747 11.0054L22.4587 13.3459L20.4027 11.8993H22.944L20.888 13.3459L21.6747 11.0054V11.0054ZM21.6747 5.21617L22.4587 7.55667L20.4027 6.11H22.944L20.888 7.55667L21.6747 5.21617V5.21617Z" fill="#FFDA44"/>
<path d="M11.9973 4.25V9.57942H9.83733L11.9973 10.9744V12H10.9387L7.49867 9.78092V12H4.49867V9.78092L1.05867 12H0V10.9744L2.16 9.57942H0V6.67317H2.16L0 5.28075V4.25H1.05867L4.49867 6.46908V4.25H7.49867V6.46908L10.9387 4.25H11.9973Z" fill="white"/>
<path d="M6.74933 4.25H5.248V7.40167H0V8.8535H5.248V12H6.74933V8.8535H11.9973V7.40167H6.74933V4.25Z" fill="#D80027"/>
<path d="M11.9973 5.28075V6.67317H9.83734L11.9973 5.28075Z" fill="#2E52B2"/>
<path d="M0 12.0001V11.5015L2.93067 9.5795H3.98933L0.341333 12.0001H0ZM0.341333 4.25267L3.98933 6.67325H2.93067L0 4.75125V4.25267H0.341333ZM11.9973 4.25525V4.75383L9.06667 6.67325H8.008L11.656 4.25525H11.9973ZM11.656 12.0001L8.008 9.5795H9.06667L11.9973 11.5015V12.0001H11.656Z" fill="#D80027"/>
<path d="M19.1973 7.64967L19.9813 9.99017L17.9253 8.5435H20.4667L18.4107 9.99017L19.1973 7.64967V7.64967ZM15.5733 9.09892L16.3573 11.4394L14.3013 9.99275H16.8427L14.7867 11.4394L15.5733 9.09892V9.09892ZM16.3733 15.3738L17.1573 17.7143L15.1013 16.2677H17.6427L15.5867 17.7143L16.3733 15.3738V15.3738ZM13.0133 12.8267L13.7973 15.1672L11.7413 13.7205H14.2827L12.2267 15.1672L13.0133 12.8267ZM13.0133 16.2367L13.7973 18.5772L11.7413 17.1305H14.2827L12.2267 18.5772L13.0133 16.2367Z" fill="#FFDA44"/>
</svg>
