<svg width="24" height="24" viewBox="0 0 24 24" fill="none" xmlns="http://www.w3.org/2000/svg">
<path d="M0 4.25H24V19.75H0V4.25Z" fill="#FFDA44"/>
<path d="M0 12.0023H24V15.8761H0V12.0023Z" fill="#0052B4"/>
<path d="M0 15.8761H24V19.75H0V15.8761Z" fill="#D80027"/>
<path d="M12 14.6999C13.5378 14.6999 14.7844 13.4921 14.7844 12.0023C14.7844 10.5124 13.5378 9.30466 12 9.30466C10.4622 9.30466 9.21564 10.5124 9.21564 12.0023C9.21564 13.4921 10.4622 14.6999 12 14.6999Z" fill="#FFDA44"/>
<path d="M17.3063 7.87861C17.3063 7.87861 16.0313 7.25189 15.7172 7.15198C15.4031 7.05207 13.4156 6.55251 13.4156 6.83408C13.4156 7.30185 12.7828 7.37905 12.6891 7.37905C12.5953 7.37905 12.5953 7.13836 11.9953 7.13836C11.3953 7.13836 11.3531 7.35635 11.2547 7.35635C11.1516 7.35635 10.575 7.31093 10.575 6.83408C10.575 6.59792 8.56407 7.01574 8.27345 7.15198C7.98751 7.29277 6.68439 7.87861 6.68439 7.87861C6.68439 7.87861 8.83126 8.00123 9.21095 8.16018C9.59064 8.31914 11.2641 8.90953 11.2641 8.90953L11.1328 9.51354H12.9047L12.7266 8.90953C12.7266 8.90953 14.3719 8.33276 14.7797 8.16018C15.1875 7.98761 17.3063 7.87861 17.3063 7.87861Z" fill="#4C1F00"/>
<path d="M10.2047 12.0477C10.2047 13.0059 11.011 13.7871 12 13.7871C12.9891 13.7871 13.7953 13.0059 13.7953 12.0477V11.5254H10.2094V12.0477H10.2047Z" fill="#57BA17"/>
<path d="M12 9.26831C11.011 9.26831 10.2047 10.0494 10.2047 11.0077V11.53H13.7906V11.0077C13.7953 10.0494 12.9891 9.26831 12 9.26831Z" fill="#338AF3"/>
</svg>
