<svg width="24" height="24" viewBox="0 0 24 24" fill="none" xmlns="http://www.w3.org/2000/svg">
<path d="M0 4.25H24V19.75H0V4.25Z" fill="white"/>
<path d="M0 4.25H24V9.41667H0V4.25ZM0 14.5833H24V19.75H0V14.5833ZM9.52047 9.59342L9.83392 10.3458L10.6573 10.3911L10.0023 10.8851L10.2222 11.6873L9.52047 11.2386L8.81871 11.6873L9.0386 10.8851L8.38363 10.3911L9.20702 10.3458L9.52047 9.59342ZM14.4327 9.59342L14.7462 10.3458L15.5696 10.3911L14.9146 10.8851L15.1345 11.6873L14.4327 11.2386L13.731 11.6873L13.9509 10.8851L13.2959 10.3911L14.1193 10.3458L14.4327 9.59342ZM11.9766 10.9395L12.2901 11.6918L13.1134 11.7371L12.4585 12.2311L12.6784 13.0333L11.9766 12.5846L11.2749 13.0333L11.4947 12.2311L10.8398 11.7371L11.6632 11.6918L11.9766 10.9395ZM9.52047 12.2855L9.83392 13.0379L10.6573 13.0832L10.0023 13.5772L10.2222 14.3749L9.52047 13.9262L8.81871 14.3749L9.0386 13.5772L8.38363 13.0832L9.20702 13.0379L9.52047 12.2855ZM14.4327 12.2855L14.7462 13.0379L15.5696 13.0832L14.9146 13.5772L15.1345 14.3749L14.4327 13.9262L13.731 14.3749L13.9509 13.5772L13.2959 13.0832L14.1193 13.0379L14.4327 12.2855Z" fill="#338AF3"/>
</svg>
