<svg width="24" height="24" viewBox="0 0 24 24" fill="none" xmlns="http://www.w3.org/2000/svg">
<path d="M0 4.25013H24V19.7503H0V4.25013Z" fill="#496E2D"/>
<path d="M0 19.7497V4.24968H24" fill="#0052B4"/>
<path d="M0 18.3797V19.7497H2.12133L24 5.61971V4.24968H21.8787L0 18.3797Z" fill="#FFDA44"/>
<path d="M4.01663 5.31503L4.25662 6.03051H5.03316L4.40489 6.47267L4.64489 7.1882L4.01663 6.74599L3.38827 7.1882L3.62827 6.47267L3 6.03051H3.77658L4.01663 5.31503ZM7.98337 5.31503L8.22342 6.03051H9L8.37173 6.47267L8.61173 7.1882L7.98337 6.74599L7.35511 7.1882L7.59511 6.47267L6.96684 6.03051H7.74338L7.98337 5.31503ZM4.01663 9.06146L4.25662 9.77694H5.03316L4.40489 10.2191L4.64489 10.9347L4.01663 10.4924L3.38827 10.9347L3.62827 10.2191L3 9.77694H3.77658L4.01663 9.06146ZM7.98337 9.06146L8.22342 9.77694H9L8.37173 10.2191L8.61173 10.9347L7.98337 10.4924L7.35511 10.9347L7.59511 10.2191L6.96684 9.77694H7.74338L7.98337 9.06146ZM6 7.1882L6.24 7.90368H7.01663L6.38827 8.34589L6.62827 9.06146L6 8.61921L5.37173 9.06146L5.61173 8.34589L4.98337 7.90368H5.76L6 7.1882Z" fill="white"/>
</svg>
