<svg width="24" height="24" viewBox="0 0 24 24" fill="none" xmlns="http://www.w3.org/2000/svg">
<path d="M0 4.24774H24V19.7477H0V4.24774Z" fill="white"/>
<path d="M0 4.24774H24V9.41592H0V4.24774Z" fill="#D80027"/>
<path d="M0 14.5841H24V19.7523H0V14.5841Z" fill="black"/>
<path d="M10.3265 13.5305C10.3265 13.5305 10.3265 10.8783 10.5375 10.5921C10.6828 10.3969 11.325 10.8283 11.6015 10.7965C11.6015 10.7965 11.7984 10.4559 11.8125 10.2515C11.8265 10.0426 11.7609 9.90639 11.5828 9.96997C11.5828 9.96997 11.5265 9.8746 11.6062 9.8201C11.6812 9.7656 11.8687 9.82464 11.8687 9.82464C11.8687 9.82464 11.8453 9.77923 11.9437 9.78377C12.0797 9.79285 12.2812 9.84735 12.2906 10.0381C12.3 10.1789 12.3047 10.3878 12.3094 10.4332C12.3422 10.742 12.4359 10.8283 12.4359 10.8283C12.4359 10.8283 13.2984 10.4105 13.4672 10.5921C13.6219 10.7647 13.6781 13.5305 13.6781 13.5305L12.8297 12.7675L13.3969 14.1072C13.3969 14.1072 12.7219 14.2162 12.0422 14.2162C11.3625 14.2162 10.5844 14.0255 10.5844 14.0255L11.2312 12.7448L10.3265 13.5305Z" fill="#C09300"/>
</svg>
