<svg width="24" height="24" viewBox="0 0 24 24" fill="none" xmlns="http://www.w3.org/2000/svg">
<path d="M24 4.25H0V19.75H24V4.25Z" fill="#FEFEFE"/>
<path fill-rule="evenodd" clip-rule="evenodd" d="M13.3683 9.18614H12.4917V8.95637H12.1683V9.06561H12.3967V9.18803H12.06V8.82266H12.5033V8.52509H12.395V8.70212H11.0033V8.52509H10.9067V9.41968H11.0033V9.31044H11.1233V9.41968H11.22V9.31044H11.34V9.41968H11.4367V9.31044H11.965V9.41968H12.0617V9.31044H12.3983V9.41968H12.495V9.31044H13.3717V9.18803L13.3683 9.18614ZM11.22 9.18614V9.06372H11.34V9.18614H11.22ZM11.4367 9.18614V8.95637H11.125V9.18614H11.005V8.82077H11.545V9.06561H11.8683V8.95637H11.64V8.82077H11.9633V9.18614H11.435H11.4367Z" fill="#249F40"/>
<path d="M12.7083 8.52145H12.6117V9.05068H12.7083V8.52145Z" fill="#249F40"/>
<path d="M12.925 8.52145H12.8283V9.05068H12.925V8.52145Z" fill="#249F40"/>
<path fill-rule="evenodd" clip-rule="evenodd" d="M11.2317 9.18614H10.355V8.95637H10.0317V9.06561H10.26V9.18803H9.92335V8.82266H10.3667V8.52509H10.2584V8.70212H8.86669V8.52509H8.77002V9.41968H8.86669V9.31044H8.98669V9.41968H9.08335V9.31044H9.20335V9.41968H9.30002V9.31044H9.82835V9.41968H9.92502V9.31044H10.2617V9.41968H10.3584V9.31044H11.235V9.18803L11.2317 9.18614ZM9.08335 9.18614V9.06372H9.20335V9.18614H9.08335ZM9.30002 9.18614V8.95637H8.98835V9.18614H8.86835V8.82077H9.40835V9.06561H9.73169V8.95637H9.50335V8.82077H9.82669V9.18614H9.29835H9.30002Z" fill="#249F40"/>
<path d="M10.5734 8.52145H10.4767V9.05068H10.5734V8.52145Z" fill="#249F40"/>
<path d="M10.7883 8.52145H10.6917V9.05068H10.7883V8.52145Z" fill="#249F40"/>
<path fill-rule="evenodd" clip-rule="evenodd" d="M17.6284 9.18614H16.7517V8.95637H16.4284V9.06561H16.6567V9.18803H16.32V8.82266H16.7634V8.52509H16.655V8.70212H15.2634V8.52509H15.1667V9.41968H15.2634V9.31044H15.3834V9.41968H15.48V9.31044H15.6V9.41968H15.6967V9.31044H16.225V9.41968H16.3217V9.31044H16.6584V9.41968H16.755V9.31044H17.6317V9.18803L17.6284 9.18614ZM15.48 9.18614V9.06372H15.6V9.18614H15.48ZM15.6967 9.18614V8.95637H15.385V9.18614H15.265V8.82077H15.805V9.06561H16.1284V8.95637H15.9V8.82077H16.2234V9.18614H15.695H15.6967Z" fill="#249F40"/>
<path d="M16.9683 8.52145H16.8717V9.05068H16.9683V8.52145Z" fill="#249F40"/>
<path d="M17.185 8.52145H17.0883V9.05068H17.185V8.52145Z" fill="#249F40"/>
<path fill-rule="evenodd" clip-rule="evenodd" d="M15.5034 9.18614H14.6267V8.95637H14.3034V9.06561H14.5317V9.18803H14.195V8.82266H14.6384V8.52509H14.53V8.70212H13.1384V8.52509H13.0417V9.41968H13.1384V9.31044H13.2584V9.41968H13.355V9.31044H13.475V9.41968H13.5717V9.31044H14.1V9.41968H14.1967V9.31044H14.5334V9.41968H14.63V9.31044H15.5067V9.18803L15.5034 9.18614ZM13.3567 9.18614V9.06372H13.4767V9.18614H13.3567ZM13.5717 9.18614V8.95637H13.26V9.18614H13.14V8.82077H13.68V9.06561H14.0034V8.95637H13.775V8.82077H14.0984V9.18614H13.57H13.5717Z" fill="#249F40"/>
<path d="M14.845 8.52145H14.7484V9.05068H14.845V8.52145Z" fill="#249F40"/>
<path d="M15.06 8.52145H14.9633V9.05068H15.06V8.52145Z" fill="#249F40"/>
<path fill-rule="evenodd" clip-rule="evenodd" d="M21.8883 9.18614H21.0117V8.95637H20.6883V9.06561H20.9167V9.18803H20.58V8.82266H21.0233V8.52509H20.915V8.70212H19.5233V8.52509H19.4267V9.41968H19.5233V9.31044H19.6433V9.41968H19.74V9.31044H19.86V9.41968H19.9567V9.31044H20.485V9.41968H20.5817V9.31044H20.9183V9.41968H21.015V9.31044H21.8917V9.18803L21.8883 9.18614ZM19.74 9.18614V9.06372H19.86V9.18614H19.74ZM19.9567 9.18614V8.95637H19.645V9.18614H19.525V8.82077H20.065V9.06561H20.3883V8.95637H20.16V8.82077H20.4833V9.18614H19.955H19.9567Z" fill="#249F40"/>
<path d="M21.2283 8.52145H21.1317V9.05068H21.2283V8.52145Z" fill="#249F40"/>
<path d="M21.445 8.52145H21.3483V9.05068H21.445V8.52145Z" fill="#249F40"/>
<path fill-rule="evenodd" clip-rule="evenodd" d="M19.7633 9.18614H18.8867V8.95637H18.5633V9.06561H18.7917V9.18803H18.455V8.82266H18.8983V8.52509H18.79V8.70212H17.3983V8.52509H17.3017V9.41968H17.3983V9.31044H17.5183V9.41968H17.615V9.31044H17.735V9.41968H17.8317V9.31044H18.36V9.41968H18.4567V9.31044H18.7933V9.41968H18.89V9.31044H19.7667V9.18803L19.7633 9.18614ZM17.6167 9.18614V9.06372H17.7367V9.18614H17.6167ZM17.8317 9.18614V8.95637H17.52V9.18614H17.4V8.82077H17.94V9.06561H18.2633V8.95637H18.035V8.82077H18.3583V9.18614H17.83H17.8317Z" fill="#249F40"/>
<path d="M19.105 8.52145H19.0083V9.05068H19.105V8.52145Z" fill="#249F40"/>
<path d="M19.32 8.52145H19.2233V9.05068H19.32V8.52145Z" fill="#249F40"/>
<path fill-rule="evenodd" clip-rule="evenodd" d="M23.8384 9.27089C23.8384 9.24076 23.8417 9.21251 23.85 9.18614H23.1484V8.95637H22.825V9.06561H23.0534V9.18803H22.7167V8.82266H23.16V8.52509H23.0517V8.70212H21.66V8.52509H21.5634V9.41968H21.66V9.31044H21.78V9.41968H21.8767V9.31044H21.9967V9.41968H22.0934V9.31044H22.6217V9.41968H22.7184V9.31044H23.055V9.41968H23.1517V9.31044H23.845C23.845 9.29914 23.8434 9.28596 23.8434 9.27278L23.8384 9.27089ZM21.9967 9.18614H21.8767V9.06372H21.9967V9.18614ZM22.62 9.18614H22.0917V8.95637H21.78V9.18614H21.66V8.82077H22.2V9.06561H22.5234V8.95637H22.295V8.82077H22.6184V9.18614H22.62Z" fill="#249F40"/>
<path d="M23.365 8.52145H23.2683V9.05068H23.365V8.52145Z" fill="#249F40"/>
<path d="M23.58 8.52145H23.4834V9.05068H23.58V8.52145Z" fill="#249F40"/>
<path fill-rule="evenodd" clip-rule="evenodd" d="M4.84836 9.18614H3.97169V8.95637H3.64835V9.06561H3.87669V9.18803H3.54002V8.82266H3.98335V8.52509H3.87502V8.70212H2.48335V8.52509H2.38669V9.41968H2.48335V9.31044H2.60335V9.41968H2.70002V9.31044H2.82002V9.41968H2.91669V9.31044H3.44502V9.41968H3.54169V9.31044H3.87836V9.41968H3.97502V9.31044H4.85169V9.18803L4.84836 9.18614ZM2.70002 9.18614V9.06372H2.82002V9.18614H2.70002ZM2.91669 9.18614V8.95637H2.60502V9.18614H2.48502V8.82077H3.02502V9.06561H3.34836V8.95637H3.12002V8.82077H3.44335V9.18614H2.91502H2.91669Z" fill="#249F40"/>
<path d="M4.18834 8.52145H4.09167V9.05068H4.18834V8.52145Z" fill="#249F40"/>
<path d="M4.40502 8.52145H4.30835V9.05068H4.40502V8.52145Z" fill="#249F40"/>
<path fill-rule="evenodd" clip-rule="evenodd" d="M2.71168 9.18614H1.83501V8.95637H1.51168V9.06561H1.74001V9.18803H1.40335V8.82266H1.84668V8.52509H1.73835V8.70212H0.348345V8.52509H0.251678V9.41968H0.348345V9.31044H0.468345V9.41968H0.565012V9.31044H0.685012V9.41968H0.781678V9.31044H1.31001V9.41968H1.40668V9.31044H1.74335V9.41968H1.84001V9.31044H2.71668V9.18803L2.71168 9.18614ZM0.563345 9.18614V9.06372H0.683345V9.18614H0.563345ZM0.780012 9.18614V8.95637H0.468345V9.18614H0.348345V8.82077H0.888345V9.06561H1.21168V8.95637H0.983345V8.82077H1.30668V9.18614H0.778345H0.780012Z" fill="#249F40"/>
<path d="M2.05333 8.52145H1.95667V9.05068H2.05333V8.52145Z" fill="#249F40"/>
<path d="M2.26836 8.52145H2.17169V9.05068H2.26836V8.52145Z" fill="#249F40"/>
<path fill-rule="evenodd" clip-rule="evenodd" d="M9.10833 9.18614H8.23167V8.95637H7.90833V9.06561H8.13667V9.18803H7.8V8.82266H8.24333V8.52509H8.135V8.70212H6.74333V8.52509H6.64667V9.41968H6.74333V9.31044H6.86333V9.41968H6.96V9.31044H7.08V9.41968H7.17667V9.31044H7.705V9.41968H7.80167V9.31044H8.13833V9.41968H8.235V9.31044H9.11167V9.18803L9.10833 9.18614ZM6.96 9.18614V9.06372H7.08V9.18614H6.96ZM7.17667 9.18614V8.95637H6.865V9.18614H6.745V8.82077H7.285V9.06561H7.60833V8.95637H7.38V8.82077H7.70333V9.18614H7.175H7.17667Z" fill="#249F40"/>
<path d="M8.44832 8.52145H8.35165V9.05068H8.44832V8.52145Z" fill="#249F40"/>
<path d="M8.665 8.52145H8.56833V9.05068H8.665V8.52145Z" fill="#249F40"/>
<path fill-rule="evenodd" clip-rule="evenodd" d="M6.97168 9.18614H6.09501V8.95637H5.77168V9.06561H6.00001V9.18803H5.66334V8.82266H6.10668V8.52509H5.99834V8.70212H4.60668V8.52509H4.51001V9.41968H4.60668V9.31044H4.72668V9.41968H4.82334V9.31044H4.94334V9.41968H5.04001V9.31044H5.56834V9.41968H5.66501V9.31044H6.00168V9.41968H6.09834V9.31044H6.97501V9.18803L6.97168 9.18614ZM4.82334 9.18614V9.06372H4.94334V9.18614H4.82334ZM5.04001 9.18614V8.95637H4.72834V9.18614H4.60834V8.82077H5.14834V9.06561H5.47168V8.95637H5.24334V8.82077H5.56668V9.18614H5.03834H5.04001Z" fill="#249F40"/>
<path d="M6.31334 8.52145H6.21667V9.05068H6.31334V8.52145Z" fill="#249F40"/>
<path d="M6.52834 8.52145H6.43167V9.05068H6.52834V8.52145Z" fill="#249F40"/>
<path fill-rule="evenodd" clip-rule="evenodd" d="M24 4.25H0V8.12783V8.57606V9.41604H0.3V8.57606H23.6883V9.40286H23.9883V8.57606H24V4.25Z" fill="#249F40"/>
<path fill-rule="evenodd" clip-rule="evenodd" d="M24 19.75H0V15.8703V15.424V14.5821H0.3V15.424H23.6883V14.5972H23.9883V15.424H24V19.75Z" fill="#D90101"/>
<path fill-rule="evenodd" clip-rule="evenodd" d="M13.32 15.437H12.4433V15.2072H12.12V15.3165H12.3483V15.4389H12.0117V15.0735H12.455V14.7759H12.3467V14.953H10.955V14.7759H10.8583V15.6705H10.955V15.5613H11.075V15.6705H11.1717V15.5613H11.2917V15.6705H11.3883V15.5613H11.9167V15.6705H12.0133V15.5613H12.35V15.6705H12.4467V15.5613H13.3233V15.4389L13.32 15.437ZM11.1717 15.437V15.3146H11.2917V15.437H11.1717ZM11.3883 15.437V15.2072H11.0767V15.437H10.9567V15.0716H11.4967V15.3165H11.82V15.2072H11.5917V15.0716H11.915V15.437H11.3867H11.3883Z" fill="#D90101"/>
<path d="M12.66 14.7723H12.5633V15.3015H12.66V14.7723Z" fill="#D90101"/>
<path d="M12.8767 14.7723H12.78V15.3015H12.8767V14.7723Z" fill="#D90101"/>
<path fill-rule="evenodd" clip-rule="evenodd" d="M11.1833 15.437H10.3067V15.2072H9.98335V15.3165H10.2117V15.4389H9.87501V15.0735H10.3183V14.7759H10.21V14.953H8.81835V14.7759H8.72168V15.6705H8.81835V15.5613H8.93835V15.6705H9.03501V15.5613H9.15501V15.6705H9.25168V15.5613H9.78001V15.6705H9.87668V15.5613H10.2133V15.6705H10.31V15.5613H11.1867V15.4389L11.1833 15.437ZM9.03668 15.437V15.3146H9.15668V15.437H9.03668ZM9.25168 15.437V15.2072H8.94001V15.437H8.82001V15.0716H9.36001V15.3165H9.68335V15.2072H9.45501V15.0716H9.77835V15.437H9.25001H9.25168Z" fill="#D90101"/>
<path d="M10.525 14.7723H10.4283V15.3015H10.525V14.7723Z" fill="#D90101"/>
<path d="M10.74 14.7723H10.6433V15.3015H10.74V14.7723Z" fill="#D90101"/>
<path fill-rule="evenodd" clip-rule="evenodd" d="M17.58 15.437H16.7033V15.2072H16.38V15.3165H16.6083V15.4389H16.2717V15.0735H16.715V14.7759H16.6067V14.953H15.215V14.7759H15.1183V15.6705H15.215V15.5613H15.335V15.6705H15.4317V15.5613H15.5517V15.6705H15.6483V15.5613H16.1767V15.6705H16.2733V15.5613H16.61V15.6705H16.7067V15.5613H17.5833V15.4389L17.58 15.437ZM15.4317 15.437V15.3146H15.5517V15.437H15.4317ZM15.6483 15.437V15.2072H15.3367V15.437H15.2167V15.0716H15.7567V15.3165H16.08V15.2072H15.8517V15.0716H16.175V15.437H15.6467H15.6483Z" fill="#D90101"/>
<path d="M16.92 14.7723H16.8233V15.3015H16.92V14.7723Z" fill="#D90101"/>
<path d="M17.1367 14.7723H17.04V15.3015H17.1367V14.7723Z" fill="#D90101"/>
<path fill-rule="evenodd" clip-rule="evenodd" d="M15.4567 15.437H14.58V15.2072H14.2567V15.3165H14.485V15.4389H14.1483V15.0735H14.5917V14.7759H14.4833V14.953H13.0917V14.7759H12.995V15.6705H13.0917V15.5613H13.2117V15.6705H13.3083V15.5613H13.4283V15.6705H13.525V15.5613H14.0533V15.6705H14.15V15.5613H14.4867V15.6705H14.5833V15.5613H15.46V15.4389L15.4567 15.437ZM13.3083 15.437V15.3146H13.4283V15.437H13.3083ZM13.5233 15.437V15.2072H13.2117V15.437H13.0917V15.0716H13.6317V15.3165H13.955V15.2072H13.7267V15.0716H14.05V15.437H13.5217H13.5233Z" fill="#D90101"/>
<path d="M14.7966 14.7723H14.7V15.3015H14.7966V14.7723Z" fill="#D90101"/>
<path d="M15.0133 14.7723H14.9167V15.3015H15.0133V14.7723Z" fill="#D90101"/>
<path fill-rule="evenodd" clip-rule="evenodd" d="M21.84 15.437H20.9633V15.2072H20.64V15.3165H20.8683V15.4389H20.5317V15.0735H20.975V14.7759H20.8667V14.953H19.475V14.7759H19.3783V15.6705H19.475V15.5613H19.595V15.6705H19.6917V15.5613H19.8117V15.6705H19.9083V15.5613H20.4367V15.6705H20.5333V15.5613H20.87V15.6705H20.9667V15.5613H21.8433V15.4389L21.84 15.437ZM19.6917 15.437V15.3146H19.8117V15.437H19.6917ZM19.9083 15.437V15.2072H19.5967V15.437H19.4767V15.0716H20.0167V15.3165H20.34V15.2072H20.1117V15.0716H20.435V15.437H19.9067H19.9083Z" fill="#D90101"/>
<path d="M21.18 14.7723H21.0833V15.3015H21.18V14.7723Z" fill="#D90101"/>
<path d="M21.3967 14.7723H21.3V15.3015H21.3967V14.7723Z" fill="#D90101"/>
<path fill-rule="evenodd" clip-rule="evenodd" d="M19.7167 15.437H18.84V15.2072H18.5167V15.3165H18.745V15.4389H18.4083V15.0735H18.8517V14.7759H18.7433V14.953H17.3517V14.7759H17.255V15.6705H17.3517V15.5613H17.4717V15.6705H17.5683V15.5613H17.6883V15.6705H17.785V15.5613H18.3133V15.6705H18.41V15.5613H18.7467V15.6705H18.8433V15.5613H19.72V15.4389L19.7167 15.437ZM17.5683 15.437V15.3146H17.6883V15.437H17.5683ZM17.7833 15.437V15.2072H17.4717V15.437H17.3517V15.0716H17.8917V15.3165H18.215V15.2072H17.9867V15.0716H18.31V15.437H17.7817H17.7833Z" fill="#D90101"/>
<path d="M19.0567 14.7723H18.96V15.3015H19.0567V14.7723Z" fill="#D90101"/>
<path d="M19.2733 14.7723H19.1767V15.3015H19.2733V14.7723Z" fill="#D90101"/>
<path fill-rule="evenodd" clip-rule="evenodd" d="M23.79 15.5217C23.79 15.4916 23.7933 15.4634 23.8017 15.437H23.1V15.2072H22.7767V15.3165H23.005V15.4389H22.6683V15.0735H23.1117V14.7759H23.0033V14.953H21.6117V14.7759H21.515V15.6705H21.6117V15.5613H21.7317V15.6705H21.8283V15.5613H21.9483V15.6705H22.045V15.5613H22.5733V15.6705H22.67V15.5613H23.0067V15.6705H23.1033V15.5613H23.7967C23.7967 15.55 23.795 15.5368 23.795 15.5236L23.79 15.5217ZM21.9483 15.437H21.8283V15.3146H21.9483V15.437ZM22.5717 15.437H22.0433V15.2072H21.7317V15.437H21.6117V15.0716H22.1517V15.3165H22.475V15.2072H22.2467V15.0716H22.57V15.437H22.5717Z" fill="#D90101"/>
<path d="M23.3167 14.7723H23.22V15.3015H23.3167V14.7723Z" fill="#D90101"/>
<path d="M23.5333 14.7723H23.4367V15.3015H23.5333V14.7723Z" fill="#D90101"/>
<path fill-rule="evenodd" clip-rule="evenodd" d="M4.79998 15.437H3.92332V15.2072H3.59998V15.3165H3.82832V15.4389H3.49165V15.0735H3.93498V14.7759H3.82665V14.953H2.43498V14.7759H2.33832V15.6705H2.43498V15.5613H2.55498V15.6705H2.65165V15.5613H2.77165V15.6705H2.86832V15.5613H3.39665V15.6705H3.49332V15.5613H3.82998V15.6705H3.92665V15.5613H4.80332V15.4389L4.79998 15.437ZM2.65165 15.437V15.3146H2.77165V15.437H2.65165ZM2.86832 15.437V15.2072H2.55665V15.437H2.43665V15.0716H2.97665V15.3165H3.29998V15.2072H3.07165V15.0716H3.39498V15.437H2.86665H2.86832Z" fill="#D90101"/>
<path d="M4.13997 14.7723H4.0433V15.3015H4.13997V14.7723Z" fill="#D90101"/>
<path d="M4.35665 14.7723H4.25998V15.3015H4.35665V14.7723Z" fill="#D90101"/>
<path fill-rule="evenodd" clip-rule="evenodd" d="M2.66334 15.437H1.78667V15.2072H1.46334V15.3165H1.69167V15.4389H1.35501V15.0735H1.79834V14.7759H1.69001V14.953H0.300005V14.7759H0.203339V15.6705H0.300005V15.5613H0.420005V15.6705H0.516672V15.5613H0.636672V15.6705H0.733339V15.5613H1.26167V15.6705H1.35834V15.5613H1.69501V15.6705H1.79167V15.5613H2.66834V15.4389L2.66334 15.437ZM0.516672 15.437V15.3146H0.636672V15.437H0.516672ZM0.731672 15.437V15.2072H0.420005V15.437H0.300005V15.0716H0.840005V15.3165H1.16334V15.2072H0.935005V15.0716H1.25834V15.437H0.730005H0.731672Z" fill="#D90101"/>
<path d="M2.00499 14.7723H1.90833V15.3015H2.00499V14.7723Z" fill="#D90101"/>
<path d="M2.22002 14.7723H2.12335V15.3015H2.22002V14.7723Z" fill="#D90101"/>
<path fill-rule="evenodd" clip-rule="evenodd" d="M9.05999 15.4371H8.18333V15.2074H7.85999V15.3166H8.08833V15.439H7.75166V15.0736H8.19499V14.7761H8.08666V14.9531H6.69499V14.7761H6.59833V15.6707H6.69499V15.5614H6.81499V15.6707H6.91166V15.5614H7.03166V15.6707H7.12833V15.5614H7.65666V15.6707H7.75333V15.5614H8.08999V15.6707H8.18666V15.5614H9.06333V15.439L9.05999 15.4371ZM6.91166 15.4371V15.3147H7.03166V15.4371H6.91166ZM7.12833 15.4371V15.2074H6.81666V15.4371H6.69666V15.0717H7.23666V15.3166H7.55999V15.2074H7.33166V15.0717H7.65499V15.4371H7.12666H7.12833Z" fill="#D90101"/>
<path d="M8.40001 14.7723H8.30334V15.3015H8.40001V14.7723Z" fill="#D90101"/>
<path d="M8.61666 14.7723H8.51999V15.3015H8.61666V14.7723Z" fill="#D90101"/>
<path fill-rule="evenodd" clip-rule="evenodd" d="M6.92334 15.437H6.04667V15.2072H5.72334V15.3165H5.95167V15.4389H5.615V15.0735H6.05834V14.7759H5.95V14.953H4.55834V14.7759H4.46167V15.6705H4.55834V15.5613H4.67834V15.6705H4.775V15.5613H4.895V15.6705H4.99167V15.5613H5.52V15.6705H5.61667V15.5613H5.95334V15.6705H6.05V15.5613H6.92667V15.4389L6.92334 15.437ZM4.77667 15.437V15.3146H4.89667V15.437H4.77667ZM4.99167 15.437V15.2072H4.68V15.437H4.56V15.0716H5.1V15.3165H5.42334V15.2072H5.195V15.0716H5.51834V15.437H4.99H4.99167Z" fill="#D90101"/>
<path d="M6.265 14.7723H6.16833V15.3015H6.265V14.7723Z" fill="#D90101"/>
<path d="M6.48 14.7723H6.38333V15.3015H6.48V14.7723Z" fill="#D90101"/>
<path d="M23.8083 14.7045H0.156677V14.8269H23.8083V14.7045Z" fill="#D90101"/>
<path d="M5.62832 14.5821H5.51999V14.7987H5.62832V14.5821Z" fill="#D90101"/>
<path d="M4.57168 14.5764H4.46335V14.7723H4.57168V14.5764Z" fill="#D90101"/>
<path d="M3.505 14.5821H3.39667V14.7987H3.505V14.5821Z" fill="#D90101"/>
<path d="M6.70834 14.5821H6.60001V14.7987H6.70834V14.5821Z" fill="#D90101"/>
<path d="M7.76501 14.5821H7.65668V14.7855H7.76501V14.5821Z" fill="#D90101"/>
<path d="M1.36834 14.5821H1.26001V14.7987H1.36834V14.5821Z" fill="#D90101"/>
<path d="M2.44833 14.5821H2.34V14.7987H2.44833V14.5821Z" fill="#D90101"/>
<path d="M8.83166 14.5821H8.72333V14.7987H8.83166V14.5821Z" fill="#D90101"/>
<path d="M9.88833 14.5821H9.78V14.7855H9.88833V14.5821Z" fill="#D90101"/>
<path d="M10.9683 14.5821H10.86V14.7723H10.9683V14.5821Z" fill="#D90101"/>
<path d="M12.025 14.5764H11.9167V14.7779H12.025V14.5764Z" fill="#D90101"/>
<path d="M14.16 14.5821H14.0517V14.7855H14.16V14.5821Z" fill="#D90101"/>
<path d="M13.105 14.5821H12.9967V14.7987H13.105V14.5821Z" fill="#D90101"/>
<path d="M15.2283 14.5764H15.12V14.793H15.2283V14.5764Z" fill="#D90101"/>
<path d="M16.285 14.5764H16.1767V14.7855H16.285V14.5764Z" fill="#D90101"/>
<path d="M17.365 14.5764H17.2567V14.7723H17.365V14.5764Z" fill="#D90101"/>
<path d="M18.42 14.5764H18.3117V14.7723H18.42V14.5764Z" fill="#D90101"/>
<path d="M19.4883 14.5764H19.38V14.7723H19.4883V14.5764Z" fill="#D90101"/>
<path d="M20.545 14.5821H20.4367V14.8119H20.545V14.5821Z" fill="#D90101"/>
<path d="M21.625 14.5764H21.5167V14.7723H21.625V14.5764Z" fill="#D90101"/>
<path d="M22.68 14.5764H22.5717V14.7855H22.68V14.5764Z" fill="#D90101"/>
<path fill-rule="evenodd" clip-rule="evenodd" d="M10.5967 12.1111C10.5967 11.4105 10.9017 10.8078 11.3433 10.5272C10.7283 10.6892 10.2733 11.2881 10.2733 12.0019C10.2733 12.5499 10.5417 13.0283 10.9417 13.2958C10.7283 12.9831 10.5967 12.5669 10.5967 12.1092V12.1111Z" fill="#D90101"/>
<path fill-rule="evenodd" clip-rule="evenodd" d="M13.395 12.1111C13.395 11.4105 13.09 10.8078 12.6483 10.5272C13.2633 10.6892 13.7183 11.2881 13.7183 12.0019C13.7183 12.5499 13.45 13.0283 13.05 13.2958C13.2633 12.9831 13.395 12.5669 13.395 12.1092V12.1111Z" fill="#D90101"/>
<path fill-rule="evenodd" clip-rule="evenodd" d="M12.2017 10.6685C12.12 10.6327 12.0517 10.5706 12.01 10.4933L12 10.4839L11.9884 10.4933C11.9467 10.5706 11.8783 10.6346 11.7967 10.6685C11.7967 10.7476 11.7867 11.8588 11.8117 12.2769C11.8367 12.7119 11.87 13.7346 11.87 13.7346L12 13.9342L12.1283 13.7346C12.1283 13.7346 12.1617 12.7119 12.1867 12.2769C12.21 11.8588 12.2017 10.7476 12.2017 10.6685Z" fill="#D90101"/>
<path fill-rule="evenodd" clip-rule="evenodd" d="M12.4317 10.1054C12.425 10.2127 12.3567 10.3012 12.2634 10.3295C12.2417 10.337 12.22 10.3408 12.1967 10.3408C12.1817 10.3408 12.1684 10.3408 12.155 10.3351C12.0884 10.3238 12.0317 10.2843 11.9967 10.2278C11.9667 10.2749 11.92 10.3106 11.8667 10.3276C11.8467 10.3351 11.825 10.3389 11.8017 10.3389C11.7867 10.3389 11.7717 10.337 11.7567 10.3332C11.6534 10.3144 11.5717 10.224 11.5617 10.1129C11.5484 10.1468 11.5417 10.1845 11.5417 10.2221C11.5417 10.3803 11.6584 10.5065 11.8017 10.5065C11.8817 10.5065 11.9517 10.467 12 10.4067C12.0484 10.4688 12.1184 10.5065 12.1984 10.5065C12.3417 10.5065 12.4584 10.3784 12.4584 10.2221C12.4584 10.1788 12.45 10.1374 12.4334 10.1016L12.4317 10.1054Z" fill="#D90101"/>
<path fill-rule="evenodd" clip-rule="evenodd" d="M12.8084 13.5971C11.89 13.5971 11.1467 12.7326 11.1467 11.6648C11.1467 11.2523 11.2584 10.87 11.4467 10.5555C11.1084 10.887 10.8967 11.3729 10.8967 11.9153C10.8967 12.9172 11.625 13.727 12.5234 13.727C12.8 13.727 13.06 13.6498 13.2884 13.5142C13.1367 13.567 12.9767 13.5952 12.81 13.5952L12.8084 13.5971Z" fill="#D90101"/>
<path fill-rule="evenodd" clip-rule="evenodd" d="M11.2067 13.5971C12.125 13.5971 12.8684 12.7326 12.8684 11.6648C12.8684 11.2523 12.7567 10.87 12.5684 10.5555C12.9067 10.887 13.1184 11.3729 13.1184 11.9153C13.1184 12.9172 12.39 13.727 11.4917 13.727C11.215 13.727 10.955 13.6498 10.7267 13.5142C10.8784 13.567 11.0384 13.5952 11.205 13.5952L11.2067 13.5971Z" fill="#D90101"/>
</svg>
