<svg width="24" height="24" viewBox="0 0 24 24" fill="none" xmlns="http://www.w3.org/2000/svg">
<path d="M0 4.25H24V19.75H0V4.25Z" fill="#496E2D"/>
<path d="M0 9.2774V14.7272H24V9.2774H0Z" fill="black"/>
<path d="M0 9.2774H24V11.094H0V9.2774Z" fill="#FFDA44"/>
<path d="M0 12.9106H24V14.7271H0V12.9106Z" fill="white"/>
<path d="M9.1875 4.25H14.8125V19.75H9.1875V4.25Z" fill="black"/>
<path d="M9.1875 4.25H11.0625V19.75H9.1875V4.25Z" fill="#FFDA44"/>
<path d="M12.8766 4.25H14.7516V19.75H12.8766V4.25Z" fill="white"/>
<path d="M12 17.5928C15.1869 17.5928 17.7703 15.0898 17.7703 12.0023C17.7703 8.91471 15.1869 6.41174 12 6.41174C8.81315 6.41174 6.22969 8.91471 6.22969 12.0023C6.22969 15.0898 8.81315 17.5928 12 17.5928Z" fill="#D80027"/>
<path d="M12 6.91129L12.2156 7.55617H12.9188L12.3516 7.96036L12.5672 8.60525L12 8.2056L11.4328 8.60525L11.6484 7.96036L11.0813 7.55617H11.7844L12 6.91129ZM8.91094 7.88316L9.48282 8.28281L10.05 7.88316L9.83438 8.53259L10.4016 8.93223H9.69844L9.48282 9.57712L9.2625 8.93223H8.55938L9.12657 8.53259L8.91094 7.88316ZM7.00313 10.4264H7.70625L7.92188 9.78149L8.14219 10.4264H8.84532L8.27344 10.826L8.49375 11.4755L7.92188 11.0758L7.35469 11.4755L7.57032 10.826L7.00313 10.4264ZM7.00313 13.5736L7.57032 13.174L7.35469 12.5245L7.92188 12.9242L8.49375 12.5245L8.27344 13.174L8.84532 13.5736H8.14219L7.92188 14.223L7.70625 13.5736H7.00313ZM8.91094 16.1214L9.12657 15.4719L8.55938 15.0723H9.2625L9.48282 14.4229L9.69844 15.0723H10.4016L9.83438 15.4719L10.05 16.1214L9.48282 15.7172L8.91094 16.1214ZM12 17.0932L11.7844 16.4438H11.0813L11.6484 16.0442L11.4328 15.3947L12 15.7944L12.5672 15.3947L12.3516 16.0442L12.9188 16.4438H12.2156L12 17.0932ZM15.0891 16.1214L14.5172 15.7172L13.95 16.1214L14.1656 15.4719L13.5984 15.0723H14.3016L14.5172 14.4229L14.7375 15.0723H15.4406L14.8734 15.4719L15.0891 16.1214ZM16.9969 13.5736H16.2938L16.0781 14.223L15.8578 13.5736H15.1547L15.7266 13.174L15.5063 12.5245L16.0781 12.9242L16.6453 12.5245L16.4297 13.174L16.9969 13.5736ZM16.9969 10.4264L16.4297 10.826L16.6453 11.4755L16.0781 11.0758L15.5063 11.4755L15.7266 10.826L15.1547 10.4264H15.8578L16.0781 9.78149L16.2938 10.4264H16.9969ZM15.0891 7.88316L14.8734 8.53259L15.4406 8.93223H14.7375L14.5172 9.57712L14.3016 8.93223H13.5984L14.1656 8.53259L13.95 7.88316L14.5172 8.28281L15.0891 7.88316Z" fill="#496E2D"/>
<path d="M13.0922 11.9114C12.5766 10.9532 12.4125 10.7715 12.4125 10.7715C12.4125 10.7715 12.4312 10.331 12.4312 10.0631C12.4312 9.66342 12.0844 9.34552 11.6578 9.34552C11.2547 9.34552 10.9219 9.47722 10.8844 9.84508C10.6875 9.88595 10.4812 10.0313 10.4812 10.331C10.4812 10.549 10.5281 10.6625 10.725 10.7534C10.8234 10.5445 10.9266 10.5354 11.1609 10.4627C11.1984 10.49 11.2406 10.599 11.2828 10.6171L11.2969 10.6625C11.2969 10.6625 10.6734 10.9623 10.6734 12.0659C10.6734 13.4056 11.7047 14.1277 11.7047 14.1277L11.6203 14.1413L11.5312 14.4637H12.5625V14.1368L13.0781 14.9315C13.0922 14.9179 13.5562 12.7698 13.0922 11.9114Z" fill="#496E2D"/>
</svg>
