<svg width="24" height="24" viewBox="0 0 24 24" fill="none" xmlns="http://www.w3.org/2000/svg">
<path d="M0 4.25043H24V19.7501H0V4.25043Z" fill="#0052B4"/>
<path d="M0 4.25043H24V8.1256H0V4.25043Z" fill="#FFDA44"/>
<path d="M0 8.12497H24V12.0001H0V8.12497Z" fill="white"/>
<path d="M0 12.0002H24V15.8753H0V12.0002Z" fill="#D80027"/>
<path d="M12 12.0003L0 19.7501V4.24988L12 12.0003Z" fill="#6DA544"/>
<path d="M3.21739 12.0001C3.21739 10.871 4.03658 9.92772 5.13045 9.6963C4.95908 9.65991 4.78417 9.64151 4.60873 9.64145C3.26398 9.64145 2.17395 10.6975 2.17395 12.0001C2.17395 13.3028 3.26403 14.3588 4.60873 14.3588C4.78789 14.3588 4.96231 14.3395 5.13045 14.304C4.03653 14.0726 3.21739 13.1293 3.21739 12.0001Z" fill="white"/>
<path d="M5.10362 9.97839L5.23309 10.3645H5.65215L5.31315 10.6032L5.44262 10.9893L5.10362 10.7506L4.76452 10.9893L4.89409 10.6032L4.55499 10.3645H4.97406L5.10362 9.97839ZM5.10362 10.9893L5.23309 11.3754H5.65215L5.31315 11.614L5.44262 12.0001L5.10362 11.7615L4.76452 12.0001L4.89409 11.614L4.55499 11.3754H4.97406L5.10362 10.9893ZM5.10362 12.0001L5.23309 12.3863H5.65215L5.31315 12.6249L5.44262 13.011L5.10362 12.7724L4.76452 13.011L4.89409 12.6249L4.55499 12.3863H4.97406L5.10362 12.0001ZM5.10362 13.011L5.23309 13.3971H5.65215L5.31315 13.6358L5.44262 14.0219L5.10362 13.7833L4.76452 14.0219L4.89409 13.6358L4.55499 13.3971H4.97406L5.10362 13.011Z" fill="white"/>
</svg>
