<svg width="24" height="24" viewBox="0 0 24 24" fill="none" xmlns="http://www.w3.org/2000/svg">
<path d="M18.4457 8.11806L19.2666 8.97518L20.3617 8.4838L19.7739 9.50494L20.5948 10.3621L19.4106 10.136L18.8228 11.1572L18.6788 9.99637L17.4946 9.77031L18.5897 9.27898L18.4457 8.11806Z" fill="white"/>
<path d="M0 4.25034H24V19.75H0V4.25034Z" fill="white"/>
<path d="M6 4.2498H24V19.75H6V4.2498Z" fill="#01411C"/>
<path d="M16.9645 13.9432C15.5096 14.9615 13.478 14.6446 12.4268 13.2351C11.3755 11.8257 11.7028 9.85756 13.1577 8.83923C13.6113 8.52173 14.121 8.33405 14.6396 8.26875C13.6419 8.1242 12.5875 8.34199 11.7053 8.95948C9.91468 10.2129 9.51193 12.6352 10.8057 14.3699C12.0995 16.1045 14.6 16.4947 16.3907 15.2413C17.2728 14.6238 17.8173 13.7224 17.9889 12.7594C17.7621 13.2157 17.4182 13.6256 16.9645 13.9432V13.9432ZM16.9022 8.22583L17.7218 9.08145L18.815 8.59093L18.2282 9.61025L19.0477 10.466L17.8655 10.2404L17.2787 11.2598L17.1349 10.1009L15.9527 9.87527L17.046 9.38475L16.9022 8.22583Z" fill="white"/>
</svg>
