<svg width="24" height="24" viewBox="0 0 24 24" fill="none" xmlns="http://www.w3.org/2000/svg">
<g clip-path="url(#clip0_118_705)">
<path d="M6.5 3V18.5H24V3H6.5Z" fill="#0092C8"/>
<path d="M22.5 8.19786C21.708 7.95583 20.8127 7.91827 20.8127 7.91827L20.2293 8.94306C20.2293 8.94306 21.9587 8.97584 21.9587 9.07123C21.9587 9.13681 21.5653 9.71984 21.3193 10.0781C21.1933 10.043 21.0387 10.0239 20.8547 10.0239C20.1047 10.0239 19.8133 10.1729 19.5007 10.5831C19.188 10.9932 19.5007 11.1607 19.5007 11.1607C19.5007 11.1607 19.114 11.928 17.666 12.3542L18.1413 10.8859C18.6833 10.8048 19.1467 11.0493 19.1467 11.0493C19.1467 11.0493 18.7927 10.1181 19.23 8.72069C19.6667 7.32211 21.2913 6.27885 21.2913 6.27885L19.474 6.75935L19.9367 5.32917C19.9367 5.32917 20.166 4.88206 19.9367 4.7515C19.7873 4.66685 19.71 4.84808 19.6727 4.98698C19.5133 4.94644 19.2347 4.91008 18.9367 5.0311C18.478 5.2171 17.416 4.94823 17.416 4.94823C17.416 4.94823 17.8327 5.36613 18.1453 5.44065C17.812 5.58969 17.166 5.53365 17.166 5.53365C17.166 5.53365 17.958 5.94381 18.4887 5.79477C18.8413 5.69581 19.2313 5.68746 19.456 5.69283L19.0673 6.86725L17.4153 7.30423C17.4153 7.30423 16.6653 7.84434 16.4153 9.42773C16.1653 11.0111 17.0613 12.1849 17.0613 12.1849C17.0613 12.1849 16.9673 11.4201 17.684 11.0415L17.2133 12.4663C17.014 12.5081 16.8033 12.545 16.5707 12.5718C16.5653 12.5605 15.7073 10.8388 15.8527 9.39017C15.9987 7.93675 17.4153 6.45233 17.4153 6.45233L15.5613 7.05504L16.2133 5.0305C16.2133 5.0305 16.6233 4.78846 16.2693 4.63942C15.9167 4.49038 15.9847 4.96731 15.9847 4.96731C15.8207 4.93869 15.5873 4.92975 15.3393 5.0305C14.8807 5.2165 13.8187 4.94763 13.8187 4.94763C13.8187 4.94763 14.2353 5.36554 14.548 5.44006C14.2147 5.5891 13.5687 5.53306 13.5687 5.53306C13.5687 5.53306 14.3607 5.94321 14.8913 5.79417C15.234 5.69819 15.542 5.68388 15.7187 5.68567L15.1653 7.18321L13.4787 7.73108C13.4787 7.73108 13.1867 8.10367 12.5827 9.1845C11.9787 10.2647 12.8327 11.8112 12.8327 11.8112C12.8327 11.8112 13.0847 11.469 13.618 11.3712L13.2947 12.2475C11.9567 11.6979 11.6667 10.75 11.6667 10.75C11.6667 10.75 11.896 10.713 11.896 10.4895C11.896 10.2743 11.7933 10.164 11.0993 10.1556L11.2673 9.6191C11.5707 9.77886 11.792 10.0239 11.792 10.0239C11.792 10.0239 11.5 9.05513 12.1047 8.08638C12.7087 7.11763 14.1253 6.27944 14.188 6.27944C14.2213 6.27944 13.1527 6.55129 12.1513 6.80406L12.5693 5.47106C12.5693 5.47106 12.8753 5.06865 12.542 4.97565C12.2087 4.88265 12.2627 5.39654 12.2627 5.39654C12.106 5.37865 11.9053 5.38461 11.694 5.47046C11.2353 5.65646 10.1733 5.3876 10.1733 5.3876C10.1733 5.3876 10.59 5.8055 10.9027 5.88002C10.5693 6.02906 9.92334 5.97302 9.92334 5.97302C9.92334 5.97302 10.7147 6.38317 11.246 6.23413C11.5533 6.14829 11.8387 6.12861 12.0267 6.12683L11.7773 6.89765L10.458 7.22971C10.458 7.22971 10.1873 7.60231 9.87467 8.49654C9.56201 9.39077 10.104 10.1175 10.104 10.1175C10.104 10.1175 10.2707 9.48436 10.7913 9.48436C10.8407 9.48436 10.8893 9.49331 10.9373 9.50165L10.724 10.164C10.2253 10.1962 10.146 10.3184 10.146 10.5086C10.146 10.7321 10.4167 10.7506 10.4167 10.7506C10.4167 10.7506 10.354 11.1417 10.5207 11.6263C10.6873 12.1104 10.3127 12.0174 9.68734 11.7384C9.64601 11.7205 9.60534 11.7104 9.56467 11.6973L9.56867 11.6937L8.00001 11.0666C8.00001 11.0666 7.66667 10.6379 7.50001 10.936C7.33334 11.2341 7.87467 11.3026 7.87467 11.3026L8.77334 11.708C8.59801 11.7897 8.51067 11.9208 8.60401 12.0538C8.81201 12.3519 9.27067 12.0538 10.208 12.8735C10.524 13.1495 11.2147 13.813 12.224 14.3871C12.4047 14.4903 21.0733 14.1517 21.012 14.0122C20.8607 13.6688 20.5327 13.0517 20.0827 12.8926C21.0827 12.0913 21.1453 11.1602 21.1453 11.1602C21.1453 11.1602 21.416 11.1602 21.6453 10.75C21.76 10.5443 21.7493 10.3631 21.616 10.2325C21.9347 9.67931 22.718 8.32186 22.916 8.01186C23.1667 7.62019 22.9167 7.43419 22.5 8.19786ZM15.5 12.6315C14.8367 12.6315 14.2893 12.5516 13.8307 12.4282L14.172 11.3706C14.2393 11.3807 14.302 11.3843 14.3753 11.4022C15.4347 11.6621 16.5653 12.5665 16.572 12.5718C16.2487 12.6094 15.894 12.6315 15.5 12.6315Z" fill="#FFCC4D"/>
<path d="M23.1254 13.7492C22.6047 13.4142 22.1254 13.5257 22.0214 13.8506C21.9174 14.1755 21.438 14.0288 20.9174 13.6932C20.3967 13.3576 20.0427 13.4136 19.938 13.7862C19.8334 14.1588 19.2507 14.1212 18.7087 13.7677C18.1674 13.4136 17.6254 13.6747 17.4167 13.9406C17.2087 14.2065 17.042 14.2333 16.3727 13.8607C15.7034 13.4881 15.2294 13.7117 15.042 14.0282C14.8547 14.3448 14.5834 14.2703 14.0214 13.9269C13.4587 13.5835 12.938 13.7117 12.6674 13.9269C12.3967 14.1421 12.0214 14.2142 11.5214 13.9269C11.0214 13.6396 10.6254 13.6557 10.3754 13.8864C10.1254 14.1171 9.83402 14.4569 9.04202 13.9078C8.25002 13.3588 7.83402 13.8232 7.43802 14.0658C7.04135 14.3084 6.66669 13.6938 6.66669 13.6938V14.0849C6.66669 14.0849 7.04135 14.6995 7.43735 14.4575C7.83335 14.2154 8.25002 13.7504 9.04135 14.2995C9.83269 14.8486 10.1247 14.5087 10.3747 14.278C10.6247 14.0473 11.0207 14.0312 11.5207 14.3186C12.0207 14.6059 12.3954 14.5338 12.6667 14.3186C12.9374 14.1034 13.4587 13.9752 14.0207 14.3186C14.5834 14.662 14.854 14.7365 15.0414 14.4199C15.2287 14.1034 15.7027 13.8798 16.372 14.2524C17.0414 14.625 17.208 14.5982 17.416 14.3323C17.624 14.0664 18.166 13.8053 18.708 14.1594C19.2494 14.5135 19.8334 14.5505 19.9374 14.1779C20.0414 13.8053 20.396 13.7492 20.9167 14.0849C21.4374 14.4205 21.9167 14.5672 22.0207 14.2423C22.1247 13.9174 22.604 13.8059 23.1247 14.1409C23.6454 14.476 24 14.3269 24 14.3269V13.9358C24 13.9358 23.646 14.0849 23.1254 13.7492Z" fill="black"/>
<path d="M23.1254 14.1409C22.6047 13.8059 22.1254 13.9174 22.0214 14.2423C21.9174 14.5672 21.438 14.4205 20.9174 14.0849C20.3967 13.7493 20.0427 13.8053 19.938 14.1779C19.8334 14.5505 19.2507 14.5129 18.7087 14.1594C18.1674 13.8053 17.6254 14.0664 17.4167 14.3323C17.2087 14.5982 17.042 14.625 16.3727 14.2524C15.7034 13.8798 15.2294 14.1034 15.042 14.4199C14.8547 14.7365 14.5834 14.662 14.0214 14.3186C13.4587 13.9752 12.938 14.1034 12.6674 14.3186C12.3967 14.5338 12.0214 14.6059 11.5214 14.3186C11.0214 14.0312 10.6254 14.0473 10.3754 14.278C10.1254 14.5088 9.83402 14.8486 9.04202 14.2995C8.25002 13.7504 7.83402 14.2148 7.43802 14.4575C7.04135 14.6995 6.66669 14.0849 6.66669 14.0849V14.4575C6.66669 14.4575 7.04135 15.0721 7.43735 14.8301C7.83335 14.588 8.25002 14.123 9.04135 14.6721C9.83269 15.2212 10.1247 14.8813 10.3747 14.6506C10.6247 14.4199 11.0207 14.4038 11.5207 14.6912C12.0207 14.9785 12.3954 14.9064 12.6667 14.6912C12.9374 14.476 13.4587 14.3478 14.0207 14.6912C14.5834 15.0346 14.854 15.1091 15.0414 14.7925C15.2287 14.476 15.7027 14.2524 16.372 14.625C17.0414 14.9976 17.208 14.9708 17.416 14.7049C17.624 14.439 18.166 14.1779 18.708 14.532C19.2494 14.8861 19.8334 14.9231 19.9374 14.5505C20.0414 14.1779 20.396 14.1218 20.9167 14.4575C21.4374 14.7931 21.9167 14.9398 22.0207 14.6149C22.1247 14.29 22.604 14.1785 23.1247 14.5135C23.6454 14.8486 24 14.6995 24 14.6995V14.3269C24 14.3269 23.646 14.476 23.1254 14.1409ZM8.10402 15.5008C8.45735 15.1425 9.00002 15.1842 9.41669 15.5008C9.83335 15.8173 10.0207 15.5777 10.4167 15.3714C10.8127 15.1651 11.3747 15.1526 11.5 15.4477C11.6254 15.7428 10.9794 15.341 10.5834 15.654C10.1874 15.9663 9.54602 16.0593 9.08335 15.654C8.62069 15.2486 7.79135 15.8173 8.10402 15.5008ZM12.75 15.5723C13.1307 15.6879 13.646 15.7243 14.104 15.4632C14.562 15.2021 14.896 15.3243 15.396 15.6826C15.896 16.0409 16.2707 15.9204 16.7294 15.6826C17.188 15.4447 17.5627 15.1466 18.2087 15.4072C18.8547 15.6683 19.1674 15.6945 19.4167 15.6069C19.6667 15.5186 19.4167 15.9103 18.7914 15.8167C18.166 15.7237 17.7287 15.3696 17.166 15.7046C16.6034 16.0397 15.874 16.3533 15.2914 15.9079C14.708 15.4626 14.3954 15.524 14.0414 15.7172C13.6874 15.9097 13.2914 15.9282 13.0827 15.8352C12.8747 15.7428 12.4434 15.4793 12.75 15.5723ZM20.7707 15.5723C21.012 15.7028 21.2707 15.7368 21.5207 15.5723C21.7707 15.4078 22.0207 15.5413 22.3334 15.6981C22.646 15.8549 22.708 16.0307 22.3334 15.924C21.9587 15.8173 21.8127 15.58 21.5207 15.7267C21.2287 15.8733 20.9167 15.9151 20.7707 15.7267C20.6247 15.5377 20.59 15.4745 20.7707 15.5723ZM10.0414 16.451C10.384 16.2889 10.9374 16.0599 11.3327 16.451C11.7287 16.8421 11.916 16.637 12.2287 16.451C12.5414 16.265 12.812 16.0409 13.2914 16.3205C13.7707 16.6001 13.9994 16.5232 14.1874 16.4308C14.3747 16.3389 14.5414 16.395 14.1874 16.581C13.8334 16.767 13.4794 16.7485 13.208 16.5625C12.9374 16.3765 12.708 16.2829 12.354 16.5995C12 16.916 11.5414 17.0108 11.208 16.7121C10.8747 16.4135 10.7707 16.389 10.4374 16.541C10.104 16.6931 9.69869 16.6132 10.0414 16.451ZM16.4167 16.541C16.836 16.3431 17.396 16.0039 17.854 16.395C18.3127 16.7861 18.5834 16.6024 18.958 16.3777C19.3327 16.1529 19.6874 15.828 20.2287 16.2143C20.77 16.6001 21.1247 16.5631 21.3954 16.451C21.666 16.3389 21.5414 16.5536 21.208 16.6233C20.8747 16.6931 20.416 16.6931 20.104 16.451C19.7914 16.209 19.5 16.2215 19.1667 16.541C18.8334 16.8606 18 16.95 17.6874 16.6633C17.3747 16.3765 16.9794 16.544 16.6874 16.6555C16.3954 16.767 15.998 16.739 16.4167 16.541ZM7.66669 16.8367C7.91535 16.6317 8.25002 16.7115 8.66669 17.0841C9.08335 17.4567 9.27069 17.3822 9.64602 17.1962C10.0214 17.0102 10.5207 16.9727 10.7294 17.1777C10.9374 17.3828 10.8547 17.4478 10.604 17.35C10.354 17.2522 10.114 17.1962 9.77535 17.4573C9.43735 17.7184 8.83269 17.7739 8.54135 17.4573C8.24935 17.1408 8.08269 16.9542 7.85402 17.0287C7.62469 17.1026 7.33335 17.111 7.66669 16.8367ZM13.4374 17.1998C13.68 16.9667 14.1667 16.7753 14.6454 17.1998C15.1247 17.6243 15.208 17.5682 15.5827 17.3447C15.9574 17.1211 16.3954 16.8648 16.8534 17.2445C17.312 17.6242 17.4994 17.5497 17.8947 17.3447C18.2907 17.1396 18.6447 16.9583 19.082 17.2445C19.5194 17.5307 19.8527 17.6052 20.228 17.4007C20.6027 17.1956 20.6854 17.2868 20.332 17.5497C20.04 17.7661 19.5114 17.8478 19.1447 17.5313C18.6854 17.1348 18.3947 17.2517 18.0194 17.4943C17.6447 17.7363 17.0607 17.7924 16.7274 17.4758C16.394 17.1593 16.1647 17.2523 15.8527 17.4758C15.54 17.6994 15.0027 17.9277 14.6234 17.4573C14.244 16.987 13.8734 17.1962 13.686 17.2898C13.5 17.3822 13.0834 17.5396 13.4374 17.1998Z" fill="#BBDDF5"/>
<path d="M0 13.1346V16.1154V18.5H6.66667V13.1346H0Z" fill="#CA0000"/>
<path d="M5.42736 14.7091C5.15669 14.8021 4.90669 14.774 4.57336 14.4336C4.50602 14.3651 4.43202 14.3198 4.35602 14.2852C4.51669 14.3192 4.72202 14.3877 4.89602 14.4014C5.24002 14.4295 5.58336 14.2059 5.58336 14.2059C5.58336 14.2059 5.42736 14.0938 5.01069 13.9919C4.67002 13.9078 4.09869 13.9704 3.90002 14.2113C3.73869 14.2196 3.58402 14.2488 3.45869 14.2625C3.24136 14.2858 2.99002 14.1976 2.99002 14.1976C2.99002 14.1976 2.94869 13.7409 2.36469 13.7409C1.85402 13.7409 1.84402 14.16 1.84402 14.16C1.84402 14.16 1.58336 14.2721 1.58336 13.9436C1.58336 13.6151 1.29136 13.6336 1.03669 13.6336C0.782022 13.6336 0.718689 13.6199 0.718689 13.918C0.718689 14.216 0.906022 14.16 1.02069 14.253C1.02069 14.253 1.13536 14.7746 1.82269 14.7001C1.85336 14.7508 1.86402 14.8772 1.86402 14.8772C1.86402 14.8772 1.73936 14.9082 1.54136 14.8676C1.24602 14.8074 1.03069 14.7746 1.03069 15.1377C1.03069 15.5008 1.45802 15.3988 2.06202 15.3988C2.66602 15.3988 2.69736 15.0638 2.69736 15.0638C2.69736 15.0638 2.97869 14.9893 3.31202 15.0077C3.22869 15.0727 3.27602 15.2307 3.35336 15.3058C3.51536 15.462 3.81202 15.3988 4.04069 15.3988C4.26936 15.3988 4.37402 15.2402 4.32202 15.0262C4.54069 15.1657 5.14469 14.9052 5.07202 15.0262C4.99936 15.1472 5.17602 15.4453 5.63469 15.2778C6.09402 15.1091 5.69802 14.6155 5.42736 14.7091Z" fill="#FFCC4D"/>
<path d="M2.24467 14.653C2.35108 14.653 2.43734 14.5737 2.43734 14.476C2.43734 14.3782 2.35108 14.2989 2.24467 14.2989C2.13826 14.2989 2.052 14.3782 2.052 14.476C2.052 14.5737 2.13826 14.653 2.24467 14.653Z" fill="black"/>
<path d="M2.24466 14.1451C2.24466 14.1886 2.17799 14.2244 2.09599 14.2244C2.01399 14.2244 1.94733 14.1892 1.94733 14.1451C1.94733 14.1016 2.01399 14.0658 2.09599 14.0658C2.17866 14.0664 2.24466 14.1016 2.24466 14.1451Z" fill="black"/>
<path d="M2.43736 14.2244C2.51947 14.2244 2.58603 14.1889 2.58603 14.1451C2.58603 14.1013 2.51947 14.0658 2.43736 14.0658C2.35526 14.0658 2.2887 14.1013 2.2887 14.1451C2.2887 14.1889 2.35526 14.2244 2.43736 14.2244Z" fill="black"/>
<path d="M5.42736 16.8045C5.15669 16.8975 4.90669 16.8695 4.57336 16.5291C4.50602 16.4606 4.43202 16.4152 4.35602 16.3807C4.51669 16.4152 4.72202 16.4832 4.89602 16.4969C5.24002 16.5249 5.58336 16.3014 5.58336 16.3014C5.58336 16.3014 5.42736 16.1893 5.01069 16.0874C4.67002 16.0033 4.09936 16.0665 3.90002 16.3067C3.73869 16.3151 3.58402 16.3443 3.45869 16.358C3.24136 16.3813 2.99002 16.293 2.99002 16.293C2.99002 16.293 2.94869 15.8364 2.36469 15.8364C1.85402 15.8364 1.84402 16.2555 1.84402 16.2555C1.84402 16.2555 1.58336 16.3676 1.58336 16.0391C1.58336 15.7106 1.29136 15.7291 1.03669 15.7291C0.782022 15.7291 0.718689 15.7154 0.718689 16.0134C0.718689 16.3115 0.906022 16.2555 1.02069 16.3485C1.02069 16.3485 1.13536 16.8701 1.82269 16.7956C1.85336 16.8463 1.86402 16.9727 1.86402 16.9727C1.86402 16.9727 1.73936 17.0037 1.54136 16.9631C1.24602 16.9029 1.03069 16.8701 1.03069 17.2332C1.03069 17.5962 1.45802 17.4943 2.06202 17.4943C2.66602 17.4943 2.69736 17.1592 2.69736 17.1592C2.69736 17.1592 2.97869 17.0847 3.31202 17.1032C3.22869 17.1682 3.27602 17.3262 3.35336 17.4013C3.51536 17.5575 3.81202 17.4943 4.04069 17.4943C4.26936 17.4943 4.37402 17.3357 4.32202 17.1217C4.54069 17.2612 5.14469 17.0007 5.07202 17.1217C4.99936 17.2427 5.17602 17.5408 5.63469 17.3733C6.09402 17.2052 5.69802 16.7115 5.42736 16.8045Z" fill="#FFCC4D"/>
<path d="M2.43733 16.572C2.43733 16.6698 2.35133 16.7491 2.24466 16.7491C2.13799 16.7491 2.05199 16.6698 2.05199 16.572C2.05199 16.4743 2.13799 16.395 2.24466 16.395C2.35133 16.395 2.43733 16.4743 2.43733 16.572ZM2.24466 16.2412C2.24466 16.2847 2.17799 16.3205 2.09599 16.3205C2.01399 16.3205 1.94733 16.2847 1.94733 16.2412C1.94733 16.1977 2.01399 16.1619 2.09599 16.1619C2.17866 16.1619 2.24466 16.1977 2.24466 16.2412ZM2.58599 16.2412C2.58599 16.2847 2.51933 16.3205 2.43733 16.3205C2.35533 16.3205 2.28866 16.2847 2.28866 16.2412C2.28866 16.1977 2.35533 16.1619 2.43733 16.1619C2.51933 16.1619 2.58599 16.1977 2.58599 16.2412Z" fill="black"/>
<path d="M0 8.36538H6.66667V13.1346H0V8.36538Z" fill="#EEEEEE"/>
<path d="M1.386 10.344L1.20067 10.093C1.19333 9.88617 1.15867 9.72521 1.11467 9.72521C1.07067 9.72521 1.036 9.88558 1.02867 10.093L0.843333 10.344C0.802 10.4007 0.836 10.4472 0.920667 10.4472H1.048C1.064 10.5396 1.08733 10.6004 1.114 10.6004C1.14067 10.6004 1.164 10.539 1.18 10.4472H1.30733C1.39333 10.4477 1.42733 10.4012 1.386 10.344ZM1.20333 9.46827C1.20333 9.60956 1.16333 9.59584 1.11467 9.59584C1.066 9.59584 1.026 9.60956 1.026 9.46827C1.026 9.32758 1.066 9.21311 1.11467 9.21311C1.164 9.21311 1.20333 9.32758 1.20333 9.46827ZM1.33267 9.75442C1.17467 9.75442 1.19 9.71865 1.19 9.67513C1.19 9.63161 1.17467 9.59584 1.33267 9.59584C1.49 9.59584 1.618 9.63102 1.618 9.67513C1.618 9.71925 1.49 9.75442 1.33267 9.75442ZM0.897333 9.75442C1.05533 9.75442 1.04 9.71865 1.04 9.67513C1.04 9.63161 1.05533 9.59584 0.897333 9.59584C0.74 9.59584 0.612 9.63102 0.612 9.67513C0.612 9.71925 0.74 9.75442 0.897333 9.75442ZM3.482 10.344L3.29667 10.093C3.28933 9.88617 3.25467 9.72521 3.21067 9.72521C3.16667 9.72521 3.132 9.88558 3.12467 10.093L2.94 10.344C2.89867 10.4007 2.93267 10.4472 3.01733 10.4472H3.14467C3.16067 10.5396 3.184 10.6004 3.21067 10.6004C3.23733 10.6004 3.26067 10.539 3.27667 10.4472H3.404C3.48933 10.4477 3.52333 10.4012 3.482 10.344ZM3.29933 9.46827C3.29933 9.60956 3.25933 9.59584 3.21067 9.59584C3.162 9.59584 3.122 9.60956 3.122 9.46827C3.122 9.32758 3.162 9.21311 3.21067 9.21311C3.26 9.21311 3.29933 9.32758 3.29933 9.46827ZM3.42867 9.75442C3.27067 9.75442 3.286 9.71865 3.286 9.67513C3.286 9.63161 3.27067 9.59584 3.42867 9.59584C3.586 9.59584 3.714 9.63102 3.714 9.67513C3.714 9.71925 3.586 9.75442 3.42867 9.75442ZM2.99333 9.75442C3.15133 9.75442 3.136 9.71865 3.136 9.67513C3.136 9.63161 3.15133 9.59584 2.99333 9.59584C2.836 9.59584 2.708 9.63102 2.708 9.67513C2.708 9.71925 2.836 9.75442 2.99333 9.75442ZM5.62733 10.344L5.442 10.093C5.43467 9.88617 5.4 9.72521 5.356 9.72521C5.312 9.72521 5.27733 9.88558 5.27 10.093L5.08467 10.344C5.04333 10.4007 5.07733 10.4472 5.162 10.4472H5.28933C5.30533 10.5396 5.32867 10.6004 5.35533 10.6004C5.382 10.6004 5.40533 10.539 5.42133 10.4472H5.54867C5.63533 10.4477 5.66933 10.4012 5.62733 10.344ZM5.44533 9.46827C5.44533 9.60956 5.40533 9.59584 5.35667 9.59584C5.308 9.59584 5.268 9.60956 5.268 9.46827C5.268 9.32758 5.308 9.21311 5.35667 9.21311C5.40533 9.21311 5.44533 9.32758 5.44533 9.46827ZM5.574 9.75442C5.416 9.75442 5.43133 9.71865 5.43133 9.67513C5.43133 9.63161 5.416 9.59584 5.574 9.59584C5.73133 9.59584 5.85933 9.63102 5.85933 9.67513C5.86 9.71925 5.732 9.75442 5.574 9.75442ZM5.13933 9.75442C5.29733 9.75442 5.282 9.71865 5.282 9.67513C5.282 9.63161 5.29733 9.59584 5.13933 9.59584C4.982 9.59584 4.854 9.63102 4.854 9.67513C4.854 9.71925 4.982 9.75442 5.13933 9.75442ZM3.99 8.7815C3.94867 8.83813 3.98267 8.88463 4.06733 8.88463H4.19467C4.21067 8.97704 4.234 9.03784 4.26067 9.03784C4.28733 9.03784 4.31067 8.97644 4.32667 8.88463H4.454C4.53867 8.88463 4.57267 8.83813 4.53133 8.7815L4.34667 8.53052C4.34467 8.46971 4.33933 8.41546 4.33267 8.36538H4.18867C4.182 8.41546 4.17733 8.46971 4.17533 8.53052L3.99 8.7815ZM1.896 8.7815C1.85467 8.83813 1.88867 8.88463 1.97333 8.88463H2.10067C2.11667 8.97704 2.14 9.03784 2.16667 9.03784C2.19333 9.03784 2.21667 8.97644 2.23267 8.88463H2.36C2.44467 8.88463 2.47867 8.83813 2.43733 8.7815L2.252 8.53052C2.25067 8.46971 2.24533 8.41546 2.23933 8.36538H2.09467C2.088 8.41546 2.08333 8.46971 2.08133 8.53052L1.896 8.7815ZM0.234667 11.0052C0.234667 11.1464 0.194667 11.1327 0.146 11.1327C0.0973333 11.1327 0.0573333 11.1464 0.0573333 11.0052C0.0573333 10.8645 0.0973333 10.75 0.146 10.75C0.194667 10.75 0.234667 10.8645 0.234667 11.0052ZM0.363333 11.2913C0.205333 11.2913 0.220667 11.2555 0.220667 11.212C0.220667 11.1685 0.205333 11.1327 0.363333 11.1327C0.520667 11.1327 0.648667 11.1679 0.648667 11.212C0.649333 11.2561 0.521333 11.2913 0.363333 11.2913ZM0.146 9.03844C0.172667 9.03844 0.196 8.97704 0.212 8.88523H0.34C0.424667 8.88523 0.458667 8.83873 0.417333 8.78209L0.232 8.53111C0.23 8.46971 0.224667 8.41546 0.218 8.36538H0.074C0.0673333 8.41546 0.0626667 8.46971 0.0606667 8.53052L0 8.61279V8.88523H0.08C0.0966667 8.97704 0.119333 9.03844 0.146 9.03844ZM0.146 12.1378C0.172667 12.1378 0.196 12.0764 0.212 11.984H0.34C0.424667 11.984 0.458667 11.9375 0.417333 11.8809L0.232 11.6299C0.225333 11.4225 0.19 11.2621 0.146 11.2621C0.102 11.2621 0.0673333 11.4225 0.06 11.6299L0 11.7122V11.984H0.08C0.096 12.0764 0.119333 12.1378 0.146 12.1378ZM0.0713333 11.212C0.0713333 11.1768 0.0773333 11.1482 0 11.1381V11.2865C0.0766667 11.2758 0.0713333 11.2472 0.0713333 11.212ZM2.448 11.8815L2.26267 11.6305C2.256 11.4231 2.22067 11.2627 2.17667 11.2627C2.13267 11.2627 2.098 11.4231 2.09067 11.6305L1.90667 11.8815C1.86533 11.9381 1.89933 11.9846 1.984 11.9846H2.11133C2.12733 12.077 2.15067 12.1384 2.17733 12.1384C2.204 12.1384 2.22733 12.077 2.24333 11.9846H2.37067C2.456 11.984 2.49 11.9375 2.448 11.8815ZM2.266 11.0052C2.266 11.1464 2.226 11.1327 2.17733 11.1327C2.12867 11.1327 2.08867 11.1464 2.08867 11.0052C2.08867 10.8645 2.12867 10.75 2.17733 10.75C2.226 10.75 2.266 10.8645 2.266 11.0052ZM2.39467 11.2913C2.23667 11.2913 2.252 11.2555 2.252 11.212C2.252 11.1685 2.23667 11.1327 2.39467 11.1327C2.552 11.1327 2.68 11.1679 2.68 11.212C2.68 11.2561 2.55267 11.2913 2.39467 11.2913ZM1.96 11.2913C2.118 11.2913 2.10267 11.2555 2.10267 11.212C2.10267 11.1685 2.118 11.1327 1.96 11.1327C1.80267 11.1327 1.67467 11.1679 1.67467 11.212C1.67467 11.2561 1.80267 11.2913 1.96 11.2913ZM4.55267 11.8815L4.36733 11.6305C4.36067 11.4231 4.32533 11.2627 4.28133 11.2627C4.23733 11.2627 4.20267 11.4231 4.19533 11.6305L4.01 11.8815C3.96867 11.9381 4.00267 11.9846 4.08733 11.9846H4.21467C4.23067 12.077 4.254 12.1384 4.28067 12.1384C4.30733 12.1384 4.33067 12.077 4.34667 11.9846H4.474C4.56 11.984 4.594 11.9375 4.55267 11.8815ZM4.37 11.0052C4.37 11.1464 4.33 11.1327 4.28133 11.1327C4.23267 11.1327 4.19267 11.1464 4.19267 11.0052C4.19333 10.8645 4.23267 10.75 4.28133 10.75C4.33067 10.75 4.37 10.8645 4.37 11.0052ZM4.49933 11.2913C4.34133 11.2913 4.35667 11.2555 4.35667 11.212C4.35667 11.1685 4.34133 11.1327 4.49933 11.1327C4.65667 11.1327 4.78467 11.1679 4.78467 11.212C4.78467 11.2561 4.65667 11.2913 4.49933 11.2913ZM4.064 11.2913C4.222 11.2913 4.20667 11.2555 4.20667 11.212C4.20667 11.1685 4.222 11.1327 4.064 11.1327C3.90667 11.1327 3.77867 11.1679 3.77867 11.212C3.77867 11.2561 3.90667 11.2913 4.064 11.2913ZM6.53 11.0052C6.53 11.1464 6.49 11.1327 6.44133 11.1327C6.39267 11.1327 6.35333 11.147 6.35333 11.0052C6.35333 10.8645 6.39267 10.75 6.442 10.75C6.49133 10.75 6.53 10.8645 6.53 11.0052ZM6.136 8.7815C6.09467 8.83813 6.12867 8.88463 6.21333 8.88463H6.34067C6.35667 8.97704 6.38 9.03784 6.40667 9.03784C6.43333 9.03784 6.45667 8.97644 6.47267 8.88463H6.6C6.63267 8.88463 6.65 8.87271 6.66667 8.86138V8.76719L6.492 8.53052C6.49 8.46971 6.48533 8.41546 6.47867 8.36538H6.33467C6.328 8.41546 6.32333 8.46971 6.32133 8.53052L6.136 8.7815ZM6.442 11.2621C6.398 11.2621 6.36333 11.4225 6.356 11.6299L6.17067 11.8809C6.12933 11.9375 6.16333 11.984 6.248 11.984H6.37533C6.39133 12.0764 6.41467 12.1378 6.44133 12.1378C6.468 12.1378 6.49133 12.0764 6.50733 11.984H6.63467C6.65 11.984 6.654 11.9757 6.666 11.9733V11.8189L6.52667 11.6305C6.52067 11.4231 6.48533 11.2621 6.442 11.2621ZM6.51667 11.212C6.51667 11.2555 6.50133 11.2913 6.65933 11.2913L6.66667 11.2907V11.1333L6.65933 11.1327C6.50067 11.1333 6.51667 11.1685 6.51667 11.212ZM6.224 11.2913C6.382 11.2913 6.36667 11.2555 6.36667 11.212C6.36667 11.1685 6.382 11.1327 6.224 11.1327C6.06667 11.1327 5.93867 11.1679 5.93867 11.212C5.93867 11.2561 6.06667 11.2913 6.224 11.2913ZM5.28933 13.1346H5.448C5.43533 12.9731 5.40533 12.855 5.36867 12.855C5.332 12.855 5.302 12.9731 5.28933 13.1346ZM5.45733 12.5981C5.45733 12.74 5.41733 12.7262 5.36867 12.7262C5.32 12.7262 5.28 12.74 5.28 12.5981C5.28 12.4574 5.32 12.3429 5.36867 12.3429C5.41733 12.3429 5.45733 12.4568 5.45733 12.5981ZM5.586 12.8842C5.428 12.8842 5.44333 12.8485 5.44333 12.8049C5.44333 12.7614 5.428 12.7257 5.586 12.7257C5.74333 12.7257 5.87133 12.7608 5.87133 12.8049C5.872 12.8491 5.744 12.8842 5.586 12.8842ZM5.15133 12.8842C5.30933 12.8842 5.294 12.8485 5.294 12.8049C5.294 12.7614 5.30933 12.7257 5.15133 12.7257C4.994 12.7257 4.866 12.7608 4.866 12.8049C4.866 12.8491 4.994 12.8842 5.15133 12.8842ZM3.322 12.5981C3.322 12.74 3.282 12.7262 3.23333 12.7262C3.18467 12.7262 3.14467 12.74 3.14467 12.5981C3.14467 12.4574 3.18467 12.3429 3.23333 12.3429C3.282 12.3429 3.322 12.4568 3.322 12.5981ZM3.45067 12.8842C3.29267 12.8842 3.308 12.8485 3.308 12.8049C3.308 12.7614 3.29267 12.7257 3.45067 12.7257C3.608 12.7257 3.736 12.7608 3.736 12.8049C3.736 12.8491 3.60867 12.8842 3.45067 12.8842ZM3.016 12.8842C3.174 12.8842 3.15867 12.8485 3.15867 12.8049C3.15867 12.7614 3.174 12.7257 3.016 12.7257C2.85867 12.7257 2.73067 12.7608 2.73067 12.8049C2.73067 12.8491 2.85867 12.8842 3.016 12.8842ZM3.154 13.1346H3.31267C3.3 12.9731 3.27 12.855 3.23333 12.855C3.19667 12.855 3.16667 12.9731 3.154 13.1346ZM1.01067 13.1346H1.16933C1.15667 12.9731 1.12667 12.855 1.09 12.855C1.05333 12.855 1.02333 12.9731 1.01067 13.1346ZM1.17867 12.5981C1.17867 12.74 1.13867 12.7262 1.09 12.7262C1.04133 12.7262 1.00133 12.74 1.00133 12.5981C1.00133 12.4574 1.04133 12.3429 1.09 12.3429C1.13867 12.3429 1.17867 12.4568 1.17867 12.5981ZM1.30733 12.8842C1.14933 12.8842 1.16467 12.8485 1.16467 12.8049C1.16467 12.7614 1.14933 12.7257 1.30733 12.7257C1.46467 12.7257 1.59267 12.7608 1.59267 12.8049C1.59267 12.8491 1.46467 12.8842 1.30733 12.8842ZM0.872667 12.8842C1.03067 12.8842 1.01533 12.8485 1.01533 12.8049C1.01533 12.7614 1.03067 12.7257 0.872667 12.7257C0.715333 12.7257 0.587333 12.7608 0.587333 12.8049C0.586667 12.8491 0.714667 12.8842 0.872667 12.8842Z" fill="#292F33"/>
<path d="M0 8.36538V5.38461V3L3.33333 3H4H6.66667V8.36538H4H3.33333H2.66667H0Z" fill="#DC241F"/>
<path d="M6.66668 3.88827V3H6.28868L4.00001 4.84212L3.33334 5.37269L2.66668 4.84212L1.01601 3.51329L1.01468 3.51269L0.36601 3.01171H0V3.91766L0.36601 4.18277L1.84401 5.37269L2.66401 5.97481L1.84401 6.57692L1.00136e-05 8.06135V8.36538H1.10334L2.66668 7.1075L3.33334 6.57692L4.00001 7.1075L5.56334 8.36538H6.66668V8.06135L4.82268 6.57692L3.99801 5.97481L4.82268 5.37269L6.66668 3.88827Z" fill="#009543"/>
<path d="M4 5.3721V3H2.66667V5.3721H0.000666667L0 5.38461V6.57692H2.66667V8.36538H4V6.57692H6.66667V5.3721H4Z" fill="#EEEEEE"/>
</g>
<defs>
<clipPath id="clip0_118_705">
<rect width="24" height="24" fill="white"/>
</clipPath>
</defs>
</svg>
