<svg width="24" height="24" viewBox="0 0 24 24" fill="none" xmlns="http://www.w3.org/2000/svg">
<path d="M0 4.25H24V19.75H0V4.25Z" fill="#003E87"/>
<path d="M12.2297 17.4112C15.3078 17.4112 17.8031 14.9936 17.8031 12.0114C17.8031 9.02914 15.3078 6.61157 12.2297 6.61157C9.15156 6.61157 6.65625 9.02914 6.65625 12.0114C6.65625 14.9936 9.15156 17.4112 12.2297 17.4112Z" fill="white"/>
<path fill-rule="evenodd" clip-rule="evenodd" d="M12.2766 8.22755C10.0627 8.22755 8.26795 9.96636 8.26795 12.1113C8.26795 14.2562 10.0627 15.995 12.2766 15.995C14.4905 15.995 16.2852 14.2562 16.2852 12.1113C16.2852 9.96636 14.4905 8.22755 12.2766 8.22755ZM7.42584 12.1113C7.42584 9.51577 9.59759 7.41168 12.2766 7.41168C14.9556 7.41168 17.1273 9.51577 17.1273 12.1113C17.1273 14.7068 14.9556 16.8109 12.2766 16.8109C9.59759 16.8109 7.42584 14.7068 7.42584 12.1113Z" fill="#6DA544"/>
<path d="M12.2765 11.1303L9.90466 12.193V13.1013C9.90466 13.6372 10.1906 14.1368 10.664 14.4138L12.2812 15.1041L13.8984 14.4138C14.3672 14.1322 14.6578 13.6372 14.6578 13.1013V12.193L12.2765 11.1303Z" fill="#003E87"/>
<path fill-rule="evenodd" clip-rule="evenodd" d="M12.2765 11.1053L14.6812 12.1785V13.1013C14.6812 13.6452 14.3862 14.1474 13.9108 14.433L13.9094 14.4339L12.2812 15.1288L10.6532 14.4339L10.652 14.4332C10.1714 14.152 9.88129 13.645 9.88129 13.1013V12.1785L12.2765 11.1053ZM12.2766 11.1553L9.92807 12.2075V13.1013C9.92807 13.6289 10.2093 14.1206 10.6749 14.3936L12.2812 15.0793L13.8875 14.3937C14.3487 14.116 14.6344 13.6287 14.6344 13.1013V12.2075L12.2766 11.1553Z" fill="black"/>
<path d="M9.90466 10.0676H14.6531V12.1884H9.90466V10.0676Z" fill="#FFDA44"/>
<path fill-rule="evenodd" clip-rule="evenodd" d="M9.88129 10.0449H14.6765V12.2111H9.88129V10.0449ZM9.92807 10.0902V12.1658H14.6297V10.0902H9.92807Z" fill="black"/>
<path d="M0 4.25H24V5.83951H0V4.25ZM0 18.1469H24V19.7364H0V18.1469Z" fill="#CE1127"/>
</svg>
