<svg width="24" height="24" viewBox="0 0 24 24" fill="none" xmlns="http://www.w3.org/2000/svg">
<path d="M0 14.8933H24V19.75H0V14.8933Z" fill="#009543"/>
<path d="M0 9.04494H24V14.9042H0V9.04494Z" fill="#ED4135"/>
<path d="M0 4.25H24V9.09216H0V4.25Z" fill="#0035AD"/>
<path d="M9.00001 17.7121C12.2578 17.7121 14.8988 15.1539 14.8988 11.9982C14.8988 8.84244 12.2578 6.28421 9.00001 6.28421C5.74222 6.28421 3.10126 8.84244 3.10126 11.9982C3.10126 15.1539 5.74222 17.7121 9.00001 17.7121Z" fill="#FAE600"/>
<path fill-rule="evenodd" clip-rule="evenodd" d="M9.00002 6.40431C5.8107 6.40431 3.22525 8.90877 3.22525 11.9982C3.22525 15.0876 5.8107 17.5921 9.00002 17.5921C12.1893 17.5921 14.7748 15.0876 14.7748 11.9982C14.7748 8.90877 12.1893 6.40431 9.00002 6.40431ZM2.97729 11.9982C2.97729 8.77612 5.67376 6.16412 9.00002 6.16412C12.3263 6.16412 15.0227 8.77612 15.0227 11.9982C15.0227 15.2202 12.3263 17.8322 9.00002 17.8322C5.67376 17.8322 2.97729 15.2202 2.97729 11.9982Z" fill="black"/>
<path d="M11.5463 17.1273L10.3538 17.5632L9.00002 17.7158L7.58252 17.6286L6.23627 17.0656C6.23627 17.0656 7.30877 16.0012 7.76252 15.8487C8.08502 15.7397 8.60252 15.7143 8.60252 15.7143V8.68168L8.59127 6.28421H9.22502L9.20627 8.73617V15.6997C9.20627 15.6997 9.78002 15.7433 10.035 15.8487C10.4588 16.0267 11.5463 17.1273 11.5463 17.1273V17.1273Z" fill="black"/>
<path d="M7.97723 7.9688L9.58805 7.19078L9.79718 7.59715L8.18637 8.37513L7.97723 7.9688Z" fill="black"/>
<path d="M8.91748 15.4019C9.26542 15.4019 9.54748 14.9709 9.54748 14.4392C9.54748 13.9076 9.26542 13.4766 8.91748 13.4766C8.56954 13.4766 8.28748 13.9076 8.28748 14.4392C8.28748 14.9709 8.56954 15.4019 8.91748 15.4019Z" fill="black"/>
<path d="M8.90252 10.2182C9.33538 10.2182 9.68627 9.87834 9.68627 9.45904C9.68627 9.03975 9.33538 8.69984 8.90252 8.69984C8.46967 8.69984 8.11877 9.03975 8.11877 9.45904C8.11877 9.87834 8.46967 10.2182 8.90252 10.2182Z" fill="black"/>
<path d="M8.93998 12.3578C9.35212 12.3578 9.68622 12.161 9.68622 11.9183C9.68622 11.6755 9.35212 11.4787 8.93998 11.4787C8.52783 11.4787 8.19373 11.6755 8.19373 11.9183C8.19373 12.161 8.52783 12.3578 8.93998 12.3578Z" fill="black"/>
<path d="M8.01752 10.6796H9.78002V11.0428H8.01752V10.6796ZM8.01752 12.7501H9.78002V13.1134H8.01752V12.7501Z" fill="black"/>
</svg>
