<svg width="24" height="24" viewBox="0 0 24 24" fill="none" xmlns="http://www.w3.org/2000/svg">
<path d="M0 4.25H24V19.75H0V4.25Z" fill="#338AF3"/>
<path d="M12 5.97121L12.4735 7.38814H14.0156L12.7688 8.26464L13.2469 9.68158L12 8.80508L10.7531 9.68158L11.2313 8.26464L9.9844 7.38814H11.5266L12 5.97121ZM5.77502 12.0023L7.23752 11.539V10.0494L8.14221 11.2575L9.60471 10.7942L8.70002 12.0023L9.60471 13.2058L8.14221 12.7471L7.23752 13.9506V12.461L5.77502 12.0023ZM12 18.0333L11.5266 16.6164H9.9844L11.2313 15.7399L10.7531 14.3184L12 15.1949L13.2469 14.3184L12.7688 15.7399L14.0156 16.6164H12.4735L12 18.0333ZM18.225 12.0023L16.7625 12.461V13.9506L15.8578 12.7471L14.3953 13.2058L15.3 12.0023L14.3953 10.7942L15.8578 11.2575L16.7625 10.0494V11.539L18.225 12.0023Z" fill="white"/>
</svg>
