<svg width="24" height="24" viewBox="0 0 24 24" fill="none" xmlns="http://www.w3.org/2000/svg">
<path d="M0 4.2498H24V19.75H0V4.2498Z" fill="#0052B4"/>
<path d="M15.5652 9.09339V12.6454C15.5652 14.3757 18 14.9059 18 14.9059C18 14.9059 20.4348 14.3757 20.4348 12.6454V9.09339H15.5652V9.09339Z" fill="#FFDA44"/>
<path d="M17.6521 10.385C17.6521 10.7417 17.3407 11.6767 16.9565 11.6767C16.5723 11.6767 16.2609 10.7418 16.2609 10.385C16.2609 10.0283 16.9565 9.73921 16.9565 9.73921C16.9565 9.73921 17.6521 10.0283 17.6521 10.385Z" fill="#FF9811"/>
<path d="M19.4982 11.0884C19.6104 10.8341 19.6977 10.4625 19.6977 10.2774C19.6977 9.98015 19.2803 9.73921 19.2803 9.73921C19.2803 9.73921 18.863 9.98015 18.863 10.2774C18.863 10.4625 18.9503 10.8341 19.0625 11.0884L18.8215 11.5935C18.9678 11.6487 19.1234 11.6769 19.2803 11.6767C19.4427 11.6767 19.5975 11.647 19.7392 11.5935L19.4982 11.0884Z" fill="#A2001D"/>
<path d="M17.4783 12.6454C17.4783 12.6454 17.1304 13.2912 17.1304 13.9371H18.8695C18.8695 13.2913 18.5217 12.6454 18.5217 12.6454L17.9999 12.3225L17.4783 12.6454Z" fill="#6DA544"/>
<path d="M18.5217 12.6454V12.484C18.5217 12.2165 18.2881 11.9996 18 11.9996C17.7119 11.9996 17.4783 12.2165 17.4783 12.484V12.6454H18.5217Z" fill="#D80027"/>
<path d="M12 4.2498V5.63722L9.8828 6.77697H12V9.47247H9.22955L12 10.9635V11.9996H10.7494L7.30434 10.1457V11.9996H4.69566V9.79393L0.597375 11.9996H0V10.6122L2.1172 9.47247H0V6.77697H2.77045L0 5.28542V4.2498H1.25063L4.69566 6.10367V4.2498H7.30434V6.45546L11.4026 4.2498H12Z" fill="white"/>
<path d="M6.75 4.24958H5.25V7.39796H0V8.85108H5.25V11.9996H6.75V8.85108H12V7.39796H6.75V4.24958Z" fill="#D80027"/>
<path d="M7.30435 9.47247L12 11.9996V11.285L8.63218 9.47247H7.30435Z" fill="#0052B4"/>
<path d="M7.30435 9.47247L12 11.9996V11.285L8.63218 9.47247H7.30435Z" fill="white"/>
<path d="M7.30434 9.47247L12 11.9996V11.285L8.63217 9.47247H7.30434ZM3.36778 9.47247L0 11.285V11.9996L4.69566 9.47247H3.36778Z" fill="#D80027"/>
<path d="M4.69566 6.77674L0 4.24958V4.9642L3.36783 6.77674H4.69566Z" fill="#0052B4"/>
<path d="M4.69566 6.77674L0 4.24958V4.9642L3.36783 6.77674H4.69566Z" fill="white"/>
<path d="M4.69566 6.77674L0 4.24958V4.9642L3.36783 6.77674H4.69566ZM8.63222 6.77674L12 4.9642V4.24958L7.30434 6.77674H8.63222Z" fill="#D80027"/>
</svg>
