<svg width="24" height="24" viewBox="0 0 24 24" fill="none" xmlns="http://www.w3.org/2000/svg">
<path d="M0.0233765 4.26587H23.9766V19.7341H0.0233765V4.26587Z" fill="#D80027"/>
<path d="M0.542664 4.76895H23.4526V19.2311H0.542664V4.76895Z" fill="#0052B4"/>
<path d="M12 17.1961C12 17.1961 15.5743 14.8711 15.5743 12.0023C15.5743 9.13343 12 6.80389 12 6.80389C12 6.80389 8.42572 9.12889 8.42572 11.9978C8.42572 14.8666 12 17.1961 12 17.1961Z" fill="#7DBEF1"/>
<path d="M8.43506 12.4555H15.5742L14.2035 15.3968H9.74968L8.43506 12.4555Z" fill="#1C8AE6"/>
<path d="M9.01987 13.5976C9.01987 13.5976 10.9146 15.3289 11.4058 15.3289C11.9859 15.3289 11.9953 14.495 12.5988 14.1732C13.5438 13.6701 14.9848 13.5976 14.9848 13.5976L13.9181 15.5374L12 17.1961L9.81051 15.3969L9.01987 13.5976V13.5976Z" fill="#FFF042"/>
<path d="M12 11.404L10.9474 12.111L11.3169 10.9236L10.2971 10.1758L11.5789 10.1531L12 8.97931L12.421 10.1531L13.7029 10.1758L12.683 10.9281L13.0526 12.1156L12 11.404V11.404Z" fill="#259C7B"/>
<path d="M11.7053 10.8194C11.6631 11.2363 11.6351 11.6533 11.6257 12.0703C11.6117 12.6096 11.6398 13.0084 11.7193 13.2486C11.8222 13.5477 12.0561 13.8333 12.3836 14.1052C12.6316 14.3137 12.8795 14.4723 13.0479 14.563C13.193 14.64 13.3754 14.5901 13.455 14.4542C13.5345 14.3137 13.483 14.1369 13.3427 14.0599C13.1415 13.9466 12.9497 13.8151 12.7719 13.6656C12.5193 13.4571 12.3462 13.2486 12.2854 13.0628C12.2339 12.9087 12.2105 12.5507 12.2199 12.0793C12.2292 11.676 12.2573 11.2726 12.2994 10.8738C12.3181 10.7151 12.1965 10.5746 12.0327 10.5565C11.8643 10.5429 11.7193 10.6608 11.7053 10.8194V10.8194Z" fill="#8E5715"/>
<path d="M10.2129 12.0023L11.4058 13.7335H10.2129V12.0023Z" fill="white"/>
<path fill-rule="evenodd" clip-rule="evenodd" d="M12.1567 6.57825L12 6.80387L11.8435 6.57811L12.0001 6.47623L12.1567 6.57825ZM12 17.1961C11.8433 17.4217 11.8432 17.4217 11.8431 17.4216L11.8421 17.421L11.8397 17.4194C11.8376 17.418 11.8347 17.4161 11.8309 17.4136C11.8258 17.4102 11.8191 17.4057 11.811 17.4002C11.8072 17.3977 11.8032 17.3949 11.7988 17.392C11.7711 17.3732 11.7311 17.3457 11.6806 17.3099C11.5796 17.2382 11.4363 17.1333 11.2647 16.9985C10.9221 16.7294 10.4646 16.3395 10.0063 15.8569C9.09886 14.9013 8.14502 13.5368 8.14502 11.9977C8.14502 10.4586 9.09892 9.09523 10.0064 8.14075C10.4647 7.65866 10.9222 7.26937 11.2649 7.00063C11.4364 6.86608 11.5798 6.76132 11.6808 6.68981C11.7313 6.65404 11.7713 6.62657 11.799 6.60781C11.8129 6.59843 11.8236 6.59123 11.8311 6.58627C11.8349 6.58378 11.8378 6.58186 11.8399 6.5805L11.8423 6.57888L11.8433 6.57822C11.8434 6.57816 11.8435 6.57811 12 6.80387C12.1567 6.57825 12.1568 6.5783 12.1568 6.57836L12.1571 6.57853L12.1579 6.57902L12.1603 6.58064C12.1624 6.582 12.1653 6.58393 12.1691 6.58642C12.1765 6.59139 12.1873 6.59861 12.2012 6.608C12.2289 6.62679 12.2688 6.65431 12.3194 6.69014C12.4204 6.76178 12.5637 6.86672 12.7353 7.00147C13.0779 7.27064 13.5354 7.66049 13.9937 8.14314C14.9011 9.09871 15.855 10.4631 15.855 12.0023C15.855 13.5414 14.9011 14.9048 13.9936 15.8592C13.5352 16.3413 13.0778 16.7306 12.7351 16.9994C12.5635 17.1339 12.4202 17.2387 12.3192 17.3102C12.2686 17.3459 12.2287 17.3734 12.201 17.3922C12.1871 17.4016 12.1763 17.4088 12.1688 17.4137C12.1651 17.4162 12.1622 17.4181 12.1601 17.4195L12.1576 17.4211L12.1569 17.4216L12.1566 17.4218C12.1565 17.4218 12.1565 17.4219 12 17.1961ZM12 17.1961L11.8433 17.4217L11.9998 17.5238L12.1565 17.4219L12 17.1961ZM12.0001 16.8624C12.0939 16.7958 12.2252 16.6995 12.3818 16.5767C12.7093 16.3198 13.1454 15.9486 13.5807 15.4908C14.4603 14.5656 15.2936 13.3319 15.2936 12.0023C15.2936 10.6725 14.4603 9.43776 13.5805 8.51135C13.1453 8.05301 12.7092 7.68117 12.3817 7.4239C12.225 7.30081 12.0936 7.20434 11.9998 7.13757C11.9061 7.20421 11.7748 7.30049 11.6181 7.42333C11.2906 7.68017 10.8545 8.05144 10.4193 8.5092C9.53966 9.43444 8.70642 10.668 8.70642 11.9977C8.70642 13.3275 9.53972 14.5622 10.4194 15.4886C10.8547 15.947 11.2908 16.3188 11.6183 16.5761C11.775 16.6992 11.9063 16.7957 12.0001 16.8624Z" fill="#D80027"/>
</svg>
