<svg width="24" height="24" viewBox="0 0 24 24" fill="none" xmlns="http://www.w3.org/2000/svg">
<path d="M0 4.25043H24V19.7501H0V4.25043Z" fill="#6DA544"/>
<path d="M10.1186 12.0004L0 18.5352V5.46512L10.1186 12.0004ZM24 5.46512V18.5352L13.8814 12.0004L24 5.46512Z" fill="black"/>
<path d="M24 5.46496L13.8814 12.0003L24 18.535V19.7501H22.1191L12 13.2148L1.88086 19.7501H0V18.535L10.1186 12.0003L0 5.46496V4.24988H1.88086L12 10.7852L22.1191 4.24988H24V5.46496Z" fill="#0052B4"/>
<path d="M24 5.46496L13.8814 12.0003L24 18.535V19.7501H22.1191L12 13.2148L1.88086 19.7501H0V18.535L10.1186 12.0003L0 5.46496V4.24988H1.88086L12 10.7852L22.1191 4.24988H24V5.46496Z" fill="#FFDA44"/>
</svg>
