<svg width="24" height="24" viewBox="0 0 24 24" fill="none" xmlns="http://www.w3.org/2000/svg">
<path d="M24 4.25H0V19.75H24V4.25Z" fill="#C8102E"/>
<path d="M24 4.25H0V9.41667H24V4.25Z" fill="#003087"/>
<path d="M18.688 17.9708L14.5815 15.9792V16.078L18.5399 18.1142L18.688 17.9708Z" fill="#43B02A"/>
<path d="M18.5403 18.1161L18.5393 18.1155L14.5803 16.079V15.9768L14.5825 15.978L18.6909 17.9702L18.5403 18.1161ZM14.5831 16.0771L18.5397 18.1124L18.6856 17.9711L14.5834 15.9817V16.0768L14.5831 16.0771Z" fill="black"/>
<path d="M18.8917 17.7284L14.5815 15.8626V15.9367L18.8084 17.89L18.8917 17.7284Z" fill="#43B02A"/>
<path d="M18.8093 17.8918L18.8081 17.8912L14.5803 15.9376V15.8605L14.5825 15.8615L18.8943 17.7279L18.8097 17.8921L18.8093 17.8918ZM14.5831 15.9358L18.8078 17.8879L18.8896 17.7291L14.5831 15.8651V15.9358Z" fill="black"/>
<path d="M19.012 17.4862L14.5815 15.7372V15.8626L18.9012 17.6388L19.012 17.4862Z" fill="#43B02A"/>
<path d="M18.9016 17.6407L18.9003 17.6401L14.58 15.8636V15.7348L14.5822 15.7357L19.0146 17.4856L19.0134 17.4871L18.9016 17.6407ZM14.5831 15.8618L18.9003 17.637L19.0096 17.4871L14.5831 15.7397V15.8621V15.8618Z" fill="black"/>
<path d="M19.1418 17.2261L14.5815 15.5757V15.6653L19.0585 17.3876L19.1418 17.2261Z" fill="#43B02A"/>
<path d="M19.0591 17.3895L19.0579 17.3889L14.58 15.6663V15.5733L14.5822 15.5742L19.1441 17.2252L19.1435 17.2268L19.0595 17.3895H19.0591ZM14.5831 15.6644L19.0576 17.3858L19.1394 17.2271L14.5828 15.5779V15.6644H14.5831Z" fill="black"/>
<path d="M19.2435 16.948L14.5815 15.5757V15.6653L19.1605 17.1096L19.2435 16.948Z" fill="#43B02A"/>
<path d="M19.1611 17.1114H19.1599L14.58 15.6666V15.5736L14.5819 15.5742L19.2458 16.9472L19.1611 17.1114ZM14.5831 15.6644L19.1596 17.1078L19.2414 16.949L14.5831 15.5779V15.6644Z" fill="black"/>
<path d="M19.4289 16.688L14.5815 15.45V15.5757L19.3086 16.8495L19.4289 16.688Z" fill="#43B02A"/>
<path d="M19.3092 16.8511H19.3083L14.5803 15.5766V15.4478L14.5822 15.4485L19.4318 16.6868L19.4305 16.6887L19.3096 16.8511H19.3092ZM14.5831 15.5745L19.3077 16.8477L19.4261 16.689L14.5831 15.4521V15.5745Z" fill="black"/>
<path d="M19.594 16.4509L14.5815 15.2438V15.3918L19.4996 16.6296L19.594 16.4509Z" fill="#43B02A"/>
<path d="M19.5006 16.6312H19.4994L14.58 15.3928V15.2417H14.5819L19.5963 16.4497L19.5954 16.4516L19.5003 16.6312H19.5006ZM14.5831 15.3907L19.4987 16.6278L19.5916 16.4522L14.5828 15.246V15.391L14.5831 15.3907Z" fill="black"/>
<path d="M7.69258 14.423C7.54921 14.6427 7.48226 14.7253 7.47658 14.9703C7.47089 15.2151 7.45889 15.2438 7.45889 15.2438C7.45889 15.2438 7.27605 15.0061 7.36858 14.6922C7.4611 14.3784 7.76868 14.1315 8.30016 14.1003C8.83163 14.0688 8.831 14.1284 8.831 14.1284V14.2572C8.831 14.2572 8.0491 14.2483 7.90574 14.3156C7.76237 14.383 7.69289 14.4233 7.69289 14.4233L7.69258 14.423Z" fill="#43B02A"/>
<path d="M7.45957 15.2469L7.45799 15.2447C7.45799 15.2447 7.41157 15.1839 7.37778 15.0863C7.34652 14.996 7.31936 14.8544 7.36736 14.6919C7.41536 14.5298 7.51957 14.3903 7.66925 14.289C7.83378 14.1777 8.04599 14.1138 8.30052 14.0988C8.72746 14.0734 8.81241 14.1064 8.82915 14.122C8.83294 14.1254 8.83294 14.1278 8.83294 14.1284V14.2591H8.83136C8.82346 14.2591 8.0482 14.2508 7.90673 14.3172C7.76967 14.3814 7.69957 14.4215 7.6942 14.4246C7.68346 14.4408 7.67336 14.4567 7.66357 14.4714C7.5401 14.6589 7.48389 14.7446 7.47883 14.9706C7.47315 15.2129 7.46146 15.2435 7.46115 15.2447L7.4602 15.2472L7.45957 15.2469ZM8.56704 14.0926C8.49789 14.0926 8.41073 14.0951 8.30052 14.1018C8.04662 14.1168 7.83504 14.1808 7.67083 14.2915C7.52178 14.3924 7.41789 14.531 7.3702 14.6926C7.32252 14.8544 7.34967 14.9954 7.38062 15.085C7.41031 15.171 7.44946 15.2279 7.45862 15.2402C7.46146 15.2285 7.47062 15.1759 7.47536 14.97C7.48041 14.743 7.53694 14.6574 7.66073 14.4692C7.67052 14.4542 7.68094 14.4386 7.69167 14.4221L7.69231 14.4215C7.69231 14.4215 7.76336 14.3802 7.90546 14.3138C8.04473 14.2487 8.78999 14.2551 8.8301 14.2554V14.1281C8.8301 14.1281 8.82346 14.0926 8.56736 14.0926H8.56704Z" fill="black"/>
<path d="M8.54934 14.2257C8.54934 14.2257 8.3965 14.6607 8.14671 14.8938C7.8966 15.1269 7.3465 15.3154 7.3465 15.3154C7.3465 15.3154 7.9705 15.0731 8.08165 14.7546C8.19281 14.4362 8.37344 14.2254 8.37344 14.2254H8.54934V14.2257Z" fill="#43B02A"/>
<path d="M7.34684 15.3169L7.34558 15.3142C7.34558 15.3142 7.50348 15.2524 7.67148 15.1533C7.82621 15.0618 8.02295 14.9183 8.08011 14.7543C8.19 14.4392 8.37032 14.2266 8.37221 14.2245L8.37284 14.2239H8.55158L8.55095 14.226C8.54937 14.2303 8.39527 14.6641 8.14769 14.8948C7.90042 15.1254 7.35253 15.3148 7.34716 15.3166L7.34684 15.3169ZM8.37411 14.2272C8.36369 14.2395 8.19032 14.4487 8.08327 14.7553C8.02579 14.9201 7.82842 15.0642 7.67337 15.1557C7.56758 15.2181 7.46621 15.2655 7.40558 15.2921C7.55463 15.2362 7.94716 15.0777 8.14579 14.8926C8.3839 14.6705 8.53579 14.2597 8.54748 14.2269H8.37442L8.37411 14.2272Z" fill="black"/>
<path d="M8.99838 13.2033C8.99838 13.2033 7.36638 13.5466 6.89427 13.7035C6.42217 13.8605 6.13132 14.0321 5.99995 14.3622C5.86859 14.6922 6.06785 14.8942 6.06785 14.8942C6.06785 14.8942 5.97059 14.6968 6.11648 14.4233C6.26238 14.1499 6.46132 14.0036 6.8548 13.8727C7.24827 13.7418 8.99838 13.4753 8.99838 13.4753V13.2036V13.2033Z" fill="#43B02A"/>
<path d="M6.07357 14.9021L6.06663 14.8951C6.06663 14.8951 6.0161 14.8434 5.98326 14.7522C5.95263 14.6684 5.93052 14.5323 5.99873 14.3612C6.06315 14.1997 6.16452 14.074 6.31863 13.9663C6.45631 13.8699 6.63378 13.7883 6.89399 13.7017C7.36105 13.5466 8.982 13.2049 8.99842 13.2015H9.00031V13.4759H8.99905C8.98168 13.4787 7.24484 13.7439 6.85578 13.8733C6.654 13.9406 6.50715 14.011 6.3941 14.0951C6.2801 14.1798 6.19231 14.2842 6.1181 14.4233C6.07673 14.5011 6.02936 14.6228 6.03915 14.7605C6.04515 14.8428 6.06915 14.8923 6.06947 14.8929L6.07357 14.9015V14.9021ZM8.99684 13.2052C8.93242 13.2186 7.3541 13.5521 6.89463 13.7047C6.63473 13.791 6.45757 13.8727 6.32021 13.9691C6.16673 14.0764 6.06568 14.2016 6.00157 14.3628C5.934 14.5329 5.95578 14.6681 5.9861 14.7516C6.01199 14.8229 6.04799 14.8694 6.06252 14.8862C6.05526 14.8685 6.04042 14.8244 6.03568 14.7617C6.03 14.6852 6.03947 14.5644 6.11494 14.4227C6.18947 14.2829 6.27726 14.1783 6.39157 14.0933C6.50494 14.0091 6.65178 13.9385 6.85421 13.8712C7.23884 13.7433 8.93968 13.4826 8.99652 13.4738V13.2052H8.99684Z" fill="black"/>
<path d="M8.81074 13.1131C8.81074 13.1131 5.94969 13.2033 5.88716 13.3826C5.82464 13.5618 5.67874 13.7638 5.67874 13.7638C5.67874 13.7638 5.72864 13.3547 5.92821 13.2584C6.7619 12.8558 8.81043 12.95 8.81043 12.95V13.1134L8.81074 13.1131Z" fill="#43B02A"/>
<path d="M5.67665 13.7696L5.67728 13.7635C5.67728 13.7635 5.69023 13.6598 5.72717 13.5466C5.76128 13.4419 5.82412 13.3067 5.9277 13.2566C6.11812 13.1648 6.38812 13.0914 6.73012 13.0384C7.00391 12.9962 7.32412 12.9668 7.68191 12.9512C8.29138 12.9246 8.80549 12.9479 8.81054 12.9479H8.81212V13.1143H8.81054C8.7818 13.1152 5.9498 13.2064 5.88823 13.3829C5.82633 13.5603 5.68107 13.7625 5.6798 13.7644L5.67633 13.7693L5.67665 13.7696ZM8.29075 12.9418C8.11391 12.9418 7.90454 12.9448 7.68223 12.9546C7.32444 12.9702 7.00423 12.9996 6.73075 13.0418C6.38875 13.0947 6.11907 13.1678 5.92928 13.2596C5.74612 13.348 5.68865 13.7056 5.68138 13.7576C5.70444 13.7246 5.82949 13.5432 5.8857 13.3823C5.91191 13.3073 6.41212 13.2388 7.37244 13.1792C8.07128 13.1357 8.7717 13.1131 8.80928 13.1115V12.9512C8.7897 12.9503 8.5857 12.9418 8.29075 12.9418Z" fill="black"/>
<path d="M9.54309 13.4315C9.54309 13.4315 6.73257 13.9589 6.70036 14.1456C6.66783 14.3322 6.55699 14.554 6.55699 14.554C6.55699 14.554 6.5393 14.1425 6.72088 14.0165C7.47815 13.4912 9.51657 13.2703 9.51657 13.2703L9.54309 13.4315Z" fill="#43B02A"/>
<path d="M6.55547 14.5598V14.5537C6.55547 14.5537 6.55105 14.4493 6.56905 14.3319C6.58579 14.2233 6.62558 14.0804 6.71968 14.0149C6.89242 13.895 7.14726 13.7812 7.47631 13.6766C7.73968 13.5928 8.05105 13.5148 8.40189 13.4447C8.99937 13.3251 9.51063 13.2691 9.516 13.2685H9.51758V13.2697L9.54442 13.4325H9.54284C9.51473 13.438 6.73326 13.962 6.70137 14.1456C6.66916 14.3303 6.55895 14.5521 6.55768 14.5543L6.55484 14.5598H6.55547ZM9.51505 13.2719C9.48379 13.2752 8.98421 13.3315 8.40284 13.4478C8.052 13.5178 7.74063 13.5958 7.47758 13.6796C7.14852 13.7843 6.89431 13.8978 6.72158 14.0177C6.55516 14.1333 6.55705 14.4949 6.558 14.5475C6.57537 14.5114 6.66947 14.3132 6.69852 14.1453C6.7121 14.0672 7.19494 13.9232 8.13316 13.717C8.81621 13.5671 9.504 13.4374 9.54095 13.4303L9.51473 13.2719H9.51505Z" fill="black"/>
<path d="M4.46558 12.8723C4.46558 12.8723 5.03873 12.5545 5.88473 12.4774C6.73073 12.4003 7.44663 12.7114 7.44663 12.7114C7.44663 12.7114 6.22326 12.221 5.44263 12.4248C4.662 12.6282 4.46558 12.8723 4.46558 12.8723Z" fill="#43B02A"/>
<path d="M4.45926 12.8775L4.46431 12.8714C4.46431 12.8714 4.51515 12.8093 4.66073 12.7237C4.90326 12.5808 5.21968 12.4814 5.44231 12.4235C5.62042 12.377 5.83673 12.3633 6.08526 12.3826C6.28389 12.3979 6.50336 12.4343 6.73768 12.4909C6.9341 12.5383 7.10873 12.5918 7.23536 12.6343C7.36831 12.6765 7.446 12.7099 7.44726 12.7105L7.446 12.7133C7.446 12.7133 7.36452 12.6808 7.23442 12.6371C7.16463 12.6151 7.07968 12.5906 6.98273 12.5673C6.72315 12.5052 6.3221 12.4395 5.88505 12.4792C5.448 12.519 5.08579 12.6242 4.85842 12.7056C4.61242 12.7937 4.46779 12.8732 4.46652 12.8739L4.45957 12.8778L4.45926 12.8775ZM5.87652 12.377C5.71421 12.377 5.56926 12.3936 5.44294 12.4263C5.22063 12.4844 4.90484 12.5832 4.66231 12.7261C4.54452 12.7955 4.48926 12.8488 4.47252 12.8668C4.50568 12.8491 4.64305 12.779 4.85715 12.7025C5.08452 12.6212 5.44705 12.5159 5.88442 12.4762C6.32179 12.4364 6.72315 12.5022 6.98305 12.5643C7.02947 12.5753 7.07336 12.5869 7.11379 12.5982C7.00547 12.5643 6.87663 12.5273 6.73642 12.4936C6.50242 12.4373 6.28294 12.4009 6.08431 12.3856C6.012 12.3801 5.94252 12.3774 5.87589 12.3774L5.87652 12.377Z" fill="black"/>
<path d="M4.03986 12.5664C4.03986 12.5664 3.92333 12.2797 4.46333 12.0216C5.00333 11.7634 5.99965 11.8331 5.99965 11.8331L6.13291 11.9729C6.13291 11.9729 5.17386 11.9007 4.62975 12.109C4.08565 12.3171 4.03954 12.5664 4.03954 12.5664H4.03986Z" fill="#43B02A"/>
<path d="M4.04053 12.5719L4.03863 12.567C4.02853 12.5419 4.01747 12.4728 4.04779 12.3902C4.11158 12.218 4.30863 12.0938 4.46305 12.02C4.74221 11.8867 5.14548 11.8423 5.43442 11.8288C5.74769 11.8142 5.99779 11.8313 6.00032 11.8316H6.00095L6.00126 11.8322L6.13737 11.9748H6.13326C6.13074 11.9742 5.89011 11.9567 5.586 11.9644C5.07758 11.9775 4.78611 12.0509 4.63105 12.1103C4.476 12.1696 4.26379 12.2709 4.13242 12.4165C4.05411 12.5034 4.04179 12.5658 4.04179 12.5664L4.04084 12.5716L4.04053 12.5719ZM5.69369 11.8261C5.61632 11.8261 5.52821 11.8276 5.43442 11.8319C5.14579 11.8454 4.74316 11.8894 4.46432 12.0228C4.31053 12.0962 4.11411 12.2198 4.05095 12.3911C4.02253 12.4682 4.03042 12.5331 4.0399 12.5612C4.04463 12.5444 4.0639 12.4884 4.13021 12.415C4.20284 12.3342 4.34874 12.2155 4.63011 12.1078C4.78547 12.0485 5.07726 11.9748 5.58632 11.9616C5.86926 11.9543 6.09726 11.969 6.13011 11.9714L6 11.835C5.99021 11.8344 5.86926 11.8264 5.69432 11.8264L5.69369 11.8261Z" fill="black"/>
<path d="M6.11654 11.8331C6.11654 11.8331 5.03307 11.4094 4.63044 11.3623C4.22781 11.3152 4.10275 11.3623 4.10275 11.3623C4.10275 11.3623 4.71633 11.4804 5.14928 11.6367C5.58191 11.7927 6.13359 11.9729 6.13359 11.9729L6.11654 11.8331Z" fill="#43B02A"/>
<path d="M6.13516 11.9751L6.13264 11.9741C6.12727 11.9723 5.5759 11.7921 5.14832 11.6376C4.72074 11.4831 4.10811 11.3644 4.10211 11.3632L4.09674 11.3623L4.10179 11.3605C4.10179 11.3605 4.2319 11.3137 4.63043 11.3605C4.83853 11.3849 5.23169 11.5116 5.52474 11.6138C5.84242 11.7242 6.114 11.8307 6.11685 11.8316H6.11779L6.13516 11.9751ZM4.10874 11.3617C4.17316 11.3742 4.74411 11.4886 5.14958 11.6349C5.56295 11.7842 6.09158 11.9573 6.13137 11.9705L6.11495 11.834C6.09758 11.8273 5.83232 11.7239 5.52379 11.6165C5.23074 11.5143 4.8379 11.3877 4.63011 11.3635C4.42232 11.3394 4.29032 11.3406 4.21579 11.3458C4.15421 11.3501 4.12106 11.358 4.10874 11.3617Z" fill="black"/>
<path d="M3.65115 11.712C3.65115 11.712 4.48926 11.6884 5.28315 11.9139C6.07705 12.1393 9.23463 13.4949 9.23463 13.4949L9.16515 13.616C9.16515 13.616 6.98463 12.5872 5.82473 12.2167C4.66515 11.8463 3.65115 11.7123 3.65115 11.7123V11.712Z" fill="#43B02A"/>
<path d="M9.16579 13.6179L9.16452 13.6172C9.14273 13.6068 6.97073 12.5842 5.82442 12.218C4.6781 11.8518 3.66126 11.7147 3.65115 11.7135V11.7105C3.65336 11.7105 3.86431 11.7049 4.16968 11.727C4.45136 11.7472 4.87357 11.7961 5.28379 11.9124C6.06852 12.1351 9.20368 13.4799 9.23526 13.4933L9.23684 13.494L9.23589 13.4955L9.16579 13.6179ZM3.67073 11.7132C3.81663 11.734 4.76557 11.8766 5.82536 12.2152C6.96031 12.5777 9.09947 13.5833 9.16452 13.6139L9.23242 13.4955C9.14684 13.4588 6.06031 12.136 5.28284 11.9154C5.05673 11.8512 4.67968 11.767 4.16968 11.73C3.91768 11.7117 3.72979 11.7123 3.67105 11.7132H3.67073Z" fill="black"/>
<path d="M5.60368 13.8635C5.60368 13.8635 6.34421 13.4823 7.15863 13.3431C7.97305 13.2039 9.47526 13.2308 9.47526 13.2308L9.51252 13.4049C9.51252 13.4049 8.99147 13.2155 7.78263 13.3816C6.57347 13.5478 5.60336 13.8632 5.60336 13.8632L5.60368 13.8635Z" fill="#43B02A"/>
<path d="M5.60432 13.865L5.60306 13.8623C5.60495 13.8613 5.79158 13.7656 6.07516 13.6542C6.33695 13.5515 6.73769 13.4138 7.15864 13.3419C7.57958 13.27 8.18716 13.2434 8.62264 13.2336C9.09443 13.2229 9.47179 13.2296 9.47558 13.2296H9.47685V13.2309L9.51474 13.4074L9.5119 13.4064C9.5119 13.4064 9.37864 13.3587 9.10043 13.3327C8.84369 13.3086 8.40695 13.2975 7.78264 13.3835C6.58769 13.5478 5.61348 13.862 5.60369 13.865H5.60432ZM9.17211 13.2305C9.02401 13.2305 8.83264 13.2318 8.62264 13.2367C8.18716 13.2465 7.5799 13.2731 7.15895 13.345C6.73832 13.4168 6.3379 13.5542 6.07643 13.6573C5.84211 13.7494 5.67411 13.8305 5.62169 13.8565C5.7619 13.8124 6.67801 13.5325 7.78264 13.3808C8.12748 13.3333 8.63622 13.2862 9.10137 13.33C9.35811 13.3541 9.49074 13.3964 9.51064 13.4031L9.47401 13.233C9.46074 13.233 9.34674 13.2309 9.17211 13.2309V13.2305Z" fill="black"/>
<path d="M4.0004 10.9047C4.0004 10.9047 4.43745 11.1332 4.66008 11.3284C5.02829 11.6514 5.50071 11.7762 5.9864 11.927C6.46008 12.0742 6.56587 12.1088 6.56587 12.1088C6.56587 12.1088 5.6185 12.0684 5.04219 11.7823C4.46587 11.4966 4.5284 11.3418 4.31303 11.1466C4.18387 11.0295 4.0004 10.9044 4.0004 10.9044V10.9047Z" fill="#43B02A"/>
<path d="M6.57695 12.1109L6.5659 12.1103C6.56369 12.1103 6.32559 12.0996 6.0199 12.0543C5.50895 11.9784 5.2058 11.8653 5.04127 11.7839C4.64495 11.5875 4.55117 11.4538 4.46022 11.3244C4.41853 11.265 4.37906 11.2091 4.3118 11.1479C4.18422 11.0322 4.00138 10.9071 3.99948 10.9059L4.00106 10.9034C4.00548 10.9056 4.44096 11.1341 4.66106 11.3274C4.99674 11.622 5.41611 11.7505 5.86043 11.887C5.90243 11.8998 5.94474 11.9127 5.98706 11.9258C6.45538 12.0711 6.56527 12.1072 6.56653 12.1075L6.57695 12.1109ZM4.02253 10.9184C4.07464 10.9551 4.21169 11.0533 4.31369 11.1457C4.38127 11.2069 4.42074 11.2632 4.46274 11.3229C4.55338 11.452 4.64717 11.585 5.04253 11.7814C5.20674 11.8628 5.50959 11.976 6.02022 12.0516C6.28738 12.0913 6.50306 12.1042 6.55422 12.1069C6.51695 12.095 6.37517 12.0497 5.9858 11.9289C5.94348 11.9157 5.90148 11.9029 5.85917 11.89C5.41485 11.7539 4.99485 11.6251 4.65885 11.3299C4.46811 11.1626 4.11569 10.9686 4.02253 10.9184Z" fill="black"/>
<path d="M8.34916 13.5885C8.34916 13.5885 7.67558 13.4269 7.09926 13.5279C6.52295 13.6288 6.16168 13.9118 6.16168 13.9118C6.16168 13.9118 6.51568 13.7488 7.18263 13.6726C7.99673 13.5793 8.39779 13.75 8.39779 13.75L8.34916 13.5885Z" fill="#43B02A"/>
<path d="M6.15031 13.9189L6.16073 13.9109C6.16073 13.9109 6.25294 13.839 6.41368 13.7567C6.56178 13.6806 6.80115 13.579 7.09894 13.5267C7.39673 13.4747 7.72105 13.4936 7.94052 13.519C8.17831 13.5466 8.34789 13.5866 8.34947 13.5873H8.35041V13.5885L8.39999 13.7531L8.39684 13.7518C8.39684 13.7518 8.2942 13.709 8.09463 13.6784C7.91052 13.6503 7.60263 13.6267 7.18231 13.6747C6.9922 13.6965 6.7061 13.7399 6.4222 13.8228C6.25231 13.8724 6.16294 13.9134 6.16199 13.9137L6.14999 13.9192L6.15031 13.9189ZM7.51673 13.4964C7.38063 13.4964 7.23694 13.5053 7.09926 13.5294C6.80178 13.5814 6.56273 13.683 6.41494 13.7592C6.28578 13.8256 6.20147 13.8846 6.17305 13.9054C6.20273 13.8929 6.28705 13.8589 6.42126 13.8198C6.5782 13.7739 6.83747 13.7108 7.18199 13.6714C7.60263 13.6234 7.91084 13.6469 8.09526 13.6751C8.27589 13.7029 8.37663 13.7402 8.39494 13.7476L8.34757 13.59C8.33399 13.5869 8.16852 13.5484 7.93989 13.5221C7.8221 13.5086 7.67431 13.4967 7.51673 13.4967V13.4964Z" fill="black"/>
<path d="M8.08169 13.0843C8.08169 13.0843 6.7538 12.5857 5.69275 11.9071C4.63011 11.2277 4.65096 10.9181 4.47064 10.73C4.29001 10.5415 4.15106 10.4809 4.15106 10.4809C4.15106 10.4809 4.31085 10.4675 4.66485 10.7098C5.01917 10.9521 5.97033 11.79 6.22043 11.9729C6.47054 12.1562 8.08169 13.017 8.08169 13.017V13.0843Z" fill="#43B02A"/>
<path d="M8.08326 13.0865L8.08105 13.0856C8.07789 13.0843 7.74379 12.9586 7.28431 12.7515C6.86052 12.5603 6.24 12.259 5.69179 11.9084C4.88621 11.3932 4.70368 11.0919 4.58305 10.8924C4.54547 10.8303 4.51294 10.7765 4.46937 10.7309C4.29126 10.5449 4.15168 10.4828 4.15042 10.4822L4.14505 10.4797L4.15105 10.4791C4.15105 10.4791 4.31526 10.4684 4.6661 10.7083C4.87484 10.8511 5.28568 11.1962 5.64852 11.5009C5.90116 11.7129 6.11905 11.8962 6.22168 11.9714C6.46863 12.1525 8.06652 13.0069 8.08263 13.0155H8.08358V13.0865H8.08326ZM4.15768 10.4822C4.18642 10.4963 4.31368 10.5639 4.47158 10.7285C4.51547 10.7743 4.548 10.8282 4.58589 10.8906C4.70652 11.0898 4.88873 11.3911 5.69368 11.9056C6.24158 12.2562 6.8621 12.5576 7.28589 12.7488C7.72579 12.947 8.05073 13.0709 8.0801 13.0822V13.018C8.03621 12.9944 6.46452 12.1534 6.21947 11.9742C6.11684 11.8989 5.89863 11.7157 5.646 11.5034C5.28347 11.1987 4.87231 10.8533 4.66389 10.7107C4.35347 10.4984 4.19116 10.4828 4.15768 10.4822Z" fill="black"/>
<path d="M4.52432 12.4437C4.52432 12.4437 5.69338 12.1837 6.49453 12.3758C7.29569 12.5682 8.58853 13.1577 8.58853 13.1577C8.58853 13.1577 6.71211 12.5615 6.08622 12.5015C5.46032 12.4416 4.52432 12.4434 4.52432 12.4434V12.4437Z" fill="#43B02A"/>
<path d="M8.58789 13.1593C8.56926 13.1532 6.70452 12.5624 6.08589 12.5034C5.49157 12.4465 4.6061 12.4453 4.52936 12.4453H4.5101L4.52368 12.4422C4.52652 12.4416 4.82052 12.3767 5.20863 12.336C5.56673 12.2987 6.08052 12.2749 6.49452 12.3743C7.28652 12.5646 8.57589 13.1504 8.58884 13.1565L8.58757 13.1593H8.58789ZM4.53852 12.4422C4.65947 12.4422 5.50957 12.4453 6.08621 12.5003C6.666 12.5557 8.34031 13.0782 8.56389 13.1486C8.38452 13.0678 7.22621 12.5532 6.49357 12.3773C6.07989 12.2779 5.56673 12.3018 5.20863 12.3391C4.86884 12.3746 4.60105 12.4287 4.53821 12.4422H4.53852Z" fill="black"/>
<path d="M4.92661 13.4092C4.92661 13.4092 6.03313 12.9601 6.82955 12.9099C7.65313 12.8582 9.05208 13.211 9.05208 13.211C9.05208 13.211 7.08503 13.043 6.46134 13.1222C5.83766 13.2015 4.92661 13.4092 4.92661 13.4092Z" fill="#43B02A"/>
<path d="M4.92694 13.4104L4.92599 13.4077C4.92884 13.4065 5.20705 13.2939 5.57905 13.1767C5.92231 13.0684 6.41778 12.9341 6.82957 12.9081C7.25526 12.8815 7.83694 12.9647 8.24999 13.0394C8.69747 13.1201 9.04894 13.2085 9.05242 13.2094L9.05178 13.2125C9.03221 13.211 7.07778 13.0455 6.46136 13.1238C5.84494 13.2021 4.93578 13.4086 4.92663 13.4107L4.92694 13.4104ZM7.00357 12.9063C6.94326 12.9063 6.88484 12.9078 6.82926 12.9115C6.4181 12.9375 5.92263 13.0718 5.57968 13.1798C5.26168 13.2801 5.01221 13.3768 4.94494 13.4034C5.07915 13.3734 5.89389 13.1929 6.46105 13.1207C7.04463 13.0464 8.82757 13.1908 9.03284 13.2079C8.95452 13.1886 8.6381 13.1128 8.24905 13.0424C7.88999 12.9776 7.40399 12.9063 7.00357 12.9063Z" fill="black"/>
<path d="M4.84547 13.0592C4.84547 13.0592 5.69968 12.7353 6.7241 12.7677C7.47 12.7912 8.81052 13.4612 8.81052 13.4612C8.81052 13.4612 7.32442 12.9164 6.59589 12.921C6.00473 12.9249 4.84515 13.0592 4.84515 13.0592H4.84547Z" fill="#43B02A"/>
<path d="M8.8102 13.4625C8.80641 13.4612 8.43347 13.3248 7.9762 13.1905C7.55778 13.0678 6.98178 12.9222 6.60568 12.9222C6.60252 12.9222 6.59936 12.9222 6.5962 12.9222C6.01168 12.9259 4.85747 13.0593 4.84578 13.0605L4.83347 13.062L4.84483 13.0577C4.84704 13.0568 5.06241 12.9757 5.40031 12.8996C5.71199 12.8292 6.19515 12.749 6.72441 12.7659C6.89462 12.7714 7.11031 12.8112 7.36547 12.8843C7.56947 12.9427 7.79904 13.0225 8.04789 13.1217C8.47136 13.2902 8.80831 13.4579 8.81147 13.4597L8.8102 13.4625ZM6.60568 12.9194C6.98241 12.9194 7.55873 13.0651 7.97715 13.1877C8.36526 13.3015 8.69241 13.4169 8.78526 13.4502C8.69968 13.4086 8.4041 13.2667 8.04662 13.1247C7.33862 12.843 6.93694 12.776 6.72441 12.7692C6.19547 12.7524 5.71294 12.8326 5.40125 12.9029C5.10883 12.969 4.90799 13.0384 4.85841 13.0565C4.98694 13.0418 6.04515 12.9231 6.59652 12.9198C6.59968 12.9198 6.60283 12.9198 6.60599 12.9198L6.60568 12.9194Z" fill="black"/>
<path d="M4.63043 12.8708C4.63043 12.8708 6.12412 12.4789 6.99033 12.7588C7.85654 13.0387 8.97222 13.616 8.97222 13.616L8.95517 13.4844C8.95517 13.4844 7.38506 12.4562 6.30633 12.5046C5.22759 12.5529 4.63043 12.8711 4.63043 12.8711V12.8708Z" fill="#43B02A"/>
<path d="M8.97379 13.6185L8.97126 13.6169C8.96021 13.6111 7.84579 13.0363 6.98968 12.7601C6.79231 12.6964 6.54537 12.6625 6.2561 12.6597C6.24252 12.6597 6.22894 12.6597 6.21505 12.6597C5.994 12.6597 5.74895 12.6772 5.48558 12.7114C5.00937 12.7738 4.63421 12.8714 4.63073 12.8723L4.6181 12.8757L4.62979 12.8696C4.62979 12.8696 4.78263 12.7891 5.06368 12.7044C5.32295 12.6264 5.74926 12.5279 6.30663 12.5031C6.55295 12.4918 6.84537 12.5367 7.176 12.6359C7.44063 12.7151 7.72989 12.8292 8.03621 12.9751C8.55758 13.2232 8.95231 13.4808 8.9561 13.4832H8.95673V13.4845L8.9741 13.6191L8.97379 13.6185ZM6.21505 12.6563C6.22894 12.6563 6.24252 12.6563 6.2561 12.6563C6.54568 12.6591 6.79294 12.6931 6.99063 12.757C7.82652 13.0268 8.9081 13.5811 8.97 13.613L8.95358 13.4848C8.93589 13.4732 8.54621 13.2208 8.03431 12.9773C7.72831 12.8316 7.43905 12.7175 7.17473 12.6383C6.84442 12.5392 6.552 12.4945 6.30631 12.5058C5.74926 12.5309 5.32358 12.6291 5.06431 12.7071C4.82905 12.7778 4.68473 12.8454 4.64337 12.8659C4.71473 12.8479 5.05958 12.764 5.48526 12.7084C5.74863 12.6738 5.994 12.6563 6.21505 12.6563Z" fill="black"/>
<path d="M4.63041 10.1914C4.63041 10.1914 5.13031 11.2478 5.7761 11.7455C6.42189 12.2432 7.69262 12.8765 7.69262 12.8765C7.69262 12.8765 6.06062 11.7993 5.6302 11.3552C5.19978 10.9113 4.6301 10.1914 4.6301 10.1914H4.63041Z" fill="#43B02A"/>
<path d="M7.692 12.8781C7.67937 12.8717 6.41369 12.2391 5.77516 11.7468C5.62769 11.6334 5.47579 11.4807 5.32326 11.2938C5.20137 11.1442 5.07916 10.9723 4.95948 10.7829C4.75611 10.4602 4.62979 10.1949 4.62853 10.1925L4.62253 10.1802L4.63105 10.1909C4.63674 10.1983 5.20548 10.9157 5.63084 11.3547C5.85316 11.5838 6.402 11.9852 6.82326 12.2816C7.2799 12.6028 7.68884 12.8729 7.69295 12.8757L7.69137 12.8784L7.692 12.8781ZM4.63769 10.2035C4.66516 10.2601 4.7839 10.4984 4.96232 10.7811C5.30211 11.3201 5.59295 11.6025 5.77705 11.7444C6.11053 12.0014 6.6139 12.2954 6.97737 12.4963C7.31053 12.6808 7.59032 12.8231 7.67053 12.8635C7.58053 12.8035 7.21926 12.5627 6.822 12.2834C6.40074 11.987 5.85158 11.5856 5.62895 11.3562C5.23232 10.9472 4.71126 10.2959 4.63769 10.2032V10.2035Z" fill="black"/>
<path d="M5.28305 10.4809C5.28305 10.4809 5.53316 11.0728 6.15116 11.6379C6.76916 12.2029 7.34642 12.6134 7.34642 12.6134C7.34642 12.6134 6.25537 12.0417 5.76905 11.4161C5.28305 10.7905 5.28305 10.4809 5.28305 10.4809Z" fill="#43B02A"/>
<path d="M7.34558 12.6147C7.34273 12.6132 7.06894 12.4691 6.73894 12.2504C6.43452 12.0485 6.01894 11.7401 5.76758 11.4168C5.62894 11.2384 5.44263 10.9716 5.34189 10.7141C5.28158 10.5599 5.28094 10.4813 5.28094 10.4806V10.473L5.2841 10.4803C5.2841 10.4803 5.34821 10.6308 5.48621 10.8468C5.61379 11.0463 5.83263 11.3452 6.15158 11.637C6.76263 12.1956 7.34084 12.6083 7.34684 12.6123L7.34526 12.6147H7.34558ZM5.28505 10.4895C5.28694 10.5137 5.29642 10.5886 5.34537 10.7138C5.44579 10.9707 5.63179 11.2372 5.77042 11.4152C6.02147 11.7383 6.43673 12.0466 6.74084 12.2482C7.01873 12.4327 7.25716 12.5639 7.32663 12.6013C7.22242 12.5257 6.69916 12.1415 6.15 11.6392C5.83073 11.347 5.61158 11.0478 5.484 10.8484C5.364 10.6605 5.30021 10.5232 5.28505 10.4895Z" fill="black"/>
<path d="M9.28985 12.8353C9.28985 12.8353 8.5228 12.1054 8.28975 11.7857C8.0709 11.4856 8.06048 11.0928 8.11606 11.0928C8.17164 11.0928 8.07438 11.0389 8.0188 11.0928C7.96322 11.1466 7.79553 11.5905 8.39364 12.1959C8.92006 12.7285 8.98385 12.9157 8.98385 12.9157L9.28954 12.835L9.28985 12.8353Z" fill="#43B02A"/>
<path d="M8.98326 12.9179V12.9167C8.982 12.9148 8.91284 12.7233 8.39274 12.1975C8.25505 12.058 8.14768 11.9166 8.07379 11.7768C8.01284 11.6615 7.97432 11.5477 7.95979 11.4382C7.93421 11.2464 7.98884 11.1203 8.01789 11.0922C8.05453 11.0567 8.10695 11.0674 8.12526 11.0778C8.13189 11.0815 8.13505 11.0854 8.1341 11.0888C8.13316 11.0928 8.12684 11.0946 8.11611 11.0946C8.11105 11.0946 8.10663 11.0983 8.10253 11.1056C8.08516 11.1381 8.082 11.2393 8.10979 11.3696C8.142 11.5214 8.20642 11.6688 8.29105 11.7851C8.52126 12.1011 9.28326 12.827 9.29084 12.8344L9.29274 12.8362L9.29021 12.8368L8.98326 12.9179ZM8.08105 11.0705C8.06116 11.0705 8.03842 11.0763 8.0201 11.094C7.99137 11.1218 7.93737 11.2467 7.96295 11.4376C8.004 11.7438 8.22063 12.0185 8.39526 12.1953C8.66716 12.4706 8.81337 12.6517 8.88789 12.7551C8.96147 12.857 8.982 12.906 8.98547 12.9142L9.28705 12.8347C9.24379 12.7934 8.51368 12.095 8.28884 11.7869C8.20389 11.6704 8.13916 11.5223 8.10695 11.3703C8.08579 11.2711 8.07695 11.1479 8.1 11.1044C8.10442 11.0958 8.1101 11.0916 8.11642 11.0916C8.12684 11.0916 8.13095 11.0897 8.13126 11.0879C8.13158 11.0864 8.13 11.0836 8.124 11.0802C8.11547 11.0753 8.09937 11.0708 8.08105 11.0708V11.0705Z" fill="black"/>
<path d="M9.08179 12.3443C9.08179 12.3443 8.40821 12.1828 7.8319 12.2837C7.25558 12.3847 6.89432 12.6676 6.89432 12.6676C6.89432 12.6676 7.24832 12.5046 7.91526 12.4284C8.72937 12.3351 9.13042 12.5058 9.13042 12.5058L9.08179 12.3443Z" fill="#43B02A"/>
<path d="M6.88295 12.6747L6.89337 12.6667C6.89337 12.6667 6.98558 12.5949 7.14631 12.5126C7.29442 12.4364 7.53379 12.3348 7.83158 12.2825C8.12937 12.2305 8.45368 12.2495 8.67316 12.2749C8.91095 12.3024 9.08052 12.3425 9.0821 12.3431H9.08305V12.3443L9.13263 12.5089L9.12947 12.5077C9.12947 12.5077 9.02684 12.4648 8.82726 12.4342C8.64316 12.4061 8.33526 12.3825 7.91495 12.4306C7.72484 12.4523 7.43873 12.4957 7.15484 12.5786C6.98495 12.6282 6.89558 12.6692 6.89463 12.6695L6.88263 12.675L6.88295 12.6747ZM8.24937 12.2522C8.11326 12.2522 7.96958 12.2611 7.83189 12.2853C7.53442 12.3373 7.29537 12.4388 7.14758 12.515C7.01842 12.5814 6.9341 12.6404 6.90568 12.6612C6.93537 12.6487 7.01968 12.6147 7.15389 12.5756C7.31084 12.5297 7.5701 12.4667 7.91463 12.4272C8.33526 12.3792 8.64347 12.4027 8.82789 12.4309C9.00852 12.4587 9.10926 12.496 9.12758 12.5034L9.08021 12.3458C9.06663 12.3428 8.90116 12.3042 8.67252 12.2779C8.55473 12.2645 8.40695 12.2525 8.24937 12.2525V12.2522Z" fill="black"/>
<path d="M9.36979 14.0681C9.36979 14.0681 8.69621 13.9066 8.11989 14.0076C7.54358 14.1085 7.18231 14.3915 7.18231 14.3915C7.18231 14.3915 7.53631 14.2284 8.20326 14.1523C9.01736 14.059 9.41842 14.2297 9.41842 14.2297L9.36979 14.0681Z" fill="#43B02A"/>
<path d="M7.17094 14.3985L7.18136 14.3906C7.18136 14.3906 7.27357 14.3187 7.43431 14.2364C7.58241 14.1602 7.82178 14.0587 8.11957 14.0064C8.41768 13.954 8.74168 13.9733 8.96115 13.9987C9.19894 14.0262 9.36852 14.0663 9.3701 14.0669H9.37104V14.0682L9.42062 14.2327L9.41747 14.2315C9.41747 14.2315 9.31483 14.1887 9.11525 14.1581C8.93115 14.1299 8.62326 14.1064 8.20294 14.1544C8.01283 14.1761 7.72673 14.2196 7.44283 14.3025C7.27294 14.352 7.18357 14.393 7.18262 14.3933L7.17062 14.3989L7.17094 14.3985ZM8.53768 13.9761C8.40157 13.9761 8.25789 13.9849 8.11989 14.0091C7.82241 14.0611 7.58368 14.1627 7.43557 14.2389C7.30641 14.3052 7.2221 14.3643 7.19368 14.3851C7.22336 14.3725 7.30768 14.3386 7.44189 14.2991C7.59883 14.2532 7.8581 14.1902 8.20262 14.1508C8.62326 14.1027 8.93147 14.1263 9.11589 14.1544C9.29652 14.1823 9.39726 14.2196 9.41557 14.2269L9.3682 14.0694C9.35462 14.0663 9.18915 14.0278 8.96052 14.0015C8.84273 13.988 8.69525 13.9761 8.53768 13.9761Z" fill="black"/>
<path d="M8.97192 13.3826C8.97192 13.3826 8.00308 13.3921 7.50002 13.683C6.99729 13.9739 6.76202 14.3618 6.76202 14.3618C6.76202 14.3618 7.03392 14.0887 7.63076 13.7898C8.35897 13.4251 8.92897 13.5215 8.92897 13.5215L8.97192 13.3826Z" fill="#43B02A"/>
<path d="M6.75412 14.3723L6.76075 14.3612C6.76075 14.3612 6.82107 14.2624 6.94138 14.1306C7.05254 14.0088 7.23949 13.832 7.49938 13.6818C7.75928 13.5313 8.14612 13.4576 8.42433 13.4224C8.72591 13.3841 8.96938 13.3814 8.97191 13.3814H8.97412L8.97349 13.3832L8.92991 13.5233H8.92865C8.92865 13.5233 8.7837 13.4992 8.55286 13.5206C8.34001 13.5402 8.00717 13.6032 7.63138 13.7913C7.46149 13.8764 7.20917 14.0146 6.97359 14.1893C6.83275 14.2936 6.76391 14.3625 6.76328 14.3631L6.75412 14.3723ZM8.97001 13.3841C8.94538 13.3844 8.71138 13.3887 8.42496 13.4251C8.14675 13.4603 7.76054 13.534 7.50128 13.6842C7.2417 13.8344 7.05507 14.011 6.94422 14.1324C6.84728 14.2386 6.7898 14.3227 6.77086 14.3518C6.79423 14.3297 6.86054 14.2695 6.97201 14.1869C7.10212 14.0905 7.32191 13.943 7.63044 13.7886C8.00686 13.6001 8.34001 13.5371 8.55317 13.5175C8.77201 13.4973 8.91286 13.5175 8.92833 13.52L8.97033 13.3844L8.97001 13.3841Z" fill="black"/>
<path d="M5.8246 10.5481C5.8246 10.5481 6.41481 11.9339 7.17175 12.4283C7.9287 12.9227 9.08133 13.4274 9.08133 13.4274L8.96323 13.4947C8.96323 13.4947 7.16449 12.9162 6.54649 12.0584C5.92849 11.2007 5.82428 10.5481 5.82428 10.5481H5.8246Z" fill="#43B02A"/>
<path d="M8.96369 13.4964H8.96306C8.95864 13.4949 8.50737 13.3486 7.98632 13.0996C7.68032 12.9534 7.41064 12.8007 7.18422 12.6459C6.90159 12.4526 6.68653 12.255 6.54537 12.0592C6.22611 11.6159 6.04674 11.2289 5.95232 10.982C5.85001 10.7147 5.82316 10.5498 5.82285 10.5482L5.82095 10.5357L5.82601 10.5476C5.82759 10.551 5.97632 10.8988 6.21569 11.3023C6.35622 11.5394 6.50022 11.749 6.64327 11.9252C6.82201 12.1458 7.00011 12.3146 7.17285 12.4272C7.5638 12.6826 8.06211 12.9405 8.41137 13.1122C8.78969 13.2978 9.07958 13.4248 9.08243 13.4263L9.08527 13.4276L8.96401 13.4967L8.96369 13.4964ZM5.82885 10.5614C5.83737 10.6058 5.87022 10.7575 5.9558 10.9814C6.0499 11.228 6.22927 11.615 6.54853 12.0577C6.68937 12.2531 6.90411 12.4501 7.18643 12.6435C7.41253 12.7983 7.68222 12.9506 7.9879 13.0969C8.49916 13.3413 8.94348 13.4866 8.96369 13.493L9.07864 13.4276C9.04801 13.4141 8.76916 13.2908 8.41043 13.1146C8.06116 12.943 7.56253 12.6851 7.17159 12.4297C6.99885 12.3168 6.82043 12.1476 6.64137 11.927C6.49832 11.7505 6.35432 11.5406 6.21348 11.3036C5.99969 10.9429 5.8579 10.6272 5.82916 10.5611L5.82885 10.5614Z" fill="black"/>
<path d="M8.51901 12.9699C8.51901 12.9699 7.81069 12.6603 7.30385 12.1559C6.79701 11.6514 6.66501 11.4293 6.66501 11.4293C6.66501 11.4293 6.91511 12.0617 7.50532 12.5193C8.09553 12.9767 9.17206 13.4276 9.17206 13.4276L9.23459 13.2391L8.51932 12.9699H8.51901Z" fill="#43B02A"/>
<path d="M9.17306 13.4294L9.17148 13.4288C9.16075 13.4242 8.08801 12.9727 7.50443 12.5205C7.19938 12.2841 6.98685 12.0002 6.86243 11.8038C6.72759 11.5908 6.66411 11.4318 6.66348 11.4302L6.66633 11.429C6.7118 11.5058 6.90411 11.7563 7.30485 12.1553C7.56664 12.4159 7.88306 12.623 8.10222 12.7512C8.33875 12.8892 8.5159 12.9675 8.51969 12.969L9.23622 13.2385V13.2398L9.17275 13.4297L9.17306 13.4294ZM6.6739 11.4465C6.69411 11.4936 6.75632 11.6303 6.86527 11.8019C6.98938 11.9983 7.20159 12.2819 7.50632 12.5181C8.07917 12.962 9.12348 13.4053 9.17117 13.4254L9.23275 13.2401L8.51875 12.9715C8.51685 12.9705 8.33875 12.8925 8.10096 12.7536C7.88148 12.6255 7.56475 12.4181 7.30296 12.1571C6.92685 11.7827 6.73422 11.5388 6.67422 11.4465H6.6739Z" fill="black"/>
<path d="M6.8941 11.1468C6.8941 11.1468 7.46347 11.9003 7.74831 12.1628C8.03316 12.4253 8.69758 12.8768 8.69758 12.8768L8.56084 12.9701C8.56084 12.9701 7.70852 12.4454 7.34631 11.9205C6.98442 11.3958 6.8941 11.1468 6.8941 11.1468Z" fill="#43B02A"/>
<path d="M8.56074 12.9717L8.55979 12.9711C8.55758 12.9699 8.34379 12.8377 8.08832 12.6432C7.66105 12.3177 7.44821 12.0711 7.34495 11.9212C7.05853 11.5061 6.92368 11.2335 6.89242 11.1472L6.88895 11.1375L6.89526 11.1457C6.90095 11.1534 7.46779 11.9019 7.74916 12.1614C8.03053 12.4208 8.69147 12.8705 8.6981 12.8751L8.7 12.8763L8.56074 12.9714V12.9717ZM6.89937 11.1564C6.93663 11.2522 7.07179 11.5199 7.34779 11.9197C7.45105 12.0693 7.66358 12.3155 8.09053 12.6407C8.33747 12.8289 8.54558 12.9586 8.56105 12.9681L8.69495 12.8766C8.65579 12.85 8.02168 12.4165 7.74758 12.1638C7.48232 11.9194 6.9641 11.2409 6.89968 11.1564H6.89937Z" fill="black"/>
<path d="M8.87329 12.7891C8.87329 12.7891 8.26035 12.2856 7.85929 11.8539C7.54761 11.5183 7.46361 11.262 7.46361 11.262C7.42887 11.2822 7.58866 11.9751 8.16845 12.4257L8.74824 12.8763L8.87329 12.7888V12.7891Z" fill="#43B02A"/>
<path d="M8.7483 12.8784L8.74736 12.8778L8.16757 12.4272C7.6222 12.0032 7.45104 11.3718 7.45767 11.2751C7.4583 11.2672 7.45988 11.2626 7.46273 11.261L7.4643 11.2601L7.46494 11.262C7.46494 11.262 7.48673 11.3271 7.54578 11.4321C7.60041 11.5287 7.69957 11.6802 7.8603 11.8536C8.25662 12.2804 8.86799 12.7836 8.87399 12.7885L8.87557 12.7897L8.87399 12.791L8.74799 12.8791L8.7483 12.8784ZM7.46304 11.265C7.46209 11.2666 7.46146 11.2696 7.46083 11.2751C7.45767 11.3222 7.49778 11.5039 7.60988 11.7294C7.70588 11.9228 7.88083 12.2002 8.16946 12.4248L8.7483 12.8748L8.87083 12.7891C8.83641 12.7607 8.24494 12.2715 7.85841 11.8551C7.69736 11.6817 7.5982 11.53 7.54325 11.433C7.49052 11.3397 7.46746 11.2782 7.46304 11.265Z" fill="black"/>
<path d="M16.6535 15.0572C16.6535 15.0572 16.6048 14.7326 16.0841 14.5781C15.7873 14.49 15.4835 14.5411 15.3502 14.5723C15.4443 14.4365 15.6442 14.1915 15.9142 14.1128C16.308 13.9978 16.6538 14.1095 16.6538 14.1095C16.6538 14.1095 16.5366 13.8017 15.9938 13.7555C15.6843 13.7292 15.3985 13.8403 15.2744 13.8978C15.3373 13.746 15.4803 13.4661 15.7276 13.3346C16.0879 13.1428 16.4504 13.1825 16.4504 13.1825C16.4504 13.1825 16.2698 12.9054 15.7291 12.9693C15.4209 13.0057 15.1651 13.1721 15.0562 13.2532C15.0849 13.092 15.1648 12.7894 15.3783 12.6111C15.6897 12.351 16.0525 12.3168 16.0525 12.3168C16.0525 12.3168 15.8163 12.0818 15.3013 12.2535C15.0076 12.3514 14.7931 12.5655 14.7038 12.6668C14.6975 12.5034 14.7104 12.1914 14.8813 11.9738C15.1301 11.6566 15.4775 11.5502 15.4775 11.5502C15.4775 11.5502 15.1961 11.3681 14.729 11.6398C14.4628 11.7946 14.2989 12.0473 14.2336 12.1644C14.1922 12.006 14.1382 11.6979 14.2585 11.4507C14.4338 11.0904 14.7508 10.9163 14.7508 10.9163C14.7508 10.9163 14.4363 10.7948 14.0378 11.1546C13.8107 11.3596 13.7046 11.6401 13.6655 11.7677C13.5909 11.6208 13.4719 11.3305 13.5366 11.0647C13.6307 10.6768 13.9036 10.4427 13.9036 10.4427C13.9036 10.4427 13.5701 10.3874 13.2575 10.8193C13.0794 11.0656 13.0355 11.3611 13.025 11.4939C12.9208 11.3654 12.7421 11.1053 12.7481 10.8322C12.7569 10.4339 12.9736 10.1497 12.9736 10.1497C12.9736 10.1497 12.6354 10.1625 12.4222 10.6483C12.3006 10.9252 12.3215 11.2231 12.3395 11.355C12.21 11.2504 11.9791 11.0319 11.9267 10.7636C11.85 10.3724 12.0006 10.0508 12.0006 10.0508C12.0006 10.0508 11.6725 10.1316 11.5683 10.6495C11.5089 10.9447 11.5933 11.232 11.639 11.3574C11.4897 11.2809 11.2175 11.1139 11.1082 10.8621C10.949 10.4947 11.0277 10.15 11.0277 10.15C11.0277 10.15 10.7242 10.295 10.7334 10.8227C10.7387 11.1234 10.8827 11.3874 10.9544 11.5009C10.7921 11.4562 10.4896 11.3476 10.3288 11.1234C10.0945 10.7961 10.097 10.443 10.097 10.443C10.097 10.443 9.83115 10.6462 9.95367 11.1604C10.0235 11.4535 10.2208 11.6826 10.3156 11.7793C10.1473 11.7683 9.82799 11.723 9.62273 11.5358C9.32304 11.2629 9.2501 10.9169 9.2501 10.9169C9.2501 10.9169 9.03378 11.169 9.26367 11.6474C9.39473 11.92 9.63725 12.1045 9.75031 12.1797C9.58325 12.203 9.26146 12.2229 9.0202 12.0812C8.66873 11.8747 8.52283 11.5511 8.52283 11.5511C8.52283 11.5511 8.36525 11.8414 8.69304 12.2629C8.87967 12.5034 9.15662 12.6346 9.28357 12.6857C9.12504 12.742 8.81462 12.8264 8.54841 12.7365C8.16031 12.6053 7.9481 12.318 7.9481 12.318C7.9481 12.318 7.8562 12.6337 8.26736 12.98C8.50167 13.1773 8.80041 13.2504 8.93557 13.2746C8.79252 13.3618 8.50704 13.5068 8.22725 13.4722C7.81925 13.4221 7.5502 13.1838 7.5502 13.1838C7.5502 13.1838 7.5281 13.5111 8.00431 13.7668C8.27589 13.9128 8.58378 13.9241 8.72115 13.9204C8.59989 14.0342 8.35199 14.2337 8.07094 14.2563C7.66104 14.2894 7.34683 14.1104 7.34683 14.1104C7.34683 14.1104 7.39546 14.435 7.9162 14.5895C8.21304 14.6776 8.51683 14.6265 8.65041 14.5953C8.55631 14.7311 8.35641 14.9761 8.08641 15.0548C7.69262 15.1698 7.34683 15.0581 7.34683 15.0581C7.34683 15.0581 7.46399 15.3659 8.00683 15.4121C8.31631 15.4384 8.6021 15.3273 8.7262 15.2698C8.66336 15.4216 8.52031 15.7015 8.27304 15.833C7.91273 16.0248 7.5502 15.9851 7.5502 15.9851C7.5502 15.9851 7.73083 16.2622 8.27146 16.1983C8.57967 16.1619 8.83546 15.9955 8.94441 15.9144C8.91567 16.0756 8.83578 16.3782 8.62199 16.5565C8.31062 16.8165 7.94778 16.8508 7.94778 16.8508C7.94778 16.8508 8.18399 17.0858 8.69904 16.9141C8.99273 16.8162 9.20715 16.6021 9.29652 16.5008C9.30283 16.6642 9.28988 16.9762 9.11904 17.1937C8.8702 17.511 8.52283 17.6174 8.52283 17.6174C8.52283 17.6174 8.8042 17.7995 9.27125 17.5278C9.53746 17.373 9.70136 17.1203 9.76673 17.0032C9.8081 17.1616 9.8621 17.4697 9.74178 17.7169C9.56652 18.0772 9.24946 18.2513 9.24946 18.2513C9.24946 18.2513 9.56399 18.3728 9.96252 18.013C10.1896 17.808 10.2957 17.5278 10.3348 17.3999C10.4094 17.5468 10.5284 17.8371 10.4637 18.1029C10.3696 18.4908 10.0967 18.7249 10.0967 18.7249C10.0967 18.7249 10.4302 18.7802 10.7428 18.3483C10.9209 18.102 10.9648 17.8065 10.9753 17.6737C11.0795 17.8022 11.2582 18.0622 11.2522 18.3354C11.2434 18.7337 11.0267 19.0179 11.0267 19.0179C11.0267 19.0179 11.3649 19.0051 11.5781 18.5193C11.6997 18.2424 11.6788 17.9445 11.6608 17.8126C11.7903 17.9172 12.0211 18.1357 12.0736 18.404C12.1503 18.7952 11.9997 19.1168 11.9997 19.1168C11.9997 19.1168 12.3278 19.036 12.432 18.5181C12.4914 18.2229 12.407 17.9356 12.3613 17.8102C12.5106 17.8867 12.7828 18.0537 12.8921 18.3055C13.0513 18.6729 12.9726 19.0176 12.9726 19.0176C12.9726 19.0176 13.2761 18.8726 13.2669 18.3449C13.2616 18.0442 13.1176 17.7802 13.0459 17.6667C13.2082 17.7114 13.5107 17.82 13.6715 18.0442C13.9058 18.3715 13.9033 18.7246 13.9033 18.7246C13.9033 18.7246 14.1691 18.5214 14.0466 18.0072C13.9768 17.7141 13.7795 17.485 13.6847 17.3883C13.853 17.3993 14.172 17.4446 14.3776 17.6318C14.6773 17.9047 14.7502 18.2507 14.7502 18.2507C14.7502 18.2507 14.9665 17.9986 14.7366 17.5202C14.6056 17.2476 14.363 17.0631 14.25 16.9879C14.417 16.9646 14.7388 16.9447 14.9801 17.0864C15.3316 17.2929 15.4775 17.6165 15.4775 17.6165C15.4775 17.6165 15.635 17.3262 15.3073 16.9047C15.1206 16.6642 14.844 16.5327 14.717 16.4819C14.8756 16.4256 15.186 16.3411 15.4522 16.4311C15.8403 16.5623 16.0525 16.8496 16.0525 16.8496C16.0525 16.8496 16.1444 16.5339 15.7333 16.1876C15.4989 15.9903 15.2002 15.9171 15.065 15.893C15.2081 15.8058 15.4936 15.6608 15.7734 15.6954C16.1814 15.7455 16.4504 15.9838 16.4504 15.9838C16.4504 15.9838 16.4725 15.6565 15.9963 15.4004C15.7247 15.2545 15.4168 15.2432 15.2795 15.2469C15.4007 15.1331 15.6486 14.9336 15.9297 14.911C16.3396 14.8779 16.6538 15.0569 16.6538 15.0569L16.6535 15.0572Z" fill="#FEDD00"/>
<path d="M6.66505 7.52087H5.23453V7.77662H6.66505V7.52087Z" fill="#FEDD00"/>
<path d="M5.77612 7.4444C5.77612 7.4444 5.72749 6.63249 5.50517 6.08092C5.28286 5.52935 5.45654 5.13226 5.64065 4.90374C5.82475 4.67492 5.95675 4.55377 5.95675 4.55377C5.95675 4.55377 6.08875 4.67492 6.27286 4.90374C6.45696 5.13257 6.63065 5.52935 6.40833 6.08092C6.18602 6.63249 6.13738 7.4444 6.13738 7.4444H5.77612Z" fill="#FEDD00"/>
<path d="M6.43075 7.88065C6.43075 7.88065 6.40959 8.05318 6.49517 8.19024C6.61391 8.37991 6.8037 8.37868 6.8037 8.41233C6.8037 8.43925 6.3957 8.53898 6.26117 8.22725C6.20023 8.08592 6.24096 7.88065 6.24096 7.88065H6.43107H6.43075Z" fill="#FEDD00"/>
<path d="M5.48275 7.88065C5.48275 7.88065 5.50391 8.05318 5.41833 8.19024C5.29959 8.37991 5.1098 8.37868 5.1098 8.41233C5.1098 8.43925 5.5178 8.53898 5.65233 8.22725C5.71328 8.08592 5.67254 7.88065 5.67254 7.88065H5.48243H5.48275Z" fill="#FEDD00"/>
<path d="M6.22739 7.44441C6.22739 7.44441 6.32086 6.35044 6.8037 6.16842C7.05381 6.0742 7.34528 6.10204 7.53981 6.26264C7.71949 6.41071 7.87328 6.71326 7.65097 7.06323C7.42865 7.41321 7.14412 7.38628 7.14412 7.38628C7.16497 7.23822 7.2136 6.91548 6.96349 6.88182C6.67991 6.84358 6.51254 7.44472 6.51254 7.44472H6.22739V7.44441Z" fill="#FEDD00"/>
<path d="M5.6858 7.44441C5.6858 7.44441 5.59201 6.35044 5.10948 6.16842C4.85937 6.0742 4.5679 6.10204 4.37337 6.26264C4.19369 6.41071 4.0399 6.71326 4.26222 7.06323C4.48453 7.41321 4.76906 7.38628 4.76906 7.38628C4.74822 7.23822 4.69959 6.91548 4.94969 6.88182C5.23327 6.84358 5.40064 7.44472 5.40064 7.44472H5.6858V7.44441Z" fill="#FEDD00"/>
<path d="M5.95676 9.10524C5.95676 9.10524 5.79665 8.95044 5.72118 8.57386C5.6457 8.19727 5.79065 7.88095 5.79065 7.88095H6.12255C6.12255 7.88095 6.26749 8.19727 6.19202 8.57386C6.11655 8.95044 5.95644 9.10524 5.95644 9.10524H5.95676Z" fill="#FEDD00"/>
<path d="M12.7083 7.52087H11.2778V7.77662H12.7083V7.52087Z" fill="#FEDD00"/>
<path d="M11.8194 7.4444C11.8194 7.4444 11.7707 6.63249 11.5484 6.08092C11.3261 5.52935 11.4998 5.13226 11.6839 4.90374C11.868 4.67492 12 4.55377 12 4.55377C12 4.55377 12.132 4.67492 12.3161 4.90374C12.5002 5.13257 12.6739 5.52935 12.4516 6.08092C12.2293 6.63249 12.1806 7.4444 12.1806 7.4444H11.8194Z" fill="#FEDD00"/>
<path d="M12.474 7.88065C12.474 7.88065 12.4528 8.05318 12.5384 8.19024C12.6572 8.37991 12.8469 8.37868 12.8469 8.41233C12.8469 8.43925 12.4389 8.53898 12.3044 8.22725C12.2435 8.08592 12.2842 7.88065 12.2842 7.88065H12.4743H12.474Z" fill="#FEDD00"/>
<path d="M11.526 7.88065C11.526 7.88065 11.5472 8.05318 11.4616 8.19024C11.3428 8.37991 11.153 8.37868 11.153 8.41233C11.153 8.43925 11.561 8.53898 11.6956 8.22725C11.7565 8.08592 11.7158 7.88065 11.7158 7.88065H11.5257H11.526Z" fill="#FEDD00"/>
<path d="M12.2709 7.44441C12.2709 7.44441 12.3647 6.35044 12.8473 6.16842C13.0974 6.0742 13.3888 6.10204 13.5834 6.26264C13.763 6.41071 13.9168 6.71326 13.6945 7.06323C13.4722 7.41321 13.1877 7.38628 13.1877 7.38628C13.2085 7.23822 13.2571 6.91548 13.007 6.88182C12.7235 6.84358 12.5561 7.44472 12.5561 7.44472H12.2709V7.44441Z" fill="#FEDD00"/>
<path d="M11.729 7.44441C11.729 7.44441 11.6353 6.35044 11.1527 6.16842C10.9026 6.0742 10.6111 6.10204 10.4166 6.26264C10.2369 6.41071 10.0831 6.71326 10.3055 7.06323C10.5278 7.41321 10.8123 7.38628 10.8123 7.38628C10.7915 7.23822 10.7428 6.91548 10.9929 6.88182C11.2765 6.84358 11.4439 7.44472 11.4439 7.44472H11.729V7.44441Z" fill="#FEDD00"/>
<path d="M12 9.10524C12 9.10524 11.8399 8.95044 11.7644 8.57386C11.6889 8.19727 11.8339 7.88095 11.8339 7.88095H12.1658C12.1658 7.88095 12.3107 8.19727 12.2353 8.57386C12.1598 8.95044 11.9997 9.10524 11.9997 9.10524H12Z" fill="#FEDD00"/>
<path d="M18.75 7.52087H17.3195V7.77662H18.75V7.52087Z" fill="#FEDD00"/>
<path d="M17.8611 7.4444C17.8611 7.4444 17.8124 6.63249 17.5901 6.08092C17.3678 5.52935 17.5415 5.13226 17.7256 4.90374C17.9097 4.67492 18.0417 4.55377 18.0417 4.55377C18.0417 4.55377 18.1737 4.67492 18.3578 4.90374C18.5419 5.13257 18.7156 5.52935 18.4933 6.08092C18.2709 6.63249 18.2223 7.4444 18.2223 7.4444H17.8611Z" fill="#FEDD00"/>
<path d="M18.5157 7.88065C18.5157 7.88065 18.4945 8.05318 18.5801 8.19024C18.6988 8.37991 18.8886 8.37868 18.8886 8.41233C18.8886 8.43925 18.4806 8.53898 18.3461 8.22725C18.2852 8.08592 18.3259 7.88065 18.3259 7.88065H18.516H18.5157Z" fill="#FEDD00"/>
<path d="M17.5677 7.88065C17.5677 7.88065 17.5888 8.05318 17.5033 8.19024C17.3845 8.37991 17.1947 8.37868 17.1947 8.41233C17.1947 8.43925 17.6027 8.53898 17.7373 8.22725C17.7982 8.08592 17.7575 7.88065 17.7575 7.88065H17.5674H17.5677Z" fill="#FEDD00"/>
<path d="M18.3126 7.44441C18.3126 7.44441 18.4061 6.35044 18.8889 6.16842C19.139 6.0742 19.4305 6.10204 19.625 6.26264C19.8047 6.41071 19.9585 6.71326 19.7362 7.06323C19.5139 7.41321 19.2294 7.38628 19.2294 7.38628C19.2502 7.23822 19.2988 6.91548 19.0487 6.88182C18.7651 6.84358 18.5978 7.44472 18.5978 7.44472H18.3126V7.44441Z" fill="#FEDD00"/>
<path d="M17.7707 7.44441C17.7707 7.44441 17.6769 6.35044 17.1944 6.16842C16.9443 6.0742 16.6528 6.10204 16.4583 6.26264C16.2786 6.41071 16.1248 6.71326 16.3471 7.06323C16.5695 7.41321 16.854 7.38628 16.854 7.38628C16.8331 7.23822 16.7845 6.91548 17.0346 6.88182C17.3182 6.84358 17.4856 7.44472 17.4856 7.44472H17.7707V7.44441Z" fill="#FEDD00"/>
<path d="M18.0417 9.10524C18.0417 9.10524 17.8816 8.95044 17.8061 8.57386C17.7306 8.19727 17.8756 7.88095 17.8756 7.88095H18.2075C18.2075 7.88095 18.3524 8.19727 18.277 8.57386C18.2015 8.95044 18.0414 9.10524 18.0414 9.10524H18.0417Z" fill="#FEDD00"/>
</svg>
