<svg width="24" height="24" viewBox="0 0 24 24" fill="none" xmlns="http://www.w3.org/2000/svg">
<path d="M0 4.25H24V19.75H0V4.25Z" fill="#E30A17"/>
<path d="M12.1497 9.62515C11.5369 9.19459 10.793 8.96345 10.0304 8.96798C8.12165 8.96798 6.57779 10.3639 6.57779 12.0906C6.57779 13.8174 8.12633 15.2133 10.0304 15.2133C10.8304 15.2133 11.5696 14.9686 12.1497 14.5561C10.7462 16.3056 8.14036 16.6228 6.33451 15.2586C4.52867 13.8944 4.20118 11.3746 5.60937 9.62515C7.01755 7.87573 9.61872 7.55848 11.4246 8.92266C11.6959 9.12661 11.9392 9.36681 12.1497 9.62515V9.62515ZM14.0164 12.6073L13.1696 13.5999L13.2257 12.3127L11.9907 11.8414L13.2678 11.4969L13.3521 10.2143L14.0819 11.2885L15.3684 10.9667L14.5497 11.9637L15.2655 13.0469L14.0164 12.6073V12.6073Z" fill="white"/>
</svg>
