<svg width="24" height="24" viewBox="0 0 24 24" fill="none" xmlns="http://www.w3.org/2000/svg">
<g clip-path="url(#clip0_97_4056)">
<path d="M-0.0533447 4.25235H23.9467V19.7523H-0.0533447V4.25235Z" fill="white"/>
<path d="M10.4 10.4476H-0.0533447V13.5476H10.4V19.7476H13.6V13.5476H24.0533V10.4476H13.6V4.24765H10.4V10.4476Z" fill="#EB000E"/>
<path d="M18.4 7.03764L18.1867 5.79764H19.2534L19.04 7.03764L20.32 6.83097V7.8643L19.04 7.65764L19.2534 8.89764H18.1867L18.4 7.65764L17.12 7.8643V6.83097L18.4 7.03764ZM4.85336 7.03764L4.64003 5.79764H5.7067L5.49336 7.03764L6.77336 6.83097V7.8643L5.49336 7.65764L5.7067 8.89764H4.64003L4.85336 7.65764L3.57336 7.8643V6.83097L4.85336 7.03764ZM4.85336 16.3376L4.64003 15.0976H5.7067L5.49336 16.3376L6.77336 16.131V17.1643L5.49336 16.9576L5.7067 18.1976H4.64003L4.85336 16.9576L3.57336 17.1643V16.131L4.85336 16.3376ZM18.4 16.3376L18.1867 15.0976H19.2534L19.04 16.3376L20.32 16.131V17.1643L19.04 16.9576L19.2534 18.1976H18.1867L18.4 16.9576L17.12 17.1643V16.131L18.4 16.3376Z" fill="#EB000E"/>
</g>
<defs>
<clipPath id="clip0_97_4056">
<rect width="24" height="24" fill="white"/>
</clipPath>
</defs>
</svg>
