<svg width="24" height="24" viewBox="0 0 24 24" fill="none" xmlns="http://www.w3.org/2000/svg">
<path d="M0 4.25H24V19.75H0V4.25Z" fill="#C60A0A"/>
<path d="M12 12.0023L2.08594 17.729V6.27094L12 12.0023Z" fill="#3E8446"/>
<path d="M12 12.0023L21.9141 17.729H2.08594L12 12.0023ZM21.9141 6.27094L12 12.0023L2.08594 6.27094H21.9141Z" fill="#FFDA44"/>
<path d="M21.9141 6.27094V17.729L12 12.0023L21.9141 6.27094Z" fill="#3E8446"/>
<path d="M12 4.72232L12.1547 5.18555H12.6563L12.2531 5.47166L12.4078 5.93489L12 5.64878L11.5922 5.93489L11.7469 5.47166L11.3438 5.18555H11.8453L12 4.72232ZM7.97345 4.72232L8.12814 5.18555H8.6297L8.22657 5.47166L8.38126 5.93489L7.97345 5.64878L7.56564 5.93489L7.72032 5.47166L7.3172 5.18555H7.81876L7.97345 4.72232ZM16.0266 4.72232L16.1813 5.18555H16.6875L16.2797 5.47166L16.4344 5.93489L16.0266 5.64878L15.6188 5.93489L15.7735 5.47166L15.3703 5.18555H15.8719L16.0266 4.72232ZM12 18.0651L12.1547 18.5284H12.6563L12.2531 18.8145L12.4078 19.2777L12 18.9916L11.5922 19.2777L11.7469 18.8145L11.3438 18.5284H11.8453L12 18.0651ZM7.97345 18.0651L8.12814 18.5284H8.6297L8.22657 18.8145L8.38126 19.2777L7.97345 18.9916L7.56564 19.2777L7.72032 18.8145L7.3172 18.5284H7.81876L7.97345 18.0651ZM16.0266 18.0651L16.1813 18.5284H16.6875L16.2797 18.8145L16.4344 19.2777L16.0266 18.9916L15.6188 19.2777L15.7735 18.8145L15.3703 18.5284H15.8719L16.0266 18.0651Z" fill="#FFDA44"/>
<path d="M11.4609 15.4629C13.4336 15.4629 15.0328 13.9135 15.0328 12.0023C15.0328 10.091 13.4336 8.54169 11.4609 8.54169C9.48825 8.54169 7.88907 10.091 7.88907 12.0023C7.88907 13.9135 9.48825 15.4629 11.4609 15.4629Z" fill="#C60A0A"/>
<path d="M11.4609 9.25015L12.0984 11.1485H14.1609L12.4922 12.3202L13.1297 14.2185L11.4609 13.0468L9.79689 14.2185L10.4344 12.3202L8.76564 11.1485H10.8281L11.4609 9.25015ZM5.04845 11.8706C5.2547 12.1839 5.15626 12.6017 4.83282 12.8016C4.50939 13.0014 4.07814 12.906 3.87189 12.5927C3.50157 12.025 3.7172 11.094 3.7172 11.094C3.7172 11.094 4.67345 11.3029 5.04845 11.8706V11.8706Z" fill="#FFDA44"/>
<path d="M4.64531 12.8561C4.83688 12.8561 4.99218 12.7056 4.99218 12.52C4.99218 12.3344 4.83688 12.1839 4.64531 12.1839C4.45373 12.1839 4.29843 12.3344 4.29843 12.52C4.29843 12.7056 4.45373 12.8561 4.64531 12.8561Z" fill="#A2001D"/>
</svg>
