<svg width="24" height="24" viewBox="0 0 24 24" fill="none" xmlns="http://www.w3.org/2000/svg">
<path d="M0 4.25016H24V19.7498H0V4.25016Z" fill="#D80027"/>
<path d="M9.21755 4.25016V19.7498H0V4.25016H9.21755Z" fill="#6DA544"/>
<path d="M9.21756 14.9061C10.8744 14.9061 12.2176 13.605 12.2176 11.9999C12.2176 10.3948 10.8744 9.09364 9.21756 9.09364C7.56071 9.09364 6.21756 10.3948 6.21756 11.9999C6.21756 13.605 7.56071 14.9061 9.21756 14.9061Z" fill="#FFDA44"/>
<path d="M7.52991 10.5468V12.3632C7.52991 13.2661 8.28544 13.998 9.21741 13.998C10.1494 13.998 10.9049 13.2661 10.9049 12.3632V10.5468H7.52991Z" fill="#D80027"/>
<path d="M9.21741 12.9081C8.90724 12.9081 8.65491 12.6637 8.65491 12.3632V11.6366H9.77995V12.3632C9.77991 12.6636 9.52753 12.9081 9.21741 12.9081Z" fill="white"/>
</svg>
