<svg width="24" height="24" viewBox="0 0 24 24" fill="none" xmlns="http://www.w3.org/2000/svg">
<path d="M0 4.25H24V19.75H0V4.25Z" fill="white"/>
<path d="M0 14.674H24V19.75H0V14.674Z" fill="#D80027"/>
<path d="M16.9871 10.2234V8.74138H17.4971V7.75337H16.4725V8.24737H15.4526V7.75337H14.4328V8.74138H14.9427V10.2234H13.9228V6.76536H14.4328V5.77734H13.4129V6.27135H12.9029V5.77734H11.883V6.27135H11.3731V5.77734H10.3532V6.76536H10.8632V10.2234H9.84328V8.74138H10.3532V7.75337H9.33334V8.24737H8.31345V7.75337H7.29357V8.74138H7.80351V10.2234H6.78363V14.1754H18.007V10.2234H16.9871Z" fill="#D80027"/>
<path fill-rule="evenodd" clip-rule="evenodd" d="M10.3298 5.75467H11.3965V6.24867H11.8597V5.75467H12.9263V6.24867H13.3895V5.75467H14.4562V6.788H13.9462V10.2007H14.9193V8.76403H14.4094V7.73069H15.476V8.2247H16.4491V7.73069H17.5205V8.76403H17.0105V10.2007H18.0304V14.1981H6.76025V10.2007H7.78014V8.76403H7.2702V7.73069H8.33686V8.2247H9.30996V7.73069H10.3766V8.76403H9.86669V10.2007H10.8398V6.788H10.3298V5.75467ZM10.3766 5.79999V6.74268H10.8866V10.246H9.8199V8.7187H10.3298V7.77601H9.35675V8.27002H8.29008V7.77601H7.31698V8.7187H7.82692V10.246H6.80704V14.1528H17.9836V10.246H16.9638V8.7187H17.4737V7.77601H16.4959V8.27002H15.4293V7.77601H14.4562V8.7187H14.9661V10.246H13.8994V6.74268H14.4094V5.79999H13.4363V6.294H12.8796V5.79999H11.9065V6.294H11.3497V5.79999H10.3766Z" fill="black"/>
<path d="M12.393 14.9232L11.2608 15.7481L12.1544 16.3962V17.8148H11.069V18.2227H12.1451V18.5807H11.069V19.0022H12.6316V16.3962L13.5252 15.7481L12.393 14.9232V14.9232ZM12.393 16.0699L11.9205 15.7481L12.393 15.4263L12.8655 15.7481L12.393 16.0699Z" fill="#FFDA44"/>
<path fill-rule="evenodd" clip-rule="evenodd" d="M12.407 14.9051L13.5641 15.7481L12.6549 16.4075V19.0248H11.0456V18.558H12.1216V18.2453H11.0456V17.7921H12.131V16.4075L11.2218 15.7481L12.3789 14.9051L12.393 14.9232L12.407 14.9051ZM12.393 14.9516L11.2998 15.748L12.1778 16.3848V17.8374H11.0924V18.2H12.1684V18.6033H11.0924V18.9795H12.6082V16.3848L13.4862 15.748L12.393 14.9516ZM12.393 15.3986L12.9062 15.7481L12.393 16.0976L11.8798 15.7481L12.393 15.3986ZM11.9611 15.7481L12.393 16.0422L12.8248 15.7481L12.393 15.454L11.9611 15.7481Z" fill="black"/>
<path d="M11.2094 13.7539V12.4895C11.2094 12.4895 11.2141 11.4788 12.379 11.4788C13.5392 11.4788 13.5813 12.4759 13.5813 12.4759V13.7539H11.2094V13.7539ZM7.97662 13.7539V12.6526C7.97662 12.6526 7.9813 11.8051 8.89358 11.8051C9.80586 11.8051 9.83861 12.639 9.83861 12.639V13.7494H7.97662V13.7539Z" fill="black"/>
<path d="M7.91113 13.7539V12.6526C7.91113 12.6526 7.91581 11.8051 8.82809 11.8051C9.74037 11.8051 9.77312 12.639 9.77312 12.639V13.7494H7.91113V13.7539ZM15.0129 13.7539V12.6526C15.0129 12.6526 15.0176 11.8051 15.9298 11.8051C16.8421 11.8051 16.8749 12.639 16.8749 12.639V13.7494H15.0129V13.7539ZM15.4059 10.2325V9.52091C15.4059 9.52091 15.4105 8.97252 15.9345 8.97252C16.4632 8.97252 16.4819 9.51184 16.4819 9.51184V10.2325H15.4059ZM11.7193 10.2325V9.15834C11.7193 9.15834 11.724 8.32895 12.3883 8.32895C13.0527 8.32895 13.076 9.14474 13.076 9.14474V10.2325H11.7193ZM8.30411 10.2325V9.52091C8.30411 9.52091 8.30879 8.97252 8.83277 8.97252C9.35675 8.97252 9.38014 9.51184 9.38014 9.51184V10.2325H8.30411Z" fill="black"/>
</svg>
