<svg width="24" height="24" viewBox="0 0 24 24" fill="none" xmlns="http://www.w3.org/2000/svg">
<path d="M0 4.24982H24V19.75H0V4.24982Z" fill="#0052B4"/>
<path d="M10.4718 11.9997C10.4846 11.9858 10.4972 11.972 10.5099 11.9581C10.4972 11.972 10.4843 11.9858 10.4714 11.9997H10.4718ZM8.86958 13.9036L9.38323 14.944L10.5432 14.6844L10.0237 15.7222L10.9565 16.4388L9.79517 16.6924L9.7984 17.8457L8.86958 17.1241L7.94079 17.8457L7.94403 16.6924L6.78265 16.4388L7.71547 15.7222L7.19595 14.6844L8.35592 14.944L8.86958 13.9036ZM18.1442 15.1961L18.3892 15.6924L18.9425 15.5685L18.6947 16.0635L19.1397 16.4053L18.5857 16.5263L18.5872 17.0764L18.1442 16.7323L17.7012 17.0764L17.7027 16.5263L17.1488 16.4053L17.5937 16.0635L17.346 15.5685L17.8992 15.6924L18.1442 15.1961ZM15.865 9.93131L16.11 10.4276L16.6633 10.3037L16.4155 10.7987L16.8604 11.1406L16.3065 11.2615L16.308 11.8117L15.865 11.4674L15.422 11.8117L15.4235 11.2615L14.8696 11.1406L15.3145 10.7987L15.0668 10.3037L15.62 10.4276L15.865 9.93131ZM18.1442 6.92288L18.3892 7.41922L18.9425 7.29525L18.6947 7.79031L19.1396 8.13211L18.5857 8.25308L18.5872 8.80318L18.1442 8.45897L17.7012 8.80318L17.7027 8.25308L17.1488 8.13211L17.5937 7.79031L17.346 7.29525L17.8992 7.41922L18.1442 6.92288ZM20.135 9.17922L20.3801 9.67551L20.9333 9.55163L20.6856 10.0466L21.1305 10.3884L20.5765 10.5094L20.5781 11.0595L20.135 10.7154L19.6921 11.0595L19.6936 10.5094L19.1397 10.3884L19.5845 10.0466L19.3368 9.55163L19.89 9.67551L20.135 9.17922ZM18.7115 11.8117L18.9042 12.3862H19.5278L19.0233 12.7413L19.2161 13.3158L18.7115 12.9608L18.2069 13.3158L18.3997 12.7413L17.8952 12.3862H18.5188L18.7115 11.8117Z" fill="white"/>
<path d="M12 4.24982V5.63723L9.8828 6.77699H12V9.47249H9.22955L12 10.9635V11.9997H10.7494L7.30434 10.1457V11.9997H4.69566V9.79395L0.597375 11.9997H0V10.6122L2.1172 9.47249H0V6.77699H2.77045L0 5.28544V4.24982H1.25062L4.69566 6.10378V4.24982H7.30434V6.45553L11.4026 4.24982H12Z" fill="white"/>
<path d="M6.75 4.2496H5.25V7.39798H0V8.85111H5.25V11.9996H6.75V8.85111H12V7.39798H6.75V4.2496Z" fill="#D80027"/>
<path d="M7.30432 9.4725L12 11.9997V11.2851L8.63215 9.4725H7.30432Z" fill="#0052B4"/>
<path d="M7.30432 9.4725L12 11.9997V11.2851L8.63215 9.4725H7.30432Z" fill="white"/>
<path d="M7.30434 9.4725L12 11.9997V11.2851L8.63217 9.4725H7.30434ZM3.36778 9.4725L0 11.2851V11.9997L4.69566 9.4725H3.36778Z" fill="#D80027"/>
<path d="M4.69566 6.77677L0 4.2496V4.96422L3.36783 6.77677H4.69566Z" fill="#0052B4"/>
<path d="M4.69566 6.77677L0 4.2496V4.96422L3.36783 6.77677H4.69566Z" fill="white"/>
<path d="M4.69566 6.77677L0 4.2496V4.96422L3.36783 6.77677H4.69566ZM8.63222 6.77677L12 4.96422V4.2496L7.30434 6.77677H8.63222Z" fill="#D80027"/>
</svg>
