<svg width="24" height="24" viewBox="0 0 24 24" fill="none" xmlns="http://www.w3.org/2000/svg">
<path d="M0 4.25H24V19.75H0V4.25Z" fill="#D80027"/>
<path d="M10.6105 15.091L10.1567 14.3839L9.3193 14.5833L9.87603 13.9443L9.42222 13.2373L10.2222 13.55L10.7743 12.911L10.7135 13.7449L11.5135 14.0576L10.676 14.257L10.6105 15.091ZM13.5953 7.96639L13.1228 8.66434L13.6655 9.31244L12.8374 9.0949L12.3649 9.79738L12.3181 8.96346L11.4901 8.74592L12.2947 8.4468L12.248 7.61288L12.7906 8.26098L13.5953 7.96639ZM11.0503 5.40118L10.9567 6.23057L11.7427 6.57501L10.9006 6.74724L10.807 7.57662L10.3766 6.85148L9.53918 7.0237L10.1146 6.40279L9.68421 5.68218L10.4702 6.02209L11.0503 5.40118ZM13.6982 11.5831L13.0012 12.0771L13.2725 12.8702L12.5754 12.3807L11.8784 12.8793L12.1404 12.0816L11.4433 11.5967L12.3041 11.5921L12.5661 10.7945L12.8374 11.5876L13.6982 11.5831ZM5.38012 6.34841L6.18948 8.77311H8.81872L6.69474 10.2642L7.5041 12.6889L5.38012 11.1933L3.25146 12.6889L4.0655 10.2642L1.93684 8.77311H4.57076L5.38012 6.34841Z" fill="#FFDA44"/>
</svg>
