<svg width="24" height="24" viewBox="0 0 24 24" fill="none" xmlns="http://www.w3.org/2000/svg">
<path d="M0.809357 4.25H23.1906V19.75H0.809357V4.25Z" fill="#181A93"/>
<path d="M0 4.25H24V9.41667H0V4.25Z" fill="#FFA44A"/>
<path d="M0 14.5833H24V19.75H0V14.5833Z" fill="#1A9F0B"/>
<path d="M0 9.41666H24V14.5833H0V9.41666Z" fill="white"/>
<path d="M12 13.55C12.8836 13.55 13.6 12.8561 13.6 12C13.6 11.144 12.8836 10.45 12 10.45C11.1163 10.45 10.4 11.144 10.4 12C10.4 12.8561 11.1163 13.55 12 13.55Z" fill="white"/>
<path d="M12 14.0667C10.8257 14.0667 9.86667 13.1376 9.86667 12C9.86667 10.8624 10.8257 9.93332 12 9.93332C13.1743 9.93332 14.1333 10.8624 14.1333 12C14.1333 13.1376 13.1743 14.0667 12 14.0667ZM12 13.55C12.8515 13.55 13.6 12.8248 13.6 12C13.6 11.1751 12.8561 10.45 12 10.45C11.1439 10.45 10.4 11.1751 10.4 12C10.4 12.8248 11.1485 13.55 12 13.55Z" fill="#181A93"/>
<path d="M12 13.0333C12.5891 13.0333 13.0667 12.5707 13.0667 12C13.0667 11.4293 12.5891 10.9667 12 10.9667C11.4109 10.9667 10.9333 11.4293 10.9333 12C10.9333 12.5707 11.4109 13.0333 12 13.0333Z" fill="#181A93"/>
</svg>
