<svg width="24" height="24" viewBox="0 0 24 24" fill="none" xmlns="http://www.w3.org/2000/svg">
<path d="M0 4.25H24V19.75H0V4.25Z" fill="white"/>
<path d="M0 5.97222H24V7.69444H0V5.97222ZM0 9.41667H24V11.1389H0V9.41667ZM0 12.8611H24V14.5833H0V12.8611ZM0 16.3056H24V18.0278H0V16.3056Z" fill="#0038A8"/>
<path d="M0 4.25H12V12.8611H0V4.25Z" fill="white"/>
<path d="M6.00233 10.5361L5.2959 11.5604L5.11812 10.3412L4.02338 10.9667L4.40701 9.79283L3.1345 9.89254L4.00467 8.99517L2.82104 8.55555L4.00935 8.11593L3.1345 7.21856L4.40233 7.3228L4.01871 6.14897L5.11344 6.77441L5.2959 5.55526L6.00233 6.57953L6.70876 5.55526L6.88654 6.77441L7.98128 6.14897L7.59765 7.3228L8.86549 7.2231L7.99531 8.12046L9.18362 8.56008L7.99531 8.9997L8.86549 9.89707L7.59765 9.79737L7.98128 10.9712L6.88654 10.3458L6.70409 11.5649L6.00233 10.5361V10.5361ZM6.00233 10.5134C7.12046 10.5542 8.06081 9.71579 8.10292 8.6326C8.14502 7.54941 7.27952 6.63845 6.1614 6.59766H6.00233C4.8842 6.63391 4.00935 7.54035 4.04678 8.619C4.07485 9.65234 4.93566 10.4817 6.00233 10.5134ZM6.00233 10.033C5.1228 10.033 4.41169 9.34415 4.41169 8.4921C4.41169 7.64006 5.1228 6.95117 6.00233 6.95117C6.88186 6.95117 7.59297 7.64006 7.59297 8.4921C7.59297 9.34415 6.87719 10.033 6.00233 10.033Z" fill="#FED443"/>
</svg>
