<svg width="24" height="24" viewBox="0 0 24 24" fill="none" xmlns="http://www.w3.org/2000/svg">
<path d="M0 4.25H24V19.75H0V4.25Z" fill="white"/>
<path d="M0 4.25H24V5.44196H0V4.25ZM0 6.63392H24V7.82588H0V6.63392ZM0 9.01784H24V10.2098H0V9.01784ZM0 11.4018H24V12.5937H0V11.4018ZM0 13.7902H24V14.9822H0V13.7902ZM0 16.1741H24V17.3661H0V16.1741ZM0 18.558H24V19.75H0V18.558Z" fill="#D80027"/>
<path d="M0 4.25H12V12.5937H0V4.25Z" fill="#2E52B2"/>
<path d="M2.23623 10.5452L2.0491 9.96506L1.84325 10.5452H1.22571L1.72629 10.8942L1.53916 11.4743L2.0491 11.1162L2.54501 11.4743L2.35319 10.8942L2.86313 10.5452H2.23623ZM4.87015 10.5452L4.67834 9.96506L4.48185 10.5452H3.8643L4.36489 10.8942L4.17775 11.4743L4.67834 11.1162L5.1836 11.4743L4.99647 10.8942L5.49705 10.5452H4.87015ZM7.51343 10.5452L7.31226 9.96506L7.12512 10.5452H6.49354L7.00816 10.8942L6.81167 11.4743L7.31226 11.1162L7.82688 11.4743L7.63039 10.8942L8.13097 10.5452H7.51343ZM10.1427 10.5452L9.95553 9.96506L9.75904 10.5452H9.13682L9.64208 10.8942L9.45495 11.4743L9.95553 11.1162L10.4608 11.4743L10.2596 10.8942L10.7742 10.5452H10.1427ZM4.67834 7.66272L4.48185 8.24284H3.8643L4.36489 8.60088L4.17775 9.17193L4.67834 8.81842L5.1836 9.17193L4.99647 8.60088L5.49705 8.24284H4.87015L4.67834 7.66272ZM2.0491 7.66272L1.84325 8.24284H1.22571L1.72629 8.60088L1.53916 9.17193L2.0491 8.81842L2.54501 9.17193L2.35319 8.60088L2.86313 8.24284H2.23623L2.0491 7.66272ZM7.31226 7.66272L7.12512 8.24284H6.49354L7.00816 8.60088L6.81167 9.17193L7.31226 8.81842L7.82688 9.17193L7.63039 8.60088L8.13097 8.24284H7.51343L7.31226 7.66272ZM9.95553 7.66272L9.75904 8.24284H9.13682L9.64208 8.60088L9.45495 9.17193L9.95553 8.81842L10.4608 9.17193L10.2596 8.60088L10.7742 8.24284H10.1427L9.95553 7.66272ZM2.0491 5.36945L1.84325 5.9405H1.22571L1.72629 6.29854L1.53916 6.87412L2.0491 6.51608L2.54501 6.87412L2.35319 6.29854L2.86313 5.9405H2.23623L2.0491 5.36945ZM4.67834 5.36945L4.48185 5.9405H3.8643L4.36489 6.29854L4.17775 6.87412L4.67834 6.51608L5.1836 6.87412L4.99647 6.29854L5.49705 5.9405H4.87015L4.67834 5.36945ZM7.31226 5.36945L7.12512 5.9405H6.49354L7.00816 6.29854L6.81167 6.87412L7.31226 6.51608L7.82688 6.87412L7.63039 6.29854L8.13097 5.9405H7.51343L7.31226 5.36945ZM9.95553 5.36945L9.75904 5.9405H9.13682L9.64208 6.29854L9.45495 6.87412L9.95553 6.51608L10.4608 6.87412L10.2596 6.29854L10.7742 5.9405H10.1427L9.95553 5.36945Z" fill="white"/>
</svg>
