<svg width="24" height="24" viewBox="0 0 24 24" fill="none" xmlns="http://www.w3.org/2000/svg">
<path d="M0 4.25H24V19.75H0V4.25Z" fill="white"/>
<path d="M15.9345 9.79738H13.3099L12 7.59475L10.6901 9.79738H8.0655L9.37544 12L8.0655 14.2026H10.6901L12 16.4053L13.3099 14.2026H15.9345L14.6246 12L15.9345 9.79738ZM13.717 12L12.9123 13.5047H11.0924L10.283 12L11.0877 10.4953H12.9076L13.717 12ZM12 8.74592L12.5567 9.80191H11.4386L12 8.74592ZM9.27251 10.4953H10.3906L9.88538 11.4471L9.27251 10.4953ZM9.27251 13.5047L9.8807 12.5031L10.4374 13.5047H9.27251ZM12 15.2043L11.4433 14.2026H12.5614L12 15.2043ZM14.7789 13.5047H13.6094L14.1661 12.5031L14.7789 13.5047ZM13.5579 10.4953H14.7789L14.1708 11.4969L13.5579 10.4953ZM0 5.21536H23.9532V7.1506H0V5.21536ZM0 16.8177H23.9532V18.7529H0V16.8177Z" fill="#2E52B2"/>
</svg>
