<svg width="24" height="24" viewBox="0 0 24 24" fill="none" xmlns="http://www.w3.org/2000/svg">
<path d="M0 4.25H24V19.75H0V4.25Z" fill="black"/>
<path d="M4.1544 10.4364C4.05147 11.0211 3.99533 11.6238 3.99533 12.2402C3.99533 12.8566 4.05147 13.4639 4.1544 14.044L11.9766 14.5969L19.7988 14.0485C19.9018 13.4639 19.9579 12.8611 19.9579 12.2447C19.9579 11.6284 19.9018 11.0211 19.7988 10.4409" fill="#0072C6"/>
<path d="M19.7988 14.1754H4.15439C4.89357 17.3389 8.11696 19.7183 11.9766 19.7183C15.8363 19.7183 19.0597 17.3389 19.7988 14.1754Z" fill="white"/>
<path d="M17.1181 10.4364H6.83508L8.93567 9.48014L7.81754 7.50865L10.1006 7.93467L10.386 5.70032L11.9766 7.34096L13.5672 5.70032L13.8526 7.93467L16.1357 7.50865L15.0175 9.48014L17.1181 10.4364Z" fill="#FFDA44"/>
<path d="M12 19.75L0 4.25V19.75H12Z" fill="#CE1126"/>
<path d="M24 19.75V4.25L11.9766 19.75H24Z" fill="#CE1126"/>
</svg>
