<svg width="24" height="24" viewBox="0 0 24 24" fill="none" xmlns="http://www.w3.org/2000/svg">
<path d="M0 4.25H24V19.75H0V4.25Z" fill="#055E1C"/>
<path d="M8.60381 13.5162C8.60381 14.0745 9.05995 14.527 9.62269 14.527H12.6793C12.6793 14.9922 13.0595 15.3695 13.5284 15.3695H14.5473C15.0162 15.3695 15.3964 14.9923 15.3964 14.527V13.5162H8.60381ZM15.4811 8.63026V10.989C15.4811 11.3605 15.1764 11.6628 14.8019 11.6628V12.6737C15.7382 12.6737 16.5 11.918 16.5 10.989V8.63026H15.4811ZM8.17927 10.989C8.17927 11.3606 7.87458 11.6629 7.5 11.6629V12.6738C8.43637 12.6738 9.19809 11.918 9.19809 10.989V8.63031H8.17922V10.989H8.17927Z" fill="white"/>
<path d="M13.9529 8.63004H14.9717V10.9887H13.9529V8.63004ZM12.4246 9.97804C12.4246 10.071 12.3484 10.1465 12.2547 10.1465C12.1611 10.1465 12.0849 10.071 12.0849 9.97804V8.63018H11.066V9.97804C11.066 10.071 10.9898 10.1465 10.8962 10.1465C10.8025 10.1465 10.7264 10.071 10.7264 9.97804V8.63018H9.70749V9.97804C9.70749 10.6283 10.2407 11.1574 10.8961 11.1574C11.1486 11.1574 11.3827 11.0787 11.5754 10.945C11.7681 11.0787 12.0023 11.1574 12.2547 11.1574C12.3055 11.1574 12.3555 11.1538 12.4047 11.1476C12.3325 11.4427 12.0646 11.6628 11.7452 11.6628V12.6737C12.6816 12.6737 13.4433 11.9179 13.4433 10.9889V8.63018H12.4245L12.4246 9.97804V9.97804Z" fill="white"/>
<path d="M9.70749 11.6626H11.2357V12.6735H9.70749V11.6626Z" fill="white"/>
</svg>
