<svg width="24" height="24" viewBox="0 0 24 24" fill="none" xmlns="http://www.w3.org/2000/svg">
<path d="M0 4.25016H24V19.7498H0V4.25016Z" fill="black"/>
<path d="M24 11.9999V19.7497H0L10.0868 11.9999H24Z" fill="#6DA544"/>
<path d="M24 4.25016V12H10.0868L0 4.25016H24Z" fill="#D80027"/>
<path d="M10.3594 11.2418L1.25944 4.25016H0.419813L10.1777 11.7473H24V11.2418H10.3594ZM0.419813 19.7498H1.25944L10.3594 12.7582H24V12.2527H10.1777L0.419813 19.7498ZM0 4.57271V5.21781L8.82736 12L0 18.7822V19.4272L9.66698 12L0 4.57271Z" fill="black"/>
<path d="M0.419813 4.25016H0V4.57271L9.66698 12L0 19.4272V19.7498H0.419813L10.1777 12.2527H24V11.7473H10.1777L0.419813 4.25016Z" fill="#FFDA44"/>
<path d="M2.98677 13.652V13.0029C3.65545 13.0029 4.19943 12.4758 4.19943 11.8282C4.19943 11.3699 3.81454 10.997 3.34143 10.997C3.01916 10.997 2.75695 11.251 2.75695 11.5632C2.75695 11.7629 2.92462 11.9253 3.13073 11.9253C3.18675 11.9253 3.24045 11.9037 3.28007 11.8653C3.31968 11.8269 3.34196 11.7749 3.34204 11.7206H4.01212C4.01212 12.1914 3.61673 12.5745 3.13077 12.5745C2.5552 12.5744 2.08691 12.1207 2.08691 11.5632C2.08691 10.893 2.6497 10.3478 3.34148 10.3478C4.18405 10.3478 4.86956 11.0119 4.86956 11.8282C4.86956 12.8338 4.02496 13.652 2.98677 13.652V13.652Z" fill="#FFDA44"/>
</svg>
