<svg width="24" height="24" viewBox="0 0 24 24" fill="none" xmlns="http://www.w3.org/2000/svg">
<g clip-path="url(#clip0_97_4505)">
<path d="M0 4.25H24V19.75H0V4.25Z" fill="#10338C"/>
<path d="M24 5.74561L4.45848 12L24 18.3342V19.7196L0 12L24 4.25V5.74561Z" fill="#D80027"/>
<path d="M24 17.2655V18.3795L3.82318 12L24 5.60968V6.70465" fill="white"/>
<path d="M22.3149 10.6046L21.2908 11.0886L21.142 10.3943L22.6012 9.04504C22.6012 9.04504 22.1605 7.20271 21.9579 7.00647L16.7032 9.53632L16.3832 11.2023L14.8908 12.4981L14.8721 14.0481L16.4763 13.0166L19.6215 12.896L19.5509 14.6232H20.5909L21.1476 12.6001L22.6236 11.4847L22.3149 10.6046Z" fill="#A2001D"/>
<path d="M14.8721 15.0551L13.8316 14.5516L14.8721 14.0481H21.6304V15.0551H14.8721Z" fill="#EFC100"/>
<path fill-rule="evenodd" clip-rule="evenodd" d="M14.8665 14.0254H21.6538V15.0778H14.8665L13.7792 14.5516L14.8665 14.0254ZM14.8776 14.0707L13.8839 14.5516L14.8776 15.0324H21.607V14.0707H14.8776Z" fill="#231F20"/>
</g>
<defs>
<clipPath id="clip0_97_4505">
<rect width="24" height="24" fill="white"/>
</clipPath>
</defs>
</svg>
