<svg width="24" height="24" viewBox="0 0 24 24" fill="none" xmlns="http://www.w3.org/2000/svg">
<path d="M0 4.25H24V19.75H0V4.25Z" fill="white"/>
<path d="M0 4.25906H24V8.36974H0V4.25906ZM0.0233918 15.6393H24V19.75H0.0233918V15.6393Z" fill="#D80027"/>
<path d="M13.5813 13.0197L11.9766 10.1735L10.3719 13.0197H11.5743V13.7993H12.379V13.0197H13.5813Z" fill="#6DA544"/>
<path d="M11.2889 13.908C11.4947 13.7086 11.4947 13.3823 11.2842 13.1829L11.5041 13.3959C11.2608 13.1829 10.9333 13.0968 10.6105 13.1557L9.5111 13.4231C9.22572 13.4911 9.19297 13.405 9.42689 13.2327L10.6947 12.3127C10.9333 12.1405 10.8912 12 10.5871 12H10.0725C9.77309 12 9.74502 11.8958 10.0023 11.7689L11.186 11.1933C11.4479 11.0664 11.4245 10.9621 11.1158 10.9621H10.6012C10.3017 10.9621 10.255 10.8216 10.4936 10.6494L11.7614 9.72939C12.0234 9.55716 12.3649 9.55716 12.6269 9.72939L13.8947 10.6494C14.1333 10.8216 14.0912 10.9621 13.7871 10.9621H13.2725C12.9731 10.9621 12.945 11.0664 13.2023 11.1933L14.386 11.7689C14.6479 11.8958 14.6245 12 14.3158 12H13.8012C13.5017 12 13.455 12.1405 13.6936 12.3127L14.9614 13.2327C15.2 13.405 15.1672 13.4911 14.8772 13.4231L13.7778 13.1557C13.4596 13.0968 13.1275 13.1829 12.8842 13.3959L13.1041 13.1829C12.8982 13.3823 12.8936 13.7041 13.0994 13.908L13.4175 14.2162C13.6234 14.4156 13.5626 14.5788 13.2631 14.5788H11.1205C10.8304 14.5788 10.7602 14.4156 10.9661 14.2162C10.9707 14.2208 11.2889 13.908 11.2889 13.908V13.908Z" fill="#14AF5A"/>
</svg>
