<svg width="24" height="24" viewBox="0 0 24 24" fill="none" xmlns="http://www.w3.org/2000/svg">
<path d="M0 4.24991H24V19.7501H0V4.24991Z" fill="#D80027"/>
<path d="M0 4.24991H12V11.9997H0V4.24991Z" fill="#0052B4"/>
<path d="M7.75703 8.63029L7.88659 9.01645H8.3056L7.9666 9.25504L8.09612 9.64116L7.75703 9.40253L7.41798 9.64116L7.5475 9.25504L7.20845 9.01645H7.62751L7.75703 8.63029ZM5.65215 5.59766L5.86806 6.24125H6.5665L6.00142 6.63891L6.21728 7.28242L5.65215 6.88472L5.08712 7.28242L5.30298 6.63891L4.73785 6.24125H5.43634L5.65215 5.59766ZM7.73912 6.27159L7.95503 6.91514H8.65346L8.08839 7.3128L8.3042 7.9564L7.73912 7.5586L7.17409 7.9564L7.3899 7.3128L6.82482 6.91514H7.52326L7.73912 6.27159ZM6.0895 8.96727L6.3054 9.61083H7.00384L6.43876 10.0085L6.65457 10.652L6.0895 10.2543L5.52446 10.652L5.74028 10.0085L5.1752 9.61083H5.87364L6.0895 8.96727ZM4.2609 7.28242L4.47676 7.92602H5.1752L4.61012 8.32368L4.82593 8.96727L4.2609 8.56948L3.69582 8.96727L3.91164 8.32368L3.34656 7.92602H4.045L4.2609 7.28242Z" fill="white"/>
</svg>
