<svg width="24" height="24" viewBox="0 0 24 24" fill="none" xmlns="http://www.w3.org/2000/svg">
<path d="M0 4.25H24V19.75H0V4.25Z" fill="white"/>
<path d="M21.6561 13.2339C21.469 13.2339 21.0012 13.0075 20.6737 12.8264C20.1591 12.5547 19.6912 12.283 19.2187 12.283C18.7462 12.283 18.283 12.5547 17.7637 12.8264C17.4363 13.0075 17.0152 13.2339 16.8281 13.2339C16.6409 13.2339 16.1731 13.0075 15.8924 12.8264C15.3778 12.5547 14.8632 12.283 14.3906 12.283C13.9696 12.283 13.455 12.5547 12.9357 12.8264C12.6082 13.0075 12.1871 13.2339 12 13.2339C11.8129 13.2339 11.3918 13.0075 11.0643 12.8264C10.5497 12.5547 10.0351 12.283 9.60936 12.283C9.14152 12.283 8.6269 12.5547 8.1076 12.8264C7.8269 13.0075 7.35906 13.2339 7.17193 13.2339C6.9848 13.2339 6.56374 13.0075 6.23626 12.8264C5.72164 12.5547 5.2538 12.283 4.78129 12.283C4.30877 12.283 3.84561 12.5547 3.32632 12.8264C2.99883 13.0075 2.53099 13.2339 2.34386 13.2339C2.15673 13.2339 1.73567 13.0075 1.40819 12.8264C0.940351 12.5547 0.472515 12.283 0 12.283V13.2792L0.888889 13.732C1.40351 14.0037 1.87134 14.2754 2.34386 14.2754C2.81637 14.2754 3.32632 14.0037 3.84561 13.732C4.12632 13.5509 4.59415 13.2792 4.78129 13.2792C4.96842 13.2792 5.38947 13.5509 5.71696 13.732C6.23158 14.0037 6.69942 14.2754 7.17193 14.2754C7.64444 14.2754 8.1076 14.0037 8.6269 13.732C8.95439 13.5509 9.42222 13.2792 9.60936 13.2792C9.79649 13.2792 10.2175 13.5509 10.545 13.732C11.0596 14.0037 11.5275 14.2754 12 14.2754C12.4725 14.2754 12.9357 14.0037 13.455 13.732C13.7825 13.5509 14.2035 13.2792 14.3906 13.2792C14.5778 13.2792 15.0456 13.5509 15.3731 13.732C15.8877 14.0037 16.3556 14.2754 16.8281 14.2754C17.3006 14.2754 17.7637 14.0037 18.283 13.732C18.6105 13.5509 19.0316 13.2792 19.2187 13.2792C19.4058 13.2792 19.8737 13.5509 20.1544 13.732C20.669 14.0037 21.1836 14.2754 21.6561 14.2754C22.1287 14.2754 22.5918 14.0037 23.1111 13.732L24 13.2792V12.283C23.5322 12.283 23.0643 12.5547 22.5918 12.8264C22.2643 13.0075 21.8433 13.2339 21.6561 13.2339ZM0 5.69902L0.888889 6.15184C1.40351 6.42353 1.87134 6.69522 2.34386 6.69522C2.81637 6.69522 3.32632 6.42353 3.84561 6.15184C4.12632 5.97071 4.59415 5.69902 4.78129 5.69902C4.96842 5.69902 5.38947 5.97071 5.71696 6.15184C6.23158 6.42353 6.69942 6.69522 7.17193 6.69522C7.64444 6.69522 8.1076 6.42353 8.6269 6.15184C8.95439 5.97071 9.42222 5.69902 9.60936 5.69902C9.79649 5.69902 10.2175 5.97071 10.545 6.15184C11.0596 6.42353 11.5275 6.69522 12 6.69522C12.4725 6.69522 12.9357 6.42353 13.455 6.15184C13.7825 5.97071 14.2035 5.69902 14.3906 5.69902C14.5778 5.69902 15.0456 5.97071 15.3731 6.15184C15.8877 6.42353 16.3556 6.69522 16.8281 6.69522C17.3006 6.69522 17.7637 6.42353 18.283 6.15184C18.6105 5.97071 19.0316 5.69902 19.2187 5.69902C19.4058 5.69902 19.8737 5.97071 20.1544 6.15184C20.669 6.42353 21.1836 6.69522 21.6561 6.69522C22.1287 6.69522 22.5918 6.42353 23.1111 6.15184L24 5.69902V4.70282C23.5322 4.7481 23.0643 4.97451 22.5918 5.2462C22.2643 5.42733 21.8433 5.65374 21.6561 5.65374C21.469 5.65374 21.0012 5.42733 20.6737 5.2462C20.1591 4.97451 19.6912 4.70282 19.2187 4.70282C18.7462 4.70282 18.283 4.97451 17.7637 5.2462C17.4363 5.42733 17.0152 5.65374 16.8281 5.65374C16.6409 5.65374 16.1731 5.42733 15.8924 5.2462C15.3778 4.97451 14.8632 4.70282 14.3906 4.70282C13.9181 4.70282 13.455 4.97451 12.9357 5.2462C12.6082 5.42733 12.1871 5.65374 12 5.65374C11.8129 5.65374 11.3918 5.42733 11.0643 5.2462C10.5497 4.97451 10.0351 4.70282 9.60936 4.70282C9.18363 4.70282 8.6269 4.97451 8.1076 5.2462C7.8269 5.42733 7.35906 5.65374 7.17193 5.65374C6.9848 5.65374 6.56374 5.42733 6.23626 5.2462C5.72164 4.97451 5.2538 4.70282 4.78129 4.70282C4.30877 4.70282 3.84561 4.97451 3.32632 5.2462C2.99883 5.42733 2.53099 5.65374 2.34386 5.65374C2.15673 5.65374 1.73567 5.42733 1.40819 5.2462C0.940351 4.97451 0.472515 4.7481 0 4.70282V5.69902H0ZM21.6561 8.19858C21.469 8.19858 21.0012 7.97217 20.6737 7.79105C20.1591 7.51936 19.6912 7.24766 19.2187 7.24766C18.7462 7.24766 18.283 7.51936 17.7637 7.79105C17.4363 7.97217 17.0152 8.19858 16.8281 8.19858C16.6409 8.19858 16.1731 7.97217 15.8924 7.79105C15.3778 7.51936 14.8632 7.24766 14.3906 7.24766C13.9696 7.24766 13.455 7.51936 12.9357 7.79105C12.6082 7.97217 12.1871 8.19858 12 8.19858C11.8129 8.19858 11.3918 7.97217 11.0643 7.79105C10.5497 7.51936 10.0351 7.24766 9.60936 7.24766C9.14152 7.24766 8.6269 7.51936 8.1076 7.79105C7.8269 7.97217 7.35906 8.19858 7.17193 8.19858C6.9848 8.19858 6.56374 7.97217 6.23626 7.79105C5.72164 7.51936 5.2538 7.24766 4.78129 7.24766C4.30877 7.24766 3.84561 7.51936 3.32632 7.79105C2.99883 7.97217 2.53099 8.19858 2.34386 8.19858C2.15673 8.19858 1.73567 7.97217 1.40819 7.79105C0.940351 7.51936 0.472515 7.24766 0 7.24766V8.24387L0.888889 8.6514C1.40351 8.9231 1.87134 9.19479 2.34386 9.19479C2.81637 9.19479 3.32632 8.9231 3.84561 8.6514C4.12632 8.47028 4.59415 8.24387 4.78129 8.24387C4.96842 8.24387 5.38947 8.47028 5.71696 8.6514C6.23158 8.9231 6.69942 9.19479 7.17193 9.19479C7.64444 9.19479 8.1076 8.9231 8.6269 8.6514C8.95439 8.47028 9.42222 8.24387 9.60936 8.24387C9.79649 8.24387 10.2175 8.47028 10.545 8.6514C11.0596 8.9231 11.5275 9.19479 12 9.19479C12.4725 9.19479 12.9357 8.9231 13.455 8.6514C13.7825 8.47028 14.2035 8.24387 14.3906 8.24387C14.5778 8.24387 15.0456 8.47028 15.3731 8.6514C15.8877 8.9231 16.3556 9.19479 16.8281 9.19479C17.3006 9.19479 17.7637 8.9231 18.283 8.6514C18.6105 8.47028 19.0316 8.24387 19.2187 8.24387C19.4058 8.24387 19.8737 8.47028 20.1544 8.6514C20.669 8.9231 21.1836 9.19479 21.6561 9.19479C22.1287 9.19479 22.5918 8.9231 23.1111 8.6514L24 8.24387V7.24766C23.5322 7.24766 23.0643 7.51936 22.5918 7.79105C22.2643 7.96765 21.8433 8.19858 21.6561 8.19858ZM24 9.73817C23.5322 9.78345 23.0643 10.0099 22.5918 10.2816C22.2643 10.4627 21.8433 10.7344 21.6561 10.7344C21.469 10.7344 21.0012 10.4627 20.6737 10.2816C20.1591 10.0099 19.6912 9.73817 19.2187 9.73817C18.7462 9.73817 18.283 10.0099 17.7637 10.2816C17.4363 10.4627 17.0152 10.7344 16.8281 10.7344C16.6409 10.7344 16.1731 10.4627 15.8924 10.2816C15.3778 10.0099 14.8632 9.73817 14.3906 9.73817C13.9181 9.73817 13.455 10.0099 12.9357 10.2816C12.6082 10.4627 12.1871 10.7344 12 10.7344C11.8129 10.7344 11.3918 10.4627 11.0643 10.2816C10.5497 10.0099 10.0351 9.73817 9.60936 9.73817C9.18363 9.73817 8.6269 10.0099 8.1076 10.2816C7.8269 10.4627 7.35906 10.7344 7.17193 10.7344C6.9848 10.7344 6.56374 10.4627 6.23626 10.2816C5.72164 10.0099 5.2538 9.73817 4.78129 9.73817C4.30877 9.73817 3.84561 10.0099 3.32632 10.2816C2.99883 10.4627 2.53099 10.7344 2.34386 10.7344C2.15673 10.7344 1.73567 10.4627 1.40819 10.2816C0.940351 10.0099 0.472515 9.78345 0 9.73817V10.7797C0.187135 10.8249 0.608187 11.0061 0.888889 11.1872C1.40351 11.4589 1.87134 11.7306 2.34386 11.7306C2.81637 11.7306 3.32632 11.4589 3.84561 11.1872C4.12632 11.0061 4.59415 10.7797 4.78129 10.7797C4.96842 10.7797 5.38947 11.0061 5.71696 11.1872C6.23158 11.4589 6.69942 11.7306 7.17193 11.7306C7.64444 11.7306 8.1076 11.4589 8.6269 11.1872C8.95439 11.0061 9.42222 10.7797 9.60936 10.7797C9.79649 10.7797 10.2175 11.0061 10.545 11.1872C11.0596 11.4589 11.5275 11.7306 12 11.7306C12.4725 11.7306 12.9357 11.4589 13.455 11.1872C13.7825 11.0061 14.2035 10.7797 14.3906 10.7797C14.5778 10.7797 15.0456 11.0061 15.3731 11.1872C15.8877 11.4589 16.3556 11.7306 16.8281 11.7306C17.3006 11.7306 17.7637 11.4589 18.283 11.1872C18.6105 11.0061 19.0316 10.7797 19.2187 10.7797C19.4058 10.7797 19.8737 11.0061 20.1544 11.1872C20.669 11.4589 21.1836 11.7306 21.6561 11.7306C22.1287 11.7306 22.5918 11.4589 23.1111 11.1872C23.3918 11.0061 23.8129 10.8249 24 10.7797V9.73817ZM21.6561 15.7742C21.469 15.7742 21.0012 15.5478 20.6737 15.3667C20.1591 15.095 19.6912 14.8233 19.2187 14.8233C18.7462 14.8233 18.283 15.095 17.7637 15.3667C17.4363 15.5478 17.0152 15.7742 16.8281 15.7742C16.6409 15.7742 16.1731 15.5478 15.8924 15.3667C15.3778 15.095 14.8632 14.8233 14.3906 14.8233C13.9696 14.8233 13.455 15.095 12.9357 15.3667C12.6082 15.5478 12.1871 15.7742 12 15.7742C11.8129 15.7742 11.3918 15.5478 11.0643 15.3667C10.5497 15.095 10.0351 14.8233 9.60936 14.8233C9.14152 14.8233 8.6269 15.095 8.1076 15.3667C7.8269 15.5478 7.35906 15.7742 7.17193 15.7742C6.9848 15.7742 6.56374 15.5478 6.23626 15.3667C5.72164 15.095 5.2538 14.8233 4.78129 14.8233C4.30877 14.8233 3.84561 15.095 3.32632 15.3667C2.99883 15.5478 2.53099 15.7742 2.34386 15.7742C2.15673 15.7742 1.73567 15.5478 1.40819 15.3667C0.940351 15.095 0.472515 14.8233 0 14.8233V15.8195L0.888889 16.2271C1.40351 16.4988 1.87134 16.7705 2.34386 16.7705C2.81637 16.7705 3.32632 16.4988 3.84561 16.2271C4.12632 16.0459 4.59415 15.8195 4.78129 15.8195C4.96842 15.8195 5.38947 16.0459 5.71696 16.2271C6.23158 16.4988 6.69942 16.7705 7.17193 16.7705C7.64444 16.7705 8.1076 16.4988 8.6269 16.2271C8.95439 16.0459 9.42222 15.8195 9.60936 15.8195C9.79649 15.8195 10.2175 16.0459 10.545 16.2271C11.0596 16.4988 11.5275 16.7705 12 16.7705C12.4725 16.7705 12.9357 16.4988 13.455 16.2271C13.7825 16.0459 14.2035 15.8195 14.3906 15.8195C14.5778 15.8195 15.0456 16.0459 15.3731 16.2271C15.8877 16.4988 16.3556 16.7705 16.8281 16.7705C17.3006 16.7705 17.7637 16.4988 18.283 16.2271C18.6105 16.0459 19.0316 15.8195 19.2187 15.8195C19.4058 15.8195 19.8737 16.0459 20.1544 16.2271C20.669 16.4988 21.1836 16.7705 21.6561 16.7705C22.1287 16.7705 22.5918 16.4988 23.1111 16.2271L24 15.8195V14.8233C23.5322 14.8233 23.0643 15.095 22.5918 15.3667C22.2643 15.5478 21.8433 15.7742 21.6561 15.7742ZM24 17.3138C23.5322 17.3591 23.0643 17.5855 22.5918 17.8572C22.2643 18.0383 21.8433 18.31 21.6561 18.31C21.469 18.31 21.0012 18.0383 20.6737 17.8572C20.1591 17.5855 19.6912 17.3138 19.2187 17.3138C18.7462 17.3138 18.283 17.5855 17.7637 17.8572C17.4363 18.0383 17.0152 18.31 16.8281 18.31C16.6409 18.31 16.1731 18.0383 15.8924 17.8572C15.3778 17.5855 14.8632 17.3138 14.3906 17.3138C13.9181 17.3138 13.455 17.5855 12.9357 17.8572C12.6082 18.0383 12.1871 18.31 12 18.31C11.8129 18.31 11.3918 18.0383 11.0643 17.8572C10.5497 17.5855 10.0351 17.3138 9.60936 17.3138C9.18363 17.3138 8.6269 17.5855 8.1076 17.8572C7.8269 18.0383 7.35906 18.31 7.17193 18.31C6.9848 18.31 6.56374 18.0383 6.23626 17.8572C5.72164 17.5855 5.2538 17.3138 4.78129 17.3138C4.30877 17.3138 3.84561 17.5855 3.32632 17.8572C2.99883 18.0383 2.53099 18.31 2.34386 18.31C2.15673 18.31 1.73567 18.0383 1.40819 17.8572C0.940351 17.5855 0.472515 17.3591 0 17.3138V18.3553C0.187135 18.3553 0.608187 18.5817 0.888889 18.7629C1.40351 19.0345 1.87134 19.3062 2.34386 19.3062C2.81637 19.3062 3.32632 19.0345 3.84561 18.7629C4.12632 18.5817 4.59415 18.3553 4.78129 18.3553C4.96842 18.3553 5.38947 18.5817 5.71696 18.7629C6.23158 19.0345 6.69942 19.3062 7.17193 19.3062C7.64444 19.3062 8.1076 19.0345 8.6269 18.7629C8.95439 18.5817 9.42222 18.3553 9.60936 18.3553C9.79649 18.3553 10.2175 18.5817 10.545 18.7629C11.0596 19.0345 11.5275 19.3062 12 19.3062C12.4725 19.3062 12.9357 19.0345 13.455 18.7629C13.7825 18.5817 14.2035 18.3553 14.3906 18.3553C14.5778 18.3553 15.0456 18.5817 15.3731 18.7629C15.8877 19.0345 16.3556 19.3062 16.8281 19.3062C17.3006 19.3062 17.7637 19.0345 18.283 18.7629C18.6105 18.5817 19.0316 18.3553 19.2187 18.3553C19.4058 18.3553 19.8737 18.5817 20.1544 18.7629C20.669 19.0345 21.1836 19.3062 21.6561 19.3062C22.1287 19.3062 22.5918 19.0345 23.1111 18.7629C23.3918 18.5817 23.8129 18.3553 24 18.3553V17.3138Z" fill="#0052B4"/>
<path d="M0 4.25H11.9766V11.9932H0V4.25Z" fill="white"/>
<path d="M18.2362 9.69287H19.0877V13.2611H18.2316L18.2362 9.69287ZM18.2362 15.0271H19.0877V18.4278H18.2316L18.2362 15.0271Z" fill="#A2001D"/>
<path d="M6.73684 4.25H5.23977V7.41973H0V8.86876H5.23977V11.9932H6.73684V8.86876H11.9766V7.41973H6.73684V4.25Z" fill="#D80027"/>
<path d="M0 4.25V4.92923L2.66667 6.69522H3.74269L0 4.25ZM11.9766 4.25V4.92923L9.30994 6.69522H8.23392L11.9766 4.25Z" fill="#D80027"/>
<path d="M0 4.25V4.92923L2.66667 6.69522H3.74269L0 4.25ZM11.9766 4.25V4.92923L9.30994 6.69522H8.23392L11.9766 4.25ZM0 11.9932V11.314L2.66667 9.59327H3.74269L0 11.9932ZM11.9766 11.9932V11.314L9.30994 9.59327H8.23392L11.9766 11.9932Z" fill="#D80027"/>
<path d="M0 5.29148V6.69522H2.15205L0 5.29148ZM4.49123 4.25V6.46881L1.07602 4.25H4.49123ZM11.9766 5.29148V6.69522H9.82456L11.9766 5.29148ZM7.48538 4.25V6.46881L10.9006 4.25H7.48538Z" fill="#2E52B2"/>
<path d="M0 5.29148V6.69522H2.15205L0 5.29148ZM4.49123 4.25V6.46881L1.07602 4.25H4.49123ZM11.9766 5.29148V6.69522H9.82456L11.9766 5.29148ZM7.48538 4.25V6.46881L10.9006 4.25H7.48538ZM0 10.9517V9.59327H2.15205L0 10.9517ZM4.49123 11.9932V9.77439L1.07602 11.9932H4.49123ZM11.9766 10.9517V9.59327H9.82456L11.9766 10.9517ZM7.48538 11.9932V9.77439L10.9006 11.9932H7.48538Z" fill="#2E52B2"/>
<path d="M21.6514 8.40693H20.29L21.4924 7.24319C21.7029 7.04395 21.7029 6.72697 21.4924 6.52773L21.3333 6.37377C21.1275 6.17453 20.8 6.17453 20.5941 6.37377L19.3824 7.54658V5.95718C19.3824 5.67643 19.1438 5.4455 18.8538 5.4455H18.6339C18.3438 5.4455 18.1053 5.67643 18.1053 5.95718V7.39262L17.0058 6.31491C16.786 6.10208 16.4351 6.10208 16.2152 6.31491L16.0468 6.47792C15.8269 6.69075 15.8269 7.03942 16.0468 7.25677L17.2164 8.40693H15.7848C15.5041 8.40693 15.2748 8.62881 15.2748 8.90051V9.1088C15.2748 9.38049 15.5041 9.60238 15.7848 9.60238H17.2631L16.2947 10.5397C16.0889 10.739 16.0889 11.0559 16.2947 11.2552L16.4538 11.4091C16.6596 11.6084 16.9871 11.6084 17.193 11.4091L18.1099 10.5216V11.8257C18.1099 12.1019 18.3485 12.3283 18.6386 12.3374H18.8585C19.1485 12.3374 19.3871 12.1065 19.3871 11.8257V10.5442L20.4257 11.5676C20.6456 11.7804 21.0058 11.7804 21.2257 11.5676L21.3941 11.4046C21.614 11.1918 21.614 10.8431 21.3941 10.6257L20.3602 9.6069H21.6514C21.9275 9.6069 22.152 9.38502 22.1614 9.11333V8.90503C22.1614 8.62881 21.9322 8.40693 21.6514 8.40693Z" fill="#5DA51E"/>
<path fill-rule="evenodd" clip-rule="evenodd" d="M18.0117 5.95711C18.0117 5.62634 18.2922 5.35486 18.6339 5.35486H18.8538C19.1955 5.35486 19.476 5.62634 19.476 5.95711V7.32786L20.528 6.30966C20.7704 6.07506 21.1571 6.07506 21.3995 6.30966L21.5578 6.46291C21.5579 6.46303 21.5581 6.46315 21.5582 6.46327C21.8057 6.69793 21.8057 7.07284 21.5582 7.30751C21.5581 7.30763 21.5579 7.30775 21.5578 7.30787L20.5159 8.3163H21.6514C21.9844 8.3163 22.255 8.57926 22.255 8.90496V9.11477L22.2549 9.11627C22.244 9.43342 21.9813 9.69739 21.6514 9.69739H20.5833L21.461 10.5623C21.7161 10.8145 21.7171 11.22 21.4603 11.4686L21.2919 11.6316C21.0355 11.8798 20.616 11.8798 20.3596 11.6316L20.3593 11.6313L19.4807 10.7656V11.8256C19.4807 12.1564 19.2002 12.4279 18.8585 12.4279H18.6371L18.6356 12.4278C18.2984 12.4173 18.0164 12.1539 18.0164 11.8256V10.7402L17.2591 11.4731C17.0167 11.7077 16.63 11.7077 16.3876 11.4731L16.2286 11.3191C15.9862 11.0845 15.9862 10.7102 16.2286 10.4756L17.0373 9.69287H15.7848C15.4524 9.69287 15.1813 9.43044 15.1813 9.10873V8.90043C15.1813 8.57872 15.4524 8.3163 15.7848 8.3163H16.993L15.9801 7.32023L15.9799 7.32006C15.7248 7.06788 15.7238 6.66237 15.9806 6.41381L16.149 6.2508C16.4055 6.0026 16.8156 6.0026 17.072 6.2508L17.0724 6.2512L18.0117 7.17193V5.95711ZM18.6339 5.53599C18.3955 5.53599 18.1988 5.72638 18.1988 5.95711V7.61316L16.9397 6.37887C16.9396 6.37881 16.9395 6.37875 16.9395 6.37869C16.7561 6.20142 16.4646 6.20148 16.2814 6.37887L16.1129 6.54189C15.93 6.71895 15.929 7.01074 16.1136 7.19327C16.1136 7.19329 16.1136 7.19331 16.1136 7.19334L17.4397 8.49742H15.7848C15.5558 8.49742 15.3684 8.67876 15.3684 8.90043V9.10873C15.3684 9.3304 15.5558 9.51174 15.7848 9.51174H17.489L16.3609 10.6037C16.1916 10.7675 16.1916 11.0272 16.3609 11.1911L16.52 11.345C16.6893 11.5089 16.9575 11.5089 17.1268 11.345L18.2035 10.3029V11.8256C18.2035 12.0493 18.3979 12.2385 18.6402 12.2468H18.8585C19.0969 12.2468 19.2936 12.0564 19.2936 11.8256V10.3227L20.4919 11.5035C20.492 11.5036 20.4921 11.5037 20.4922 11.5038C20.6755 11.681 20.9763 11.6809 21.1596 11.5035L21.328 11.3405C21.5109 11.1634 21.5119 10.8716 21.3274 10.6891C21.3273 10.6891 21.3273 10.6891 21.3273 10.689L20.1372 9.51627H21.6514C21.8731 9.51627 22.0593 9.33724 22.0678 9.11168V8.90496C22.0678 8.67822 21.8799 8.49742 21.6514 8.49742H20.0642L21.4266 7.17872L21.427 7.17836C21.6 7.01465 21.6 6.75613 21.427 6.59241L21.4266 6.59206L21.2672 6.43774C21.0979 6.27387 20.8296 6.27387 20.6603 6.43774L19.2889 7.76514V5.95711C19.2889 5.72638 19.0922 5.53599 18.8538 5.53599H18.6339Z" fill="#45602C"/>
<path d="M20.5474 15.5433H16.814C16.814 15.5433 16.7719 14.9365 16.5333 14.5562C16.2433 14.0852 15.883 13.2837 16.4678 12.8943C17.2117 12.4007 18.0444 12.9305 18.7228 12.9305C19.2748 12.9351 19.9813 12.2966 20.8281 12.8943C21.3988 13.2973 21.0105 14.1713 20.7672 14.5562C20.4398 15.0769 20.5474 15.5433 20.5474 15.5433Z" fill="#E2DD24"/>
<path fill-rule="evenodd" clip-rule="evenodd" d="M18.7224 13.0211C18.5416 13.021 18.3537 12.9858 18.1675 12.9436C18.1061 12.9297 18.0453 12.9151 17.9846 12.9006C17.8576 12.8702 17.7314 12.84 17.6025 12.8163C17.2258 12.7473 16.8622 12.7424 16.5208 12.969C16.2697 13.1362 16.2149 13.3912 16.2648 13.6797C16.3151 13.9708 16.4705 14.2772 16.6135 14.5095C16.7413 14.7134 16.814 14.9725 16.855 15.1749C16.8757 15.2773 16.8887 15.3673 16.8966 15.4319C16.8975 15.4392 16.8983 15.4461 16.8991 15.4527H20.4409C20.4365 15.398 20.4345 15.3249 20.4412 15.2383C20.4561 15.0451 20.5145 14.7838 20.6873 14.5091L20.6874 14.5089C20.8056 14.3219 20.9573 14.0183 21.0107 13.7167C21.0642 13.4147 21.0164 13.1394 20.7729 12.9675C20.3786 12.6891 20.0213 12.6978 19.6874 12.7779C19.5622 12.8079 19.4433 12.8472 19.3251 12.8863C19.2816 12.9006 19.2383 12.9149 19.1947 12.9288C19.0373 12.9788 18.877 13.0223 18.7224 13.0211ZM20.5474 15.5433V15.6339H16.7265L16.7207 15.5494L16.7206 15.5492L16.7206 15.5481C16.7205 15.5471 16.7204 15.5456 16.7202 15.5435C16.7199 15.5393 16.7193 15.5329 16.7186 15.5246C16.717 15.508 16.7145 15.4837 16.7108 15.4532C16.7033 15.3921 16.6909 15.3067 16.6713 15.2098C16.6316 15.0139 16.564 14.7796 16.4533 14.6032L16.4531 14.6028L16.4529 14.6025C16.306 14.3639 16.1363 14.0342 16.0802 13.7096C16.0236 13.3823 16.0812 13.0419 16.4148 12.8197L16.4149 12.8196C16.8173 12.5526 17.242 12.5659 17.6373 12.6384C17.7713 12.6629 17.9063 12.6952 18.036 12.7263C18.0953 12.7405 18.1536 12.7545 18.2102 12.7673C18.3941 12.809 18.5646 12.84 18.7228 12.84H18.7232L18.7236 12.84C18.8449 12.841 18.9798 12.8064 19.1364 12.7567C19.1756 12.7442 19.2162 12.7308 19.258 12.717C19.3784 12.6772 19.5086 12.6342 19.6424 12.6021C20.0114 12.5135 20.4307 12.5018 20.8832 12.8211C21.2104 13.0522 21.2539 13.4154 21.1951 13.7473C21.1363 14.0797 20.9722 14.4055 20.8471 14.6034C20.6925 14.8493 20.6409 15.0816 20.6278 15.2518C20.6212 15.3369 20.6243 15.4064 20.6288 15.4539C20.6311 15.4777 20.6337 15.4959 20.6357 15.5078C20.6367 15.5137 20.6376 15.5181 20.6381 15.5207C20.6382 15.5215 20.6384 15.5222 20.6385 15.5226C20.6385 15.523 20.6386 15.5233 20.6386 15.5235L20.6387 15.5236C20.6387 15.5236 20.6387 15.5236 20.5474 15.5433Z" fill="#525625"/>
</svg>
