<svg width="24" height="24" viewBox="0 0 24 24" fill="none" xmlns="http://www.w3.org/2000/svg">
<path d="M0 4.25015H24V19.7498H0V4.25015Z" fill="white"/>
<path d="M0 4.25015H24V9.4167H0V4.25015ZM0 14.5833H24V19.7498H0V14.5833Z" fill="#0052B4"/>
<path d="M10.7148 12.2694L12 10.1129L13.2852 12.2694H10.7148Z" fill="#FFDA44"/>
<path d="M13.6695 12.9814L12 13.7902L10.3305 12.9814V11.9032H13.6695V12.9814Z" fill="#6DA544"/>
<path d="M13.574 10.2055L12.9837 10.7773C13.2355 11.0212 13.3912 11.3581 13.3912 11.7303C13.3912 12.4747 12.7683 13.0781 12 13.0781C11.2316 13.0781 10.6087 12.4747 10.6087 11.7303C10.6087 11.3582 10.7644 11.0212 11.0162 10.7773L10.426 10.2055C10.0231 10.5957 9.77393 11.1348 9.77393 11.7303C9.77393 12.9213 10.7705 13.8868 12 13.8868C13.2294 13.8868 14.226 12.9213 14.226 11.7303C14.226 11.1348 13.9768 10.5956 13.574 10.2055Z" fill="#FFDA44"/>
</svg>
