<svg width="24" height="24" viewBox="0 0 24 24" fill="none" xmlns="http://www.w3.org/2000/svg">
<path d="M0 4.24967H24V19.7499H0V4.24967Z" fill="white"/>
<path d="M0 4.24967H24V9.41621H0V4.24967Z" fill="#D80027"/>
<path d="M0 14.583H24V19.7495H0V14.583Z" fill="black"/>
<path d="M8.78016 10.1465L9.21179 11.4334H10.6088L9.4786 12.2289L9.91027 13.516L8.78016 12.7205L7.65001 13.516L8.08168 12.2289L6.95157 11.4334H8.34849L8.78016 10.1465ZM15.2198 10.1465L15.6515 11.4334H17.0484L15.9183 12.2289L16.35 13.516L15.2198 12.7205L14.0897 13.516L14.5214 12.2289L13.3913 11.4334H14.7882L15.2198 10.1465Z" fill="#6DA544"/>
</svg>
