<svg width="24" height="24" viewBox="0 0 24 24" fill="none" xmlns="http://www.w3.org/2000/svg">
<path d="M0 4.25H24V19.75H0V4.25Z" fill="#ED2024"/>
<path d="M8.66669 7.40167V11.535L10.56 12.1808L9.22669 13.4467L9.86669 14.2217L11.28 12.8008L11.6 13.395L10.8 14.6608L11.76 16.1075L11.28 16.7792L12.0267 17.7092L12.7467 16.7533L12.3467 16.0817L13.1467 14.5833L12.4267 13.395L12.7467 12.8008L14.1334 14.2217L14.8 13.4725L13.4134 12.155L15.3334 11.4833V7.40167L13.9467 7.8925L13.92 8.87417L13.04 8.95167V8.28L13.4934 7.68583L14.9867 7.1175L14.3734 7.01417L14.7467 6.70417L14.9867 6.8075L14.7734 6.44583L14.4 6.575L14.1334 6.29083L12.6667 6.575L13.04 6.85917L12.0267 8.125L11.0134 6.885L11.36 6.60083L10.0267 6.29083L9.65335 6.575L9.25335 6.47167L9.04002 6.83333L9.28002 6.67833L9.70669 6.9625L9.09335 7.09167L10.56 7.60833L10.9867 8.2025V8.95167L10.1067 8.87417V7.94417L8.66669 7.40167Z" fill="#212121"/>
<path d="M6.98663 10.7083H8.6933V11.3542H6.98663V10.7083ZM6.98663 9.64916H8.6933V10.3467H6.98663V9.64916ZM6.98663 8.56416H8.6933V9.23582H6.98663V8.56416ZM6.98663 7.53082H8.6933V8.17666H6.98663V7.53082Z" fill="#212121"/>
<path d="M15.3067 10.7083H17.0134V11.3542H15.3067V10.7083ZM15.3067 9.64916H17.0134V10.3467H15.3067V9.64916ZM15.3067 8.56416H17.0134V9.23582H15.3067V8.56416ZM15.3067 7.53082H17.0134V8.17666H15.3067V7.53082Z" fill="#212121"/>
<path d="M14.24 13.5759H15.9467V14.0667H14.24V13.5759ZM8.05334 13.5759H9.76001V14.0667H8.05334V13.5759Z" fill="#212121"/>
</svg>
