<svg width="24" height="24" viewBox="0 0 24 24" fill="none" xmlns="http://www.w3.org/2000/svg">
<path d="M0 4.24967H24V19.7499H0V4.24967Z" fill="#D80027"/>
<path d="M12 16.359C14.4853 16.359 16.5 14.4073 16.5 11.9997C16.5 9.59204 14.4853 7.64028 12 7.64028C9.51472 7.64028 7.5 9.59204 7.5 11.9997C7.5 14.4073 9.51472 16.359 12 16.359Z" fill="white"/>
<path d="M12.5544 10.333L13.3264 11.3636L14.5767 10.9708L13.8034 12.0005L14.5754 13.0311L13.3255 12.6369L12.5523 13.6666L12.5531 12.3933L11.3032 11.9991L12.5536 11.6064L12.5544 10.333Z" fill="#D80027"/>
<path d="M13.0227 14.5758C11.5541 14.5758 10.3637 13.4225 10.3637 11.9998C10.3637 10.5771 11.5541 9.42381 13.0227 9.42381C13.4807 9.42381 13.9115 9.53597 14.2877 9.73346C13.6975 9.17446 12.8906 8.82939 12 8.82939C10.1926 8.82939 8.72729 10.2489 8.72729 11.9998C8.72729 13.7508 10.1926 15.1703 12 15.1703C12.8906 15.1703 13.6976 14.8252 14.2877 14.2662C13.9114 14.4636 13.4807 14.5758 13.0227 14.5758Z" fill="#D80027"/>
</svg>
