<svg width="24" height="24" viewBox="0 0 24 24" fill="none" xmlns="http://www.w3.org/2000/svg">
<path d="M0 4.25039H24V19.7501H0V4.25039Z" fill="white"/>
<path d="M12 12.0001V19.75H0V12.0001H12Z" fill="#0052B4"/>
<path d="M24 4.25027V12.0001H12V4.25027H24Z" fill="#D80027"/>
<path d="M5.99999 5.96211L6.55424 7.61454H8.34782L6.8968 8.63587L7.451 10.2883L5.99999 9.26702L4.54897 10.2883L5.10318 8.63587L3.65216 7.61454H5.44574L5.99999 5.96211Z" fill="#0052B4"/>
<path d="M18 13.712L18.5542 15.3644H20.3478L18.8968 16.3857L19.451 18.0381L18 17.0169L16.549 18.0381L17.1032 16.3857L15.6522 15.3644H17.4457L18 13.712Z" fill="#D80027"/>
</svg>
