<svg width="24" height="24" viewBox="0 0 24 24" fill="none" xmlns="http://www.w3.org/2000/svg">
<path d="M0 4.2498H24V19.75H0V4.2498Z" fill="black"/>
<path d="M0 4.24958H24V19.7495" fill="#A2001D"/>
<path d="M9.59209 15.2007L9.72156 15.5869H10.1407L9.80162 15.8255L9.93114 16.2116L9.59209 15.973L9.25304 16.2116L9.38251 15.8255L9.04347 15.5869H9.46253L9.59209 15.2007ZM8.52175 11.4942L8.73761 12.1378H9.43609L8.87096 12.5354L9.08682 13.179L8.52175 12.7812L7.95667 13.179L8.17257 12.5354L7.60745 12.1378H8.30593L8.52175 11.4942ZM8.52175 16.2116L8.73756 16.8552H9.43609L8.87092 17.2528L9.08682 17.8964L8.52175 17.4987L7.95667 17.8964L8.17248 17.2528L7.60745 16.8552H8.30584L8.52175 16.2116ZM10.5639 13.179L10.7798 13.8225H11.4783L10.9132 14.2202L11.129 14.8638L10.5639 14.4661L9.99887 14.8638L10.2148 14.2202L9.64965 13.8225H10.3481L10.5639 13.179ZM6.47954 13.179L6.69545 13.8225H7.39384L6.82881 14.2202L7.04457 14.8638L6.47954 14.4661L5.91447 14.8638L6.13032 14.2202L5.56525 13.8225H6.26368L6.47954 13.179Z" fill="white"/>
<path d="M17.6496 9.64589C17.2921 9.29951 16.8276 9.09493 16.3283 9.05974L17.8227 7.93379C17.2274 7.35718 16.4298 7.09684 15.6515 7.15192C15.5554 6.81683 15.3714 6.51157 15.1173 6.26592L14.527 7.40962C14.4874 7.33962 14.4377 7.27544 14.3794 7.21904C14.0398 6.89004 13.4892 6.89009 13.1497 7.21904C12.8102 7.54799 12.8101 8.08138 13.1497 8.41033C13.2079 8.46677 13.2742 8.51491 13.3464 8.55328L12.1658 9.12513C12.4195 9.37141 12.7347 9.54976 13.0808 9.64276C13.0237 10.3968 13.2922 11.1694 13.8875 11.746L15.1931 10.1198C15.2904 10.0264 15.422 9.97412 15.5591 9.97444C15.6984 9.97444 15.8294 10.027 15.928 10.1225C15.9766 10.1693 16.0151 10.225 16.0413 10.2863C16.0676 10.3477 16.081 10.4135 16.0808 10.4799C16.0808 10.6149 16.0265 10.7418 15.928 10.8372L16.4199 11.3138C16.6498 11.091 16.7765 10.7948 16.7765 10.4799C16.7765 10.2222 16.6916 9.97712 16.5349 9.77445C16.7706 9.83518 16.9855 9.95522 17.1578 10.1224C17.7003 10.6479 17.7003 11.503 17.1578 12.0285L17.6497 12.505C18.0439 12.1232 18.2609 11.6154 18.2609 11.0755C18.2608 10.5354 18.0438 10.0277 17.6496 9.64589Z" fill="#FFDA44"/>
</svg>
