<svg width="24" height="24" viewBox="0 0 24 24" fill="none" xmlns="http://www.w3.org/2000/svg">
<path d="M0 4.25H24V19.75H0V4.25Z" fill="#0052B4"/>
<path d="M12 4.25V9.58167H9.83906L12 10.9759V12.0023H10.9406L7.5 9.7815V12.0023H4.5V9.7815L1.05937 12.0023H0V10.9759L2.16094 9.58167H0V6.67514H2.16094L0 5.28091V4.25H1.05937L4.5 6.47077V4.25H7.5V6.47077L10.9406 4.25H12Z" fill="white"/>
<path d="M6.75 4.25H5.25V7.40177H0V8.85504H5.25V12.0023H6.75V8.85504H12V7.40177H6.75V4.25Z" fill="#D80027"/>
<path d="M12 5.28091V6.67514H9.83905L12 5.28091Z" fill="#2E52B2"/>
<path d="M0 12.0024V11.5028L2.92969 9.58181H3.98906L0.342188 12.0024H0ZM0.342188 4.25468L3.98906 6.67074H2.92969L0 4.75424V4.25468H0.342188ZM12 4.25468V4.75424L9.07031 6.67528H8.01094L11.6578 4.25468H12ZM11.6578 12.0024L8.01094 9.58181H9.07031L12 11.5028V12.0024H11.6578Z" fill="#D80027"/>
<path d="M20.7844 16.8344C21.5351 16.8344 22.1437 15.9499 22.1437 14.8588C22.1437 13.7678 21.5351 12.8833 20.7844 12.8833C20.0336 12.8833 19.425 13.7678 19.425 14.8588C19.425 15.9499 20.0336 16.8344 20.7844 16.8344Z" fill="white"/>
<path d="M19.0734 19.1006C19.643 19.1006 20.1047 18.9115 20.1047 18.6782C20.1047 18.445 19.643 18.2559 19.0734 18.2559C18.5039 18.2559 18.0422 18.445 18.0422 18.6782C18.0422 18.9115 18.5039 19.1006 19.0734 19.1006Z" fill="#FFCE00"/>
<path d="M17.0625 19.1006C17.632 19.1006 18.0938 18.9115 18.0938 18.6782C18.0938 18.445 17.632 18.2559 17.0625 18.2559C16.493 18.2559 16.0312 18.445 16.0312 18.6782C16.0312 18.9115 16.493 19.1006 17.0625 19.1006Z" fill="#FFCE00"/>
<path d="M16.0312 12.8833L18.0656 16.8298L20.1047 12.8833H16.0312Z" fill="#39B200"/>
<path d="M15.3516 16.8344C16.1023 16.8344 16.7109 15.9499 16.7109 14.8588C16.7109 13.7678 16.1023 12.8833 15.3516 12.8833C14.6008 12.8833 13.9922 13.7678 13.9922 14.8588C13.9922 15.9499 14.6008 16.8344 15.3516 16.8344Z" fill="#9B9B9B"/>
<path d="M17.3906 12.2248L16.7109 12.8833H19.425L18.7453 12.2248L19.425 10.2493C19.425 10.2493 18.8156 8.93224 18.0656 8.93224C17.3156 8.93224 16.7062 10.2493 16.7062 10.2493L17.3906 12.2248Z" fill="#757575"/>
<path d="M18.0656 8.6098C18.8164 8.6098 19.425 8.02015 19.425 7.29278C19.425 6.56541 18.8164 5.97575 18.0656 5.97575C17.3149 5.97575 16.7062 6.56541 16.7062 7.29278C16.7062 8.02015 17.3149 8.6098 18.0656 8.6098Z" fill="#C6B56F"/>
<path d="M18.0938 9.5953C18.8445 9.5953 19.4531 9.00565 19.4531 8.27827C19.4531 7.5509 18.8445 6.96125 18.0938 6.96125C17.343 6.96125 16.7344 7.5509 16.7344 8.27827C16.7344 9.00565 17.343 9.5953 18.0938 9.5953Z" fill="#A54A00"/>
<path d="M20.7844 10.9123C21.5351 10.9123 22.1437 10.3227 22.1437 9.5953C22.1437 8.86793 21.5351 8.27827 20.7844 8.27827C20.0336 8.27827 19.425 8.86793 19.425 9.5953C19.425 10.3227 20.0336 10.9123 20.7844 10.9123Z" fill="white"/>
<path d="M16.0406 12.2293C16.7914 12.2293 17.4 11.6397 17.4 10.9123C17.4 10.1849 16.7914 9.5953 16.0406 9.5953C15.2899 9.5953 14.6813 10.1849 14.6813 10.9123C14.6813 11.6397 15.2899 12.2293 16.0406 12.2293Z" fill="#0049FF"/>
<path d="M20.1469 12.2293C20.8976 12.2293 21.5062 11.6397 21.5062 10.9123C21.5062 10.1849 20.8976 9.5953 20.1469 9.5953C19.3961 9.5953 18.7875 10.1849 18.7875 10.9123C18.7875 11.6397 19.3961 12.2293 20.1469 12.2293Z" fill="#0041F9"/>
<path d="M18.0938 16.1759C18.8445 16.1759 19.4531 15.5862 19.4531 14.8588C19.4531 14.1315 18.8445 13.5418 18.0938 13.5418C17.343 13.5418 16.7344 14.1315 16.7344 14.8588C16.7344 15.5862 17.343 16.1759 18.0938 16.1759Z" fill="#F7D71E"/>
<path d="M21.4641 14.2003C22.2148 14.2003 22.8234 13.6107 22.8234 12.8833C22.8234 12.1559 22.2148 11.5663 21.4641 11.5663C20.7133 11.5663 20.1047 12.1559 20.1047 12.8833C20.1047 13.6107 20.7133 14.2003 21.4641 14.2003Z" fill="#CEC851"/>
<path d="M18.0656 18.7145C18.8164 18.7145 19.425 18.1249 19.425 17.3975C19.425 16.6702 18.8164 16.0805 18.0656 16.0805C17.3149 16.0805 16.7062 16.6702 16.7062 17.3975C16.7062 18.1249 17.3149 18.7145 18.0656 18.7145Z" fill="white"/>
<path d="M17.3906 10.4128L18.0703 10.2538L18.75 10.4128C18.75 10.7534 18.0703 10.9123 18.0703 10.9123C18.0703 10.9123 17.3906 10.7534 17.3906 10.4128Z" fill="#7C0B29"/>
<path d="M15.3516 10.8987C16.1023 10.8987 16.7109 10.309 16.7109 9.58167C16.7109 8.8543 16.1023 8.26465 15.3516 8.26465C14.6008 8.26465 13.9922 8.8543 13.9922 9.58167C13.9922 10.309 14.6008 10.8987 15.3516 10.8987Z" fill="white"/>
</svg>
