<svg width="24" height="24" viewBox="0 0 24 24" fill="none" xmlns="http://www.w3.org/2000/svg">
<path d="M0 4.25H24V19.75H0V4.25Z" fill="#003893"/>
<path d="M0 12.5076H24V14.3839H0V12.5076Z" fill="#CF2027"/>
<path d="M0 10.6313H24V12.5076H0V10.6313ZM0 14.3839H24V16.2602H0V14.3839Z" fill="white"/>
<path d="M7.03627 7.42249L7.35908 8.37877H8.39768L7.55557 8.97249L7.87838 9.92877L7.03627 9.33506L6.19884 9.92877L6.51697 8.97249L5.67955 8.37877H6.71814L7.03627 7.42249ZM7.03627 16.9264L7.35908 17.8827H8.39768L7.55557 18.4719L7.87838 19.4327L7.03627 18.839L6.19884 19.4327L6.51697 18.4719L5.67955 17.8827H6.71814L7.03627 16.9264ZM2.47019 13.7131L2.793 14.6694H3.83159L2.98949 15.2586L3.3123 16.2194L2.47019 15.6257L1.63276 16.2194L1.95089 15.2586L1.11346 14.6694H2.15206L2.47019 13.7131ZM4.21522 8.37424L4.53803 9.33053H5.57662L4.73452 9.91971L5.05732 10.8805L4.21522 10.2868L3.37779 10.8805L3.69592 9.91971L2.85382 9.33053H3.89709L4.21522 8.37424ZM1.11346 11.5921H2.15206L2.47019 10.6358L2.793 11.5921H3.83159L2.98949 12.1858L3.3123 13.1421L2.47019 12.5529L1.63276 13.1421L1.95089 12.1858L1.11346 11.5921ZM3.37779 18.3405L3.69592 17.3842L2.85382 16.795H3.89709L4.21522 15.8342L4.53803 16.795H5.57662L4.73452 17.3842L5.05732 18.3405L4.21522 17.7513L3.37779 18.3405ZM11.6024 13.7131L11.2795 14.6694H10.2409L11.0831 15.2586L10.7602 16.2194L11.6024 15.6257L12.4445 16.2194L12.1217 15.2586L12.9638 14.6694H11.9252L11.6024 13.7131ZM9.85732 8.37424L9.5392 9.33053H8.5006L9.33803 9.91971L9.0199 10.8805L9.85732 10.2868L10.6994 10.8805L10.3766 9.91971L11.2187 9.33053H10.1801L9.85732 8.37424ZM12.9638 11.5921H11.9252L11.6024 10.6358L11.2795 11.5921H10.2409L11.0831 12.1858L10.7602 13.1421L11.6024 12.5529L12.4445 13.1421L12.1217 12.1858L12.9638 11.5921ZM10.6994 18.3405L10.3766 17.3842L11.2187 16.795H10.1801L9.85732 15.8342L9.5392 16.795H8.5006L9.33803 17.3842L9.0199 18.3405L9.85732 17.7513L10.6994 18.3405Z" fill="#F7D116"/>
<path fill-rule="evenodd" clip-rule="evenodd" d="M7.0361 7.34912L7.37603 8.35614H8.46956L7.58309 8.98113L7.92308 9.98835L7.0363 9.36314L6.15445 9.98835L6.48952 8.98113L5.60797 8.35614H6.7011L7.0361 7.34912ZM7.03643 7.4959L6.73518 8.40146H5.75111L6.54441 8.96389L6.24323 9.86925L7.03623 9.30703L7.83366 9.86925L7.52804 8.96389L8.32578 8.40146H7.34211L7.03643 7.4959ZM4.21505 8.30088L4.55498 9.30789H5.64896L4.76203 9.92843L5.10189 10.94L4.21525 10.3149L3.33353 10.94L3.66845 9.92847L2.78147 9.30789H3.88005L4.21505 8.30088ZM9.85715 8.30088L10.1971 9.30789H11.2911L10.4041 9.92843L10.744 10.94L9.85736 10.3149L8.97564 10.94L9.31058 9.92843L8.42858 9.30789H9.52215L9.85715 8.30088ZM4.21538 8.44765L3.91412 9.35321H2.92615L3.72337 9.91099L3.42204 10.8211L4.21517 10.2588L5.01274 10.8211L4.70699 9.91103L5.50427 9.35321H4.52106L4.21538 8.44765ZM9.85748 8.44765L9.55623 9.35321H8.57261L9.36547 9.91103L9.06414 10.8211L9.85728 10.2588L10.6548 10.8211L10.3491 9.91103L11.1464 9.35321H10.1632L9.85748 8.44765ZM2.47002 10.5624L2.80995 11.5694H3.90348L3.017 12.1944L3.35686 13.2012L2.47022 12.5809L1.58851 13.2012L1.92344 12.1944L1.04189 11.5694H2.13502L2.47002 10.5624ZM11.6023 10.5629L11.9421 11.5694H13.0356L12.1492 12.1944L12.489 13.2012L11.6023 12.5809L10.7157 13.2012L11.0555 12.1944L10.1691 11.5694H11.2626L11.6023 10.5629ZM2.47035 10.7092L2.16909 11.6148H1.18503L1.97833 12.1772L1.67701 13.083L2.47015 12.5249L3.26771 13.083L2.96196 12.1772L3.75969 11.6148H2.77603L2.47035 10.7092ZM11.6023 10.7087L11.2965 11.6148H10.3128L11.1106 12.1772L10.8048 13.083L11.6023 12.525L12.3999 13.083L12.0941 12.1772L12.8919 11.6148H11.9082L11.6023 10.7087ZM2.47002 13.6398L2.80995 14.6468H3.90393L3.017 15.2673L3.35686 16.2789L2.47022 15.6538L1.58851 16.2789L1.92344 15.2673L1.04144 14.6468H2.13502L2.47002 13.6398ZM11.6023 13.6402L11.9421 14.6468H13.0361L12.1492 15.2673L12.489 16.2789L11.6023 15.6538L10.7157 16.2789L11.0555 15.2673L10.1686 14.6468H11.2626L11.6023 13.6402ZM2.47035 13.7865L2.16909 14.6921H1.18547L1.97833 15.2499L1.67701 16.16L2.47015 15.5977L3.26771 16.16L2.96196 15.2499L3.75925 14.6921H2.77603L2.47035 13.7865ZM11.6023 13.7861L11.2965 14.6921H10.3133L11.1106 15.2499L10.8048 16.16L11.6023 15.5977L12.3999 16.16L12.0941 15.2499L12.8914 14.6921H11.9082L11.6023 13.7861ZM4.21505 15.7605L4.55501 16.7724H5.64896L4.76205 17.3929L5.10189 18.3996L4.21525 17.7793L3.33354 18.3996L3.66843 17.3929L2.78147 16.7724H3.88002L4.21505 15.7605ZM9.85715 15.7605L10.1971 16.7724H11.2911L10.4042 17.3929L10.744 18.3996L9.85736 17.7793L8.97564 18.3996L9.31056 17.3929L8.42858 16.7724H9.52213L9.85715 15.7605ZM4.21538 15.9079L3.91415 16.8177H2.92615L3.72339 17.3755L3.42204 18.2814L4.21517 17.7233L5.01274 18.2814L4.70697 17.3755L5.50427 16.8177H4.52103L4.21538 15.9079ZM9.85748 15.9079L9.55625 16.8177H8.57261L9.36549 17.3755L9.06414 18.2814L9.85728 17.7233L10.6549 18.2814L10.3491 17.3755L11.1464 16.8177H10.1631L9.85748 15.9079ZM7.0361 16.8531L7.37603 17.8601H8.47001L7.58309 18.4806L7.92294 19.4922L7.0363 18.8671L6.15459 19.4922L6.48952 18.4806L5.60752 17.8601H6.7011L7.0361 16.8531ZM7.03643 16.9998L6.73518 17.9054H5.75156L6.54441 18.4632L6.24309 19.3733L7.03623 18.811L7.8338 19.3733L7.52804 18.4632L8.32533 17.9054H7.34211L7.03643 16.9998Z" fill="black"/>
</svg>
