<svg width="24" height="24" viewBox="0 0 24 24" fill="none" xmlns="http://www.w3.org/2000/svg">
<path d="M0 4.25H24V19.75H0V4.25Z" fill="#009B3A"/>
<path d="M12 5.12469L21.586 11.9864L12 18.8436L2.36725 11.9864L12 5.12469Z" fill="#FEDF00"/>
<path d="M12 15.6439C14.0774 15.6439 15.7614 14.0124 15.7614 12C15.7614 9.98755 14.0774 8.35614 12 8.35614C9.92264 8.35614 8.2386 9.98755 8.2386 12C8.2386 14.0124 9.92264 15.6439 12 15.6439Z" fill="white"/>
<path d="M10.1006 11.7598C9.45029 11.7598 8.81872 11.855 8.22456 12.0317C8.25263 14.0213 9.92281 15.6257 11.9813 15.6257C13.2538 15.6257 14.3813 15.0094 15.0597 14.0712C13.8947 12.6662 12.1029 11.7598 10.1006 11.7598ZM15.6678 12.6798C15.7099 12.4532 15.738 12.2221 15.738 11.9819C15.738 9.96959 14.0538 8.33801 11.9766 8.33801C10.4281 8.33801 9.09942 9.24898 8.5193 10.5406C9.02924 10.4409 9.55322 10.3866 10.0912 10.3866C12.2807 10.3911 14.255 11.2703 15.6678 12.6798Z" fill="#002776"/>
</svg>
