<svg width="24" height="24" viewBox="0 0 24 24" fill="none" xmlns="http://www.w3.org/2000/svg">
<path d="M0 4.25015H24V19.7498H0V4.25015Z" fill="#496E2D"/>
<path d="M0 19.7498V4.25015H24" fill="#0052B4"/>
<path d="M24 7.28741V4.25015H19.297L0 16.7126V19.7498H4.70297L24 7.28741Z" fill="white"/>
<path d="M24 4.25015V6.07224L2.82155 19.7498H0V17.9278L21.1785 4.25015H24Z" fill="#A2001D"/>
<path d="M8.8002 8.96703L7.73422 9.45274L8.30187 10.4529L7.14439 10.2383L6.99772 11.3711L6.19151 10.538L5.38526 11.3711L5.23859 10.2383L4.08111 10.4528L4.64872 9.45274L3.58282 8.96703L4.64876 8.48128L4.08111 7.48126L5.23859 7.69569L5.38531 6.56297L6.19151 7.39611L6.99776 6.56297L7.14439 7.69569L8.30187 7.48126L7.73431 8.48137L8.8002 8.96703Z" fill="#FFDA44"/>
</svg>
