<svg width="24" height="24" viewBox="0 0 24 24" fill="none" xmlns="http://www.w3.org/2000/svg">
<path d="M0 4.24985H24V19.7495H0V4.24985Z" fill="#FFDA44"/>
<path d="M12 4.25H24V19.7502H12V4.25Z" fill="white"/>
<path d="M15.0634 10.9937L16.5668 12.9204C16.33 13.2679 16.3312 13.736 16.6051 14.0871C16.9526 14.5324 17.607 14.6206 18.0668 14.284C18.5265 13.9473 18.6175 13.3134 18.2699 12.868C17.996 12.5169 17.5314 12.3881 17.1217 12.514L14.7785 9.51108L14.2236 9.91745L13.3912 10.527L14.2302 11.6022L15.0634 10.9937V10.9937ZM17.2278 13.2088C17.2643 13.1821 17.3058 13.1626 17.35 13.1515C17.3942 13.1403 17.4403 13.1377 17.4855 13.1438C17.5308 13.1499 17.5743 13.1646 17.6137 13.187C17.6531 13.2094 17.6876 13.2391 17.7151 13.2744C17.7427 13.3097 17.7628 13.3499 17.7743 13.3927C17.7858 13.4356 17.7885 13.4802 17.7822 13.524C17.7759 13.5678 17.7607 13.61 17.7376 13.6482C17.7145 13.6864 17.6838 13.7198 17.6474 13.7464C17.5738 13.8003 17.4811 13.8237 17.3897 13.8114C17.2983 13.7991 17.2157 13.7521 17.1601 13.6808C17.1045 13.6095 17.0804 13.5197 17.0931 13.4312C17.1058 13.3427 17.1543 13.2627 17.2278 13.2088V13.2088Z" fill="#ACABB1"/>
<path d="M17.6422 11.6023L18.4812 10.5271L17.6488 9.91755L17.0939 9.51117L14.7507 12.5141C14.341 12.3881 13.8764 12.517 13.6025 12.8681C13.255 13.3135 13.3459 13.9474 13.8056 14.2841C14.2654 14.6207 14.9198 14.5326 15.2673 14.0872C15.5413 13.7361 15.5425 13.268 15.3056 12.9205L16.809 10.9938L17.6422 11.6023V11.6023ZM14.7123 13.6808C14.6567 13.7521 14.5741 13.799 14.4827 13.8114C14.3914 13.8237 14.2987 13.8003 14.2251 13.7464C14.1515 13.6925 14.103 13.6125 14.0903 13.524C14.0776 13.4354 14.1017 13.3457 14.1573 13.2744C14.1849 13.2391 14.2193 13.2094 14.2587 13.1869C14.2981 13.1645 14.3417 13.1499 14.387 13.1438C14.4322 13.1377 14.4782 13.1403 14.5225 13.1514C14.5667 13.1626 14.6082 13.1821 14.6446 13.2087C14.6811 13.2354 14.7117 13.2688 14.7348 13.307C14.758 13.3451 14.7731 13.3873 14.7794 13.4312C14.7857 13.475 14.783 13.5196 14.7715 13.5624C14.76 13.6053 14.7399 13.6455 14.7123 13.6808V13.6808Z" fill="#FFDA44"/>
</svg>
