<svg width="24" height="24" viewBox="0 0 24 24" fill="none" xmlns="http://www.w3.org/2000/svg">
<path d="M0 4.25016H24V19.7498H0V4.25016Z" fill="#0052B4"/>
<path d="M9.87726 8.29336L10.0499 8.80822H10.6086L10.1566 9.12636L10.3293 9.64118L9.87726 9.32299L9.4252 9.64118L9.59788 9.12636L9.14577 8.80822H9.70457L9.87726 8.29336ZM5.47574 13.1792L5.6916 13.8228H6.39004L5.82496 14.2204L6.04087 14.864L5.47574 14.4662L4.91067 14.864L5.12648 14.2204L4.56145 13.8228H5.25984L5.47574 13.1792ZM6.78262 5.80951L6.99843 6.45307H7.69692L7.13179 6.85077L7.3477 7.49428L6.78262 7.09653L6.21749 7.49428L6.4334 6.85077L5.86832 6.45307H6.56676L6.78262 5.80951ZM3.25963 8.33668L3.47545 8.98024H4.17388L3.60881 9.37794L3.82471 10.0214L3.25963 9.62374L2.69451 10.0214L2.91042 9.37794L2.34534 8.98024H3.04377L3.25963 8.33668Z" fill="white"/>
<path d="M22.6587 16.4729H5.52192C5.52192 16.4729 10.6423 12.4513 20.081 6.44008C20.081 6.44008 15.9352 12.295 22.6587 16.4729ZM5.52192 16.999C4.998 16.999 4.99715 17.7878 5.52192 17.7878H22.6587C23.1826 17.7878 23.1835 16.999 22.6587 16.999H5.52192Z" fill="#FFDA44"/>
</svg>
