<svg width="24" height="24" viewBox="0 0 24 24" fill="none" xmlns="http://www.w3.org/2000/svg">
<g clip-path="url(#clip0_97_3414)">
<path d="M-0.0467834 4.20468H23.9532V19.7047H-0.0467834V4.20468Z" fill="#D80027"/>
<path d="M6.40936 4.20468H24.0468V9.37135H6.40936V4.20468Z" fill="white"/>
<path d="M6.40936 14.6287H24.0468V19.7953H6.40936V14.6287Z" fill="#4A7C3A"/>
<path fill-rule="evenodd" clip-rule="evenodd" d="M1.65356 5.93862C1.65354 5.9386 1.65353 5.93858 1.83861 5.8C2.02369 5.66142 2.02369 5.66142 2.02369 5.66142L2.02843 5.66734C2.03164 5.67136 2.03646 5.67737 2.0428 5.68525C2.05548 5.70102 2.07423 5.72428 2.09837 5.75405C2.14666 5.81358 2.21647 5.8991 2.30227 6.0027C2.47398 6.21001 2.70927 6.48913 2.96413 6.77703C3.21944 7.06543 3.49215 7.36013 3.73902 7.59971C3.99467 7.84779 4.19695 8.01081 4.31549 8.06529C4.62707 8.20851 4.8111 8.26638 4.90995 8.28927C4.95898 8.30062 4.98436 8.30273 4.99199 8.3031C4.9936 8.30317 4.99427 8.30317 4.9941 8.30317C4.99387 8.30317 4.9922 8.30318 4.98925 8.3034C4.98661 8.30359 4.98292 8.30396 4.97829 8.30464C4.97597 8.30498 4.97342 8.30539 4.97064 8.30591C4.96925 8.30617 4.9678 8.30645 4.9663 8.30676L4.96401 8.30725L4.96283 8.30751L4.96224 8.30764C4.96194 8.30771 4.96164 8.30778 5.01522 8.52836C5.06879 8.74895 5.06849 8.74901 5.06819 8.74908L5.06758 8.74922L5.06636 8.74949L5.0639 8.75001C5.06224 8.75035 5.06055 8.75068 5.05884 8.751C5.05542 8.75164 5.05189 8.75222 5.04826 8.75276C5.04098 8.75382 5.03325 8.75468 5.02501 8.75529C5.00858 8.75651 4.98994 8.75678 4.9687 8.75575C4.92649 8.75371 4.87203 8.74647 4.80119 8.73007C4.66026 8.69743 4.4443 8.62614 4.11495 8.47476C3.91301 8.38195 3.65799 8.16257 3.40793 7.9199C3.1491 7.66873 2.86772 7.36433 2.60899 7.07206C2.34981 6.77927 2.11113 6.49611 1.93737 6.28633C1.85044 6.18138 1.77964 6.09464 1.7305 6.03405C1.70593 6.00376 1.68677 5.97999 1.67371 5.96375C1.66719 5.95563 1.66218 5.94939 1.65879 5.94515L1.65356 5.93862Z" fill="white"/>
<path fill-rule="evenodd" clip-rule="evenodd" d="M1.57193 8.52836L1.59242 8.7541L1.41351 8.36163L2.50224 7.39079H2.37193V6.93757H3.01049L3.02691 6.92293V5.8H3.49474V6.50575L4.47316 5.63327L4.81272 5.94339L4.63158 5.8C4.81272 5.94339 4.81273 5.94337 4.81272 5.94339L4.79286 5.96687C4.77995 5.98212 4.76099 6.00449 4.73672 6.03305C4.68819 6.09017 4.6184 6.17206 4.53327 6.27129C4.3791 6.451 4.17441 6.68783 3.95438 6.93757H4.14503V7.39079H3.54999C3.41201 7.54315 3.27589 7.69076 3.14967 7.82348C2.92721 8.0574 2.71889 8.26309 2.58461 8.35795C2.33513 8.53418 2.09195 8.63256 1.91007 8.68706C1.81899 8.71436 1.74269 8.73083 1.68776 8.74061C1.66027 8.74551 1.63805 8.74874 1.62191 8.75082C1.61384 8.75186 1.60728 8.75261 1.60233 8.75313C1.59986 8.7534 1.59779 8.7536 1.59613 8.75376L1.59396 8.75396L1.59311 8.75404L1.59258 8.75408C1.5925 8.75409 1.59242 8.7541 1.57193 8.52836Z" fill="white"/>
</g>
<defs>
<clipPath id="clip0_97_3414">
<rect width="24" height="24" fill="white"/>
</clipPath>
</defs>
</svg>
