<svg width="24" height="24" viewBox="0 0 24 24" fill="none" xmlns="http://www.w3.org/2000/svg">
<path d="M0 4.25H24V19.75H0V4.25Z" fill="#0052B4"/>
<path d="M12 4.25V9.58167H9.83906L12 10.9759V12.0023H10.9406L7.5 9.7815V12.0023H4.5V9.7815L1.05937 12.0023H0V10.9759L2.16094 9.58167H0V6.67514H2.16094L0 5.28091V4.25H1.05937L4.5 6.47077V4.25H7.5V6.47077L10.9406 4.25H12Z" fill="white"/>
<path d="M6.75 4.25H5.25V7.40177H0V8.85504H5.25V12.0023H6.75V8.85504H12V7.40177H6.75V4.25Z" fill="#D80027"/>
<path d="M0 4.25V4.93576L2.69063 6.67514H3.75L0 4.25ZM12 4.25V4.93576L9.30938 6.67514H8.25L12 4.25Z" fill="#D80027"/>
<path d="M12 5.28091V6.67514H9.83905L12 5.28091Z" fill="#2E52B2"/>
<path d="M0 4.25V4.93576L2.69063 6.67514H3.75L0 4.25ZM12 4.25V4.93576L9.30938 6.67514H8.25L12 4.25Z" fill="#D80027"/>
<path d="M12 5.28091V6.67514H9.83905L12 5.28091Z" fill="#2E52B2"/>
<path d="M0 12.0023V11.3165L2.69063 9.58167H3.75L0 12.0023ZM12 12.0023V11.3165L9.30938 9.58167H8.25L12 12.0023Z" fill="#D80027"/>
<path d="M21.0469 10.5944C21.0422 12.6108 20.7094 14.7771 18 15.8126C15.2906 14.7771 14.9578 12.6108 14.9531 10.5944H21.0469Z" fill="#29DBFF"/>
<path d="M21.0469 10.5944C21.0469 9.83599 21.0047 9.10028 21.0234 8.45539C20.0109 8.01941 18.675 7.92858 17.9953 7.92858C17.3156 7.92858 15.9844 8.01941 14.9672 8.45539C14.9859 9.10028 14.9437 9.83599 14.9437 10.5944H21.0469Z" fill="#FFDA44"/>
<path d="M17.3203 13.5373L17.3344 14.0051L16.7344 14.0141L16.9641 14.6136H16.1531C15.3094 13.6962 15.0563 12.688 14.986 11.5209L15.4125 11.0804L15.8016 11.7298L16.3078 11.1485L16.636 11.5027L16.6735 12.2157L17.3203 13.5373V13.5373Z" fill="#BF521B"/>
<path d="M20.4656 12.9923L20.0625 13.8234H17.8594L16.4906 12.9378L17.6953 13.4147H18.8719L19.0453 13.1195L19.3828 13.1286L19.4765 12.9923H20.4656Z" fill="#474747"/>
</svg>
