<svg width="24" height="24" viewBox="0 0 24 24" fill="none" xmlns="http://www.w3.org/2000/svg">
<path d="M0 4.25015H24V19.7498H0V4.25015Z" fill="white"/>
<path d="M0 4.25015H24V9.4167H0V4.25015ZM0 14.5833H24V19.7498H0V14.5833Z" fill="#338AF3"/>
<path d="M12 10.1129C10.9243 10.1129 10.0522 10.9577 10.0522 11.9999C10.0522 13.042 10.9242 13.8868 12 13.8868C13.0757 13.8868 13.9478 13.042 13.9478 11.9999C13.9478 10.9577 13.0757 10.1129 12 10.1129ZM12 13.0781C11.3853 13.0781 10.887 12.5954 10.887 11.9999C10.887 11.4044 11.3853 10.9216 12 10.9216C12.6147 10.9216 13.1131 11.4044 13.1131 11.9999C13.1131 12.5954 12.6147 13.0781 12 13.0781Z" fill="#FFDA44"/>
<path d="M12.9639 12.2694L12 11.9999L11.0361 12.2694L10.7148 12.8086H13.2852L12.9639 12.2694Z" fill="#0052B4"/>
<path d="M12 10.6521L11.3574 11.7303L12 11.9999L12.6426 11.7303L12 10.6521Z" fill="#338AF3"/>
<path d="M11.0361 12.2694H12.9639L12.6426 11.7303H11.3574L11.0361 12.2694Z" fill="#6DA544"/>
</svg>
