<svg width="24" height="24" viewBox="0 0 24 24" fill="none" xmlns="http://www.w3.org/2000/svg">
<path d="M0 4.25016H24V19.7498H0V4.25016Z" fill="white"/>
<path d="M0 4.25016H24V9.41671H0V4.25016Z" fill="#D80027"/>
<path d="M0 14.5832H24V19.7497H0V14.5832Z" fill="#6DA544"/>
<path d="M10.6087 14.0216H13.3913V12.8759L12.8348 13.1455L12 12.3369L11.1652 13.1455L10.6087 12.8759V14.0216ZM9.01664 12.6738L9.14616 13.0599H9.56522L9.22617 13.2986L9.35569 13.6847L9.01664 13.446L8.67755 13.6847L8.80706 13.2986L8.46802 13.0599H8.88708L9.01664 12.6738ZM9.41817 11.326L9.54769 11.7121H9.96675L9.62771 11.9507L9.75722 12.3369L9.41817 12.0982L9.07908 12.3369L9.2086 11.9507L8.86955 11.7121H9.28861L9.41817 11.326ZM10.566 10.3151L10.6956 10.7012H11.1146L10.7756 10.9398L10.9051 11.326L10.566 11.0873L10.227 11.326L10.3565 10.9398L10.0174 10.7012H10.4365L10.566 10.3151ZM14.9834 12.6738L14.8538 13.0599H14.4348L14.7738 13.2986L14.6443 13.6847L14.9834 13.446L15.3225 13.6847L15.1929 13.2986L15.532 13.0599H15.1129L14.9834 12.6738ZM14.5818 11.326L14.4523 11.7121H14.0333L14.3723 11.9507L14.2428 12.3369L14.5818 12.0982L14.9209 12.3369L14.7914 11.9507L15.1305 11.7121H14.7114L14.5818 11.326ZM13.434 10.3151L13.3044 10.7012H12.8854L13.2244 10.9398L13.0949 11.326L13.434 11.0873L13.773 11.326L13.6435 10.9398L13.9826 10.7012H13.5635L13.434 10.3151ZM12 9.80962L12.1295 10.1957H12.5486L12.2095 10.4344L12.339 10.8205L12 10.5819L11.661 10.8205L11.7905 10.4344L11.4514 10.1957H11.8705L12 9.80962Z" fill="#FFDA44"/>
</svg>
