<svg width="24" height="24" viewBox="0 0 24 24" fill="none" xmlns="http://www.w3.org/2000/svg">
<path d="M0 4.25H24V19.75H0V4.25Z" fill="#095FAD"/>
<path d="M16 4.25H24V19.75H16V4.25ZM0 4.25H8V19.75H0V4.25Z" fill="#BE1229"/>
<path d="M5.06667 11.787H5.75906V15.1499H5.06667V11.787ZM2.28772 11.787H2.98012V15.1499H2.28772V11.787Z" fill="#FFDA44"/>
<path d="M4.02339 14.1392C4.40579 14.1392 4.71579 13.8389 4.71579 13.4684C4.71579 13.098 4.40579 12.7977 4.02339 12.7977C3.64099 12.7977 3.33099 13.098 3.33099 13.4684C3.33099 13.8389 3.64099 14.1392 4.02339 14.1392Z" fill="#FFDA44"/>
<path d="M3.33099 14.4791H4.72047V15.1499H3.33099V14.4791ZM3.33099 11.787H4.72047V12.4578H3.33099V11.787Z" fill="#FFDA44"/>
<path d="M4.02339 11.4471C4.40579 11.4471 4.71579 11.1468 4.71579 10.7763C4.71579 10.4059 4.40579 10.1056 4.02339 10.1056C3.64099 10.1056 3.33099 10.4059 3.33099 10.7763C3.33099 11.1468 3.64099 11.4471 4.02339 11.4471Z" fill="#FFDA44"/>
<path d="M3.56958 9.86536H4.48186L4.02338 9.15834L3.56958 9.86536Z" fill="#FFDA44"/>
</svg>
