<svg width="24" height="24" viewBox="0 0 24 24" fill="none" xmlns="http://www.w3.org/2000/svg">
<path d="M0 12H24V19.75H0V12Z" fill="black"/>
<path d="M0 4.25H24V12H0V4.25Z" fill="#D80027"/>
<path d="M15.5649 10.3956L16.3836 10.0059L16.0374 9.14476L15.1626 9.42576L15.5649 10.3956ZM13.4316 7.85763L13.6889 7.00558L12.7953 6.67926L12.4211 7.49505L13.4316 7.85763ZM14.807 8.90909L15.3778 8.21567L14.6807 7.58569L14.0164 8.20207L14.807 8.90909ZM15.7146 12.0318L16.6269 11.9955V11.0301L15.5556 11.0392L15.7146 12.0318ZM15.1252 13.7585L16.0047 14.0078L16.3462 13.1467L15.5041 12.7841L15.1252 13.7585ZM13.7684 15.2269L14.4655 15.8025L15.1392 15.1499L14.5263 14.4837L13.7684 15.2269ZM11.5696 8.53292L12.0281 9.43482L13.0526 9.58438L12.3088 10.2869L12.4772 11.2794L11.5603 10.8081L10.6386 11.2704L10.8164 10.2778L10.0772 9.57532L11.1064 9.43482L11.5696 8.53292Z" fill="#FFDA44"/>
<path d="M11.7334 7.02826L11.607 7.85765C13.6234 8.00268 15.2094 9.63426 15.2094 11.6239C15.2094 13.7087 13.4643 15.3811 11.3076 15.4037C9.94154 15.4173 8.90762 14.733 8.17312 13.8764L7.52283 14.4338C8.22458 15.2949 9.4316 16.2422 11.3076 16.2422C13.9415 16.2422 16.0749 14.1755 16.0749 11.6239C16.0796 9.21277 14.1708 7.23221 11.7334 7.02826Z" fill="#FFDA44"/>
<path d="M13.6562 14.3749L13.1041 15.0094C13.1041 15.0094 15.5322 16.7724 15.6117 16.8404C15.6913 16.9084 15.855 16.931 16.0375 16.718C16.2106 16.5141 16.1685 16.3509 16.0796 16.2784C15.986 16.2104 13.6562 14.3749 13.6562 14.3749Z" fill="black"/>
<path d="M9.64213 11.3746C9.2819 11.8414 9.29125 12.4215 9.77312 12.775C9.77312 12.775 16.0983 17.3752 16.1778 17.4432C16.2573 17.5111 16.4211 17.5338 16.6035 17.3208C16.7766 17.1168 16.7345 16.9537 16.6456 16.8812C16.5568 16.8132 9.64213 11.3746 9.64213 11.3746ZM11.8737 15.866L12.2152 16.6908L13.1275 16.4189L12.9029 15.5532L11.8737 15.866ZM9.98365 15.6983L9.89008 16.582L10.8304 16.7452L11.041 15.8796L9.98365 15.6983ZM8.31348 14.7374L7.8316 15.4898L8.59886 16.0382L9.18365 15.3493L8.31348 14.7374Z" fill="#FFDA44"/>
</svg>
