<svg width="24" height="24" viewBox="0 0 24 24" fill="none" xmlns="http://www.w3.org/2000/svg">
<path d="M0 4.25H24V19.75H0V4.25Z" fill="#232323"/>
<path d="M0 6.83409H24V9.41818H0V6.83409Z" fill="#FFDA44"/>
<path d="M0 9.41818H24V12.0023H0V9.41818Z" fill="#D32300"/>
<path d="M0 14.5864H24V17.1705H0V14.5864Z" fill="#FFDA44"/>
<path d="M0 17.1659H24V19.75H0V17.1659Z" fill="#D32300"/>
<path d="M12 15.6672C14.0892 15.6672 15.7828 14.0264 15.7828 12.0023C15.7828 9.97817 14.0892 8.33731 12 8.33731C9.91082 8.33731 8.21719 9.97817 8.21719 12.0023C8.21719 14.0264 9.91082 15.6672 12 15.6672Z" fill="white"/>
<path d="M10.9922 10.0404C11.0344 9.97678 10.0734 9.94953 10.0734 9.94953C10.1531 9.83599 10.9359 9.47268 10.9359 9.47268C10.9359 9.47268 10.8937 9.20019 11.0625 9.02762L10.8516 8.58255C10.8516 8.58255 11.1797 8.42814 11.7141 8.42814C12.2484 8.42814 12.6469 8.74604 12.6984 9.02307L12.3984 9.17748C12.3937 9.39093 12.4781 9.70429 12.1969 9.96316C11.9203 10.222 11.8078 10.2765 11.7984 10.817C11.7984 10.9941 11.9062 11.1893 12.2109 11.3483C13.0266 11.7707 14.0203 12.629 14.3016 12.8879C14.5875 13.1467 14.5406 13.7598 14.4234 14.0323C14.3062 14.3048 13.8562 14.6817 13.7531 14.6499C13.65 14.6227 13.8094 14.2321 13.5891 14.1231C13.5891 14.1231 13.1719 13.778 12.8016 14.1504C12.4312 14.5228 12.7922 15.2948 12.9844 15.422C13.1766 15.5492 13.0641 15.6491 12.8953 15.6491H11.5781C11.4 15.6491 11.325 15.5446 11.4891 15.422C11.8453 15.2494 12.0703 14.7271 11.8359 14.5001C11.6062 14.2775 10.9781 14.5682 10.8281 14.7862C10.6969 14.9133 10.4156 14.9497 10.2234 14.7226C10.0312 14.4955 10.0312 14.2503 10.1719 14.1549C10.5 13.9369 10.1719 14.1549 10.1766 14.1504C10.1766 14.1504 10.7344 13.7598 11.5781 13.7416C11.7609 13.7416 11.8031 13.6417 11.6812 13.5237C11.6812 13.5237 10.2328 12.2793 10.3641 11.5163C10.5047 10.6852 11.3016 10.3219 10.9922 10.0404C10.9312 9.95861 10.9922 10.0404 10.9922 10.0404V10.0404Z" fill="black"/>
</svg>
