<svg width="24" height="24" viewBox="0 0 24 24" fill="none" xmlns="http://www.w3.org/2000/svg">
<path d="M0 4.25018H24V19.7504H0V4.25018Z" fill="#0052B4"/>
<path d="M18 9.97802C18.7684 9.97802 19.3913 9.37456 19.3913 8.63015C19.3913 7.88575 18.7684 7.28229 18 7.28229C17.2316 7.28229 16.6086 7.88575 16.6086 8.63015C16.6086 9.37456 17.2316 9.97802 18 9.97802Z" fill="#6DA544"/>
<path d="M15.565 8.29352H20.4344V10.3153H15.565V8.29352Z" fill="#D80027"/>
<path d="M15.5652 13.3477V14.6956H16.2972C16.7362 15.1123 17.3369 15.3695 18 15.3695C18.6631 15.3695 19.2638 15.1123 19.7028 14.6956H20.4348V13.3477H15.5652Z" fill="#FFDA44"/>
<path d="M15.5652 9.97815V11.9999C15.5652 13.8054 18 14.3586 18 14.3586C18 14.3586 20.4348 13.8054 20.4348 11.9999V9.97815H15.5652Z" fill="#338AF3"/>
<path d="M17.9999 11.058C17.3912 11.058 17.3912 11.5972 16.7825 11.5972C16.1739 11.5972 16.1739 11.058 15.5652 11.058V12.0015C16.1739 12.0015 16.1739 12.5407 16.7825 12.5407C17.3912 12.5407 17.3912 12.0015 17.9999 12.0015C18.6086 12.0015 18.6086 12.5407 19.2174 12.5407C19.8261 12.5407 19.8261 12.0015 20.4348 12.0015V11.058C19.8261 11.058 19.8261 11.5972 19.2174 11.5972C18.6086 11.5972 18.6086 11.058 17.9999 11.058ZM17.9999 9.16943C17.3912 9.16943 17.3912 9.70859 16.7825 9.70859C16.1739 9.70859 16.1739 9.16943 15.5652 9.16943V10.1129C16.1739 10.1129 16.1739 10.6521 16.7825 10.6521C17.3912 10.6521 17.3912 10.1129 17.9999 10.1129C18.6086 10.1129 18.6086 10.6521 19.2174 10.6521C19.8261 10.6521 19.8261 10.1129 20.4348 10.1129V9.16943C19.8261 9.16943 19.8261 9.70859 19.2174 9.70859C18.6086 9.70859 18.6086 9.16943 17.9999 9.16943Z" fill="#F3F3F3"/>
<path d="M12 4.25018V5.27723L9.84052 6.67173H12V9.57798H9.84052L12 10.973V12H10.9393L7.5 9.7786V12H4.5V9.7786L1.06069 12H0V10.973L2.15948 9.57798H0V6.67173H2.15948L0 5.27723V4.25018H1.06069L4.5 6.47106V4.25018H7.5V6.47106L10.9393 4.25018H12Z" fill="white"/>
<path d="M6.75 4.24969H5.25V7.39817H0V8.85129H5.25V11.9998H6.75V8.85129H12V7.39817H6.75V4.24969Z" fill="#D80027"/>
<path d="M0 4.24969V4.93457L2.68955 6.6716H3.75L0 4.24969ZM12 4.24969V4.93457L9.31045 6.6716H8.25L12 4.24969Z" fill="#D80027"/>
<path d="M0 4.24969V4.93457L2.68955 6.6716H3.75L0 4.24969ZM12 4.24969V4.93457L9.31045 6.6716H8.25L12 4.24969ZM0 11.9998V11.3149L2.68955 9.57786H3.75L0 11.9998ZM12 11.9998V11.3149L9.31045 9.57786H8.25L12 11.9998Z" fill="#D80027"/>
</svg>
