<svg width="24" height="24" viewBox="0 0 24 24" fill="none" xmlns="http://www.w3.org/2000/svg">
<path d="M0 4.24967H24V19.7499H0V4.24967Z" fill="#338AF3"/>
<path d="M0 11.9997H24V15.706H0V11.9997Z" fill="#FFDA44"/>
<path d="M0 15.706H24V19.7495H0V15.706Z" fill="#496E2D"/>
<path d="M13.0435 8.7853L14.0205 9.2305L13.5003 10.1471L14.5611 9.95052L14.6956 10.9888L15.4346 10.2252L16.1736 10.9888L16.308 9.95052L17.3689 10.1471L16.8486 9.2305L17.8256 8.7853L16.8486 8.34005L17.3689 7.42345L16.308 7.62003L16.1735 6.58177L15.4346 7.34539L14.6955 6.58177L14.5611 7.62003L13.5002 7.42345L14.0205 8.34014L13.0435 8.7853Z" fill="#FFDA44"/>
</svg>
