<svg width="24" height="24" viewBox="0 0 24 24" fill="none" xmlns="http://www.w3.org/2000/svg">
<path d="M0 4.25H24V19.75H0V4.25Z" fill="#FFDA44"/>
<path d="M10.414 5.26067H22.9099V18.7121H10.414V5.26067Z" fill="#A2001D"/>
<path d="M1.04327 5.26067H10.414V18.7121H1.04327V5.26067Z" fill="#D80027"/>
<path d="M9.37076 4.25H10.414V19.75H9.37076V4.25Z" fill="#FFDA44"/>
<path d="M1.04327 5.26067H5.20702V18.7121H1.04327V5.26067Z" fill="#6DA544"/>
<path d="M5.20703 5.26067H9.37077V18.7121H5.20703V5.26067Z" fill="#FF9811"/>
<path d="M17.2257 11.3564C17.1602 11.2658 17.2257 9.63874 17.2257 9.63874C17.2678 9.30336 17.2304 9.25804 17.2725 9.12208C17.3146 8.99064 17.5251 8.59634 17.5251 8.59634C17.5251 8.59634 17.2444 8.49211 17.0433 8.56915C16.8421 8.6462 15.8877 8.22924 15.5836 8.72325C15.3778 9.0405 14.4795 9.45746 14.4327 9.35775C14.386 9.25804 14.1567 9.13114 14.1099 9.22632C14.0632 9.32149 14.0772 9.85629 14.1099 9.95146C14.1474 10.0693 14.5684 10.0421 14.6854 10.092C14.8585 10.1735 15.2561 10.4636 15.2421 10.5769C15.2281 10.6902 14.1895 10.305 14.1099 10.373C14.0444 10.4273 14.0211 10.9712 14.0912 11.0528C14.1754 11.148 15.186 11.3066 15.2608 11.3927C15.3357 11.4788 14.648 11.7281 14.6854 12.5257C14.7181 13.192 15.0596 13.3143 15.0596 13.3143C15.0596 13.3143 14.9474 13.4775 14.6947 13.4548C14.4047 13.4276 13.4129 12.6526 13.4129 12.6526C13.4129 12.6526 13.2491 7.71257 13.5813 7.15058C13.8105 6.76535 12.5193 7.60833 12.5193 9.45292V11.0936C12.5193 11.3927 12.4538 12.1088 12.6409 12.6345C12.6409 12.6345 12.6222 14.7601 12.7111 14.8825C12.8 15.0048 13.3053 14.9822 13.4035 14.8825C13.5018 14.7827 13.4035 13.5228 13.4035 13.5228C13.7637 13.5319 14.2596 14.3159 14.924 14.2661C15.8877 14.1936 16.2667 13.8174 16.5287 14.0395C16.9076 14.3613 16.786 15.0909 16.5474 15.4671C16.4444 15.6257 15.8784 15.6801 15.8129 15.8115C15.7474 15.943 15.8363 16.0563 15.8363 16.0563H17.2257C17.2257 16.0563 17.2912 15.1272 17.352 14.8734C17.4129 14.6151 17.324 14.3884 17.6281 14.402C18.7275 14.4519 19.4901 13.7086 19.7567 14.0395C19.9064 14.2253 20.0187 15.3946 19.9111 15.5487C19.8082 15.7028 19.2655 15.6756 19.2 15.8523C19.1345 16.0336 19.2374 16.0518 19.2374 16.0518H20.6269C20.6269 16.0518 20.6082 15.0909 20.7439 14.7963C20.8795 14.5018 20.9731 14.325 21.1789 14.0168C21.3848 13.7086 21.7076 13.3053 21.7076 12.3762C21.7076 11.7326 21.3287 11.3428 21.3287 11.3428H19.5088C18.8491 11.3519 17.2912 11.4471 17.2257 11.3564ZM10.8632 5.71389C11.3637 5.23348 11.8082 5.59152 11.9018 5.80906C11.9906 6.02661 12 6.1807 12.0327 6.42544C12.0749 6.73816 12.262 7.05994 12.262 7.05994C12.262 7.05994 11.9298 6.88772 11.5743 6.86959C11.3544 6.85599 11.1532 6.8424 10.938 6.75629C10.6713 6.65205 10.3906 6.17164 10.8632 5.71389ZM22.4842 5.70936C22.9848 6.18977 22.6152 6.62485 22.3906 6.7155C22.1661 6.80614 22.007 6.81067 21.7544 6.8424C21.4316 6.88319 21.0994 7.06901 21.0994 7.06901C21.0994 7.06901 21.2725 6.74722 21.2959 6.40278C21.3099 6.18977 21.324 5.99035 21.4082 5.7864C21.5111 5.52807 22.007 5.25161 22.4842 5.70936V5.70936ZM22.4889 18.2589C21.9883 18.7393 21.5439 18.3768 21.4503 18.1592C21.3614 17.9417 21.352 17.7876 21.324 17.5428C21.2865 17.2301 21.0947 16.9038 21.0947 16.9038C21.0947 16.9038 21.4222 17.076 21.7825 17.0987C22.0023 17.1123 22.2035 17.1259 22.4187 17.212C22.6854 17.3208 22.9661 17.8057 22.4889 18.2589V18.2589ZM10.8772 18.2544C10.3813 17.7694 10.7509 17.3389 10.9754 17.2482C11.2 17.1621 11.3591 17.1531 11.6117 17.1213C11.9345 17.0806 12.2667 16.8993 12.2667 16.8993C12.2667 16.8993 12.0889 17.2211 12.0702 17.5655C12.0561 17.7785 12.0421 17.9734 11.9532 18.1819C11.8456 18.4402 11.3497 18.7167 10.8772 18.2544V18.2544Z" fill="#FFDA44"/>
<path fill-rule="evenodd" clip-rule="evenodd" d="M18.2007 9.25169C18.1002 9.33527 18.0257 9.47018 18.0257 9.69766C18.0257 9.89302 18.1486 10.069 18.3939 10.1787C18.6413 10.2893 19.0056 10.3261 19.444 10.227C19.9185 10.1193 20.4074 10.1534 20.7782 10.2677C20.9633 10.3248 21.1269 10.4042 21.2452 10.503C21.3625 10.6008 21.4518 10.7329 21.4406 10.8898C21.4177 11.2216 21.3097 11.4325 21.1952 11.5629C21.1387 11.6273 21.0824 11.6699 21.0382 11.6971C21.0162 11.7106 20.9971 11.7203 20.9826 11.727C20.9753 11.7303 20.9691 11.7329 20.9642 11.7348C20.9618 11.7357 20.9597 11.7365 20.9579 11.7372C20.957 11.7375 20.9562 11.7378 20.9555 11.738L20.9545 11.7384L20.954 11.7386L20.9538 11.7386C20.9537 11.7387 20.9536 11.7387 20.9076 11.6102C20.8616 11.4818 20.8615 11.4818 20.8614 11.4818L20.8612 11.4819L20.8609 11.482L20.8602 11.4822L20.8593 11.4826C20.8589 11.4827 20.8587 11.4828 20.8589 11.4827C20.8591 11.4826 20.8605 11.4821 20.8629 11.481C20.8677 11.4788 20.8764 11.4745 20.8879 11.4674C20.9108 11.4534 20.9449 11.4283 20.9814 11.3868C21.0529 11.3053 21.1413 11.1515 21.1605 10.8715L21.1606 10.8711C21.1633 10.8333 21.1439 10.7773 21.0621 10.709C20.9813 10.6417 20.8555 10.5769 20.6931 10.5269C20.3692 10.427 19.9318 10.3955 19.508 10.4917L19.5079 10.4918C19.0248 10.6011 18.5938 10.5676 18.2763 10.4256C17.9567 10.2826 17.745 10.0235 17.745 9.69766C17.745 9.40621 17.8442 9.18987 18.0177 9.04543C18.1864 8.90507 18.4075 8.84755 18.6245 8.83345C19.0555 8.80546 19.5364 8.94437 19.7712 9.06552L19.7718 9.06581L19.7718 9.06581C19.8677 9.11583 19.9877 9.19435 20.1121 9.27573C20.136 9.29136 20.1601 9.3071 20.1842 9.32276C20.3383 9.42302 20.5001 9.52489 20.6543 9.59997C20.8125 9.67701 20.9421 9.71529 21.036 9.71006C21.0793 9.70766 21.1114 9.69621 21.137 9.67743C21.1631 9.65828 21.1919 9.62455 21.2163 9.56292L21.4784 9.66018C21.4396 9.75831 21.3831 9.83802 21.3065 9.89422C21.2293 9.95079 21.1414 9.97659 21.0521 9.98155C20.881 9.99105 20.6957 9.92452 20.5282 9.84293C20.3566 9.75939 20.1819 9.64882 20.0277 9.54853C20.0015 9.53148 19.976 9.51484 19.9513 9.4987C19.8265 9.41708 19.7213 9.34833 19.639 9.30539C19.4433 9.20449 19.0144 9.08067 18.6433 9.10478C18.4592 9.11674 18.306 9.16403 18.2007 9.25169Z" fill="#FFDA44"/>
</svg>
