<svg width="24" height="24" viewBox="0 0 24 24" fill="none" xmlns="http://www.w3.org/2000/svg">
<path d="M0 4.25H24V19.75H0V4.25Z" fill="white"/>
<path d="M0 4.25H24V9.41667H0V4.25Z" fill="#0052B4"/>
<path d="M0 14.5652H24V19.7319H0V14.5652Z" fill="#6DA544"/>
<path d="M11.4714 12L11.8316 10.9531C11.9252 10.6857 12.0702 10.6811 12.1638 10.9531L12.524 12L13.4316 13.3189C13.5111 13.4367 13.4924 13.6044 13.3755 13.6814C13.3755 13.6814 13.0526 14.044 11.9953 14.044C10.938 14.044 10.6152 13.6814 10.6152 13.6814C10.5029 13.5908 10.4795 13.4367 10.5591 13.3189L11.4714 12Z" fill="black"/>
<path d="M12 12C11.4152 12 10.9427 11.5423 10.9427 10.9757C10.9427 10.4092 11.4152 9.95146 12 9.95146C12.5848 9.95146 13.0573 10.4092 13.0573 10.9757C13.0573 11.5423 12.5801 12 12 12ZM12 12C12.2901 12 12.5287 11.2613 12.5287 10.9757C12.5287 10.6947 12.2901 10.4636 12 10.4636C11.7099 10.4636 11.4713 10.6947 11.4713 10.9757C11.4713 11.2613 11.7053 12 12 12Z" fill="black"/>
</svg>
