<svg width="24" height="24" viewBox="0 0 24 24" fill="none" xmlns="http://www.w3.org/2000/svg">
<path d="M0 4.25H24V19.75H0V4.25Z" fill="white"/>
<path d="M6.62923 11.2613C6.62923 11.2613 6.63859 14.3023 10.124 14.2208L10.3345 14.8507H10.7509C10.7509 14.8507 10.4047 12.988 13.5626 12.9699C13.5626 12.9699 13.5626 11.719 14.8538 11.719H16.7953C16.7953 11.719 13.7076 9.37135 19.5509 6.37106L19.6351 5.77734C19.6351 5.77734 13.5579 8.99518 10.3298 8.36974C10.3298 8.36974 10.8304 10.2959 9.82455 10.2959C9.31929 10.2959 9.37075 9.92881 8.31344 9.92881C7.43859 9.92881 7.50409 10.8216 7.08303 10.8126C6.66666 10.8035 6.2035 10.2551 6.16607 10.3503C6.13333 10.4455 6.62923 11.2613 6.62923 11.2613Z" fill="#DB7D00"/>
<path d="M11.0971 18.2136C11.4199 17.987 11.7053 17.9145 12.145 17.8374C12.5848 17.7604 13.0526 17.638 13.2959 17.5746C13.5392 17.5111 12.4678 17.8737 12.1965 17.9507C11.9251 18.0232 11.0971 18.2136 11.0971 18.2136ZM12.8702 17.5474C12.7813 17.008 13.0012 16.446 13.5018 16.2194C13.6187 16.6092 13.2585 17.2709 12.8702 17.5474ZM13.7216 17.2664C13.4503 16.8222 13.9088 16.2421 14.2409 15.9611C14.3953 16.233 14.124 17.0352 13.7216 17.2664ZM14.5123 16.9219C14.2222 16.5412 14.5637 15.8705 14.924 15.6076C15.069 15.9792 14.9287 16.6591 14.5123 16.9219ZM15.3029 16.4415C15.0409 16.0789 15.2234 15.517 15.5977 15.1544C15.869 15.4535 15.6398 16.1061 15.3029 16.4415ZM15.9345 15.9566C15.7146 15.6167 15.986 14.8054 16.3368 14.5788C16.4912 14.8779 16.3743 15.73 15.9345 15.9566ZM16.4398 15.8297C16.3743 15.3402 17.2538 14.8009 17.6187 14.8145C17.5766 15.2178 17.2023 15.6575 16.4398 15.8297ZM15.9485 16.3826C16.3602 15.9702 17.1649 15.9702 17.4503 16.0563C17.3708 16.2965 16.4257 16.8222 15.9485 16.3826Z" fill="#006651"/>
<path d="M15.3778 16.795C15.9579 16.6455 16.3368 16.5186 16.683 16.8721C16.4398 17.1712 15.4947 17.0851 15.3778 16.795ZM14.5497 17.1576C15.1064 16.8675 15.7801 17.2936 15.883 17.5474C15.2608 17.7966 14.5404 17.221 14.5497 17.1576ZM13.7871 17.5746C14.2924 17.3887 14.8725 17.638 15.1064 17.9145C14.8351 18.0368 14.124 18.1728 13.7871 17.5746ZM13.0901 17.7876C13.6702 17.7241 14.2316 18.1501 14.3532 18.3949C13.6094 18.4629 13.324 18.2499 13.0901 17.7876ZM12.9029 18.2136C12.5801 17.987 12.2947 17.9145 11.855 17.8374C11.4152 17.7604 10.9474 17.638 10.7041 17.5746C10.4561 17.5111 11.5322 17.8737 11.8035 17.9507C12.0749 18.0232 12.9029 18.2136 12.9029 18.2136ZM11.1298 17.5474C11.2187 17.008 10.9988 16.446 10.4982 16.2194C10.3813 16.6092 10.7415 17.2709 11.1298 17.5474ZM10.2784 17.2664C10.5497 16.8222 10.0912 16.2421 9.75906 15.9611C9.60468 16.233 9.87602 17.0352 10.2784 17.2664ZM9.48772 16.9219C9.77778 16.5412 9.43626 15.8705 9.07602 15.6076C8.93099 15.9792 9.07135 16.6591 9.48772 16.9219ZM8.69708 16.4415C8.95906 16.0789 8.77661 15.517 8.40234 15.1544C8.13099 15.4535 8.36023 16.1061 8.69708 16.4415ZM8.0655 15.9566C8.28538 15.6167 8.01404 14.8054 7.66316 14.5788C7.50877 14.8779 7.62573 15.73 8.0655 15.9566ZM7.56023 15.8297C7.62573 15.3402 6.7462 14.8009 6.38129 14.8145C6.42339 15.2178 6.79766 15.6575 7.56023 15.8297ZM8.05146 16.3826C7.63977 15.9702 6.83509 15.9702 6.54971 16.0563C6.62924 16.2965 7.57427 16.8222 8.05146 16.3826Z" fill="#006651"/>
<path d="M8.62222 16.795C8.0421 16.6455 7.66315 16.5186 7.31696 16.8721C7.56023 17.1712 8.50526 17.0851 8.62222 16.795ZM9.45029 17.1576C8.89356 16.8675 8.21988 17.2936 8.11696 17.5474C8.73918 17.7966 9.45965 17.221 9.45029 17.1576ZM10.2129 17.5746C9.7076 17.3887 9.12748 17.638 8.89356 17.9145C9.16491 18.0368 9.87602 18.1728 10.2129 17.5746ZM10.9099 17.7876C10.3298 17.7241 9.76842 18.1501 9.64678 18.3949C10.3906 18.4629 10.676 18.2498 10.9099 17.7876Z" fill="#006651"/>
</svg>
