<svg width="24" height="24" viewBox="0 0 24 24" fill="none" xmlns="http://www.w3.org/2000/svg">
<path d="M0 4.25H24V19.75H0V4.25Z" fill="#008000"/>
<path d="M19.8141 15.7126L20.1047 16.294L20.7516 16.1486L20.461 16.7299L20.986 17.1296L20.3344 17.2749V17.9198L19.8141 17.5156L19.2938 17.9198V17.2749L18.6469 17.1296L19.1672 16.7299L18.8766 16.1486L19.5281 16.294L19.8141 15.7126ZM17.6297 9.52263L17.9203 10.1085L18.5672 9.96316L18.2766 10.5445L18.8016 10.9441L18.15 11.0849V11.7343L17.6297 11.3301L17.1094 11.7343L17.1141 11.0849L16.4625 10.9441L16.9828 10.5445L16.6922 9.96316L17.3438 10.1085L17.6297 9.52263ZM19.3641 5.98938L19.6547 6.57069L20.3016 6.42536L20.011 7.00667L20.536 7.41086L19.8844 7.55164V8.19653L19.3641 7.79234L18.8438 8.19653L18.8485 7.55164L18.1969 7.41086L18.7172 7.00667L18.4266 6.42536L19.0781 6.57069L19.3641 5.98938ZM21.7922 8.64159L22.0828 9.2229L22.7344 9.07757L22.4391 9.65888L22.9641 10.0631L22.3125 10.2039L22.3172 10.8487L21.7922 10.4446L21.2719 10.8487L21.2766 10.2039L20.625 10.0631L21.15 9.65888L20.8547 9.07757L21.5063 9.2229L21.7922 8.64159ZM20.4797 11.7343L20.7094 12.4065H21.4406L20.85 12.8243L21.075 13.501L20.4797 13.0831L19.8891 13.501L20.1141 12.8243L19.5235 12.4065H20.2547L20.4797 11.7343Z" fill="#FFDA44"/>
<path d="M14.3812 15.8171C12.075 15.8171 10.2047 14.0051 10.2047 11.7707C10.2047 9.53626 12.075 7.72422 14.3812 7.72422C15.0984 7.72422 15.7781 7.90133 16.3688 8.21015C15.4406 7.33365 14.1703 6.79322 12.7734 6.79322C9.9375 6.79322 7.63594 9.02308 7.63594 11.7707C7.63594 14.5182 9.9375 16.7526 12.7734 16.7526C14.1703 16.7526 15.4406 16.2122 16.3641 15.3312C15.7734 15.64 15.0984 15.8171 14.3812 15.8171ZM6.58125 6.95217C6.07969 6.112 5.14219 5.54886 4.06875 5.54886C2.99531 5.54886 2.0625 6.112 1.56094 6.95217H6.58125ZM6.59063 6.97034L4.06875 9.41364L1.55156 6.97034C1.3125 7.37907 1.17188 7.85138 1.17188 8.36002C1.17188 9.9132 2.47031 11.1712 4.07344 11.1712C5.67656 11.1712 6.975 9.9132 6.975 8.36002C6.97031 7.85138 6.82969 7.37907 6.59063 6.97034Z" fill="#FFDA44"/>
<path d="M3.34686 8.70972V11.0804C3.57655 11.1394 3.8203 11.1666 4.07343 11.1666C4.32655 11.1666 4.56561 11.1349 4.79999 11.0804V8.70972H3.34686Z" fill="#A2001D"/>
</svg>
