<svg width="24" height="24" viewBox="0 0 24 24" fill="none" xmlns="http://www.w3.org/2000/svg">
<path d="M0 4.25H24V9.41667H0V4.25Z" fill="#FFCE00"/>
<path d="M0 9.41666H24V14.5833H0V9.41666Z" fill="#203899"/>
<path d="M0 14.5833H24V19.75H0V14.5833Z" fill="#D82B2B"/>
<path d="M12.9387 9.80922L13.088 10.2846L13.568 10.4292L13.152 10.7082L13.1627 11.2042L12.7573 10.9046L12.2773 11.0596L12.4373 10.6049L12.1387 10.2122H12.64L12.9387 9.80922ZM11.0507 9.80922L11.3387 10.2122H11.84L11.5413 10.6049L11.7013 11.0699L11.2213 10.9046L10.816 11.1939L10.8267 10.7082L10.4107 10.4189L10.8907 10.2846L11.0507 9.80922ZM14.72 10.3879L14.7093 10.8839L15.1253 11.1629L14.6347 11.3076L14.4853 11.7726L14.1973 11.3799H13.6853L13.9947 10.9872L13.8347 10.5222L14.3147 10.6876L14.72 10.3879ZM9.26933 10.4086L9.696 10.6876L10.1653 10.5016L10.0267 10.9769L10.3467 11.3489L9.84533 11.3696L9.568 11.7829L9.39733 11.3282L8.90667 11.2042L9.30133 10.8942L9.26933 10.4086ZM16.256 11.6176L16.0427 12.0722L16.3093 12.4856L15.808 12.4339L15.4773 12.8059L15.3707 12.3306L14.912 12.1446L15.3493 11.8966L15.3813 11.4109L15.7547 11.7312L16.256 11.6176ZM16.4587 12.7749L16.6827 13.2192L17.184 13.2916L16.8213 13.6326L16.9067 14.1079L16.4587 13.8806L16.0107 14.1079L16.096 13.6326L15.7333 13.2916L16.2347 13.2192L16.4587 12.7749ZM7.46667 12.7232L7.69067 13.1676L8.192 13.2296L7.82933 13.5706L7.91467 14.0562L7.46667 13.8289L7.01867 14.0562L7.104 13.5706L6.74133 13.2296L7.24267 13.1676L7.46667 12.7232ZM7.79733 11.5349L8.27733 11.6796L8.68267 11.3799V11.8759L9.09867 12.1446L8.61867 12.2996L8.48 12.7749L8.18133 12.3822L7.68 12.3926L7.968 11.9999L7.79733 11.5349Z" fill="white"/>
</svg>
