<svg width="24" height="24" viewBox="0 0 24 24" fill="none" xmlns="http://www.w3.org/2000/svg">
<path d="M0 4.24991H24V19.7501H0V4.24991Z" fill="#496E2D"/>
<path d="M12 13.946C9.84581 13.946 8.04619 12.4794 7.60467 10.5208C7.53524 10.8276 7.50015 11.1408 7.5 11.455C7.5 13.8626 9.51464 15.8144 12 15.8144C14.4854 15.8144 16.5 13.8626 16.5 11.455C16.5 11.1341 16.4632 10.8219 16.3953 10.5208C15.9538 12.4794 14.1542 13.946 12 13.946Z" fill="#FFDA44"/>
<path d="M12 8.18544L12.4188 9.43431H13.7743L12.6777 10.2061L13.0966 11.455L12 10.6831L10.9034 11.455L11.3223 10.2061L10.2257 9.43431H11.5811L12 8.18544Z" fill="#FFDA44"/>
</svg>
