<svg width="24" height="24" viewBox="0 0 24 24" fill="none" xmlns="http://www.w3.org/2000/svg">
<path d="M0 4.25H24V19.75H0V4.25Z" fill="#338AF3"/>
<path d="M0 4.25H24V12.0023H0V4.25Z" fill="#56AF35"/>
<path d="M0 19.75L24 11.9977L0 4.25V19.75Z" fill="#D80027"/>
<path d="M6.31406 14.7635C7.88906 14.7635 9.16406 13.5282 9.16406 12.0023C9.16406 10.4764 7.88906 9.24108 6.31406 9.24108C4.73906 9.24108 3.46406 10.4764 3.46406 12.0023C3.46406 13.5282 4.73906 14.7635 6.31406 14.7635ZM6.31406 15.8671C4.11094 15.8671 2.32031 14.1368 2.32031 11.9977C2.32031 9.85871 4.10625 8.12842 6.31406 8.12842C8.52187 8.12842 10.3078 9.85871 10.3078 11.9977C10.3078 14.1368 8.51719 15.8671 6.31406 15.8671Z" fill="#FFC945"/>
<path d="M5.60156 11.7798C6.05461 11.7798 6.42188 11.4239 6.42188 10.985C6.42188 10.5461 6.05461 10.1902 5.60156 10.1902C5.14852 10.1902 4.78125 10.5461 4.78125 10.985C4.78125 11.4239 5.14852 11.7798 5.60156 11.7798Z" fill="#FFC945"/>
<path d="M6.97968 12.243C7.43272 12.243 7.79999 11.8872 7.79999 11.4482C7.79999 11.0093 7.43272 10.6535 6.97968 10.6535C6.52663 10.6535 6.15936 11.0093 6.15936 11.4482C6.15936 11.8872 6.52663 12.243 6.97968 12.243Z" fill="#FFC945"/>
<path d="M6.31409 11.1848C6.76713 11.1848 7.1344 10.829 7.1344 10.3901C7.1344 9.95113 6.76713 9.59531 6.31409 9.59531C5.86104 9.59531 5.49377 9.95113 5.49377 10.3901C5.49377 10.829 5.86104 11.1848 6.31409 11.1848Z" fill="#FFC945"/>
<path d="M5.60156 12.8879C6.05461 12.8879 6.42188 12.5321 6.42188 12.0931C6.42188 11.6542 6.05461 11.2984 5.60156 11.2984C5.14852 11.2984 4.78125 11.6542 4.78125 12.0931C4.78125 12.5321 5.14852 12.8879 5.60156 12.8879Z" fill="#FFC945"/>
<path d="M7.02655 13.3466C7.4796 13.3466 7.84686 12.9907 7.84686 12.5518C7.84686 12.1129 7.4796 11.757 7.02655 11.757C6.5735 11.757 6.20624 12.1129 6.20624 12.5518C6.20624 12.9907 6.5735 13.3466 7.02655 13.3466Z" fill="#FFC945"/>
<path d="M5.74219 14.0369C6.19523 14.0369 6.5625 13.681 6.5625 13.2421C6.5625 12.8032 6.19523 12.4474 5.74219 12.4474C5.28914 12.4474 4.92188 12.8032 4.92188 13.2421C4.92188 13.681 5.28914 14.0369 5.74219 14.0369Z" fill="#FFC945"/>
<path d="M6.83905 14.3638C7.2921 14.3638 7.65936 14.008 7.65936 13.5691C7.65936 13.1301 7.2921 12.7743 6.83905 12.7743C6.386 12.7743 6.01874 13.1301 6.01874 13.5691C6.01874 14.008 6.386 14.3638 6.83905 14.3638Z" fill="#FFC945"/>
</svg>
