<svg width="24" height="24" viewBox="0 0 24 24" fill="none" xmlns="http://www.w3.org/2000/svg">
<path d="M0 4.25H24V19.75H0V4.25Z" fill="#0052B4"/>
<path d="M12 4.25V5.63969L9.88125 6.77959H12V9.47268H9.22969L12 10.9623V12.0023H10.7484L7.30312 10.1448V12.0023H4.69687V9.79512L0.595313 12.0023H0V10.6126L2.11875 9.47268H0V6.77959H2.77031L0 5.28545V4.25H1.25156L4.69687 6.10292V4.25H7.30312V6.45715L11.4047 4.25H12Z" fill="white"/>
<path d="M6.75 4.25H5.25V7.39723H0V8.8505H5.25V12.0023H6.75V8.8505H12V7.39723H6.75V4.25Z" fill="#D80027"/>
<path d="M7.30313 9.47269L12 12.0023V11.2847L8.63438 9.47269H7.30313Z" fill="#0052B4"/>
<path d="M7.30313 9.47269L12 12.0023V11.2847L8.63438 9.47269H7.30313Z" fill="white"/>
<path d="M7.30312 9.47269L12 12.0023V11.2847L8.63438 9.47269H7.30312ZM3.36563 9.47269L0 11.2847V12.0023L4.69687 9.47269H3.36563Z" fill="#D80027"/>
<path d="M4.69688 6.77505L0 4.25V4.96301L3.36563 6.77505H4.69688Z" fill="#0052B4"/>
<path d="M4.69688 6.77505L0 4.25V4.96301L3.36563 6.77505H4.69688Z" fill="white"/>
<path d="M4.69687 6.77505L0 4.25V4.96301L3.36563 6.77505H4.69687ZM8.63438 6.77505L12 4.96301V4.25L7.30312 6.77505H8.63438Z" fill="#D80027"/>
<path d="M14.6344 13.0695V8.9822C14.6344 8.59617 14.9391 8.28735 15.3375 8.28735H20.9859C21.375 8.28735 21.6891 8.59617 21.6891 8.9822V13.0695C21.6891 16.4847 18.1641 17.8517 18.1641 17.8517C18.1641 17.8517 14.6344 16.4847 14.6344 13.0695Z" fill="#1F8BDE"/>
<path d="M14.6344 13.0695V8.9822C14.6344 8.59617 14.9391 8.28735 15.3375 8.28735H20.9859C21.375 8.28735 21.6891 8.59617 21.6891 8.9822V13.0695C21.6891 16.4847 18.1641 17.8517 18.1641 17.8517C18.1641 17.8517 14.6344 16.4847 14.6344 13.0695ZM18.3656 16.9888C18.7359 16.7844 19.1109 16.5346 19.4531 16.2304C20.4141 15.3902 20.9812 14.3502 20.9812 13.065V8.97766C20.9812 8.96403 15.3375 8.96403 15.3375 8.96403V13.065C15.3375 14.3502 15.9047 15.3902 16.8656 16.2304C17.2547 16.571 17.6906 16.8616 18.1594 17.0932C18.225 17.066 18.2906 17.0297 18.3656 16.9888Z" fill="white"/>
<path d="M16.2703 13.0332C16.1484 12.6744 16.35 12.3838 16.7437 12.3838H19.5797C19.964 12.3838 20.1797 12.6699 20.0531 13.0332L19.7953 13.7825C19.6734 14.1413 19.3781 14.2003 19.0547 13.9642C19.0547 13.9642 19.1765 13.7462 18.1594 13.7462C17.1422 13.7462 17.264 13.9642 17.264 13.9642C16.9781 14.223 16.65 14.1458 16.5234 13.7825C16.5281 13.7871 16.2703 13.0332 16.2703 13.0332Z" fill="#187536"/>
<path d="M16.7531 12.3837C17.1328 12.4564 17.5875 11.7025 18.1641 11.7025C18.7781 11.7025 19.1859 12.4791 19.575 12.3837C19.9219 12.302 20.2781 11.3755 20.2781 11.0168C20.2781 10.2629 19.3312 9.64978 18.1641 9.64978C16.9969 9.64978 16.05 10.2629 16.05 11.0168C16.0453 11.4028 16.3594 12.3111 16.7531 12.3837ZM16.6875 16.5437C16.9781 16.5619 17.2734 16.462 17.4937 16.2485L17.9156 15.8398C18.0516 15.7081 18.2672 15.7081 18.4031 15.8398L18.825 16.2485C19.0453 16.462 19.3406 16.5619 19.6266 16.5437C19.875 16.5301 21.15 15.0223 20.8312 15.0632C20.6156 15.0904 20.4047 15.1904 20.2359 15.3493L20.2312 15.3539L19.8094 15.7626C19.6734 15.8943 19.4578 15.8943 19.3219 15.7626L18.9 15.3539C18.4922 14.9542 17.8266 14.9542 17.4141 15.3493L17.4094 15.3539L16.9875 15.7626C16.8516 15.8943 16.6359 15.8943 16.5 15.7626L16.0781 15.3539C15.9141 15.1949 15.7125 15.0995 15.5016 15.0677C15.1875 15.0178 16.4437 16.5301 16.6875 16.5437ZM15.0984 13.787C15.2344 13.6553 15.45 13.6553 15.5859 13.787L16.0078 14.1958C16.4203 14.5909 17.0812 14.5909 17.4937 14.1958L17.9156 13.787C18.0516 13.6553 18.2672 13.6553 18.4031 13.787L18.825 14.1958C19.2375 14.5909 19.8984 14.5909 20.3109 14.1958L20.7328 13.787C20.8687 13.6553 21.0844 13.6553 21.2203 13.787C21.2203 13.787 21.4781 13.1149 21.3375 13.065C20.9672 12.9333 20.5312 13.0105 20.2359 13.3011L20.2312 13.3057L19.8094 13.7144C19.6734 13.8461 19.4578 13.8461 19.3219 13.7144L18.9 13.3057C18.4922 12.906 17.8266 12.906 17.4141 13.3011L17.4094 13.3057L16.9875 13.7144C16.8516 13.8461 16.6359 13.8461 16.5 13.7144L16.0781 13.3057C15.7875 13.0241 15.3703 12.9423 15.0094 13.0559C14.8641 13.1058 15.0984 13.787 15.0984 13.787Z" fill="white"/>
</svg>
