<svg width="24" height="24" viewBox="0 0 24 24" fill="none" xmlns="http://www.w3.org/2000/svg">
<path d="M0 4.25H24V19.75H0V4.25Z" fill="#E6BE53"/>
<path d="M0.935669 5.15643H23.0643V18.8436H0.935669V5.15643Z" fill="#E01D24"/>
<path d="M11.6257 9.36681C11.8316 9.56623 12.1684 9.56623 12.3743 9.36681L12.1544 9.57983L13.2164 8.55102C13.4456 8.34708 13.7825 8.29722 14.0678 8.42412L14.1661 8.46945C14.4328 8.60088 14.4795 8.86374 14.2737 9.06316L14.4936 8.85015L13.4269 9.88348C13.2164 10.1056 13.1649 10.4319 13.2959 10.7083L13.3427 10.8035C13.4784 11.0618 13.5813 11.5015 13.5813 11.7825V11.2703C13.5813 11.5513 13.7871 11.6828 14.0585 11.5513L14.1567 11.506C14.4234 11.3746 14.4702 11.1117 14.2643 10.9123L14.4842 11.1253C14.2784 10.9259 14.2784 10.5996 14.4842 10.4001L14.2643 10.6132C14.5076 10.3639 14.7135 10.0874 14.8772 9.78831L14.924 9.69313C15.0597 9.4348 15.2187 9.00877 15.2936 8.73231L15.5649 7.67632C15.6351 7.40439 15.8409 7.36813 16.014 7.59474L16.9591 8.81389C17.1369 9.04503 17.2819 9.44839 17.2819 9.74752V10.7627C17.2819 11.0482 17.179 11.4788 17.0433 11.7462L16.9965 11.8414C16.8328 12.1405 16.6269 12.417 16.3836 12.6662L16.0655 12.9744C15.8129 13.2101 15.5275 13.4095 15.214 13.5681L15.1158 13.6135C14.8491 13.7449 14.3907 13.8446 14.1053 13.8446C13.8152 13.8446 13.7825 13.9443 14.0538 14.0757L14.1521 14.1211C14.4187 14.2525 14.7977 14.5154 15.0035 14.7148L14.7836 14.5018C14.9895 14.7012 15.3263 14.7012 15.5322 14.5018L15.3123 14.7148C15.5181 14.5154 15.855 14.5154 16.0608 14.7148L15.8597 14.4927C16.0749 14.7148 16.1263 15.0411 15.9953 15.3175L15.9485 15.4127C15.8129 15.6711 15.462 15.875 15.1813 15.875C14.8304 15.8614 14.4889 15.7844 14.1708 15.6439L14.0725 15.5985C13.7684 15.4354 13.5205 15.1952 13.3521 14.9006L13.3053 14.8054C13.1696 14.5471 12.8983 14.5018 12.6924 14.7012L12.9123 14.4882C12.7064 14.7012 12.669 15.023 12.8281 15.2722L13.31 15.9702C13.469 16.2013 13.4035 16.5186 13.1649 16.6727L12.4445 17.1395C12.1778 17.2936 11.8456 17.2936 11.5743 17.1395L10.8538 16.6727C10.6152 16.5186 10.5497 16.2058 10.7088 15.9702L11.1907 15.2722C11.3497 15.023 11.3123 14.7012 11.1064 14.4882L11.3263 14.7012C11.1205 14.5018 10.8491 14.538 10.7135 14.8054L10.6667 14.9006C10.531 15.1589 10.2222 15.4626 9.94621 15.5985L9.84796 15.6439C9.5813 15.7753 9.12282 15.875 8.83744 15.875C8.51463 15.8614 8.22457 15.6847 8.07019 15.4127L8.0234 15.3175C7.89241 15.0411 7.94855 14.7148 8.15907 14.4927L7.93919 14.7057C8.14504 14.5063 8.48188 14.5063 8.68773 14.7057L8.46785 14.4927C8.6737 14.6921 9.01054 14.6921 9.21639 14.4927L8.9965 14.7057C9.25381 14.47 9.53919 14.2706 9.84796 14.112L9.94621 14.0667C10.2129 13.9352 10.1801 13.8355 9.89475 13.8355C9.54387 13.8219 9.20235 13.7449 8.88422 13.6044L8.78598 13.5591C8.4772 13.4004 8.19182 13.201 7.93451 12.9654L7.61639 12.6572C7.37311 12.4124 7.16726 12.136 7.00352 11.8323L6.95674 11.7371C6.81171 11.4289 6.7275 11.0936 6.71814 10.7537V9.73392C6.71814 9.44839 6.86317 9.0269 7.04095 8.80029L7.98598 7.58114C8.16375 7.35 8.36492 7.38626 8.4351 7.66272L8.70644 8.71871C8.80001 9.04956 8.92165 9.37135 9.07603 9.67953L9.12282 9.77471C9.25849 10.033 9.52984 10.4001 9.73568 10.5996L9.5158 10.3866C9.72165 10.586 9.72165 10.9123 9.5158 11.1117L9.73568 10.8987C9.52984 11.0981 9.56726 11.361 9.84329 11.4924L9.94153 11.5377C10.2082 11.6692 10.4187 11.5377 10.4187 11.2567V11.7689C10.4187 11.4879 10.5216 11.0573 10.6573 10.7899L10.7041 10.6947C10.8351 10.4183 10.7836 10.0965 10.5731 9.86988L9.51112 8.84108L9.73101 9.05409C9.52516 8.85468 9.56258 8.59181 9.83861 8.46038L9.93685 8.41506C10.2222 8.28816 10.5544 8.33801 10.7883 8.54196L11.8503 9.57076L11.6257 9.36681V9.36681ZM10.7836 7.52222C10.5778 7.32281 10.6339 7.09167 10.9146 7.00102L11.4947 6.81067C11.7754 6.72003 12.2199 6.72003 12.5006 6.81067L13.0807 7.00102C13.3614 7.09167 13.4176 7.32281 13.2117 7.52222L12.8936 7.83041C12.6456 8.04342 12.3275 8.17032 11.9953 8.18845C11.7053 8.18845 11.3029 8.02983 11.0971 7.83041C11.1018 7.83041 10.7836 7.52222 10.7836 7.52222V7.52222Z" fill="#E6BE53"/>
<path d="M10.9427 13.3234C10.9427 13.6044 11.0222 13.6135 11.1392 13.3461C11.1392 13.3461 11.4713 12.2946 12 12.2946C12.5287 12.2946 12.8702 13.3642 12.8702 13.3642C12.9731 13.6225 13.0573 13.6044 13.0573 13.3143V12.8067C13.0573 11.9592 12.5848 11.2703 12 11.2703C11.4152 11.2703 10.9427 11.9592 10.9427 12.8067V13.3234V13.3234Z" fill="#215F90"/>
</svg>
