<svg width="24" height="24" viewBox="0 0 24 24" fill="none" xmlns="http://www.w3.org/2000/svg">
<path d="M0 4.25016H24V19.7498H0V4.25016Z" fill="#D80027"/>
<path d="M0 15.0325H24V19.7497H0V15.0325Z" fill="#6DA544"/>
<path d="M0 4.25016H24V8.99621H0V4.25016Z" fill="#338AF3"/>
<path d="M0 9.95085H24V14.0221H0V9.95085Z" fill="white"/>
<path d="M0 4.25016H24V8.99621H0V4.25016Z" fill="#338AF3"/>
<path d="M8.84473 6.62283C8.84473 5.89699 9.37133 5.29054 10.0745 5.14182C9.96438 5.11844 9.85193 5.10661 9.73915 5.10654C8.87468 5.10654 8.17395 5.78537 8.17395 6.62283C8.17395 7.46028 8.87468 8.13912 9.73915 8.13912C9.85437 8.13912 9.9665 8.12672 10.0745 8.10384C9.37133 7.95512 8.84473 7.34867 8.84473 6.62283ZM10.9996 7.31202L11.1056 7.62794H11.4485L11.171 7.82325L11.277 8.13912L10.9996 7.94386L10.7222 8.13912L10.8282 7.82325L10.5507 7.62794H10.8936L10.9996 7.31202ZM12.094 7.31202L12.2 7.62794H12.5428L12.2654 7.82325L12.3714 8.13912L12.094 7.94386L11.8166 8.13912L11.9225 7.82325L11.6452 7.62794H11.988L12.094 7.31202ZM13.1884 7.31202L13.2943 7.62794H13.6372L13.3599 7.82325L13.4658 8.13912L13.1884 7.94386L12.911 8.13912L13.0169 7.82325L12.7395 7.62794H13.0824L13.1884 7.31202ZM14.2828 7.31202L14.3888 7.62794H14.7317L14.4543 7.82325L14.5602 8.13912L14.2828 7.94386L14.0054 8.13912L14.1114 7.82325L13.834 7.62794H14.1768L14.2828 7.31202ZM15.3772 7.31202L15.4832 7.62794H15.8261L15.5487 7.82325L15.6546 8.13912L15.3772 7.94386L15.0998 8.13912L15.2058 7.82325L14.9284 7.62794H15.2712L15.3772 7.31202ZM12.094 6.20928L12.2 6.52515H12.5428L12.2654 6.72042L12.3714 7.03633L12.094 6.84112L11.8166 7.03633L11.9225 6.72042L11.6452 6.52515H11.988L12.094 6.20928ZM13.1884 6.20928L13.2943 6.52515H13.6372L13.3599 6.72042L13.4658 7.03633L13.1884 6.84112L12.911 7.03633L13.0169 6.72042L12.7395 6.52515H13.0824L13.1884 6.20928ZM14.2828 6.20928L14.3888 6.52515H14.7317L14.4543 6.72042L14.5602 7.03633L14.2828 6.84112L14.0054 7.03633L14.1114 6.72042L13.834 6.52515H14.1768L14.2828 6.20928ZM15.3772 6.20928L15.4832 6.52515H15.8261L15.5487 6.72042L15.6546 7.03633L15.3772 6.84112L15.0998 7.03633L15.2058 6.72042L14.9284 6.52515H15.2712L15.3772 6.20928ZM13.1884 5.10654L13.2943 5.42241H13.6372L13.3599 5.61767L13.4658 5.93359L13.1884 5.73833L12.911 5.93359L13.0169 5.61767L12.7395 5.42241H13.0824L13.1884 5.10654ZM14.2828 5.10654L14.3888 5.42241H14.7317L14.4543 5.61767L14.5602 5.93359L14.2828 5.73833L14.0054 5.93359L14.1114 5.61767L13.834 5.42241H14.1768L14.2828 5.10654ZM15.3772 5.10654L15.4832 5.42241H15.8261L15.5487 5.61767L15.6546 5.93359L15.3772 5.73833L15.0998 5.93359L15.2058 5.61767L14.9284 5.42241H15.2712L15.3772 5.10654Z" fill="white"/>
</svg>
