<svg width="24" height="24" viewBox="0 0 24 24" fill="none" xmlns="http://www.w3.org/2000/svg">
<path d="M0 4.25H24V19.75H0V4.25Z" fill="#D80027"/>
<path d="M12.8281 9.67952C12.5895 10.6358 12.1684 10.4545 11.9626 11.2884C10.7415 11.0029 9.99301 9.81548 10.2831 8.63259C10.5778 7.44969 11.8035 6.72455 13.0199 7.00554C12.6129 8.67791 13.0433 8.82294 12.8281 9.67952V9.67952ZM9.66552 10.3865C10.531 10.8987 10.2222 11.234 10.9755 11.6827C10.3205 12.7206 8.92166 13.0424 7.85032 12.4079C6.77897 11.7734 6.44681 10.4183 7.10178 9.38039C8.61289 10.2778 8.88891 9.92879 9.66552 10.3865V10.3865ZM9.38482 13.5228C10.1567 12.8838 10.386 13.2735 11.0597 12.7161C11.8737 13.6406 11.7614 15.0275 10.807 15.8161C9.85266 16.6047 8.42108 16.4959 7.60704 15.5713C8.94973 14.4564 8.69242 14.0938 9.38482 13.5228V13.5228ZM12.3743 14.751C11.986 13.84 12.4398 13.7494 12.0983 12.9563C13.2585 12.4895 14.5872 13.0243 15.0644 14.1482C15.5462 15.2722 14.9942 16.5593 13.8339 17.0216C13.1556 15.4354 12.7205 15.5623 12.3743 14.751V14.751ZM14.5029 12.3762C13.4924 12.4532 13.5392 12.009 12.655 12.077C12.5567 10.8669 13.4924 9.80642 14.7415 9.71124C15.9907 9.61607 17.0854 10.5225 17.1836 11.7326C15.4199 11.864 15.4106 12.3082 14.5029 12.3762Z" fill="white"/>
</svg>
