<svg width="24" height="24" viewBox="0 0 24 24" fill="none" xmlns="http://www.w3.org/2000/svg">
<path d="M0 4.25015H24V19.7498H0V4.25015Z" fill="white"/>
<path d="M0 19.7498V4.25015L13.1446 12.1856H4.10672L12.7118 19.7498H0Z" fill="#0052B4"/>
<path d="M11.4736 11.7223L0.478088 5.08437V19.2866H11.4736L2.86843 11.7223H11.4736Z" fill="#D80027"/>
<path d="M4.59387 15.1074L3.91001 14.7958L4.27423 14.1541L3.53154 14.2917L3.43742 13.5649L2.92015 14.0995L2.40284 13.5649L2.30871 14.2917L1.56607 14.1541L1.93029 14.7958L1.24634 15.1074L1.93029 15.419L1.56607 16.0607L2.30876 15.9231L2.40284 16.6499L2.92015 16.1153L3.43742 16.6499L3.53154 15.9231L4.27418 16.0607L3.91001 15.4191L4.59387 15.1074ZM4.13754 9.07828L3.6401 8.85164L3.90499 8.38491L3.36485 8.48504L3.29637 7.95642L2.92015 8.34518L2.54393 7.95642L2.47549 8.48504L1.93526 8.38491L2.2002 8.85164L1.70271 9.07828L2.92015 9.31414L4.13754 9.07828Z" fill="white"/>
<path d="M4.38101 9.07828C4.38101 9.85988 3.72696 10.4935 2.92015 10.4935C2.11334 10.4935 1.45929 9.85988 1.45929 9.07828" fill="white"/>
</svg>
