<svg width="24" height="24" viewBox="0 0 24 24" fill="none" xmlns="http://www.w3.org/2000/svg">
<path d="M0 3.65216H24V19.1522H0V3.65216Z" fill="#DB3E00"/>
<path d="M15.4854 3.65216H24V19.1522H15.4854V3.65216Z" fill="#479900"/>
<path d="M0 3.65216H8.50526V19.1522H0V3.65216Z" fill="black"/>
<path d="M12.0421 9.06982C11.1345 9.06982 10.3953 9.84114 10.3953 10.7882V13.3658H13.6889V10.7882C13.6889 9.83626 12.9497 9.06982 12.0421 9.06982Z" fill="white"/>
<path d="M12.0421 7C9.81053 7 8 8.88924 8 11.2178C8 13.5465 9.81053 15.4308 12.0421 15.4308C14.2737 15.4308 16.0842 13.5416 16.0842 11.213C16.0842 8.88436 14.2737 7 12.0421 7ZM12.0421 14.6986C10.1988 14.6986 8.70175 13.1364 8.70175 11.213C8.70175 9.28955 10.1988 7.72738 12.0421 7.72738C13.8854 7.72738 15.3825 9.28955 15.3825 11.213C15.3825 13.1413 13.8854 14.6986 12.0421 14.6986Z" fill="white"/>
</svg>
