<svg width="24" height="24" viewBox="0 0 24 24" fill="none" xmlns="http://www.w3.org/2000/svg">
<path d="M0 4.25H24V19.75H0V4.25Z" fill="#2B5DEA"/>
<path d="M0 6.83333H24V17.1667H0V6.83333Z" fill="#FFDF29"/>
<path d="M0 8.125H24V15.875H0V8.125Z" fill="#D70000"/>
<path d="M12 8.67784V15.3222C15.048 15.3222 16.5707 13.1083 17.7147 12C16.5707 10.8918 15.048 8.67784 12 8.67784V8.67784Z" fill="white"/>
<path d="M12 8.67784C9.33334 8.67784 7.42934 10.8918 6.28534 12C7.42934 13.1083 9.33334 15.3222 12 15.3222V8.67784Z" fill="black"/>
<path d="M9.23468 10.8194H9.79468V13.178H9.23468V10.8194ZM10.6187 10.8194H11.1787V13.178H10.6187V10.8194Z" fill="white"/>
<path d="M12.7413 10.8194H13.3013V13.178H12.7413V10.8194ZM14.1253 10.8194H14.6853V13.178H14.1253V10.8194Z" fill="black"/>
</svg>
