<svg width="24" height="24" viewBox="0 0 24 24" fill="none" xmlns="http://www.w3.org/2000/svg">
<path d="M0 4.20468H24V12H0V4.20468Z" fill="#A2001D"/>
<path d="M0 12H24V19.7953H0V12Z" fill="#0052B4"/>
<path d="M17.8433 15.6031L12.6643 14.9776L7.48071 15.6031V8.07513H17.8433V15.6031Z" fill="white"/>
<path d="M12.6643 14.9776C14.0957 14.9776 15.2561 13.8535 15.2561 12.4668C15.2561 11.0801 14.0957 9.95599 12.6643 9.95599C11.2329 9.95599 10.0725 11.0801 10.0725 12.4668C10.0725 13.8535 11.2329 14.9776 12.6643 14.9776Z" fill="#0052B4"/>
<path d="M12.6643 13.7222C13.38 13.7222 13.9602 13.1601 13.9602 12.4668C13.9602 11.7735 13.38 11.2114 12.6643 11.2114C11.9486 11.2114 11.3684 11.7735 11.3684 12.4668C11.3684 13.1601 11.9486 13.7222 12.6643 13.7222Z" fill="#A2001D"/>
<path d="M10.7181 9.33057H14.6059L12.6643 11.2114L10.7181 9.33057Z" fill="#6DA544"/>
<path d="M12.014 10.586H13.3099V14.3477H12.014V10.586Z" fill="#FFDA44"/>
<path d="M14.7322 13.9715H10.5918L7.48071 15.6031H17.8433L14.7322 13.9715Z" fill="#6DA544"/>
</svg>
