<svg width="24" height="24" viewBox="0 0 24 24" fill="none" xmlns="http://www.w3.org/2000/svg">
<g clip-path="url(#clip0_97_3785)">
<path d="M-0.0234375 4.25H24.0234V19.75H-0.0234375V4.25Z" fill="#D80027"/>
<path d="M11.9766 19.7228C16.3957 19.7228 19.9781 16.2591 19.9781 11.9864C19.9781 7.71371 16.3957 4.25 11.9766 4.25C7.55743 4.25 3.97501 7.71371 3.97501 11.9864C3.97501 16.2591 7.55743 19.7228 11.9766 19.7228Z" fill="#D80027"/>
<path d="M17.9016 11.9864L15.4828 13.0877L16.7719 15.3538L14.1422 14.8689L13.8094 17.4341L11.9766 15.5442L10.1437 17.4341L9.81093 14.8689L7.18125 15.3538L8.47031 13.0877L6.05156 11.9864L8.47031 10.8851L7.18125 8.61447L9.81093 9.10395L10.1437 6.53421L11.9766 8.42412L13.8094 6.53421L14.1422 9.10395L16.7719 8.61447L15.4828 10.8851L17.9016 11.9864Z" fill="#FFDA44"/>
<path d="M12.0422 15.2314C13.8958 15.2314 15.3984 13.7786 15.3984 11.9864C15.3984 10.1942 13.8958 8.74136 12.0422 8.74136C10.1886 8.74136 8.68594 10.1942 8.68594 11.9864C8.68594 13.7786 10.1886 15.2314 12.0422 15.2314Z" fill="#D80027"/>
<path d="M10.0172 11.9864C9.91875 11.9864 9.825 11.9909 9.72656 12C9.73125 12.5439 9.93281 13.0379 10.2703 13.4276C10.4484 12.9608 10.7156 12.5393 11.0531 12.1722C10.7297 12.0499 10.3828 11.9864 10.0172 11.9864V11.9864ZM11.2641 14.0939C11.5078 14.18 11.7703 14.2253 12.0422 14.2253C12.3141 14.2253 12.5766 14.18 12.8203 14.0939C12.6891 13.5908 12.4125 13.1421 12.0422 12.7886C11.6719 13.1421 11.3953 13.5908 11.2641 14.0939V14.0939ZM14.0484 10.867C13.65 10.1962 12.9 9.74753 12.0422 9.74753C11.1844 9.74753 10.4391 10.1962 10.0359 10.867C10.7672 10.8715 11.4516 11.0619 12.0422 11.3927C12.6328 11.0619 13.3172 10.867 14.0484 10.867ZM13.0312 12.1722C13.3687 12.5348 13.6359 12.9608 13.8141 13.4276C14.1516 13.0424 14.3531 12.5439 14.3578 12C14.2641 11.9909 14.1656 11.9864 14.0672 11.9864C13.7062 11.9864 13.3547 12.0499 13.0312 12.1722V12.1722Z" fill="#FFDA44"/>
</g>
<defs>
<clipPath id="clip0_97_3785">
<rect width="24" height="24" fill="white"/>
</clipPath>
</defs>
</svg>
