<svg width="24" height="24" viewBox="0 0 24 24" fill="none" xmlns="http://www.w3.org/2000/svg">
<path d="M0 4.25015H24V19.7498H0V4.25015Z" fill="white"/>
<path d="M0 4.25015H24V9.4167H0V4.25015ZM0 14.5833H24V19.7498H0V14.5833Z" fill="#D80027"/>
<path d="M13.7808 11.9999C13.7808 12.9527 12.9835 13.5095 11.9999 13.5095C11.0164 13.5095 10.2191 12.9527 10.2191 11.9999C10.2191 11.0471 11.0165 10.2747 12 10.2747C12.9835 10.2747 13.7808 11.0471 13.7808 11.9999Z" fill="#FFDA44"/>
<path d="M13.7808 11.9999C13.7808 12.9527 12.9835 13.7251 12 13.7251C11.0164 13.7251 10.2191 12.9527 10.2191 11.9999" fill="#0052B4"/>
<path d="M10.8871 11.5687H11.3324V12.4315H10.8871V11.5687ZM12.6678 11.5687H13.1131V12.4315H12.6678V11.5687ZM11.7772 10.9218H12.2224V12.4314H11.7772V10.9218Z" fill="#D80027"/>
</svg>
