<svg width="24" height="24" viewBox="0 0 24 24" fill="none" xmlns="http://www.w3.org/2000/svg">
<path d="M0 4.25H24V19.75H0V4.25Z" fill="white"/>
<path fill-rule="evenodd" clip-rule="evenodd" d="M3.66418 8.94504L5.88298 5.72084L6.46688 6.09794L4.24808 9.32214L3.66418 8.94504ZM4.49624 9.4824L6.71503 6.25821L7.29893 6.6353L5.08013 9.8595L4.49624 9.4824ZM5.32829 10.0198L7.54708 6.79557L8.13098 7.17267L5.91218 10.3969L5.32829 10.0198ZM15.8676 16.8264L18.0864 13.6022L18.6703 13.9793L16.4515 17.2035L15.8676 16.8264ZM16.6996 17.3638L18.9184 14.1396L19.5023 14.5167L17.2835 17.7409L16.6996 17.3638ZM20.3344 15.054L18.1156 18.2782L17.5317 17.9011L19.7505 14.6769L20.3344 15.054Z" fill="black"/>
<path fill-rule="evenodd" clip-rule="evenodd" d="M19.3256 17.0715L16.5521 15.2803L16.8764 14.8089L19.6499 16.6001L19.3256 17.0715Z" fill="white"/>
<path d="M15.3275 14.149C16.5529 12.3683 16.0562 9.96243 14.2181 8.77531C12.38 7.5882 9.89648 8.06938 8.67107 9.85005C7.44566 11.6307 7.94236 14.0366 9.78047 15.2237C11.6186 16.4108 14.1021 15.9296 15.3275 14.149Z" fill="#CA163A"/>
<path d="M8.67107 9.85005C8.05868 10.7399 8.30719 11.9436 9.22577 12.5369C10.1444 13.1301 11.3869 12.8894 11.9993 11.9995C12.6117 11.1096 13.8542 10.8689 14.7728 11.4621C15.6914 12.0554 15.9399 13.2591 15.3275 14.149C14.1027 15.9287 11.6176 16.4102 9.78047 15.2237C7.94331 14.0372 7.44629 11.6298 8.67107 9.85005V9.85005Z" fill="#0E4896"/>
<path fill-rule="evenodd" clip-rule="evenodd" d="M18.1156 5.72083L20.3344 8.94503L19.7505 9.32213L17.5317 6.09792L18.1156 5.72083ZM17.2835 6.25821L19.5023 9.48239L18.9185 9.85949L16.6996 6.63531L17.2835 6.25821ZM16.4515 6.79557L18.6703 10.0198L18.0864 10.3968L15.8676 7.17267L16.4515 6.79557ZM5.91213 13.6022L8.13093 16.8264L7.54704 17.2035L5.32824 13.9793L5.91213 13.6022ZM5.08008 14.1396L7.29888 17.3638L6.71499 17.7409L4.49619 14.5167L5.08008 14.1396ZM4.24808 14.6769L6.46688 17.9011L5.88298 18.2782L3.66418 15.054L4.24808 14.6769Z" fill="black"/>
<path d="M5.48267 16.2082L6.31472 15.6709L5.48267 16.2082ZM16.7142 8.95447L17.6861 8.32682L16.7142 8.95447ZM18.5181 7.78947L19.3502 7.25211Z" fill="black"/>
<path fill-rule="evenodd" clip-rule="evenodd" d="M19.5124 7.48779L18.6803 8.02515L18.3559 7.55378L19.188 7.01642L19.5124 7.48779ZM17.8483 8.56251L16.8764 9.19016L16.552 8.71878L17.5239 8.09114L17.8483 8.56251ZM6.47692 15.9065L5.64487 16.4439L5.3205 15.9725L6.15255 15.4352L6.47692 15.9065Z" fill="white"/>
</svg>
