<svg width="24" height="24" viewBox="0 0 24 24" fill="none" xmlns="http://www.w3.org/2000/svg">
<path d="M0 4.25016H24V19.7498H0V4.25016Z" fill="#D80027"/>
<path d="M0 4.25016H12V12H0V4.25016Z" fill="#0052B4"/>
<path d="M8.73915 8.12499L7.61991 8.63499L8.21588 9.6851L7.00055 9.45982L6.84652 10.6492L6.00001 9.77447L5.15344 10.6492L4.99946 9.45982L3.78413 9.68506L4.3801 8.63495L3.26086 8.12499L4.3801 7.61499L3.78413 6.56488L4.99946 6.79011L5.15349 5.60073L6.00001 6.47546L6.84657 5.60073L7.00055 6.79011L8.21593 6.56488L7.61991 7.61499L8.73915 8.12499Z" fill="white"/>
<path d="M5.99998 9.44238C6.75089 9.44238 7.35963 8.85267 7.35963 8.12522C7.35963 7.39776 6.75089 6.80805 5.99998 6.80805C5.24906 6.80805 4.64032 7.39776 4.64032 8.12522C4.64032 8.85267 5.24906 9.44238 5.99998 9.44238Z" fill="#0052B4"/>
<path d="M6.00002 9.00554C5.49883 9.00554 5.09106 8.61047 5.09106 8.12499C5.09106 7.63947 5.49888 7.24444 6.00002 7.24444C6.50121 7.24444 6.90897 7.63951 6.90897 8.12499C6.90897 8.61047 6.50121 9.00554 6.00002 9.00554Z" fill="white"/>
</svg>
