<svg width="24" height="24" viewBox="0 0 24 24" fill="none" xmlns="http://www.w3.org/2000/svg">
<path d="M0 4.25H24V19.75H0V4.25Z" fill="#FFC726"/>
<path d="M0 4.25H8V19.75H0V4.25ZM16 4.25H24V19.75H16V4.25Z" fill="#00267F"/>
<path d="M15.2393 8.8284L13.7436 9.39039C13.7118 9.45158 13.4727 9.73212 13.3609 11.7952H12.5633V9.05682L11.9766 7.81592L11.3899 9.0396V11.7952H10.5918C10.48 9.73166 10.2269 9.41668 10.1955 9.35504L8.71344 8.82795C8.72046 8.842 9.43391 10.2483 9.43391 12.3635V12.9318H11.3899V16.1528H12.5633V12.9318H14.5193V12.3635C14.5193 11.2699 14.7144 10.3684 14.8786 9.80463C15.0573 9.18962 15.2388 8.83067 15.2407 8.82704L15.2393 8.8284Z" fill="black"/>
</svg>
