<svg width="24" height="24" viewBox="0 0 24 24" fill="none" xmlns="http://www.w3.org/2000/svg">
<path d="M0 4.25H24V19.75H0V4.25Z" fill="#FFDA44"/>
<path d="M0 13.0478L24 18.8236V13.9797L0 8.65845V13.0478Z" fill="black"/>
<path d="M24 14.8879V10.9521L0 5.17682V9.11256" fill="white"/>
<path d="M14.3625 10.3354C14.5498 10.6703 14.6476 11.0453 14.647 11.4262C14.647 12.4048 14.0138 13.2399 13.1227 13.5691V10.8667C13.3899 10.8127 13.5914 10.5775 13.5914 10.295C13.9149 10.295 14.1774 10.0339 14.1774 9.71149H14.1577C14.4811 9.71149 14.7628 9.45038 14.7628 9.12797H13.1227V7.72751L12.42 6.46918L11.7169 7.72751V9.12797H10.0767C10.0767 9.45038 10.3585 9.71149 10.6819 9.71149H10.6622C10.6622 10.0339 10.9247 10.295 11.2481 10.295C11.2481 10.5775 11.4492 10.8127 11.7164 10.8667V13.6536C10.681 13.4088 9.91267 12.5047 9.91267 11.4262C9.91267 11.0311 10.0158 10.6597 10.1972 10.3354C9.68345 10.8445 9.36658 11.5402 9.36658 12.3081C9.36658 13.8666 10.6706 15.1303 12.2799 15.1303C13.8891 15.1303 15.1931 13.8666 15.1931 12.3081C15.1931 11.5402 14.8758 10.844 14.3625 10.3354Z" fill="#D80027"/>
<path fill-rule="evenodd" clip-rule="evenodd" d="M12.42 6.32635L13.1928 7.71032V9.06001H14.833V9.12799C14.833 9.45972 14.5677 9.73186 14.2445 9.77387C14.2151 10.0814 13.9698 10.3284 13.6584 10.3597C13.632 10.6254 13.4445 10.8451 13.1928 10.9194V13.4681C14.0072 13.1258 14.5769 12.3404 14.5769 11.4262V11.4261C14.5774 11.0566 14.4825 10.6928 14.3008 10.3678L14.3625 10.3355L14.4127 10.2879C14.9382 10.8087 15.2633 11.5217 15.2633 12.3081C15.2633 13.9041 13.9278 15.1983 12.2798 15.1983C10.6319 15.1983 9.29639 13.9041 9.29639 12.3081C9.29639 11.5217 9.62099 10.8091 10.147 10.2879L10.4984 9.93975L10.2589 10.3679C10.0829 10.6824 9.98283 11.0427 9.98283 11.4262C9.98283 12.4423 10.6856 13.299 11.6462 13.5653V10.9194C11.3945 10.8451 11.2075 10.6254 11.1811 10.3597C10.8697 10.3284 10.6245 10.0814 10.595 9.77387C10.2718 9.73186 10.0065 9.45972 10.0065 9.12799V9.06001H11.6467V7.71031L12.42 6.32635ZM10.6819 9.64353V9.71152H10.7324C10.7324 9.99814 10.9652 10.2271 11.2481 10.2271H11.3183V10.295C11.3183 10.546 11.4967 10.7529 11.7307 10.8002L11.7866 10.8115V13.7402L11.6998 13.7197C10.6336 13.4676 9.84248 12.5368 9.84248 11.4262C9.84248 11.1837 9.88025 10.9497 9.95039 10.7295C9.62671 11.1766 9.43674 11.7206 9.43674 12.3081C9.43674 13.829 10.7094 15.0624 12.2798 15.0624C13.8503 15.0624 15.1229 13.829 15.1229 12.3081C15.1229 11.7207 14.9327 11.1764 14.6092 10.7294C14.6809 10.9543 14.7176 11.1892 14.7172 11.4263C14.7172 12.434 14.065 13.2937 13.1477 13.6327L13.0525 13.6678V10.8115L13.1083 10.8002C13.3424 10.7529 13.5212 10.5459 13.5212 10.295V10.2271H13.5914C13.8743 10.2271 14.1072 9.99814 14.1072 9.71152H14.1577V9.64353C14.4203 9.64353 14.6519 9.44787 14.6878 9.19597H13.0525V7.74474L12.42 6.61204L11.7871 7.74475V9.19597H10.1517C10.1876 9.44787 10.4193 9.64353 10.6819 9.64353Z" fill="#231F20"/>
<path d="M9.30279 14.5496C9.30279 14.5496 10.2726 15.8079 12.42 15.8079C14.5673 15.8079 15.5372 14.5496 15.5372 14.5496L16.1686 15.8379C16.1686 15.8379 15.1828 17.0962 12.42 17.0962C9.65717 17.0962 8.67139 15.8379 8.67139 15.8379L9.30279 14.5496ZM6.05811 10.2978H7.03685L8.20545 11.5357V14.8711H6.97357V11.7664L6.05811 10.2978ZM18.75 10.2978H17.7712L16.6026 11.5357V14.8711H17.834V11.7664L18.75 10.2978Z" fill="#D80027"/>
<path fill-rule="evenodd" clip-rule="evenodd" d="M5.93378 10.2298H7.0678L8.27565 11.5093V14.9391H6.90343V11.7853L5.93378 10.2298ZM6.18249 10.3658L7.04378 11.7474V14.8031H8.1353V11.5621L7.00596 10.3658H6.18249ZM17.7403 10.2298H18.8744L17.9042 11.7853V14.9391H16.5325V11.5093L17.7403 10.2298ZM17.8022 10.3658L16.6728 11.5621V14.8031H17.7639V11.7474L18.6256 10.3658H17.8022ZM15.5506 14.4185L16.2503 15.8461L16.2245 15.879L16.1686 15.8379C16.2245 15.879 16.2245 15.879 16.2244 15.8791L16.2243 15.8792L16.2241 15.8795L16.2233 15.8805C16.2227 15.8813 16.2218 15.8823 16.2207 15.8837C16.2184 15.8865 16.2151 15.8904 16.2109 15.8954C16.2023 15.9054 16.1896 15.9197 16.1727 15.9377C16.1389 15.9737 16.0879 16.0245 16.0183 16.0851C15.879 16.2062 15.6651 16.3666 15.3641 16.5266C14.7617 16.8469 13.8129 17.1642 12.42 17.1642C11.0271 17.1642 10.0783 16.8469 9.4759 16.5266C9.17492 16.3666 8.961 16.2062 8.82172 16.0851C8.75209 16.0245 8.70113 15.9737 8.66729 15.9377C8.65037 15.9197 8.63772 15.9054 8.62916 15.8954C8.62488 15.8904 8.62161 15.8865 8.61935 15.8837C8.61867 15.8829 8.61809 15.8822 8.61759 15.8816C8.61725 15.8812 8.61695 15.8808 8.61669 15.8805L8.61592 15.8795L8.61567 15.8792L8.61558 15.8791C8.61555 15.879 8.61552 15.879 8.67142 15.8379L8.61552 15.879L8.58972 15.8461L9.23943 14.5204L9.30282 14.5496C9.35905 14.5089 9.35903 14.5089 9.35902 14.5089L9.35905 14.5089L9.35941 14.5094C9.3596 14.5096 9.35986 14.5099 9.36018 14.5103C9.36046 14.5107 9.3608 14.5111 9.36118 14.5116C9.3622 14.5129 9.36357 14.5146 9.3653 14.5167C9.36639 14.518 9.36762 14.5195 9.36899 14.5212C9.37609 14.5298 9.387 14.5426 9.40177 14.5592C9.43131 14.5923 9.47625 14.64 9.53699 14.6976C9.65849 14.8127 9.84304 14.967 10.0938 15.1214C10.5949 15.4299 11.3613 15.7399 12.42 15.7399C13.4787 15.7399 14.2451 15.4299 14.7462 15.1214C14.997 14.967 15.1815 14.8127 15.303 14.6976C15.3638 14.64 15.4087 14.5923 15.4382 14.5592C15.453 14.5426 15.4639 14.5298 15.471 14.5212C15.4746 14.5169 15.4772 14.5137 15.4788 14.5116C15.4797 14.5106 15.4803 14.5098 15.4806 14.5094L15.481 14.5089L15.481 14.5089L15.5506 14.4185ZM15.5206 14.6743C15.4904 14.707 15.4506 14.7479 15.4012 14.7948C15.2737 14.9156 15.0816 15.0759 14.8215 15.2361C14.3008 15.5567 13.5087 15.8759 12.42 15.8759C11.3314 15.8759 10.5392 15.5567 10.0185 15.2361C9.7584 15.0759 9.56629 14.9156 9.43884 14.7948C9.38937 14.7479 9.34962 14.707 9.31939 14.6743L8.75406 15.8278C8.75902 15.8332 8.76467 15.8394 8.77105 15.8462C8.80191 15.879 8.84955 15.9265 8.9155 15.9839C9.0474 16.0987 9.2526 16.2528 9.54342 16.4074C10.1246 16.7164 11.0501 17.0282 12.42 17.0282C13.7899 17.0282 14.7154 16.7164 15.2966 16.4074C15.5874 16.2528 15.7926 16.0987 15.9245 15.9839C15.9905 15.9265 16.0381 15.879 16.069 15.8462C16.0753 15.8394 16.081 15.8332 16.086 15.8278L15.5206 14.6743Z" fill="#231F20"/>
</svg>
