<svg width="24" height="24" viewBox="0 0 24 24" fill="none" xmlns="http://www.w3.org/2000/svg">
<path d="M0 4.25015V19.7498H24V4.25015H0Z" fill="#D80027"/>
<path d="M16.5 10.6596H13.0623L12 7.49237L10.9377 10.6596H7.5L10.2811 12.6171L9.21881 15.7845L12 13.8268L14.7812 15.7843L13.7189 12.617L16.5 10.6596ZM11.0595 12.372L11.4188 11.301H12.5812L12.9405 12.372V12.3721L12 13.034L11.0595 12.372ZM12.3661 10.6596H11.634L12 9.56803L12.3661 10.6596V10.6596ZM13.5037 11.9756L13.2774 11.301H14.4622L13.5037 11.9756ZM10.7226 11.301L10.4963 11.9756L9.53784 11.301H10.7226ZM10.4783 14.105L10.8444 13.0135L11.4367 13.4304L10.4783 14.105ZM12.5632 13.4304L13.1556 13.0135L13.5217 14.105L12.5632 13.4304Z" fill="#20661B"/>
</svg>
