<svg width="24" height="24" viewBox="0 0 24 24" fill="none" xmlns="http://www.w3.org/2000/svg">
<path d="M0 4.25H24V19.75H0V4.25Z" fill="white"/>
<path d="M0 14.0232H9.91406V19.75H0V14.0232Z" fill="#D80027"/>
<path d="M0 4.25H9.91406V9.98132H0V4.25Z" fill="#0052B4"/>
<path d="M14.0859 4.25H24V9.98132H14.0859V4.25Z" fill="#D80027"/>
<path d="M14.0859 14.0232H24V19.75H14.0859V14.0232Z" fill="#0052B4"/>
<path d="M12 10.1539H9.66095V12.3974C9.66095 12.3974 10.575 12.6699 12 12.6699V10.1539Z" fill="#0052B4"/>
<path fill-rule="evenodd" clip-rule="evenodd" d="M9.54401 10.0406H12.117V12.7832H12C11.2799 12.7832 10.6884 12.7143 10.2762 12.6453C10.0701 12.6108 9.90865 12.5762 9.7983 12.55C9.74312 12.537 9.7007 12.526 9.67182 12.5183C9.65738 12.5144 9.64632 12.5113 9.63874 12.5092C9.63496 12.5081 9.63204 12.5073 9.63001 12.5067L9.62762 12.506L9.62693 12.5058L9.62663 12.5057C9.6266 12.5057 9.62657 12.5057 9.66097 12.3974L9.62657 12.5057L9.54401 12.4811V10.0406ZM9.77792 12.3113C9.79925 12.3167 9.82459 12.323 9.8538 12.3299C9.95937 12.3549 10.1155 12.3884 10.316 12.422C10.6947 12.4854 11.2311 12.549 11.8831 12.5559V10.2672H9.77792V12.3113Z" fill="white"/>
<path d="M9.66095 12.3974V12.6699C9.66095 13.9188 10.7063 14.9361 12 14.9361V12.6699C10.575 12.6699 9.66095 12.3974 9.66095 12.3974Z" fill="#D80027"/>
<path fill-rule="evenodd" clip-rule="evenodd" d="M9.77792 12.5452V12.6699C9.77792 13.8185 10.7086 14.7608 11.8831 14.8198V12.7826C11.2158 12.7757 10.6659 12.7106 10.2762 12.6453C10.0701 12.6108 9.90865 12.5761 9.7983 12.55C9.7913 12.5484 9.78451 12.5468 9.77792 12.5452ZM9.69536 12.2891L9.69564 12.2892L9.69725 12.2896C9.69877 12.2901 9.70116 12.2908 9.70441 12.2917C9.71092 12.2935 9.7209 12.2963 9.73423 12.2999C9.7609 12.307 9.80102 12.3174 9.8538 12.3299C9.95937 12.3549 10.1155 12.3884 10.316 12.422C10.7171 12.4892 11.2952 12.5566 12 12.5566H12.117V15.0494H12C10.6415 15.0494 9.54401 13.9812 9.54401 12.6699V12.244L9.69536 12.2891Z" fill="white"/>
<path d="M12 14.9361C13.2891 14.9361 14.3391 13.9233 14.3391 12.6699V12.3974C14.3391 12.3974 13.425 12.6699 12 12.6699V14.9361Z" fill="#0052B4"/>
<path fill-rule="evenodd" clip-rule="evenodd" d="M14.456 12.244V12.6699C14.456 13.986 13.3535 15.0494 12 15.0494V14.9361H11.8831V12.5566H12C12.7049 12.5566 13.2829 12.4892 13.684 12.422C13.8845 12.3884 14.0407 12.3549 14.1462 12.3299C14.199 12.3174 14.2391 12.307 14.2658 12.2999C14.2791 12.2963 14.2891 12.2935 14.2956 12.2917C14.2989 12.2908 14.3013 12.2901 14.3028 12.2896L14.3044 12.2892L14.3047 12.2891L14.3047 12.2891L14.456 12.244ZM12.117 14.8198C13.2875 14.7609 14.2221 13.8224 14.2221 12.6699V12.5452C14.2155 12.5468 14.2087 12.5484 14.2017 12.55C14.0914 12.5761 13.93 12.6108 13.7239 12.6453C13.3342 12.7106 12.7843 12.7757 12.117 12.7826V14.8198Z" fill="white"/>
<path d="M12 10.1539V12.6699C13.425 12.6699 14.3391 12.3974 14.3391 12.3974V10.1539H12Z" fill="#D80027"/>
<path fill-rule="evenodd" clip-rule="evenodd" d="M11.8831 10.0406H14.456V12.4811L14.3735 12.5057L14.3391 12.3974C14.3735 12.5057 14.3734 12.5057 14.3734 12.5057L14.3731 12.5058L14.3724 12.506L14.37 12.5067C14.368 12.5073 14.3651 12.5081 14.3613 12.5092C14.3537 12.5113 14.3427 12.5144 14.3282 12.5183C14.2993 12.526 14.2569 12.537 14.2017 12.55C14.0914 12.5762 13.93 12.6108 13.7239 12.6453C13.3116 12.7143 12.7201 12.7832 12 12.7832H11.8831V10.0406ZM14.2221 12.3113V10.2672H12.117V12.5559C12.7689 12.549 13.3053 12.4854 13.684 12.422C13.8845 12.3884 14.0407 12.3549 14.1462 12.3299C14.1755 12.323 14.2008 12.3167 14.2221 12.3113Z" fill="white"/>
</svg>
