<svg width="24" height="24" viewBox="0 0 24 24" fill="none" xmlns="http://www.w3.org/2000/svg">
<path d="M0 4.25H24V19.75H0V4.25Z" fill="#D80027"/>
<path d="M10.1006 11.9864L0 18.5082V5.4646L10.1006 11.9864ZM24 5.4646V18.5082L13.8994 11.9864L24 5.4646Z" fill="#47A644"/>
<path d="M23.9532 5.46462L13.8526 11.9864L23.9532 18.5082V19.7183H22.0772L11.9766 13.1965L1.87602 19.7183H0V18.5082L10.1006 11.9864L0 5.46462V4.25H1.87602L11.9766 10.7718L22.0772 4.25H23.9532V5.46462Z" fill="#0052B4"/>
<path d="M24 5.46462L13.8994 11.9864L24 18.5082V19.75H22.1287L11.9766 13.1965L1.82456 19.75H0V18.5082L10.1006 11.9864L0 5.46462V4.25H1.87602L11.9766 10.7718L22.0772 4.25H24V5.46462Z" fill="white"/>
<path d="M11.7708 16.5276C14.3597 16.5276 16.4585 14.4945 16.4585 11.9864C16.4585 9.47837 14.3597 7.44519 11.7708 7.44519C9.18183 7.44519 7.08307 9.47837 7.08307 11.9864C7.08307 14.4945 9.18183 16.5276 11.7708 16.5276Z" fill="white"/>
<path d="M11.7614 8.94531L12.1076 9.52996H12.8L12.4538 10.1101L12.8 10.6902H12.1076L11.7614 11.2748L11.4152 10.6902H10.7228L11.069 10.1101L10.7228 9.52996H11.4152L11.7614 8.94531ZM13.5766 11.9683L13.9228 12.5529H14.6152L14.269 13.133L14.6152 13.7131H13.9228L13.5766 14.2978L13.2304 13.7131H12.5333L12.8795 13.133L12.5333 12.5529H13.2304L13.5766 11.9683ZM9.96493 11.9683L10.3111 12.5529H11.0082L10.662 13.133L11.0082 13.7131H10.3111L9.96493 14.2978L9.61873 13.7131H8.92633L9.27253 13.133L8.92633 12.5529H9.61873L9.96493 11.9683Z" fill="#D80027"/>
<path fill-rule="evenodd" clip-rule="evenodd" d="M11.7614 8.80872L12.1482 9.46201H12.9216L12.5349 10.1101L12.9216 10.7582H12.1482L11.7614 11.4115L11.3746 10.7582H10.6012L10.9879 10.1101L10.6012 9.46201H11.3746L11.7614 8.80872ZM11.7614 9.08196L11.4559 9.59797H10.8444L11.1501 10.1101L10.8444 10.6222H11.4559L11.7614 11.1382L12.067 10.6222H12.6784L12.3727 10.1101L12.6784 9.59797H12.067L11.7614 9.08196ZM9.96491 11.8317L10.3518 12.485H11.1298L10.743 13.1331L11.1298 13.7812H10.3518L9.96491 14.4345L9.57807 13.7812H8.80469L9.19146 13.1331L8.80469 12.485H9.57807L9.96491 11.8317ZM13.5766 11.8317L13.9635 12.485H14.7368L14.3501 13.1331L14.7368 13.7812H13.9635L13.5766 14.4345L13.1898 13.7812H12.4117L12.7985 13.1331L12.4117 12.485H13.1898L13.5766 11.8317ZM13.5766 12.1049L13.2711 12.6209H12.655L12.9606 13.1331L12.655 13.6452H13.2711L13.5766 14.1612L13.8822 13.6452H14.4936L14.1879 13.1331L14.4936 12.6209H13.8822L13.5766 12.1049ZM9.96491 12.1049L9.65936 12.6209H9.04795L9.35357 13.1331L9.04795 13.6452H9.65936L9.96491 14.1612L10.2705 13.6452H10.8866L10.5809 13.1331L10.8866 12.6209H10.2705L9.96491 12.1049Z" fill="#47A644"/>
</svg>
