<svg width="24" height="24" viewBox="0 0 24 24" fill="none" xmlns="http://www.w3.org/2000/svg">
<path d="M0 4.25016H24V19.7498H0V4.25016Z" fill="white"/>
<path d="M0 4.25016H24V12H0V4.25016Z" fill="#D80027"/>
<path d="M3.91304 8.12486C3.91304 6.99573 4.73222 6.05247 5.8261 5.82101C5.65473 5.78461 5.47982 5.76622 5.30438 5.76616C3.95963 5.76616 2.8696 6.82213 2.8696 8.12481C2.8696 9.42749 3.95968 10.4835 5.30438 10.4835C5.48354 10.4835 5.65796 10.4642 5.8261 10.4287C4.73222 10.1973 3.91304 9.25403 3.91304 8.12486ZM7.04349 5.93468L7.21618 6.44949H7.77497L7.32286 6.76768L7.49555 7.2825L7.04349 6.96435L6.59138 7.2825L6.76411 6.76768L6.312 6.44949H6.8708L7.04349 5.93468Z" fill="white"/>
<path d="M5.688 6.94555L5.86064 7.46037H6.41943L5.96733 7.77856L6.14001 8.29337L5.688 7.97523L5.23589 8.29337L5.40862 7.77856L4.95651 7.46037H5.51531L5.688 6.94555ZM8.39897 6.94555L8.57165 7.46037H9.13045L8.67834 7.77856L8.85103 8.29337L8.39897 7.97523L7.9469 8.29337L8.11964 7.77856L7.66753 7.46037H8.22632L8.39897 6.94555ZM7.8772 8.46185L8.04989 8.97666H8.60868L8.15662 9.29485L8.32931 9.80967L7.8772 9.49152L7.42518 9.80967L7.59787 9.29485L7.14581 8.97666H7.70456L7.8772 8.46185ZM6.20972 8.46185L6.38236 8.97666H6.94115L6.48909 9.29485L6.66178 9.80967L6.20972 9.49152L5.75765 9.80967L5.93034 9.29485L5.47828 8.97666H6.03703L6.20972 8.46185Z" fill="white"/>
</svg>
