<svg width="24" height="24" viewBox="0 0 24 24" fill="none" xmlns="http://www.w3.org/2000/svg">
<path d="M0 4.25037H24V19.75H0V4.25037Z" fill="#338AF3"/>
<path d="M24 4.25027V11.8197L0 12.0082V4.25027H24Z" fill="white"/>
<path d="M15.1755 9.59789L12 12.6742L8.8245 9.59789C8.39963 10.208 8.17304 10.9273 8.17392 11.6633V12.6742C8.17392 14.2973 9.25659 15.68 10.759 16.1804C10.5585 16.5612 10.5923 17.0363 10.8861 17.3916L12.0232 16.5088L13.1603 17.3916C13.4576 17.0321 13.4889 16.5499 13.2805 16.1669C14.7624 15.6556 15.8262 14.2831 15.8262 12.6742V11.6633C15.827 10.9273 15.6004 10.208 15.1755 9.59789V9.59789Z" fill="#6DA544"/>
<path d="M12 15.3698C10.4657 15.3698 9.21741 14.1606 9.21741 12.6742V11.6633C9.21741 10.1769 10.4657 8.96764 12 8.96764C13.5343 8.96764 14.7826 10.1769 14.7826 11.6633V12.6742C14.7826 14.1606 13.5343 15.3698 12 15.3698Z" fill="#FFDA44"/>
<path d="M13.7391 12.6742V11.6633C13.7391 10.7343 12.959 9.97852 12 9.97852C11.041 9.97852 10.2609 10.7343 10.2609 11.6633V12.6742L12 13.0111L13.7391 12.6742Z" fill="#338AF3"/>
<path d="M10.2609 12.6742C10.2609 13.6032 11.041 14.3589 12 14.3589C12.959 14.3589 13.7391 13.6032 13.7391 12.6742H10.2609Z" fill="#6DA544"/>
<path d="M14.087 8.96764C14.087 8.40932 13.6198 7.95676 13.0435 7.95676C12.7867 7.95644 12.5389 8.04819 12.3479 8.21433V7.61977H12.6957V6.94589H12.3479V6.6089H11.6522V6.94589H11.3044V7.61977H11.6522V8.21433C11.4611 8.04819 11.2133 7.95644 10.9566 7.95676C10.3802 7.95676 9.91309 8.40932 9.91309 8.96764C9.91309 9.26694 10.0475 9.53581 10.2609 9.72095V10.3155H13.7392V9.72095C13.9526 9.53581 14.087 9.26698 14.087 8.96764V8.96764Z" fill="#FFDA44"/>
</svg>
