<svg width="24" height="24" viewBox="0 0 24 24" fill="none" xmlns="http://www.w3.org/2000/svg">
<path d="M0 4.25H24V19.75H0V4.25Z" fill="#FF7415"/>
<path d="M24 4.25H0V19.75" fill="#FFDA44"/>
<path fill-rule="evenodd" clip-rule="evenodd" d="M15.9781 7.23506C15.8559 7.20469 15.7543 7.20975 15.6148 7.29934C15.4258 7.42152 15.3879 7.50663 15.378 7.53287C15.3655 7.56598 15.3482 7.64216 15.3869 7.80624C15.4783 8.19431 15.7673 8.66859 16.1889 9.34632C16.1962 9.35813 16.2037 9.37003 16.2111 9.38201C16.5724 9.96257 17.0502 10.7302 17.2004 11.5C17.2832 11.9238 17.2799 12.3992 17.0798 12.8736C16.8791 13.3494 16.5185 13.7339 16.0468 14.0384C16.0467 14.0385 16.0466 14.0385 16.0465 14.0386C16.0464 14.0387 16.0463 14.0387 16.0462 14.0388C15.5677 14.348 15.0597 14.5279 14.5277 14.5342C13.9949 14.5406 13.5333 14.3718 13.1506 14.1399C12.4604 13.7214 11.9012 13.0083 11.4794 12.4703C11.4685 12.4564 11.4577 12.4426 11.4469 12.4289C10.9528 11.7991 10.6064 11.3692 10.265 11.1486C10.1223 11.0564 10.0346 11.0396 9.98048 11.0387C9.92953 11.038 9.80929 11.0494 9.59605 11.1869C9.59599 11.1869 9.59594 11.1869 9.59588 11.187C9.32033 11.3651 9.21104 11.513 9.1641 11.6077C9.11943 11.6978 9.09821 11.8054 9.11803 11.964C9.16587 12.3468 9.41348 12.8204 9.81077 13.4883C9.84149 13.5399 9.87348 13.5933 9.9064 13.6482C10.2373 14.1999 10.6615 14.9071 10.8163 15.5938C10.9088 16.0043 10.9252 16.4755 10.7395 16.9514C10.552 17.432 10.1978 17.8163 9.73308 18.1164C9.09489 18.5297 8.41432 18.5819 7.80965 18.4302C7.24307 18.2882 6.76463 17.9756 6.40846 17.6842C6.04396 17.3859 5.74737 17.0598 5.54612 16.8164C5.44395 16.6929 5.36263 16.5862 5.30564 16.5085C5.27707 16.4696 5.25441 16.4377 5.2381 16.4144C5.22993 16.4027 5.22334 16.3931 5.21838 16.3859C5.21589 16.3822 5.21381 16.3792 5.21214 16.3767L5.20995 16.3735L5.20909 16.3722L5.20871 16.3716C5.20854 16.3714 5.20838 16.3711 6.03281 15.8534C6.85724 15.3357 6.85709 15.3355 6.85694 15.3353L6.85675 15.3349C6.85809 15.3369 6.86089 15.341 6.86511 15.347C6.87357 15.3591 6.88764 15.379 6.90689 15.4052C6.94553 15.4578 7.00422 15.535 7.07951 15.6261C7.23319 15.8119 7.44139 16.0376 7.6763 16.2298C7.91954 16.4288 8.13515 16.5454 8.30202 16.5873C8.43062 16.6195 8.52268 16.6105 8.64136 16.5336L8.64211 16.5331L8.64286 16.5326C8.8445 16.4025 8.8891 16.3102 8.90156 16.2782C8.91599 16.2413 8.9335 16.1637 8.89658 15.9999C8.81078 15.6192 8.54133 15.1664 8.1485 14.5063C8.13526 14.4841 8.12188 14.4616 8.10837 14.4389C7.75156 13.8391 7.27173 13.0278 7.16737 12.1928C7.11109 11.7425 7.15759 11.258 7.39301 10.7832C7.62613 10.3132 8.00918 9.92386 8.50659 9.60258L8.50724 9.60216C8.9771 9.29921 9.48141 9.12715 10.0116 9.13529C10.5386 9.14338 10.9887 9.32795 11.3553 9.56488C11.9952 9.97837 12.5295 10.6613 12.9402 11.1862C12.9643 11.217 12.988 11.2473 13.0113 11.2769C13.4993 11.899 13.8505 12.3185 14.1929 12.5261C14.3354 12.6125 14.4313 12.6316 14.5034 12.6307C14.5761 12.6298 14.7201 12.6075 14.9563 12.4548L14.9566 12.4546L14.9569 12.4544C15.1764 12.3128 15.2393 12.2047 15.2609 12.1534C15.2832 12.1005 15.301 12.0142 15.2697 11.8538C15.195 11.471 14.9211 10.9962 14.506 10.329C14.4845 10.2944 14.4625 10.2592 14.44 10.2232C14.0899 9.66219 13.6382 8.93865 13.4712 8.22983C13.3754 7.82275 13.3535 7.35349 13.5327 6.87894C13.7144 6.39754 14.0643 6.01286 14.5253 5.71509L14.5265 5.71436C15.1695 5.30028 15.8523 5.23843 16.4664 5.39109C17.0408 5.53385 17.5198 5.85279 17.8737 6.1501C18.2356 6.4541 18.5268 6.78671 18.7234 7.03451C18.8232 7.16039 18.9024 7.2692 18.9578 7.34841C18.9856 7.38811 19.0076 7.42066 19.0235 7.44454C19.0314 7.45648 19.0379 7.46628 19.0427 7.47375C19.0451 7.47748 19.0472 7.48063 19.0488 7.48318L19.0509 7.48654L19.0522 7.48846C19.0523 7.48872 19.0525 7.48898 18.2156 7.98759C17.3787 8.48621 17.3789 8.48644 17.379 8.48667L17.3793 8.48708L17.3794 8.48722C17.3782 8.48533 17.3755 8.48128 17.3715 8.47524C17.3635 8.46315 17.35 8.44322 17.3316 8.41685C17.2945 8.36389 17.238 8.28614 17.1653 8.19446C17.0167 8.00713 16.8152 7.78057 16.5865 7.58842C16.3498 7.38957 16.1403 7.27537 15.9781 7.23506Z" fill="white"/>
</svg>
