<svg width="24" height="24" viewBox="0 0 24 24" fill="none" xmlns="http://www.w3.org/2000/svg">
<path d="M0 4.25H24V19.75H0V4.25Z" fill="#36B6CC"/>
<path d="M12 15.0955C13.7673 15.0955 15.2 13.7076 15.2 11.9955C15.2 10.2834 13.7673 8.89548 12 8.89548C10.2327 8.89548 8.79999 10.2834 8.79999 11.9955C8.79999 13.7076 10.2327 15.0955 12 15.0955Z" fill="#FFD400"/>
<path d="M12 15.6484L10.6947 17.5383L10.3626 15.2858L8.3415 16.4415L9.05262 14.2751L6.71343 14.4655L8.32279 12.8112L6.12864 11.9955L8.31811 11.1797L6.70876 9.52543L9.04794 9.71578L8.33683 7.54941L10.3579 8.70058L10.69 6.44809L11.9953 8.338L13.3006 6.44809L13.6327 8.70058L15.6538 7.54941L14.9427 9.71578L17.2819 9.52543L15.6772 11.1842L17.8667 11.9955L15.6772 12.8112L17.2865 14.4655L14.9474 14.2751L15.6585 16.4415L13.6374 15.2903L13.3052 17.5428C13.3052 17.5383 12 15.6484 12 15.6484ZM12 15.6121C14.0631 15.6121 15.738 13.9896 15.738 11.9909C15.738 9.99224 14.0631 8.37426 12 8.37426C9.93683 8.37426 8.26197 9.99678 8.26197 11.9955C8.26197 13.9941 9.93683 15.6121 12 15.6121ZM1.06665 5.53259C1.06665 5.38757 1.17893 5.27426 1.33332 5.27426H1.86197C2.01168 5.27426 2.12864 5.38303 2.12864 5.53259V6.04473C2.13332 6.18523 2.01636 6.30306 1.86665 6.30306H1.33332C1.18829 6.30306 1.06665 6.18976 1.06665 6.04926V5.53259ZM1.06665 7.60379C1.06665 7.45876 1.17893 7.34546 1.33332 7.34546H1.86197C2.01168 7.34546 2.12864 7.45423 2.12864 7.60379V8.11593C2.13332 8.25643 2.01636 8.37426 1.86665 8.37426H1.33332C1.18829 8.37426 1.06665 8.26096 1.06665 8.12046V7.60379ZM1.06665 9.67046C1.06665 9.52543 1.17893 9.41213 1.33332 9.41213H1.86197C2.01168 9.41213 2.12864 9.5209 2.12864 9.67046V10.1826C2.13332 10.3231 2.01636 10.4409 1.86665 10.4409H1.33332C1.18829 10.4409 1.06665 10.3276 1.06665 10.1871V9.67046ZM1.06665 11.7371C1.06665 11.5921 1.17893 11.4788 1.33332 11.4788H1.86197C2.01168 11.4788 2.12864 11.5876 2.12864 11.7371V12.2493C2.13332 12.3898 2.01636 12.5076 1.86665 12.5076H1.33332C1.18829 12.5076 1.06665 12.3943 1.06665 12.2538V11.7371ZM1.06665 13.8083C1.06665 13.6633 1.17893 13.55 1.33332 13.55H1.86197C2.01168 13.55 2.12864 13.6588 2.12864 13.8083V14.3205C2.13332 14.461 2.01636 14.5788 1.86665 14.5788H1.33332C1.18829 14.5788 1.06665 14.4655 1.06665 14.325V13.8083ZM1.06665 15.875C1.06665 15.73 1.17893 15.6167 1.33332 15.6167H1.86197C2.01168 15.6167 2.12864 15.7254 2.12864 15.875V16.3871C2.13332 16.5276 2.01636 16.6455 1.86665 16.6455H1.33332C1.18829 16.6455 1.06665 16.5322 1.06665 16.3917V15.875ZM1.06665 17.9417C1.06665 17.7966 1.17893 17.6833 1.33332 17.6833H1.86197C2.01168 17.6833 2.12864 17.7921 2.12864 17.9417V18.4538C2.13332 18.5943 2.01636 18.7121 1.86665 18.7121H1.33332C1.18829 18.7121 1.06665 18.5988 1.06665 18.4583V17.9417ZM2.13332 16.9083C2.13332 16.7633 2.2456 16.65 2.39998 16.65H2.92864C3.07835 16.65 3.19531 16.7588 3.19531 16.9083V17.4205C3.19998 17.561 3.08302 17.6788 2.93332 17.6788H2.39998C2.25495 17.6788 2.13332 17.5655 2.13332 17.425V16.9083V16.9083ZM2.13332 14.8417C2.13332 14.6966 2.2456 14.5833 2.39998 14.5833H2.92864C3.07835 14.5833 3.19531 14.6921 3.19531 14.8417V15.3538C3.19998 15.4943 3.08302 15.6121 2.93332 15.6121H2.39998C2.25495 15.6121 2.13332 15.4988 2.13332 15.3583V14.8417V14.8417ZM2.13332 12.7705C2.13332 12.6254 2.2456 12.5121 2.39998 12.5121H2.92864C3.07835 12.5121 3.19531 12.6209 3.19531 12.7705V13.2826C3.19998 13.4231 3.08302 13.5409 2.93332 13.5409H2.39998C2.25495 13.5409 2.13332 13.4276 2.13332 13.2871V12.7705V12.7705ZM2.13332 10.7038C2.13332 10.5588 2.2456 10.4455 2.39998 10.4455H2.92864C3.07835 10.4455 3.19531 10.5542 3.19531 10.7038V11.2159C3.19998 11.3564 3.08302 11.4743 2.93332 11.4743H2.39998C2.25495 11.4743 2.13332 11.361 2.13332 11.2205V10.7038V10.7038ZM2.13332 8.63713C2.13332 8.4921 2.2456 8.37879 2.39998 8.37879H2.92864C3.07835 8.37879 3.19531 8.48757 3.19531 8.63713V9.14926C3.19998 9.28976 3.08302 9.4076 2.93332 9.4076H2.39998C2.25495 9.4076 2.13332 9.29429 2.13332 9.15379V8.63713V8.63713ZM2.13332 6.57046C2.13332 6.42543 2.2456 6.31213 2.39998 6.31213H2.92864C3.07835 6.31213 3.19531 6.4209 3.19531 6.57046V7.08259C3.19998 7.22309 3.08302 7.34093 2.93332 7.34093H2.39998C2.25495 7.34093 2.13332 7.22762 2.13332 7.08713V6.57046V6.57046Z" fill="#FFD400"/>
</svg>
