<svg width="24" height="24" viewBox="0 0 24 24" fill="none" xmlns="http://www.w3.org/2000/svg">
<path d="M0 4.25043H24V19.7501H0V4.25043Z" fill="#FFDA44"/>
<path d="M0 4.25043H24V9.41697H0V4.25043ZM0 14.5836H24V19.7501H0V14.5836Z" fill="#6DA544"/>
<path d="M12 12.0003L0 19.7501V4.24989L12 12.0003Z" fill="#D80027"/>
<path d="M14.1585 10.6523L14.5039 11.6819H15.6215L14.7174 12.3184L15.0627 13.348L14.1585 12.7116L13.2545 13.348L13.5997 12.3184L12.6956 11.6819H13.8132L14.1585 10.6523ZM17.6368 10.6523L17.9821 11.6819H19.0997L18.1956 12.3184L18.5409 13.348L17.6368 12.7116L16.7327 13.348L17.078 12.3184L16.1739 11.6819H17.2915L17.6368 10.6523Z" fill="black"/>
</svg>
