<svg width="24" height="24" viewBox="0 0 24 24" fill="none" xmlns="http://www.w3.org/2000/svg">
<path d="M0 4.25H22.4V19.75H0V4.25Z" fill="white"/>
<path d="M0 4.25H24V19.75H0V4.25Z" fill="#073AB6"/>
<path d="M0 4.25H12.0533V12H0V4.25Z" fill="white"/>
<path d="M7.5733 4.25H11.4133V11.4833H7.5733V4.25Z" fill="#F44653"/>
<path d="M0 4.25H3.84V11.4833H0V4.25Z" fill="#1035BB"/>
<path d="M3.83997 4.25H7.67997V11.4833H3.83997V4.25ZM15.4666 10.45H20.8L20.2666 11.4833H18.6666V12H19.7333L19.2 13.0333H18.6666V14.5833H17.6V11.4833H16L15.4666 10.45ZM19.7333 13.0333L20.8 14.5833H18.6666L19.7333 13.0333ZM16.5333 13.0333L17.6 14.5833H15.4666L16.5333 13.0333ZM18.1333 16.1333L17.0666 14.5833H19.2L18.1333 16.1333ZM21.3333 12.5167C21.0133 12.5167 20.8 12.31 20.8 12C20.8 11.69 21.0133 11.4833 21.3333 11.4833C21.6533 11.4833 21.8666 11.69 21.8666 12C21.8666 12.31 21.6533 12.5167 21.3333 12.5167ZM14.9333 12.5167C14.6133 12.5167 14.4 12.31 14.4 12C14.4 11.69 14.6133 11.4833 14.9333 11.4833C15.2533 11.4833 15.4666 11.69 15.4666 12C15.4666 12.31 15.2533 12.5167 14.9333 12.5167ZM16 16.65C15.68 16.65 15.4666 16.4433 15.4666 16.1333C15.4666 15.8233 15.68 15.6167 16 15.6167C16.32 15.6167 16.5333 15.8233 16.5333 16.1333C16.5333 16.4433 16.32 16.65 16 16.65ZM20.2666 16.65C19.9466 16.65 19.7333 16.4433 19.7333 16.1333C19.7333 15.8233 19.9466 15.6167 20.2666 15.6167C20.5866 15.6167 20.8 15.8233 20.8 16.1333C20.8 16.4433 20.5866 16.65 20.2666 16.65ZM18.1333 17.6833C17.8133 17.6833 17.6 17.4767 17.6 17.1667C17.6 16.8567 17.8133 16.65 18.1333 16.65C18.4533 16.65 18.6666 16.8567 18.6666 17.1667C18.6666 17.4767 18.4533 17.6833 18.1333 17.6833Z" fill="white"/>
</svg>
