<svg width="24" height="24" viewBox="0 0 24 24" fill="none" xmlns="http://www.w3.org/2000/svg">
<path d="M0 4.25H24V19.75H0V4.25Z" fill="#41662E"/>
<path d="M12 4.25H24V19.75H12V4.25Z" fill="white"/>
<path d="M16.0078 9.0321L14.6297 10.8669L12.4031 10.1675L13.7813 12.0022L12.4031 13.837L14.6297 13.1376L16.0078 14.9723V12.7016L18.2344 11.9977L16.0078 11.2983V9.0321Z" fill="#D80027"/>
<path d="M14.5266 16.8162C11.7844 16.8162 9.55784 14.659 9.55784 12.0022C9.55784 9.34547 11.7844 7.18828 14.5266 7.18828C15.3844 7.18828 16.186 7.39719 16.8891 7.76505C15.7875 6.72051 14.2781 6.07562 12.6141 6.07562C9.23909 6.07562 6.50159 8.72784 6.50159 11.9977C6.50159 15.2675 9.23909 17.9197 12.6141 17.9197C14.2781 17.9197 15.7875 17.2749 16.8891 16.2303C16.1906 16.6027 15.3844 16.8162 14.5266 16.8162Z" fill="#D80027"/>
</svg>
