<svg width="24" height="24" viewBox="0 0 24 24" fill="none" xmlns="http://www.w3.org/2000/svg">
<path d="M0 4.25H24V19.75H0V4.25Z" fill="#007C30"/>
<path d="M0 14.674H24V4.25H0" fill="#CE1720"/>
<path d="M4.67836 14.674V4.25H0V19.75H24H4.67836V14.674Z" fill="white"/>
<path d="M1.30995 11.4833L0.402344 10.0602L1.30995 8.66431L2.21287 10.0602L1.30995 11.4833ZM3.3965 11.4833L2.49357 10.0602L3.3965 8.66431L4.3041 10.0602L3.3965 11.4833ZM1.30995 15.1816L0.402344 13.7585L1.30995 12.3626L2.21287 13.7585L1.30995 15.1816ZM3.3965 15.1816L2.49357 13.7585L3.3965 12.3626L4.3041 13.7585L3.3965 15.1816Z" fill="#CE1720"/>
<path fill-rule="evenodd" clip-rule="evenodd" d="M1.31037 4.95752L2.25115 6.41573L1.31037 7.89672L0.363708 6.41573L1.31037 4.95752ZM3.39605 4.95752L4.34271 6.41573L3.39605 7.89672L2.45527 6.41573L3.39605 4.95752ZM0.749729 6.41703L1.3095 7.29276L1.8658 6.41703L1.3095 5.55477L0.749729 6.41703ZM3.39692 5.55477L2.84062 6.41703L3.39692 7.29276L3.95669 6.41703L3.39692 5.55477ZM1.31037 16.0205L2.25105 17.4786L1.31037 18.9651L0.363812 17.4786L1.31037 16.0205ZM3.39605 16.0205L4.34261 17.4786L3.39605 18.9651L2.45537 17.4786L3.39605 16.0205ZM0.749625 17.4802L1.3095 18.3595L1.8659 17.4802L1.3095 16.6178L0.749625 17.4802ZM3.39692 16.6178L2.84052 17.4802L3.39692 18.3595L3.95679 17.4802L3.39692 16.6178Z" fill="#CE1720"/>
</svg>
