<svg width="24" height="24" viewBox="0 0 24 24" fill="none" xmlns="http://www.w3.org/2000/svg">
<path d="M24 4.25H0V19.75H24V4.25Z" fill="white"/>
<path d="M14.5797 4.25H9.3913V19.75H14.5797V4.25Z" fill="#DC171D"/>
<path d="M24 9.40704H0V14.5641H24V9.40704Z" fill="#012A87"/>
<path d="M10.7826 9.98327L10.6377 9.52231L10.4928 9.98327H10L10.3768 10.2714L10.2319 10.7323L10.6377 10.4442L11.0435 10.7323L10.8696 10.2714L11.2754 9.98327H10.7826Z" fill="white" stroke="white" stroke-width="0.3"/>
<path d="M13.5826 9.98327L13.4377 9.52231L13.2927 9.98327H12.8L13.1768 10.2714L13.0319 10.7323L13.4377 10.4442L13.8435 10.7323L13.6696 10.2714L14.0754 9.98327H13.5826Z" fill="white" stroke="white" stroke-width="0.3"/>
<path d="M15.0725 12.2593L15.4783 11.9424L15.8551 12.2593L15.7101 11.7695L16.1159 11.4814H15.6232L15.4783 11.0204L15.3043 11.4814H14.8116L15.2174 11.7695L15.0725 12.2593Z" fill="white" stroke="white" stroke-width="0.3"/>
<path d="M8.66664 11.4814L8.52171 11.0204L8.37679 11.4814H7.88403L8.28983 11.7695L8.11592 12.2593L8.52171 11.9424L8.92751 12.2593L8.78258 11.7695L9.1594 11.4814H8.66664Z" fill="white" stroke="white" stroke-width="0.3"/>
<path d="M10.6956 13.527L10.5507 13.0372L10.4058 13.527H9.91302L10.3188 13.8151L10.1449 14.276L10.5507 13.9879L10.9565 14.276L10.8116 13.8151L11.2174 13.527H10.6956Z" fill="white" stroke="white" stroke-width="0.3"/>
<path d="M13.5942 13.527L13.4203 13.0372L13.2753 13.527H12.7826L13.1884 13.8151L13.0435 14.276L13.4203 13.9879L13.8261 14.276L13.6811 13.8151L14.0869 13.527H13.5942Z" fill="white" stroke="white" stroke-width="0.3"/>
</svg>
