<svg width="24" height="24" viewBox="0 0 24 24" fill="none" xmlns="http://www.w3.org/2000/svg">
<path d="M0 4.25H24V19.75H0V4.25Z" fill="#00318B"/>
<path d="M21.2772 16.2775C21.6487 15.7821 21.8966 15.1775 21.8966 14.4456V9.00382C21.4109 9.35792 20.8193 9.54901 20.2115 9.54813C19.2926 9.54813 18.4772 9.12075 17.9645 8.45996C17.4522 9.12075 16.6363 9.54813 15.7174 9.54813C15.0849 9.54813 14.5015 9.34555 14.0323 9.00427V14.4456C14.0323 15.178 14.2802 15.7826 14.6517 16.2775H21.2772Z" fill="white"/>
<path d="M14.5137 16.078C15.5626 17.7087 17.9649 18.2543 17.9649 18.2543C17.9649 18.2543 20.3672 17.7087 21.4161 16.078H14.5137Z" fill="#8DCCFF"/>
<path d="M18.5572 12.0548C18.5722 12.1192 18.9651 12.5158 19.3787 12.9681C19.4437 13.0392 18.9698 13.5405 19.0554 13.5387C19.2777 13.5332 19.957 12.7564 19.9602 13.8401C19.9626 14.5625 18.5567 15.0869 18.5567 15.0869H19.374L19.4044 15.7649C19.4044 15.7649 19.637 15.1603 19.7595 15.0139C20.1385 14.562 20.7036 13.6511 21.3778 13.7857C22.0519 13.9203 20.7387 13.1548 20.7387 13.1548C20.7387 13.1548 20.4954 12.4664 19.9607 12.3857C19.4901 12.3145 19.2922 12.2719 18.7144 12.0548C18.6358 12.0254 18.5329 11.9497 18.5572 12.0548Z" fill="#D87B00"/>
<path d="M16.8276 13.2549C16.8777 13.2101 17.0363 12.6825 17.2341 12.1092C17.2655 12.019 17.9504 12.1668 17.9055 12.0956C17.7899 11.9116 16.7555 11.7294 17.723 11.1856C18.3682 10.823 19.5392 11.7417 19.5392 11.7417L19.1312 11.0555L19.7226 10.6916C19.7226 10.6916 19.0653 10.7981 18.8739 10.7681C18.2807 10.6757 17.1836 10.6558 16.9675 10.0226C16.7513 9.38947 16.7219 10.8742 16.7219 10.8742C16.7219 10.8742 16.2278 11.4217 16.4224 11.9112C16.5937 12.3417 16.6545 12.5293 16.7485 13.1226C16.7621 13.2037 16.7457 13.3279 16.8276 13.2549Z" fill="#D87B00"/>
<path d="M18.5109 14.2149C18.4458 14.1954 17.8952 14.3277 17.2842 14.4496C17.1878 14.4687 16.9759 13.8206 16.9347 13.894C16.8285 14.083 17.1855 15.0411 16.2138 14.5036C15.5663 14.1451 15.7979 12.7029 15.7979 12.7029L15.3904 13.3891L14.7686 13.0764C14.7686 13.0764 15.1939 13.5731 15.2631 13.749C15.4784 14.2924 16.0117 15.2215 15.5551 15.72C15.0985 16.219 16.4384 15.4979 16.4384 15.4979C16.4384 15.4979 17.1757 15.6371 17.5144 15.2278C17.8129 14.868 17.9495 14.7229 18.4318 14.3463C18.4987 14.2955 18.6175 14.2471 18.5109 14.2149Z" fill="#D87B00"/>
<path d="M12 4.25H10.9193L7.48538 6.46623V4.25H4.49123V6.46623L1.05731 4.25H0V5.2788L2.15673 6.67018H0V9.57076H2.15673L0 10.9621V12H1.05731L4.49123 9.77018V12H7.48538V9.77018L10.9193 12H12V10.9621L9.81988 9.57076H12V6.67018H9.81988L12 5.2788V4.25Z" fill="white"/>
<path d="M6.73684 4.25H5.23977V7.39532H0V8.84561H5.23977V12H6.73684V8.84561H12V7.39532H6.73684V4.25Z" fill="#D80027"/>
<path d="M0 11.9999V11.4877L2.92398 9.57062H3.98129L0.34152 11.9999H0ZM0.34152 4.25439L3.98129 6.66551H2.92398L0 4.75293V4.25439H0.34152ZM12 4.25439V4.75293L9.05263 6.67004H7.99532L11.6351 4.25439H12ZM11.6351 11.9999L7.99532 9.57062H9.05263L12 11.4877V11.9999H11.6351Z" fill="#D80027"/>
</svg>
