<svg width="24" height="24" viewBox="0 0 24 24" fill="none" xmlns="http://www.w3.org/2000/svg">
<path d="M0 4.25H24V19.75H0V4.25Z" fill="#CE1126"/>
<path d="M12.1387 15.4823C13.794 15.4823 15.136 14.1823 15.136 12.5787C15.136 10.975 13.794 9.67499 12.1387 9.67499C10.4833 9.67499 9.14133 10.975 9.14133 12.5787C9.14133 14.1823 10.4833 15.4823 12.1387 15.4823Z" fill="#FCD116"/>
<path d="M13.552 8.04233L12.288 9.38566L13.8133 9.72149L13.552 8.04233ZM10.8053 8.05266L10.5493 9.76283L12.0693 9.34949L10.8053 8.05266ZM15.8347 9.43216L13.984 9.87133L15.056 11.0958L15.8347 9.43216ZM8.45866 9.33916L9.28533 11.0287L10.3627 9.85583L8.45866 9.33916ZM16.9387 11.6797L15.104 11.1682L15.4027 12.6923L16.9387 11.6797ZM7.23199 11.5453L8.93333 12.5683L9.21066 11.1372L7.23199 11.5453Z" fill="#FCD116"/>
<path d="M0 13.2917H24V19.75H0V13.2917Z" fill="#003F87"/>
<path d="M0 18.045C0.8 18.045 1.6 18.7167 2.4 18.7167C3.2 18.7167 4 18.045 4.8 18.045C5.6 18.045 6.4 18.7167 7.2 18.7167C8 18.7167 8.8 18.045 9.6 18.045C10.4 18.045 11.2 18.7167 12 18.7167C12.8 18.7167 13.6 18.045 14.4 18.045C15.2 18.045 16 18.7167 16.8 18.7167C17.6 18.7167 18.4 18.045 19.2 18.045C20 18.045 20.8 18.7167 21.6 18.7167C22.4 18.7167 23.2 18.045 24 18.045V16.96C23.2 16.96 22.4 17.6317 21.6 17.6317C20.8 17.6317 20 16.96 19.2 16.96C18.4 16.96 17.6 17.6317 16.8 17.6317C16 17.6317 15.2 16.96 14.4 16.96C13.6 16.96 12.8 17.6317 12 17.6317C11.2 17.6317 10.4 16.96 9.6 16.96C8.8 16.96 8 17.6317 7.2 17.6317C6.4 17.6317 5.6 16.96 4.8 16.96C4 16.96 3.2 17.6317 2.4 17.6317C1.6 17.6317 0.8 16.96 0 16.96V18.045ZM0 15.8233C0.8 15.8233 1.6 16.495 2.4 16.495C3.2 16.495 4 15.8233 4.8 15.8233C5.6 15.8233 6.4 16.495 7.2 16.495C8 16.495 8.8 15.8233 9.6 15.8233C10.4 15.8233 11.2 16.495 12 16.495C12.8 16.495 13.6 15.8233 14.4 15.8233C15.2 15.8233 16 16.495 16.8 16.495C17.6 16.495 18.4 15.8233 19.2 15.8233C20 15.8233 20.8 16.495 21.6 16.495C22.4 16.495 23.2 15.8233 24 15.8233V14.7383C23.2 14.7383 22.4 15.41 21.6 15.41C20.8 15.41 20 14.7383 19.2 14.7383C18.4 14.7383 17.6 15.41 16.8 15.41C16 15.41 15.2 14.7383 14.4 14.7383C13.6 14.7383 12.8 15.41 12 15.41C11.2 15.41 10.4 14.7383 9.6 14.7383C8.8 14.7383 8 15.41 7.2 15.41C6.4 15.41 5.6 14.7383 4.8 14.7383C4 14.7383 3.2 15.41 2.4 15.41C1.6 15.41 0.8 14.7383 0 14.7383V15.8233ZM0 13.6017C0.8 13.6017 1.6 14.2733 2.4 14.2733C3.2 14.2733 4 13.6017 4.8 13.6017C5.6 13.6017 6.4 14.2733 7.2 14.2733C8 14.2733 8.8 13.6017 9.6 13.6017C10.4 13.6017 11.2 14.2733 12 14.2733C12.8 14.2733 13.6 13.6017 14.4 13.6017C15.2 13.6017 16 14.2733 16.8 14.2733C17.6 14.2733 18.4 13.6017 19.2 13.6017C20 13.6017 20.8 14.2733 21.6 14.2733C22.4 14.2733 23.2 13.6017 24 13.6017V12.5167C23.2 12.5167 22.4 13.1883 21.6 13.1883C20.8 13.1883 20 12.5167 19.2 12.5167C18.4 12.5167 17.6 13.1883 16.8 13.1883C16 13.1883 15.2 12.5167 14.4 12.5167C13.6 12.5167 12.8 13.1883 12 13.1883C11.2 13.1883 10.4 12.5167 9.6 12.5167C8.8 12.5167 8 13.1883 7.2 13.1883C6.4 13.1883 5.6 12.5167 4.8 12.5167C4 12.5167 3.2 13.1883 2.4 13.1883C1.6 13.1883 0.8 12.5167 0 12.5167V13.6017Z" fill="white"/>
<path fill-rule="evenodd" clip-rule="evenodd" d="M9.77066 6.74549L9.71199 6.47165L10.9067 6.28049C10.9067 6.28049 9.30133 5.91365 8.77333 5.72765C8.01066 5.46415 7.90399 5.10249 7.90399 5.10249C7.90399 5.10249 10.288 5.67082 11.36 5.67082C11.5893 5.67082 12.0427 6.22365 12.0427 6.22365C12.0427 6.22365 12.832 5.45382 13.2107 5.42799C14.9227 5.30915 16.7627 5.09732 16.7627 5.09732C16.7627 5.09732 16.2293 5.44349 15.9093 5.53649C15.0453 5.78965 13.2107 6.14099 13.2107 6.14099L12.9547 6.52849H14.7733L14.0053 6.75065L14.4 7.10715C14.4 7.10715 13.984 6.89532 13.4347 6.99865C13.056 7.06582 12.6133 7.30865 12.2133 7.41199C11.216 7.65999 10.6187 6.75065 10.6187 6.75065L9.77066 6.74549V6.74549Z" fill="#FCD116"/>
</svg>
