<svg width="24" height="24" viewBox="0 0 24 24" fill="none" xmlns="http://www.w3.org/2000/svg">
<path d="M0 4.2498H24V19.75H0V4.2498Z" fill="white"/>
<path d="M13.5 4.24958H10.5V10.5464H0V13.4527H10.5V19.7495H13.5V13.4527H24V10.5464H13.5V4.24958Z" fill="#D80027"/>
<path d="M18.4587 14.6953L24 17.6776V14.6953H18.4587ZM14.6087 14.6953L24 19.7496V18.3204L17.2644 14.6953H14.6087ZM21.4985 19.7496L14.6087 16.0412V19.7496H21.4985Z" fill="#0052B4"/>
<path d="M14.6087 14.6953L24 19.7496V18.3204L17.2644 14.6953H14.6087Z" fill="white"/>
<path d="M14.6087 14.6953L24 19.7496V18.3204L17.2644 14.6953H14.6087Z" fill="#D80027"/>
<path d="M4.23473 14.6952L0 16.9743V14.6952H4.23473ZM9.39131 15.3379V19.7496H1.19489L9.39131 15.3379Z" fill="#0052B4"/>
<path d="M6.73561 14.6953L0 18.3204V19.7496L9.39131 14.6953H6.73561Z" fill="#D80027"/>
<path d="M5.54133 9.30392L0 6.32156V9.30392H5.54133ZM9.39131 9.30392L0 4.24958V5.67882L6.73561 9.30392H9.39131ZM2.50153 4.24958L9.39131 7.95796V4.24958H2.50153Z" fill="#0052B4"/>
<path d="M9.39131 9.30392L0 4.24958V5.67882L6.73561 9.30392H9.39131Z" fill="white"/>
<path d="M9.39131 9.30392L0 4.24958V5.67882L6.73561 9.30392H9.39131Z" fill="#D80027"/>
<path d="M19.7653 9.30409L24 7.02495V9.30409H19.7653ZM14.6087 8.66136V4.24971H22.8051L14.6087 8.66136Z" fill="#0052B4"/>
<path d="M17.2644 9.304L24 5.6789V4.24966L14.6087 9.304H17.2644Z" fill="#D80027"/>
</svg>
