<svg width="24" height="24" viewBox="0 0 24 24" fill="none" xmlns="http://www.w3.org/2000/svg">
<path d="M0 4.25016H24V19.7498H0V4.25016Z" fill="white"/>
<path d="M0 9.30439H24V14.6953H0V9.30439Z" fill="#0052B4"/>
<path d="M0 14.6954H24V19.7497H0V14.6954Z" fill="#D80027"/>
<path d="M6.06879 8.63041V12.4965C6.06879 14.6956 9.03443 15.3694 9.03443 15.3694C9.03443 15.3694 12 14.6955 12 12.4965V8.63041H6.06879Z" fill="white"/>
<path d="M6.84967 8.74371V12.4647C6.84967 12.7131 6.90662 12.9478 7.0195 13.1678H11.0493C11.1622 12.9479 11.2192 12.7132 11.2192 12.4647V8.74371H6.84967V8.74371Z" fill="#D80027"/>
<path d="M10.3735 11.3381H9.36917V10.6895H10.0387V10.0409H9.36917V9.3923H8.69966V10.0409H8.03019V10.6895H8.69966V11.3381H7.69531V11.9868H8.69966V12.6354H9.36917V11.9868H10.3735V11.3381Z" fill="white"/>
<path d="M7.93278 14.0732C8.36422 14.3358 8.80747 14.4884 9.03443 14.5562C9.2614 14.4884 9.70465 14.3359 10.1361 14.0732C10.5712 13.8084 10.8762 13.5053 11.0494 13.1678C10.8519 13.0321 10.6157 12.9594 10.3736 12.9597C10.2819 12.9597 10.1928 12.9702 10.1072 12.9895C9.92576 12.5901 9.51387 12.3111 9.03453 12.3111C8.55514 12.3111 8.14329 12.5901 7.96184 12.9895C7.87453 12.9697 7.78516 12.9597 7.6955 12.9597C7.45338 12.9594 7.21717 13.0321 7.01965 13.1678C7.19267 13.5053 7.49768 13.8084 7.93278 14.0732V14.0732Z" fill="#0052B4"/>
</svg>
