<svg width="24" height="24" viewBox="0 0 24 24" fill="none" xmlns="http://www.w3.org/2000/svg">
<path d="M0 4.24991H24V19.7501H0V4.24991Z" fill="white"/>
<path d="M0 4.24991H24V8.36312H0V4.24991Z" fill="black"/>
<path d="M0 15.637H24V19.7497H0V15.637Z" fill="#496E2D"/>
<path d="M0 9.39389H24V14.6069H0V9.39389Z" fill="#A2001D"/>
<path d="M15.153 6.72366L13.9538 6.18741L12 10.4733L10.0462 6.18741L8.84695 6.72366L11.2727 11.9999L8.84695 17.2762L10.0462 17.8124L12 13.5266L13.9538 17.8124L15.153 17.2762L12.7273 11.9999L15.153 6.72366Z" fill="white"/>
<path d="M12.8145 7.22898C12.3502 6.73782 12 6.45551 12 6.45551C12 6.45551 11.6497 6.73778 11.1855 7.22893V16.7708C11.6497 17.262 12 17.5444 12 17.5444C12 17.5444 12.3502 17.2621 12.8145 16.7709V7.22898Z" fill="white"/>
<path d="M9.79874 9.05878V14.941C10.2893 15.783 10.8897 16.4732 11.3396 16.9308V7.069C10.8897 7.52655 10.2892 8.21674 9.79874 9.05878V9.05878ZM14.2012 9.05878C13.7107 8.21674 13.1103 7.52655 12.6604 7.069V16.9308C13.1103 16.4732 13.7107 15.783 14.2012 14.941V9.05878Z" fill="#A2001D"/>
<path d="M14.2012 9.05878V14.941C14.6978 14.0885 15.0817 13.0804 15.0817 11.9999C15.0817 10.9194 14.6978 9.91135 14.2012 9.05878V9.05878ZM9.79874 9.05878V14.941C9.30215 14.0885 8.91824 13.0804 8.91824 11.9999C8.91824 10.9194 9.30215 9.91135 9.79874 9.05878V9.05878Z" fill="black"/>
</svg>
