<svg width="24" height="24" viewBox="0 0 24 24" fill="none" xmlns="http://www.w3.org/2000/svg">
<path d="M0 4.25H24V19.75H0V4.25Z" fill="white"/>
<path d="M0 4.25H24V5.35585H0V4.25ZM0 6.46623H24V7.57208H0V6.46623ZM0 8.67792H24V9.78377H0V8.67792ZM0 10.8942H24V12H0V10.8942ZM0 13.1058H24V14.2117H0V13.1058ZM0 15.3221H24V16.4279H0V15.3221ZM0 17.5338H24V18.6396H0V17.5338Z" fill="#CC0000"/>
<path d="M0 4.25H12V13.1058H0V4.25Z" fill="#000066"/>
<path d="M7.17194 6.15804C5.73568 5.64137 4.14036 6.34839 3.60703 7.73977C3.0737 9.13114 3.80352 10.6766 5.23978 11.1933C5.862 11.4199 6.54972 11.4199 7.17662 11.1933C5.74036 12.3037 3.64913 12.0816 2.49826 10.6902C1.34738 9.29883 1.5813 7.27295 3.01756 6.15804C4.23393 5.21988 5.96025 5.21988 7.17194 6.15804V6.15804ZM8.42107 9.55716L7.45732 10.6132L7.70995 9.22632L6.25966 9.1538L7.53685 8.47851L6.69007 7.33187L8.02808 7.87573L8.42107 6.52061L8.81405 7.87573L10.1521 7.33187L9.30995 8.48304L10.5871 9.15833L9.13685 9.23085L9.38949 10.6177L8.42107 9.55716V9.55716Z" fill="#FFCC00"/>
</svg>
