<svg width="24" height="24" viewBox="0 0 24 24" fill="none" xmlns="http://www.w3.org/2000/svg">
<path d="M0 4.24991H24V19.7501H0V4.24991Z" fill="#496E2D"/>
<path d="M23.0001 9.25177H20.7501C20.7501 8.85053 20.4142 8.52521 20.0001 8.52521C19.5859 8.52521 19.2501 8.85053 19.2501 9.25177H17.0001C17.0001 9.65302 17.3609 9.97833 17.775 9.97833H17.7501C17.7501 10.3796 18.0858 10.7049 18.5001 10.7049C18.5001 11.1061 18.8358 11.4315 19.2501 11.4315H20.7501C21.1642 11.4315 21.5001 11.1061 21.5001 10.7049C21.9142 10.7049 22.2501 10.3796 22.2501 9.97833H22.2251C22.6393 9.97833 23.0001 9.65302 23.0001 9.25177Z" fill="#FF9811"/>
<path d="M16.0002 11.9999H18.6668V19.7497H16.0002V11.9999Z" fill="#D80027"/>
<path d="M21.3334 11.9999H24V19.7497H21.3334V11.9999Z" fill="#FF9811"/>
<path d="M18.6668 11.9999H21.3334V19.7497H18.6668V11.9999Z" fill="black"/>
</svg>
