<svg width="24" height="24" viewBox="0 0 24 24" fill="none" xmlns="http://www.w3.org/2000/svg">
<path d="M0 4.25H24V19.75H0V4.25Z" fill="white"/>
<path d="M20.16 14.48C19.8667 14.6608 20.16 14.945 20 14.9708C19.84 14.9966 19.6 14.6091 19.9467 14.325C20.3733 13.9375 21.4933 14.325 21.52 15.4358C21.52 16.0041 21.28 17.1925 19.6 17.1925C17.5733 17.1925 16.56 15.72 16.56 14.2475C16.56 13.0075 17.5467 10.76 18.2933 10.4758C19.12 10.1658 20.08 9.57163 20.1067 9.18413C20.1067 9.05496 19.7333 9.15829 19.2267 9.41663C18.4 9.85579 17.4667 10.0625 17.4667 9.77829C17.4667 9.49413 18.24 8.97746 18.5333 8.58996C18.8533 8.17663 18.7733 7.16913 19.3333 7.16913C21.36 7.16913 21.9733 9.1583 21.2 10.1916C20.6933 10.8633 22.3467 10.45 22.3467 10.45C22.3467 10.45 22.3467 11.8191 21.4933 12.3358C20.6933 12.8008 20.2133 13.3433 20.2133 13.3433C20.2133 13.3433 20.2667 12.155 20.08 12.3358C19.92 12.5166 17.12 13.4983 17.3333 15.4358C17.4133 16.2108 18.5333 16.8308 19.6 16.7791C20.6667 16.7275 21.12 16.1591 21.1467 15.5133C21.1733 14.5058 20.3467 14.3766 20.16 14.48V14.48ZM2.85332 15.5133C2.87999 16.1591 3.33332 16.7275 4.39999 16.7791C5.46665 16.8308 6.58665 16.2108 6.66665 15.4358C6.87999 13.4983 4.07999 12.5166 3.91999 12.3358C3.73332 12.155 3.78665 13.3433 3.78665 13.3433C3.78665 13.3433 3.30665 12.8008 2.50665 12.3358C1.65332 11.8191 1.65332 10.45 1.65332 10.45C1.65332 10.45 3.30665 10.8633 2.79999 10.1916C2.02665 9.1583 2.63999 7.16913 4.66665 7.16913C5.22665 7.16913 5.14665 8.17663 5.46665 8.58996C5.75999 8.97746 6.53332 9.49413 6.53332 9.77829C6.53332 10.0625 5.59999 9.85579 4.77332 9.41663C4.26665 9.15829 3.89332 9.05496 3.89332 9.18413C3.91999 9.57163 4.87999 10.1658 5.70665 10.4758C6.45332 10.76 7.43999 13.0075 7.43999 14.2475C7.43999 15.72 6.42665 17.1925 4.39999 17.1925C2.71999 17.1925 2.47999 16.0041 2.47999 15.4358C2.50665 14.325 3.62665 13.9375 4.05332 14.325C4.37332 14.6091 4.15999 15.0225 3.99999 14.9708C3.83999 14.945 4.15999 14.6608 3.83999 14.48C3.67999 14.3766 2.85332 14.5058 2.85332 15.5133V15.5133Z" fill="#ABABAB"/>
<path fill-rule="evenodd" clip-rule="evenodd" d="M2.68858 8.29533C2.37938 8.92018 2.41947 9.67355 2.80471 10.1883C2.86828 10.2726 2.89863 10.3406 2.90201 10.3952C2.90543 10.4504 2.88127 10.4912 2.83787 10.52C2.79485 10.5486 2.73302 10.5655 2.66053 10.5742C2.58792 10.5828 2.504 10.5832 2.41631 10.5783C2.24092 10.5686 2.04978 10.5379 1.90259 10.5096C1.82897 10.4955 1.7663 10.4819 1.72203 10.4719C1.6999 10.4669 1.68236 10.4628 1.67035 10.4599C1.66585 10.4589 1.66212 10.458 1.65922 10.4573C1.65925 10.4595 1.6593 10.4622 1.65936 10.4654C1.65957 10.4755 1.65999 10.4904 1.66082 10.5096C1.66248 10.5479 1.66581 10.6033 1.67246 10.6714C1.68578 10.8077 1.7124 10.9947 1.76564 11.1977C1.87218 11.6041 2.08499 12.0738 2.50969 12.331C2.91008 12.5637 3.23037 12.8158 3.45058 13.0097C3.56069 13.1067 3.64578 13.1891 3.70336 13.2473C3.73216 13.2765 3.75407 13.2995 3.76879 13.3153C3.77323 13.32 3.77702 13.3241 3.78014 13.3275C3.7798 13.319 3.77936 13.3073 3.77887 13.2928C3.77778 13.2606 3.77642 13.2149 3.77538 13.1606C3.77329 13.0519 3.77246 12.9089 3.77746 12.7715C3.78247 12.6343 3.79331 12.5022 3.81471 12.4156C3.82006 12.3939 3.82612 12.375 3.83298 12.3594C3.8398 12.3439 3.84759 12.3314 3.85661 12.3231C3.86578 12.3146 3.87646 12.3102 3.88846 12.3117C3.90015 12.3132 3.91201 12.3201 3.92411 12.3318L3.92443 12.3321C3.93377 12.3427 3.95333 12.3567 3.98262 12.3743C4.01171 12.3918 4.04976 12.4125 4.09547 12.4365C4.1359 12.4577 4.18224 12.4814 4.23357 12.5076C4.24026 12.511 4.24703 12.5145 4.25388 12.518C4.31333 12.5484 4.37898 12.5821 4.44943 12.619C4.7312 12.7668 5.08983 12.9672 5.43685 13.2225C6.13062 13.7331 6.77946 14.4646 6.67246 15.4364M1.65331 10.45L1.65477 10.4445L1.64746 10.4427L1.64746 10.45H1.65331ZM4.77054 9.42162C5.18426 9.64141 5.62477 9.80308 5.96206 9.87425C6.13062 9.90982 6.27393 9.9229 6.37538 9.90904C6.42609 9.90211 6.46693 9.88837 6.49521 9.86681C6.52374 9.84506 6.53916 9.81557 6.53916 9.7783C6.53916 9.74158 6.52668 9.70153 6.50474 9.65901C6.48278 9.61646 6.45116 9.57112 6.41248 9.52372C6.33513 9.42893 6.22904 9.32537 6.11402 9.21879C6.06558 9.17391 6.01557 9.1285 5.96543 9.08297C5.77707 8.91193 5.58687 8.73921 5.47136 8.58662L5.47132 8.58657C5.39198 8.48409 5.33722 8.34445 5.291 8.19199C5.26791 8.11581 5.247 8.0366 5.22622 7.95737L5.22338 7.94654C5.20356 7.87096 5.18377 7.79551 5.16226 7.72299C5.11724 7.57113 5.06451 7.43144 4.98761 7.32967C4.91049 7.2276 4.80887 7.16347 4.66664 7.16347C3.65104 7.16347 2.989 7.66203 2.67804 8.29043C2.36724 8.9185 2.40714 9.67638 2.79524 10.195C2.85833 10.2786 2.88715 10.3445 2.89034 10.3959C2.89348 10.4467 2.8716 10.4838 2.83125 10.5107C2.79052 10.5378 2.73089 10.5544 2.65911 10.5629C2.58745 10.5714 2.50428 10.5719 2.41698 10.567C2.24237 10.5574 2.05184 10.5267 1.90486 10.4985C1.8314 10.4844 1.76886 10.4709 1.72469 10.4609C1.70261 10.4559 1.68512 10.4518 1.67315 10.4489C1.66717 10.4475 1.66257 10.4464 1.65947 10.4456L1.65595 10.4448L1.65506 10.4446L1.65484 10.4445L1.65477 10.4445C1.65476 10.4445 1.65477 10.4445 1.65331 10.45M5.46194 8.59334C5.38129 8.48915 5.32606 8.34787 5.27978 8.19518C5.25662 8.11878 5.23566 8.03936 5.21488 7.96016L5.21205 7.94937C5.19222 7.87375 5.17247 7.79846 5.15102 7.72611C5.10605 7.57443 5.05377 7.43641 4.97817 7.33636C4.90279 7.2366 4.80442 7.1748 4.66664 7.1748C3.65558 7.1748 2.99762 7.67082 2.68858 8.29533M18.538 8.59332C18.6187 8.48913 18.6739 8.34786 18.7202 8.19518ZM19.2294 9.42162C18.8157 9.6414 18.3752 9.80308 18.0379 9.87425C17.8693 9.90982 17.726 9.9229 17.6246 9.90904C17.5739 9.90211 17.533 9.88837 17.5047 9.86681C17.4762 9.84506 17.4608 9.81557 17.4608 9.7783C17.4608 9.74158 17.4733 9.70153 17.4952 9.65901C17.5172 9.61646 17.5488 9.57112 17.5875 9.52372C17.6648 9.42893 17.7709 9.32537 17.8859 9.21879C17.9344 9.17391 17.9844 9.1285 18.0345 9.08297C18.2229 8.91193 18.4131 8.73921 18.5286 8.58662L18.5286 8.58657C18.608 8.48409 18.6627 8.34445 18.7089 8.19199C18.732 8.11581 18.753 8.0366 18.7737 7.95737L18.7766 7.94657C18.7964 7.87098 18.8162 7.79552 18.8377 7.72299C18.8827 7.57113 18.9354 7.43144 19.0123 7.32967C19.0895 7.2276 19.1911 7.16347 19.3333 7.16347C20.3489 7.16347 21.011 7.66203 21.3219 8.29043C21.6327 8.9185 21.5928 9.67638 21.2047 10.195C21.1416 10.2786 21.1128 10.3445 21.1096 10.3959C21.1065 10.4467 21.1284 10.4838 21.1687 10.5107C21.2094 10.5378 21.2691 10.5544 21.3408 10.5629C21.4125 10.5714 21.4957 10.5719 21.583 10.567C21.7576 10.5574 21.9481 10.5267 22.0951 10.4985C22.1686 10.4844 22.2311 10.4709 22.2753 10.4609C22.2973 10.4559 22.3148 10.4518 22.3268 10.4489C22.3328 10.4475 22.3374 10.4464 22.3405 10.4456L22.344 10.4448L22.3452 10.4445C22.3452 10.4445 22.3452 10.4445 22.3466 10.45C22.3525 10.45 22.3525 10.45 22.3525 10.45V10.45L22.3525 10.4502L22.3525 10.451L22.3525 10.454C22.3524 10.4566 22.3524 10.4605 22.3523 10.4656C22.3521 10.4758 22.3517 10.4908 22.3508 10.51C22.3492 10.5486 22.3458 10.6042 22.3391 10.6725C22.3258 10.8091 22.2991 10.9967 22.2456 11.2005C22.1389 11.6079 21.925 12.0811 21.4964 12.3406L21.4963 12.3407C21.0967 12.5729 20.777 12.8246 20.5572 13.0181C20.4474 13.1149 20.3625 13.1971 20.305 13.2552C20.2763 13.2842 20.2545 13.3072 20.2398 13.3229C20.2325 13.3307 20.227 13.3368 20.2233 13.3408C20.2214 13.3429 20.2201 13.3444 20.2191 13.3454L20.2181 13.3466L20.2178 13.3469L20.2178 13.347C20.2178 13.347 20.2178 13.347 20.2133 13.3433C20.2075 13.3431 20.2075 13.343 20.2075 13.343L20.2075 13.3422L20.2076 13.3397C20.2077 13.3374 20.2078 13.3341 20.208 13.3298C20.2084 13.3211 20.2088 13.3085 20.2094 13.2924C20.2105 13.2603 20.2118 13.2146 20.2129 13.1603C20.215 13.0518 20.2158 12.909 20.2108 12.7719C20.2058 12.6347 20.195 12.5036 20.1739 12.4183C20.1686 12.3969 20.1627 12.3786 20.1562 12.3639C20.1497 12.349 20.1426 12.3381 20.1353 12.3313C20.128 12.3246 20.1207 12.322 20.113 12.3229C20.105 12.3239 20.0954 12.3289 20.0843 12.3397C20.0736 12.3517 20.0526 12.3665 20.0235 12.3839C19.9941 12.4016 19.9558 12.4225 19.9101 12.4464C19.8695 12.4677 19.8231 12.4914 19.7718 12.5177L19.7515 12.528C19.6921 12.5584 19.6265 12.5921 19.5561 12.629C19.2745 12.7767 18.9165 12.9767 18.5702 13.2316C17.8773 13.7414 17.2328 14.4695 17.3391 15.4352C17.3789 15.8202 17.6771 16.1677 18.0996 16.4126C18.522 16.6575 19.0675 16.7993 19.5997 16.7735C20.132 16.7477 20.5105 16.593 20.7593 16.3649C21.008 16.1368 21.1275 15.8348 21.1408 15.5131C21.1541 15.0111 20.9549 14.7289 20.7301 14.5848C20.6175 14.5126 20.4984 14.475 20.3959 14.4618C20.2931 14.4485 20.2081 14.4599 20.163 14.4848M20.2133 13.3433L20.2075 13.343L20.2067 13.3594L20.2178 13.347L20.2133 13.3433ZM20.2198 13.3275C20.22 13.3273 20.2202 13.3271 20.2205 13.3268C20.2235 13.3236 20.227 13.3197 20.2312 13.3153C20.2459 13.2995 20.2678 13.2765 20.2966 13.2473C20.3542 13.1891 20.4393 13.1067 20.5494 13.0097C20.7696 12.8158 21.0899 12.5637 21.4903 12.331C21.915 12.0738 22.1278 11.6041 22.2343 11.1977C22.2876 10.9947 22.3142 10.8077 22.3275 10.6714C22.3341 10.6033 22.3375 10.5479 22.3391 10.5096C22.34 10.4904 22.3404 10.4755 22.3406 10.4654C22.3407 10.4622 22.3407 10.4595 22.3407 10.4573L22.3392 10.4576C22.3366 10.4583 22.3334 10.459 22.3296 10.4599C22.3176 10.4628 22.3001 10.4669 22.2779 10.4719C22.2337 10.4819 22.171 10.4955 22.0974 10.5096C21.9502 10.5379 21.759 10.5686 21.5836 10.5783C21.496 10.5832 21.412 10.5828 21.3394 10.5742C21.2669 10.5655 21.2051 10.5486 21.1621 10.52C21.1187 10.4912 21.0945 10.4504 21.0979 10.3952C21.1013 10.3406 21.1317 10.2726 21.1953 10.1883C21.5805 9.67354 21.6206 8.92018 21.3114 8.29533C21.0023 7.67082 20.3444 7.1748 19.3333 7.1748C19.1955 7.1748 19.0972 7.2366 19.0218 7.33636C18.9462 7.43641 18.8939 7.57443 18.8489 7.72611C18.8275 7.79844 18.8077 7.87372 18.7879 7.94932L18.7851 7.96016C18.7643 8.03936 18.7433 8.11878 18.7202 8.19518M20.2198 13.3275C20.22 13.3233 20.2202 13.3184 20.2204 13.3127C20.2206 13.3068 20.2208 13.3001 20.2211 13.2928C20.2222 13.2606 20.2235 13.2149 20.2246 13.1606C20.2267 13.0519 20.2275 12.9089 20.2225 12.7715C20.2175 12.6343 20.2066 12.5022 20.1852 12.4156C20.1799 12.3939 20.1738 12.375 20.167 12.3594C20.1601 12.3439 20.1524 12.3314 20.1433 12.3231C20.1342 12.3146 20.1235 12.3102 20.1115 12.3117C20.0998 12.3132 20.0879 12.3201 20.0758 12.3318L20.0755 12.3321C20.0662 12.3427 20.0466 12.3567 20.0173 12.3743C19.9882 12.3918 19.9502 12.4125 19.9045 12.4365C19.864 12.4577 19.8177 12.4814 19.7663 12.5077L19.7461 12.518C19.6866 12.5484 19.621 12.5821 19.5505 12.619C19.2688 12.7668 18.9101 12.9672 18.5631 13.2225C17.8693 13.7331 17.2205 14.4646 17.3275 15.4364C17.3678 15.8264 17.6695 16.1764 18.0936 16.4223C18.5179 16.6683 19.0657 16.8107 19.6003 16.7848C20.1346 16.7589 20.5161 16.6036 20.7673 16.3731C21.0186 16.1427 21.1391 15.8377 21.1525 15.5135L21.1525 15.5134C21.1659 15.008 20.9651 14.7219 20.7365 14.5753C20.6224 14.5022 20.5016 14.464 20.3974 14.4505C20.2936 14.4371 20.2054 14.4483 20.1571 14.475M22.3466 10.45L22.3525 10.45V10.4427L22.3452 10.4445L22.3466 10.45Z" fill="#7F7F7F"/>
<path d="M8.26666 11.69V15.3067C8.26666 15.7975 8.82666 15.72 8.82666 15.72H11.3067C11.6267 15.72 12 16.3142 12 16.3142C12 16.3142 12.3733 15.72 12.6667 15.72H15.2267C15.2267 15.72 15.76 15.7717 15.76 15.255V11.6642H8.26666V11.69Z" fill="#DE393A"/>
<path d="M8.26666 7.63419H15.7333V11.69H8.26666V7.63419Z" fill="#3951A3"/>
<path d="M13.36 8.5125C13.2533 9.1325 12.6933 9.5975 12 9.5975C11.3333 9.5975 10.7733 9.1325 10.64 8.5125C10.5066 8.745 10.4266 9.00333 10.4266 9.2875C10.4266 10.14 11.12 10.8117 12 10.8117C12.88 10.8117 13.5733 10.14 13.5733 9.2875C13.5733 9.00333 13.4933 8.745 13.36 8.5125Z" fill="white"/>
<path d="M10.4266 14.4542C10.8685 14.4542 11.2266 14.1072 11.2266 13.6792C11.2266 13.2511 10.8685 12.9042 10.4266 12.9042C9.98482 12.9042 9.62665 13.2511 9.62665 13.6792C9.62665 14.1072 9.98482 14.4542 10.4266 14.4542Z" fill="#FEE05F"/>
<path d="M13.5733 14.4542C14.0151 14.4542 14.3733 14.1072 14.3733 13.6792C14.3733 13.2511 14.0151 12.9042 13.5733 12.9042C13.1315 12.9042 12.7733 13.2511 12.7733 13.6792C12.7733 14.1072 13.1315 14.4542 13.5733 14.4542Z" fill="#FEE05F"/>
</svg>
