<svg width="24" height="24" viewBox="0 0 24 24" fill="none" xmlns="http://www.w3.org/2000/svg">
<path d="M0 4.25H24V19.75H0V4.25Z" fill="white"/>
<path d="M0 4.25H24V9.41667H0V4.25ZM0 14.5833H24V19.75H0V14.5833Z" fill="#338AF3"/>
<path d="M12.0234 13.8129C13.059 13.8129 13.8984 13.0012 13.8984 12C13.8984 10.9988 13.059 10.1871 12.0234 10.1871C10.9879 10.1871 10.1484 10.9988 10.1484 12C10.1484 13.0012 10.9879 13.8129 12.0234 13.8129Z" fill="#FFDA44"/>
<path fill-rule="evenodd" clip-rule="evenodd" d="M12.0234 10.3004C11.0526 10.3004 10.2656 11.0613 10.2656 12C10.2656 12.9386 11.0526 13.6995 12.0234 13.6995C12.9943 13.6995 13.7812 12.9386 13.7812 12C13.7812 11.0613 12.9943 10.3004 12.0234 10.3004ZM10.0312 12C10.0312 10.9362 10.9232 10.0738 12.0234 10.0738C13.1237 10.0738 14.0156 10.9362 14.0156 12C14.0156 13.0638 13.1237 13.9261 12.0234 13.9261C10.9232 13.9261 10.0312 13.0638 10.0312 12Z" fill="#D6AB00"/>
</svg>
