<svg width="24" height="24" viewBox="0 0 24 24" fill="none" xmlns="http://www.w3.org/2000/svg">
<path d="M0 4.25H24V19.75H0V4.25Z" fill="#EF3340"/>
<path d="M0 4.25H24V9.41667H0V4.25Z" fill="#00B5E2"/>
<path d="M0 14.5833H24V19.75H0V14.5833Z" fill="#509E2F"/>
<path d="M12.4257 13.8854C11.3497 13.8854 10.4795 13.0424 10.4795 12C10.4795 10.9576 11.3497 10.1147 12.4257 10.1147C12.7626 10.1147 13.076 10.1962 13.3521 10.3413C12.9216 9.93337 12.3275 9.67957 11.6772 9.67957C10.3532 9.67957 9.28188 10.7174 9.28188 12C9.28188 13.2826 10.3532 14.3205 11.6772 14.3205C12.3275 14.3205 12.9216 14.0667 13.3521 13.6588C13.076 13.8038 12.7626 13.8854 12.4257 13.8854Z" fill="white"/>
<path d="M13.9228 10.6948L14.1801 11.3972L14.8772 11.0755L14.545 11.7508L15.2702 12L14.545 12.2493L14.8772 12.9246L14.1801 12.6028L13.9228 13.3053L13.6655 12.6028L12.9684 12.9246L13.3006 12.2493L12.5754 12L13.3006 11.7508L12.9684 11.0755L13.6655 11.3972L13.9228 10.6948Z" fill="white"/>
</svg>
