<svg width="24" height="24" viewBox="0 0 24 24" fill="none" xmlns="http://www.w3.org/2000/svg">
<path d="M0 4.24991H24V19.7501H0V4.24991Z" fill="#91DC5A"/>
<path d="M0 4.24991H24V19.7501H0V4.24991Z" fill="white"/>
<path d="M0 4.24991H24V6.84683H0V4.24991ZM0 17.1532H24V19.7496H0V17.1532Z" fill="#0052B4"/>
<path d="M0 7.87762H24V16.1233H0V7.87762Z" fill="#D80027"/>
<path d="M8.92172 14.9819C10.6218 14.9819 11.9999 13.6468 11.9999 11.9999C11.9999 10.353 10.6218 9.01791 8.92172 9.01791C7.22169 9.01791 5.84354 10.353 5.84354 11.9999C5.84354 13.6468 7.22169 14.9819 8.92172 14.9819Z" fill="white"/>
<path d="M8.92181 9.01819L9.61247 11.0774H11.8511L10.0394 12.3501L10.7354 14.4154L8.92181 13.1367L7.11098 14.413L7.80427 12.3501L5.99414 11.0774H8.23111L8.92181 9.01819Z" fill="#D80027"/>
</svg>
