<svg width="24" height="24" viewBox="0 0 24 24" fill="none" xmlns="http://www.w3.org/2000/svg">
<path d="M0 4.24983H24V19.75H0V4.24983Z" fill="black"/>
<path d="M0 6.4687H24V8.68781H0V6.4687ZM0 15.3451H24V17.5642H0V15.3451Z" fill="#FFDA44"/>
<path d="M0 4.24983H24V6.46894H0V4.24983Z" fill="#057F44"/>
<path d="M0 8.68805H24V10.9072H0V8.68805ZM0 13.1263H24V15.3454H0V13.1263Z" fill="#D80027"/>
<path d="M0 17.5645H24V19.75H0V17.5645Z" fill="#057F44"/>
<path d="M12.984 11.9997L4.98417 19.7495H0V4.24983H4.98417L12.984 11.9997Z" fill="white"/>
<path d="M12 11.9997L4.00006 19.7496H4.98383L12.9838 11.9997L4.98383 4.24968H4.00006L12 11.9997Z" fill="black"/>
<path d="M4.80305 9.57359L5.42457 11.4269H7.4363L5.80889 12.5724L6.43046 14.4258L4.80305 13.2803L3.17555 14.4258L3.79721 12.5724L2.1698 11.4269H4.18144L4.80305 9.57359Z" fill="#D80027"/>
<path d="M6.51279 12.1513L4.89284 11.5953C4.89284 11.5953 4.77317 10.5075 4.7659 10.4707C4.71092 10.1901 4.45639 9.97797 4.15076 9.97797C3.80501 9.97797 3.52465 10.2495 3.52465 10.5845C3.52465 10.64 3.533 10.6936 3.54743 10.7447L3.09326 11.1877H3.90087C3.90087 11.9997 3.27537 11.9997 3.27537 12.8084L3.62234 13.6171H5.70931L6.05721 12.8084H6.05703C6.09099 12.7329 6.11282 12.6528 6.12176 12.5709C6.42162 12.4533 6.51279 12.1513 6.51279 12.1513V12.1513Z" fill="#FFDA44"/>
</svg>
