<svg width="24" height="24" viewBox="0 0 24 24" fill="none" xmlns="http://www.w3.org/2000/svg">
<path d="M16.6957 4.25H7.30435V19.75H16.6957V4.25Z" fill="white"/>
<path d="M7.30435 4.25H0V19.75H7.30435V4.25Z" fill="#007E34"/>
<path d="M24 4.25H16.6956V19.75H24V4.25Z" fill="#007E34"/>
<path d="M11.3913 9.46469C11.3913 9.46469 11.5652 9.57993 11.942 9.72398V9.60874V9.55112C11.5942 9.46469 11.3913 9.46469 11.3913 9.46469Z" fill="white"/>
<path d="M11.8841 9.37825V9.26301C11.8551 9.20539 11.7681 9.14777 11.2754 9.11896C11.1015 9.11896 10.8986 9.11896 10.8696 9.11896C10.8696 9.11896 10.9565 9.14777 11.0145 9.17658C11.6522 9.37825 11.8261 9.43587 11.8551 9.37825H11.8841Z" fill="white"/>
<path d="M10.8986 11.5678C10.8986 11.5678 10.8986 11.6255 10.9275 11.6543C11.0145 11.7407 11.1304 11.7695 11.1594 11.7695C11.2754 11.7695 11.4783 11.8271 11.8551 12.0288C11.8551 12 11.8551 11.9712 11.8551 11.9424C11.8551 11.9424 11.8551 11.9136 11.8551 11.8848C11.0725 11.5967 10.8986 11.5678 10.8696 11.5967L10.8986 11.5678Z" fill="white"/>
<path d="M10.8696 10.4442C10.8696 10.4442 10.9275 10.5307 10.9565 10.5307C11.1015 10.6459 11.6232 10.79 11.913 10.8764C11.913 10.8764 11.913 10.8764 11.913 10.8476C11.913 10.8188 11.913 10.7612 11.913 10.7323C11.6232 10.6171 11.1884 10.4731 10.9855 10.4442C10.9565 10.4442 10.8696 10.4442 10.8696 10.4442Z" fill="white"/>
<path d="M10.6087 10.6747V10.7323C10.6087 10.79 10.7826 10.8188 10.8116 10.8476C10.9565 10.8764 11.2754 10.9916 11.8841 11.2221C11.8841 11.1645 11.8841 11.1357 11.8841 11.0781C10.8406 10.6459 10.6377 10.6459 10.6087 10.6747Z" fill="white"/>
<path d="M10.5217 12.0576C10.5217 12.0576 11.2174 12.3457 11.8551 12.5186V12.3745C11.6232 12.2881 11.0725 12.0864 10.6377 12.0576C10.5507 12.0576 10.5217 12.0576 10.5217 12.0576Z" fill="white"/>
<path d="M10.1449 15.5437C10.1449 15.5437 10.1159 15.5437 10.087 15.5437C10.087 15.5437 10.087 15.5437 10.058 15.5437C10.029 15.5437 10 15.5437 10 15.6013C10 15.6013 10 15.6013 10.029 15.6301C10.087 15.6589 10.1159 15.6877 10.1739 15.7165C10.2029 15.7165 10.2319 15.7454 10.2899 15.7742C10.2899 15.7742 10.3188 15.7742 10.3478 15.7742C10.3478 15.7742 10.4058 15.7454 10.4058 15.7165C10.4058 15.7165 10.4058 15.6877 10.4058 15.6589C10.3478 15.6013 10.2609 15.5725 10.2029 15.5437H10.1449Z" fill="white"/>
<path d="M11.6812 8.42804C11.6812 8.42804 11.884 8.48601 11.942 8.48601V8.34108C11.942 8.34108 11.6812 8.37007 11.6812 8.39905V8.42804Z" fill="white"/>
<path d="M11.4203 14.276H11.2464C11.2464 14.3048 11.3333 14.3913 11.4493 14.4201C11.5942 14.5065 11.7971 14.5353 11.8261 14.4777C11.8261 14.4201 11.6522 14.3048 11.4493 14.2472L11.4203 14.276Z" fill="white"/>
<path d="M11.7101 15.2844C11.7101 15.2844 11.7681 15.198 11.7681 15.1691C11.7681 15.1115 11.6232 15.0827 11.5652 15.0827C11.4203 15.0827 11.4203 15.0827 11.3043 15.0827C11.1594 15.0827 11.1014 14.9675 11.0724 15.0251C11.0724 15.0251 11.0724 15.0827 11.0724 15.1403C11.0724 15.198 11.1884 15.198 11.3913 15.2556C11.6232 15.3132 11.6811 15.342 11.7391 15.3132L11.7101 15.2844Z" fill="white"/>
<path d="M11.6232 15.4861C11.6232 15.4861 11.4493 15.4861 11.3913 15.4861C11.3913 15.4861 11.3333 15.4861 11.3333 15.5149V15.5725C11.3913 15.6301 11.4493 15.6589 11.5362 15.6877C11.5652 15.6877 11.5942 15.6877 11.6522 15.6877C11.6812 15.6877 11.7391 15.6877 11.7391 15.6589C11.7391 15.6301 11.7391 15.5725 11.7391 15.5437C11.7391 15.4861 11.6522 15.4572 11.6232 15.4572V15.4861Z" fill="white"/>
<path d="M13.2464 13.6422C13.2464 13.6422 13.0725 13.6422 12.3768 13.8151V13.9303C12.5507 13.9303 12.7536 13.8727 13.0145 13.7574C13.0725 13.7286 13.2464 13.6422 13.2464 13.6422Z" fill="white"/>
<path d="M12.5507 14.8531C12.5507 14.8531 12.6667 14.8531 12.6956 14.7952C12.6956 14.7952 12.7536 14.7372 12.7246 14.7082C12.7246 14.7082 12.6377 14.6792 12.3768 14.7662V14.8531C12.4348 14.8531 12.4927 14.8531 12.5507 14.8531Z" fill="white"/>
<path d="M13.5652 12.8931C13.5652 12.8931 13.5072 12.8931 13.4493 12.8931C13.2174 12.8931 13.0435 12.9507 12.9855 12.9507C12.8406 13.0084 12.6377 13.066 12.3768 13.1236V13.2677V13.3829C13.3623 13.066 13.5942 12.9507 13.5652 12.9219V12.8931Z" fill="white"/>
<path d="M12.8696 13.5275C12.8696 13.5275 12.8986 13.4985 12.8986 13.4695C12.8986 13.4115 12.6087 13.4695 12.3478 13.4695V13.5854C12.4348 13.5854 12.6957 13.6144 12.8696 13.4985V13.5275Z" fill="white"/>
<path d="M12.7246 15.6013C12.7246 15.6013 12.5507 15.6013 12.4058 15.6013V15.7172C12.5507 15.7462 12.6667 15.7172 12.7246 15.7172C12.7246 15.7172 12.8696 15.7172 12.8696 15.6593C12.8696 15.6303 12.7536 15.6013 12.7246 15.6013Z" fill="white"/>
<path d="M13.4783 14.3048C13.4783 14.3048 13.2754 14.3628 13.2754 14.3918C13.2754 14.3918 13.3913 14.3918 13.4493 14.3918C13.4493 14.3918 13.5652 14.3918 13.5652 14.3338C13.5652 14.3338 13.5362 14.3048 13.5072 14.3048H13.4783Z" fill="white"/>
<path d="M12.6667 8.60038C12.6667 8.60038 12.4058 8.54276 12.2319 8.54276V8.71562C12.4058 8.71562 12.6667 8.62919 12.6667 8.60038Z" fill="white"/>
<path d="M13.7101 13.7862C13.7101 13.7862 13.6232 13.7574 13.5652 13.7862C13.3623 13.7862 13.2174 13.8439 13.1884 13.8439C12.9855 13.9015 12.8696 13.9303 12.7246 13.9879C12.6377 14.0167 12.4927 14.0743 12.3768 14.1608V14.276C12.9275 14.1032 13.1594 14.0455 13.2754 14.0455C13.3913 14.0455 13.4493 14.0455 13.5362 13.9879C13.5362 13.9879 13.5942 13.9879 13.6522 13.9303C13.6522 13.9303 13.7391 13.8727 13.7101 13.8439V13.7862Z" fill="white"/>
<path d="M12.6667 15.1115C12.6667 15.1115 12.4927 15.1403 12.3768 15.1692V15.2268V15.3132C12.4348 15.3132 12.8116 15.3132 12.8696 15.1692C12.8696 15.1692 12.8696 15.1115 12.8696 15.0827C12.8696 15.0539 12.7536 15.0827 12.6667 15.0827V15.1115Z" fill="white"/>
<path d="M12.9275 10.6459C12.9275 10.6459 12.6957 10.6459 12.2899 10.7323V10.79V10.8764C12.7246 10.7323 12.9275 10.6459 12.9275 10.6171V10.6459Z" fill="white"/>
<path d="M12.4348 8.80222C12.4348 8.80222 12.2898 8.77324 12.2609 8.77324V8.8602C12.2609 8.8602 12.4348 8.83121 12.4348 8.80222Z" fill="white"/>
<path d="M13.0145 9.83922C13.0145 9.83922 12.8696 9.81041 12.2609 9.83922V10.0409C12.2609 10.0409 12.5507 10.0121 12.7246 9.95446C12.8116 9.92565 13.0145 9.86803 13.0145 9.83922Z" fill="white"/>
<path d="M13.2174 11.2221C13.2174 11.2221 13.0435 11.2221 12.2899 11.3662C12.2899 11.3662 12.2899 11.395 12.2899 11.4238C12.2899 11.4238 12.2899 11.4814 12.2899 11.5102C12.4638 11.5102 12.6957 11.4526 12.9565 11.3662C13.0435 11.3374 13.2174 11.2797 13.1884 11.2509L13.2174 11.2221Z" fill="white"/>
<path d="M12.9855 12.0288C12.9855 12.0288 12.7536 12.0288 12.3188 12.0864V12.2305C12.7536 12.1152 12.9855 12.0288 12.9855 12.0288Z" fill="white"/>
<path d="M12.6667 12.4322C12.6667 12.4322 12.4058 12.3745 12.3188 12.3745V12.5474C12.3188 12.5474 12.6667 12.461 12.6667 12.4322Z" fill="white"/>
<path d="M13.0435 11.6543C13.0435 11.6543 12.8116 11.6543 12.3188 11.6831V11.7407V11.8271C12.8116 11.7407 13.0435 11.6831 13.0435 11.6543Z" fill="white"/>
<path d="M13.0145 12.7203C13.0145 12.7203 12.7826 12.7203 12.3478 12.7779V12.9796C12.8116 12.8643 13.0145 12.7779 13.0145 12.7491V12.7203Z" fill="white"/>
<path d="M15.8841 15.2556C15.8841 15.2556 15.5942 15.2556 15.5073 15.3708C15.4493 15.2844 15.3044 15.2268 15.1884 15.2556C15.0725 15.2844 14.9565 15.3132 14.8406 15.342C14.8116 15.342 14.7536 15.342 14.6957 15.342C14.6667 15.342 14.6087 15.3132 14.6087 15.2556C14.6087 15.198 14.6087 15.1115 14.6957 15.0827C14.7536 15.0539 14.8406 15.0539 14.8986 15.0827C15.1884 15.0827 15.5073 15.0827 15.7681 14.9387C15.7971 14.9387 15.8551 14.881 15.8551 14.8522C15.8551 14.7946 15.7681 14.737 15.7102 14.737C15.5942 14.737 15.4783 14.737 15.3913 14.7658C15.3623 14.7658 15.3333 14.7658 15.3044 14.7658C15.3044 14.7658 15.2754 14.7658 15.2464 14.7658C15.1015 14.6794 14.9275 14.6794 14.7826 14.7658C14.7246 14.7658 14.6667 14.8234 14.6087 14.8234C14.5507 14.8234 14.4928 14.8234 14.4348 14.7946C14.3478 14.7946 14.2609 14.7946 14.1449 14.7946C14.058 14.7946 13.971 14.7946 13.8261 14.8522C13.6812 14.8522 13.6232 14.9099 13.5942 14.8522C13.5942 14.8522 13.5942 14.8234 13.6232 14.7946C13.7681 14.6794 14.058 14.5929 14.4058 14.5929C14.4928 14.5929 14.5507 14.5641 14.6377 14.5641C14.7536 14.5641 14.8696 14.5641 14.9855 14.5353C15.0435 14.5353 15.1304 14.5353 15.1884 14.5065C15.2464 14.5065 15.3044 14.4489 15.3913 14.4201C15.4493 14.3913 15.5362 14.3625 15.5652 14.3048C15.5652 14.3048 15.5942 14.2472 15.5652 14.2472C15.5652 14.2472 15.5652 14.2472 15.5073 14.2184C15.3333 14.1608 15.1594 14.2184 15.0435 14.3048C15.0435 14.3048 15.0145 14.3048 14.9855 14.3336C14.9275 14.3336 14.8986 14.3336 14.8406 14.3048C14.7536 14.276 14.6377 14.3048 14.5507 14.3625C14.2609 14.5065 13.7971 14.5353 13.7971 14.5065C13.7971 14.5065 13.8551 14.5065 13.971 14.3913C14.1159 14.3048 14.1449 14.2184 14.2609 14.1896C14.3188 14.1896 14.3768 14.1896 14.4058 14.1896C14.5797 14.1896 14.7536 14.1896 14.9275 14.1608C14.9855 14.1608 15.0145 14.1608 15.0725 14.1608C15.1884 14.1608 15.2754 14.0744 15.3623 14.0167C15.3623 14.0167 15.3913 14.0167 15.3623 13.9591C15.3623 13.9591 15.3623 13.9591 15.3333 13.9591C15.2174 13.9591 15.1015 13.9879 15.0145 14.0167C14.9565 14.0167 14.8986 14.0167 14.8406 14.0167C14.7246 14.0167 14.6087 14.0167 14.5217 14.0167C14.3478 14.0167 14.1739 14.0167 14.029 13.9303C14.1449 13.9303 14.3188 13.8727 14.5507 13.8439C15.0145 13.8151 15.3333 13.8439 15.3913 13.7574C15.3913 13.6998 15.3913 13.671 15.3623 13.6422C15.2754 13.527 15.1304 13.527 14.9855 13.4981C14.8406 13.4981 14.7246 13.4981 14.5797 13.5558C14.5797 13.527 14.5797 13.4693 14.5217 13.4405C14.4928 13.4405 14.4638 13.4405 14.4058 13.4405C14.3478 13.4405 14.2899 13.4405 14.2319 13.4405C14.1739 13.4405 14.1449 13.4405 14.087 13.4693C14 13.4981 13.8841 13.527 13.7971 13.527C13.7681 13.527 13.7971 13.4405 13.7971 13.4117C13.7971 13.3829 13.8841 13.3829 13.913 13.3829C14.058 13.3829 14.2029 13.3829 14.3188 13.2965C14.3768 13.2965 14.4348 13.2677 14.4638 13.2389C14.4928 13.2389 14.5507 13.2389 14.5797 13.2389C14.7246 13.2389 14.8696 13.21 15.0145 13.1524C15.0145 13.1524 15.0435 13.1524 15.0435 13.1236V13.066C15.0435 13.066 15.0145 13.0372 14.9855 13.0084C14.8986 12.9507 14.7826 12.9219 14.6957 12.9507C14.6087 12.9507 14.5217 12.9507 14.4638 13.0084C14.2319 13.066 14.029 13.1236 13.7971 13.21C13.7681 13.21 13.7102 13.21 13.7102 13.21C13.7102 13.21 13.7102 13.1812 13.7102 13.1524C13.7102 13.1524 13.7101 13.1236 13.7391 13.0948C13.7971 13.0372 13.8261 12.9796 13.8551 12.9219C14.2319 12.9219 14.6087 12.7779 14.8986 12.5762C14.9275 12.5762 14.9565 12.5186 14.9855 12.5186C15.0145 12.4898 15.0435 12.4322 15.0725 12.3745C15.0725 12.3745 15.0725 12.3169 15.1015 12.3169C15.1304 12.3169 15.1015 12.2593 15.1015 12.2593C15.0725 12.2593 15.0435 12.2593 14.9855 12.2593C14.8986 12.2881 14.8406 12.3457 14.7826 12.4034C14.7536 12.4322 14.6957 12.461 14.6667 12.5186C14.6667 12.4898 14.6377 12.4322 14.6087 12.4034C14.3188 12.461 14.058 12.6626 13.7681 12.6626C13.7102 12.6626 13.6522 12.6626 13.6522 12.605V12.5474C13.7391 12.4898 13.8551 12.4898 13.942 12.461C14.029 12.461 14.1449 12.4034 14.2029 12.3457C14.2609 12.2881 14.2899 12.1729 14.3478 12.1152C14.3478 12.1152 14.3768 12.0864 14.4058 12.0576C14.4058 12.0576 14.4348 12.0576 14.4638 12.0576C14.5797 12.0576 14.6957 12.0576 14.8406 12.1152C14.8406 12.1152 14.8696 12.1152 14.8986 12.0864C14.8986 12.0576 14.8986 12 14.8986 11.9712C14.8986 11.9424 14.8406 11.9136 14.8116 11.8848C14.8116 11.8848 14.8116 11.8848 14.8116 11.856C14.8116 11.856 14.8116 11.856 14.8116 11.8271C14.8116 11.8271 14.8696 11.7695 14.8696 11.7407C14.8696 11.7119 14.8696 11.6831 14.8696 11.6543C14.8406 11.6255 14.7826 11.6255 14.7536 11.6255C14.6667 11.6255 14.5797 11.6255 14.4928 11.6255C14.2319 11.6543 13.6812 11.6255 13.6812 11.5678C13.6812 11.5678 13.6812 11.5678 13.7391 11.539C13.942 11.4526 14.058 11.4238 14.2029 11.4238C14.3478 11.4238 14.4928 11.4238 14.6667 11.4238C14.6667 11.4238 14.7246 11.4238 14.7536 11.4238C14.7536 11.4238 14.7536 11.3662 14.7536 11.3374C14.7536 11.3374 14.7536 11.2797 14.7246 11.2797C14.6377 11.2221 14.5507 11.1933 14.4348 11.1645C14.3188 11.1645 14.2319 11.1645 14.1159 11.1645C14.087 11.1645 14 11.1069 13.942 11.0781C13.8261 11.0493 13.7391 11.0493 13.7391 11.0205C13.7391 10.9916 14.087 10.9052 14.2319 10.8476C14.2319 10.8476 14.2899 10.8476 14.3478 10.79C14.3478 10.79 14.4058 10.7323 14.4058 10.6747C14.4058 10.6171 14.3768 10.5883 14.4058 10.5595C14.4058 10.5307 14.4638 10.5595 14.4928 10.5019C14.4928 10.5019 14.4928 10.4442 14.4928 10.3866C14.4928 10.3866 14.4928 10.3866 14.4928 10.3578C14.4928 10.3578 14.4928 10.3578 14.4638 10.3578C14.2609 10.3578 14.058 10.3578 13.8551 10.4154C13.4203 10.4731 13.0145 10.5307 12.5797 10.5883C12.5217 10.5883 12.4928 10.5883 12.4348 10.5883C12.4058 10.5883 12.3768 10.5883 12.3768 10.5307C12.3768 10.5019 12.4348 10.4731 12.4638 10.4731C12.7826 10.4154 13.1015 10.329 13.4203 10.2714C13.5942 10.2426 13.7971 10.185 13.971 10.2138C13.971 10.2138 13.971 10.1561 13.971 10.1273C13.971 10.0985 13.942 10.0985 13.913 10.0697C13.8841 10.0409 13.8261 10.0121 13.7971 9.98328C13.7391 9.92566 13.6812 9.89685 13.6232 9.83923C13.5073 9.7816 13.3913 9.7816 13.2754 9.7816C13.0435 9.7816 12.9275 9.7816 12.8116 9.81041C12.7536 9.81041 12.6377 9.86804 12.4928 9.86804C12.4638 9.86804 12.4058 9.86804 12.3768 9.83923C12.3478 9.81042 12.3478 9.75279 12.3768 9.69517C12.3768 9.63755 12.4638 9.63755 12.5217 9.63755C12.6957 9.60874 12.8986 9.60874 13.0725 9.63755C13.1304 9.63755 13.1884 9.66636 13.2464 9.66636C13.3623 9.66636 13.5073 9.63755 13.5942 9.55112C13.5942 9.55112 13.5942 9.52231 13.5652 9.52231C13.2464 9.43588 12.9275 9.46469 12.6087 9.52231V9.46469C12.6087 9.46469 12.6377 9.46469 12.6667 9.46469C12.8986 9.43588 13.1304 9.37826 13.3623 9.34945C13.3623 9.32064 13.3623 9.26302 13.3044 9.26302C13.2754 9.26302 13.2174 9.26302 13.1884 9.26302C12.9855 9.26302 12.7826 9.32064 12.5797 9.34945C12.5507 9.34945 12.4928 9.34945 12.4638 9.34945C12.4348 9.34945 12.3768 9.32064 12.3768 9.26302C12.3768 9.2054 12.3768 9.17659 12.4348 9.14778C12.4928 9.14778 12.5507 9.14778 12.5797 9.14778C12.7246 9.14778 12.8406 9.14778 13.0145 9.11897C13.2174 9.09015 13.2754 9.03253 13.2754 9.00372C13.2754 9.00372 13.3333 8.91729 13.3333 8.85967C13.3333 8.77324 13.2464 8.71562 13.2174 8.71562C13.1594 8.68681 13.1015 8.68681 13.0145 8.68681C12.4928 8.68681 12.7826 8.68681 12.4928 8.68681C12.4348 8.68681 12.3768 8.68681 12.3188 8.68681C12.2899 8.68681 12.2609 8.68681 12.2609 8.68681L12.3188 8.62919C12.5217 8.48514 13.0725 8.45633 13.1304 8.45633C13.1304 8.45633 13.1594 8.45633 13.2174 8.45633C13.2174 8.45633 13.3044 8.42752 13.3044 8.39871C13.3044 8.39871 13.2464 8.34108 13.2174 8.34108C12.9855 8.28346 12.5507 8.42752 12.4058 8.42752C12.4058 8.42752 12.3478 8.42752 12.3188 8.42752C12.3188 8.42752 12.2609 8.42752 12.2609 8.39871C12.2609 8.36989 12.2609 8.28346 12.3188 8.25465C12.3768 8.25465 12.4348 8.25465 12.4928 8.25465C12.6957 8.25465 12.8696 8.25465 13.0725 8.25465C13.0725 8.25465 13.1015 8.25465 13.1304 8.25465C13.1594 8.25465 13.1884 8.19703 13.1594 8.13941C13.1594 8.1106 13.1015 8.08179 13.0145 8.08179C12.8406 8.08179 12.6667 8.08179 12.5507 8.13941C12.4928 8.13941 12.3188 8.19703 12.2609 8.13941C12.2609 8.13941 12.2609 8.13941 12.2609 8.1106C12.2609 8.1106 12.2609 8.08179 12.2899 8.08179C12.4058 8.02417 12.6667 8.05298 12.6667 8.05298C12.8986 8.05298 13.1015 8.05298 13.1015 7.99536C13.1015 7.99536 13.1015 7.93774 13.0725 7.93774H13.0145C12.5507 7.93774 12.3768 7.93774 12.3768 7.93774C12.3188 7.93774 12.2319 7.93774 12.2319 7.93774L12.2899 7.88012C12.3478 7.8225 12.4348 7.8225 12.5507 7.8225C12.7536 7.8225 12.6957 7.8225 12.8986 7.79369C12.9855 7.79369 13.0435 7.79369 13.0435 7.76488C13.0435 7.73607 13.0145 7.70726 12.9855 7.67844C12.8986 7.62082 12.7826 7.62082 12.7246 7.64963C12.6377 7.64963 12.5507 7.70726 12.4638 7.73607C12.4058 7.73607 12.3478 7.73607 12.2899 7.73607C12.2899 7.73607 12.2609 7.73607 12.2319 7.73607C12.2029 7.73607 12.2029 7.64963 12.2029 7.62082C12.2029 7.62082 12.2029 7.5632 12.2899 7.53439C12.3188 7.50558 12.3768 7.44796 12.4638 7.41915C12.4058 7.39034 12.3478 7.36153 12.3188 7.36153C12.3188 7.36153 12.2609 7.36153 12.2319 7.33272C12.2319 7.33272 12.2319 7.30391 12.2319 7.2751C12.2319 7.2751 12.2319 7.21748 12.2609 7.15986C12.2609 7.13105 12.3188 7.10224 12.3768 7.04462C12.3768 7.04462 12.4638 6.95818 12.4638 6.92937C12.4348 6.92937 12.4058 6.92937 12.3478 6.92937C12.3478 6.92937 12.3188 6.92937 12.2899 6.92937C12.2899 6.92937 12.2319 6.92937 12.2319 6.87175C12.2319 6.87175 12.2319 6.81413 12.2319 6.78532C12.2319 6.78532 12.2319 6.78532 12.2319 6.75651C12.2319 6.75651 12.2319 6.75651 12.2609 6.75651C12.2899 6.75651 12.3188 6.75651 12.3478 6.69889C12.3478 6.69889 12.3478 6.69889 12.3478 6.67008C12.3478 6.67008 12.3478 6.64127 12.3188 6.61246C12.2609 6.61246 12.2319 6.55484 12.1739 6.55484L12.087 5.6041C12.087 5.8922 12.029 6.20911 12 6.49722C11.971 6.49722 11.913 6.49722 11.8551 6.49722C11.7971 6.49722 11.7391 6.49722 11.7101 6.52603C11.7391 6.52603 11.7971 6.58365 11.8551 6.61246C11.913 6.67008 11.971 6.7277 11.971 6.75651C11.971 6.81413 11.8551 6.84294 11.7101 6.81413C11.7391 6.84294 11.7971 6.90056 11.8551 6.95818C11.942 7.01581 11.971 7.04462 11.971 7.07343C11.971 7.10224 11.913 7.15986 11.6522 7.18867C11.7391 7.24629 11.7971 7.30391 11.8261 7.36153C11.8841 7.41915 11.913 7.44796 11.942 7.50558C11.942 7.59201 11.942 7.64963 11.942 7.67844C11.8261 7.59201 11.7102 7.50558 11.6232 7.44796C11.4493 7.36153 11.3623 7.33272 11.2754 7.33272C11.2174 7.33272 11.1304 7.36153 11.1304 7.39034C11.1304 7.41915 11.2754 7.44796 11.4493 7.53439C11.6812 7.62082 11.8841 7.76488 11.8841 7.79369C11.8841 7.79369 11.7102 7.79369 11.3333 7.67844C11.3333 7.67844 11.2464 7.67844 11.1304 7.67844C11.1304 7.67844 10.9855 7.67844 10.9855 7.73607C10.9855 7.73607 11.0435 7.76488 11.3333 7.8225C11.5073 7.85131 11.6232 7.88012 11.7681 7.93774C11.8261 7.93774 11.942 7.99536 11.942 8.02417C11.942 8.02417 11.942 8.02417 11.6522 8.02417C11.5942 8.02417 11.3913 8.02417 11.2174 8.02417C11.2174 8.02417 11.1304 8.02417 11.0145 8.02417C10.9855 8.02417 10.9565 8.02417 10.9565 8.02417C10.9565 8.02417 11.1594 8.08179 11.3333 8.1106C11.5942 8.1106 11.7391 8.1106 11.8551 8.19703C11.8551 8.19703 11.913 8.25465 11.913 8.28346C11.913 8.34108 11.8261 8.36989 11.7971 8.36989C11.7102 8.36989 11.6812 8.34108 11.5652 8.28346C11.5073 8.28346 11.4203 8.25465 11.2754 8.22584C11.0725 8.19703 11.0145 8.19703 10.9565 8.22584C10.9565 8.22584 10.8986 8.25465 10.8986 8.28346C10.8986 8.31227 10.9855 8.31227 11.1594 8.34108C11.4203 8.34108 11.4493 8.34108 11.5362 8.36989C11.6522 8.36989 11.7681 8.45633 11.7681 8.48514C11.7681 8.54276 11.3333 8.48514 11.2174 8.48514C11.0435 8.48514 11.0145 8.45633 10.8406 8.42752C10.5797 8.42752 10.4058 8.39871 10.4058 8.42752C10.4058 8.48514 10.5217 8.60038 10.6667 8.658C10.7246 8.658 10.7826 8.68681 11.0145 8.71562C11.3044 8.71562 11.3044 8.71562 11.3623 8.71562C11.6522 8.74443 11.8841 8.85967 11.8841 8.88848C11.8841 8.88848 11.6522 8.83086 11.2464 8.83086C10.9275 8.83086 10.6087 8.83086 10.6087 8.88848C10.6087 8.91729 10.9275 8.97491 11.0725 8.97491C11.0725 8.97491 11.0725 8.97491 11.3913 8.97491C11.5362 8.97491 11.5942 8.97491 11.6812 9.00372C11.7681 9.03253 11.8551 9.09015 11.8841 9.11897C11.8841 9.11897 11.7102 9.11897 11.4783 9.09015C11.3044 9.06134 11.4203 9.09015 10.7246 9.00372C10.5797 9.00372 10.4638 8.97491 10.3478 9.00372C10.3478 9.00372 10.087 9.09015 10.087 9.2054C10.087 9.26302 10.1159 9.32064 10.1739 9.34945C10.2319 9.34945 10.2609 9.34945 10.2899 9.34945C10.2899 9.34945 10.2319 9.40707 10.2319 9.46469C10.2319 9.52231 10.4348 9.52231 10.6087 9.55112C10.6957 9.55112 10.8696 9.63755 11.2754 9.75279C11.3623 9.75279 11.4783 9.81042 11.6232 9.89685C11.7102 9.95447 11.8261 10.0121 11.7971 10.0409C11.7971 10.0985 11.4493 10.0409 11.1594 9.92566C10.6377 9.75279 10.2899 9.60874 10.2899 9.60874C10.2899 9.60874 10.2319 9.60874 10.1739 9.60874C10 9.60874 9.82609 9.72398 9.82609 9.7816C9.82609 9.7816 9.82609 9.81042 9.88406 9.83923C10 9.92566 10.1739 9.83923 10.2029 9.89685C10.2029 9.89685 10.2029 9.89685 10.2029 9.95447C10.2029 10.0121 10.2319 10.0697 10.2899 10.0985C10.3478 10.1561 10.4348 10.1561 10.4638 10.1561C10.5507 10.1561 10.7246 10.2138 11.1015 10.3002C11.3044 10.3578 11.4203 10.4154 11.5073 10.4442C11.5652 10.4442 11.7971 10.5883 11.7681 10.6171C11.7681 10.6459 11.5652 10.6171 11.4493 10.6171C11.3044 10.6171 11.2174 10.5595 10.9565 10.4442C10.6087 10.2714 10.6087 10.2714 10.5217 10.2714C10.3478 10.2426 10.2319 10.2714 10.029 10.3002C10.029 10.3002 9.71015 10.3578 9.71015 10.4154C9.71015 10.4154 9.76812 10.4154 9.88406 10.5019C9.97102 10.5307 10.058 10.5595 10.058 10.5883C10.058 10.6171 9.97102 10.6459 9.85508 10.7035C9.73914 10.7323 9.68116 10.7612 9.68116 10.7612C9.68116 10.79 9.82609 10.8476 9.97102 10.8764C9.97102 10.8764 10.2899 10.9628 10.6087 11.0493C10.8116 11.1069 10.7536 11.1069 11.1304 11.2221C11.3623 11.3086 11.4783 11.3086 11.6232 11.4238C11.7391 11.5102 11.8841 11.6255 11.8551 11.6543C11.8551 11.7119 11.5362 11.5967 11.4203 11.539C10.9565 11.3662 10.5507 11.1357 10.5217 11.1645C10.5217 11.1645 10.5217 11.1933 10.5217 11.2221C10.5217 11.2509 10.5217 11.2797 10.4638 11.2797C10.4058 11.2797 10.3478 11.2221 10.2609 11.1645C10.1449 11.0781 10.029 11.0205 9.94203 10.9916C9.71015 10.934 9.44928 10.9916 9.42029 11.0781C9.42029 11.1069 9.42029 11.1645 9.44928 11.1645C9.44928 11.1645 9.50725 11.2221 9.71015 11.2509C9.85508 11.2509 9.91305 11.2797 9.97102 11.2797C10.029 11.2797 10.058 11.2797 10.087 11.2797C10.087 11.3086 10.058 11.3662 10.058 11.4238C10.058 11.4814 10.1159 11.539 10.1739 11.5967C10.058 11.5102 9.85508 11.395 9.79711 11.4526C9.76812 11.4814 9.85508 11.6543 9.82609 11.6831C9.76812 11.7119 9.65218 11.539 9.42029 11.5102C9.30435 11.5102 9.15943 11.5678 9.13044 11.6255C9.13044 11.6831 9.18841 11.7407 9.2174 11.7983C9.27537 11.856 9.30435 11.8271 9.33334 11.8848C9.36232 11.9424 9.33334 12 9.33334 12.0576C9.33334 12.1152 9.42029 12.1441 9.53624 12.1729C9.76812 12.2305 9.94203 12.3169 9.94203 12.3169C9.94203 12.3169 9.79711 12.2881 9.59421 12.3169C9.50725 12.3169 9.42029 12.3169 9.42029 12.3745C9.42029 12.4322 9.53624 12.5186 9.68116 12.5474C9.76812 12.5474 9.85508 12.5474 9.91305 12.5474C10.029 12.5474 10 12.5474 10.4348 12.605C10.8116 12.6626 10.8406 12.6338 10.9855 12.6915C11.1594 12.7203 11.2464 12.7491 11.3333 12.7779C11.5362 12.8643 11.6232 12.8931 11.6812 12.9796C11.7102 13.0372 11.7391 13.0948 11.7391 13.1236C11.7391 13.1236 11.6812 13.1236 11.5942 13.066C11.3623 12.9219 11.2754 12.8355 11.2464 12.8643C11.1884 12.8931 11.2464 13.0084 11.2174 13.066C11.1015 13.1524 10.6957 12.7491 10.6087 12.8067C10.6087 12.8067 10.6087 12.8931 10.6087 12.9219C10.5797 12.9219 10.5217 12.8931 10.4638 12.8355C10.4638 12.8355 10.3188 12.7203 10.087 12.6626C9.97102 12.6338 9.94203 12.6626 9.91305 12.6626C9.88406 12.6915 9.91305 12.7779 9.88406 12.8067C9.88406 12.8067 9.82609 12.8067 9.76812 12.7491C9.68116 12.6915 9.56522 12.6626 9.50725 12.6626C9.44928 12.6626 9.39131 12.6626 9.27537 12.7491C9.15943 12.8067 9.07247 12.8355 9.07247 12.8643C9.07247 12.8643 9.10145 12.8931 9.33334 12.9219C9.50725 12.9219 9.62319 12.9507 9.71015 12.9507C10.029 12.9507 10.1449 12.9796 10.2029 13.0084C10.3768 13.066 10.4348 13.0948 10.4638 13.1524C10.4928 13.21 10.5217 13.2965 10.4638 13.3253C10.4348 13.3541 10.3478 13.3253 10.2609 13.2965C10.2609 13.2965 10.087 13.2389 9.82609 13.1524C9.76812 13.1524 9.73914 13.1524 9.15943 13.1236C9.15943 13.1236 9.13044 13.1236 9.10145 13.1236C9.07247 13.1236 9.0145 13.1812 9.0145 13.1812C9.0145 13.21 9.15943 13.2389 9.33334 13.2677C9.44928 13.2965 9.47827 13.3253 9.62319 13.3541C9.85508 13.4117 9.97102 13.4405 10.2899 13.4981C10.6957 13.5846 10.5797 13.5846 11.0435 13.671C11.0435 13.671 11.3333 13.7286 11.5652 13.8727C11.5652 13.8727 11.5942 13.8727 11.6522 13.9303C11.7101 13.9591 11.7102 13.9591 11.7391 13.9879C11.7391 13.9879 11.7391 13.9879 11.7391 14.0167V14.0744C11.7102 14.1032 11.5942 14.0744 11.5362 14.0744C10.8986 13.8439 10.6087 13.7286 10.5217 13.671C10.5217 13.671 10.4928 13.6422 10.4638 13.671C10.4058 13.671 10.4638 13.8727 10.4058 13.8727C10.3768 13.8727 10.3188 13.8151 10.2029 13.7286C10.087 13.6422 9.91305 13.5846 9.88406 13.6422C9.85508 13.671 9.97102 13.7863 9.91305 13.8439C9.88406 13.8727 9.76812 13.7863 9.56522 13.7286C9.47827 13.6998 9.33334 13.6422 9.2174 13.6422C9.04348 13.6422 8.84058 13.671 8.8116 13.7286C8.8116 13.7574 8.89856 13.7863 8.98551 13.8151C9.15943 13.8727 9.27537 13.8727 9.47827 13.9015C9.59421 13.9015 9.73914 13.9303 9.94203 13.9879C10.1159 14.0455 10.2899 14.1032 10.2899 14.132C10.2899 14.132 10 14.132 9.91305 14.1032C9.91305 14.1032 9.91305 14.1032 9.85508 14.1032C9.79711 14.1032 9.73914 14.1032 9.71015 14.1032C9.62319 14.1608 9.4203 14.1032 9.18841 14.0455C9.0145 13.9879 8.92754 13.9591 8.89856 13.9879C8.89856 14.0167 8.89856 14.0744 8.95653 14.1896C8.95653 14.2472 8.98551 14.2472 9.0145 14.2472C9.07247 14.276 9.13044 14.2472 9.18841 14.2472C9.30435 14.2472 9.42029 14.2472 9.53624 14.2472C9.85508 14.2472 10.1449 14.3336 10.2319 14.3625C10.3188 14.3625 10.6667 14.4777 10.6667 14.5353C10.6667 14.5641 10.5217 14.5929 10.4058 14.5929C10.2899 14.5929 10.2609 14.5929 10 14.5065C9.88406 14.4777 9.88406 14.5065 9.85508 14.4777C9.82609 14.4777 9.79711 14.4777 9.79711 14.4777C9.76812 14.4777 9.73914 14.5353 9.73914 14.5641C9.73914 14.6218 9.73914 14.6506 9.73914 14.6506C9.73914 14.6506 9.65218 14.5929 9.53624 14.5353C9.42029 14.4777 9.36232 14.4201 9.30435 14.4489C9.27537 14.4489 9.30435 14.5065 9.24638 14.5353C9.18841 14.5929 9.07247 14.4489 8.84058 14.3913C8.8116 14.3913 8.63769 14.3336 8.6087 14.3913C8.6087 14.4201 8.66667 14.5065 8.69566 14.5353C8.8116 14.6506 8.92754 14.6506 9.07247 14.7082C9.4203 14.7946 9.33334 14.7946 9.65218 14.8522C9.88406 14.9099 10.058 14.9099 10.058 14.9387C10.058 14.9387 10 14.9387 9.82609 14.9675C9.73914 14.9675 9.68116 14.9675 9.65218 14.9963C9.53624 15.0539 9.53624 15.1115 9.47827 15.1403C9.39131 15.1403 9.39131 15.0827 9.18841 14.9675C9.18841 14.9675 9.07247 14.9099 8.89856 14.881C8.84058 14.881 8.78261 14.881 8.75363 14.881C8.75363 14.9099 8.75363 14.9387 8.75363 14.9675C8.69566 15.0251 8.57972 14.881 8.34783 14.881C8.34783 14.881 8.23189 14.881 8.2029 14.881C8.2029 14.881 8.26087 14.9387 8.4058 15.0251C8.49276 15.0827 8.57972 15.1115 8.63769 15.1692C8.86957 15.3132 8.98551 15.3708 8.98551 15.3996H8.92754C8.89856 15.4573 9.0145 15.5725 8.98551 15.6013C8.98551 15.6013 8.8116 15.4861 8.55073 15.3996C8.43479 15.342 8.31885 15.3132 8.17392 15.3132C8 15.3132 7.76812 15.4284 7.73914 15.5437C7.73914 15.6301 7.82609 15.7165 7.88406 15.7742C8.08696 15.947 8.34783 16.0047 8.52174 16.0335C8.57972 16.0335 8.8116 16.0623 9.07247 16.0335C9.24638 16.0335 9.44928 15.947 9.56522 15.947C9.68116 15.9182 9.73914 15.8894 9.85508 15.8894C10 15.8894 10.1159 15.8894 10.1739 15.8894C10.3478 15.8894 10.4638 15.947 10.5507 15.9758C10.6087 15.9758 10.6667 16.0335 10.6957 16.0911C10.6957 16.0911 10.6957 16.1487 10.6957 16.1775C10.6957 16.1775 10.6087 16.1775 10.5217 16.1199C10.4638 16.0911 10.3478 16.0335 10.2319 16.0047C10.1449 16.0047 10.087 15.9758 9.97102 16.0047C9.88406 16.0335 9.79711 16.1199 9.76812 16.1487C9.71015 16.2063 9.71015 16.2063 9.68116 16.2351C9.62319 16.2351 9.56522 16.2351 9.47827 16.1775C9.39131 16.1487 9.30435 16.1487 9.24638 16.1487C9.18841 16.1487 8.98551 16.1487 8.95653 16.2063C8.92754 16.2928 9.10145 16.408 9.07247 16.4368C9.07247 16.4368 8.98551 16.4368 8.89856 16.3792C8.69566 16.2928 8.52174 16.3216 8.43479 16.3216C8.34783 16.3216 8.17392 16.3216 8.14493 16.408C8.14493 16.4656 8.2029 16.5232 8.23189 16.5521C8.28986 16.6097 8.49276 16.7537 9.36232 16.6961C9.68116 16.6961 9.85508 16.6385 9.91305 16.6385C10 16.6385 10.3768 16.5521 10.4638 16.4944C10.4638 16.4944 10.4638 16.4944 10.4928 16.4944C10.5507 16.4944 10.5507 16.5521 10.6087 16.6097C10.6377 16.6385 10.6957 16.6673 10.7536 16.6673C10.8406 16.6673 10.8696 16.5809 11.0435 16.5521C11.1015 16.5521 11.1594 16.5232 11.1884 16.5521C11.2464 16.5809 11.1884 16.6961 11.2464 16.6961C11.2754 16.6961 11.3333 16.6385 11.4493 16.6097C11.5073 16.6097 11.5362 16.6097 11.5652 16.6097C11.5652 17.3299 11.5652 18.0502 11.5652 18.7705H12.4638C12.4058 18.4535 12.3478 18.1078 12.3188 17.7333C12.3188 17.7333 12.3188 17.5892 12.2899 16.8113C12.2899 16.7249 12.3478 16.6673 12.3478 16.6385C12.4058 16.5809 12.4348 16.4944 12.5507 16.4656C12.6087 16.4656 12.6667 16.4656 12.7826 16.4944C13.1015 16.6097 13.2174 16.6673 13.2754 16.6097C13.3044 16.5809 13.2754 16.5232 13.3333 16.4656C13.3333 16.4368 13.4203 16.3792 13.4493 16.3792C13.5073 16.3792 13.5362 16.408 13.5652 16.3792C13.5942 16.3792 13.5652 16.2928 13.5942 16.2639C13.5942 16.2351 13.6522 16.2063 13.6812 16.2063C13.7101 16.2063 13.7681 16.2063 13.7971 16.2063C14.2029 16.2928 14.6377 16.3792 15.0725 16.3792C15.3333 16.3792 15.5942 16.3792 15.7971 16.2639C15.7971 16.2639 15.8261 16.2639 15.8551 16.2063C15.8551 16.1487 15.8551 16.0911 15.7971 16.0623C15.7391 16.0623 15.6812 16.0623 15.6232 16.0623C15.5652 16.0623 15.5073 16.1199 15.4783 16.1199C15.3623 16.1199 15.2464 16.1199 15.1594 16.0911C15.0725 16.0623 14.9275 16.0335 14.8406 16.0911C14.8116 16.0911 14.7826 16.1487 14.7246 16.1487C14.6957 16.1487 14.6667 16.1487 14.6377 16.1487C14.5507 16.0911 14.4348 16.1199 13.942 16.0047C13.7681 15.9758 13.7102 15.947 13.7102 15.947C13.7102 15.947 13.7971 15.947 13.913 15.947C14.2899 15.947 14.6377 15.947 14.7826 15.947C15.1594 15.947 15.1015 15.947 15.1594 15.947C15.1594 15.947 15.4783 15.947 15.7681 15.947C15.7971 15.947 15.8551 15.947 15.8551 15.8894C15.8551 15.8606 15.8551 15.8318 15.8261 15.803C15.8261 15.803 15.7681 15.803 15.7391 15.7742C15.6232 15.7742 15.4783 15.7454 15.3623 15.7742C15.3333 15.7742 15.3044 15.7742 15.2754 15.7742C15.2174 15.7742 15.1304 15.7742 15.0725 15.7454C14.9565 15.7165 14.8406 15.7165 14.7246 15.7454C14.7246 15.7454 14.6957 15.7454 14.6667 15.7454C14.6667 15.7454 14.6377 15.7454 14.6087 15.7454C14.4638 15.6589 14.2899 15.6589 14.1159 15.6589C13.942 15.6589 13.7681 15.6589 13.5942 15.6589C13.5652 15.6589 13.5073 15.6589 13.4783 15.6013C13.4783 15.5725 13.4783 15.5149 13.4783 15.4861C13.4783 15.4573 13.5652 15.4861 13.5942 15.4861C13.7971 15.5149 14 15.4861 14.2029 15.4861C14.3478 15.4861 14.5217 15.4861 14.6667 15.5149C15.0435 15.5437 15.3913 15.5149 15.7681 15.5149C15.7681 15.5149 15.8551 15.5149 15.8841 15.5149C15.942 15.4861 15.913 15.3708 15.8841 15.342C15.8261 15.2844 15.7681 15.2844 15.6812 15.2844L15.8841 15.2556ZM10.3478 15.7742C10.3478 15.7742 10.3188 15.7742 10.2899 15.7742C10.2609 15.7742 10.2319 15.7742 10.1739 15.7165C10.1159 15.6877 10.087 15.6589 10.029 15.6301C10.029 15.6301 10.029 15.6301 10 15.6013C10 15.5725 10 15.5437 10.058 15.5437C10.058 15.5437 10.058 15.5437 10.087 15.5437C10.087 15.5437 10.1159 15.5437 10.1449 15.5437C10.2319 15.5437 10.2899 15.6013 10.3478 15.6589C10.3478 15.6589 10.3478 15.6589 10.3478 15.7165C10.3478 15.7165 10.3478 15.7742 10.2899 15.7742H10.3478ZM11.0435 15.1115C11.0435 15.1115 11.0435 15.0251 11.0435 14.9963C11.0725 14.9675 11.1594 15.0539 11.2754 15.0539C11.3913 15.0539 11.3913 15.0539 11.5362 15.0539C11.5942 15.0539 11.7391 15.0539 11.7391 15.1403C11.7391 15.1692 11.7391 15.2268 11.6812 15.2556C11.6232 15.3132 11.5652 15.2556 11.3333 15.198C11.1304 15.1403 11.0435 15.1403 11.0145 15.0827L11.0435 15.1115ZM11.7391 15.6877C11.7391 15.6877 11.6812 15.7165 11.6522 15.7165C11.6232 15.7165 11.5652 15.7165 11.5362 15.7165C11.4493 15.6877 11.3913 15.6589 11.3333 15.6013C11.3333 15.6013 11.3333 15.5725 11.3333 15.5437C11.3333 15.5437 11.3623 15.5149 11.3913 15.5149C11.4783 15.5149 11.5652 15.5149 11.6232 15.5149C11.6812 15.5149 11.7391 15.5725 11.7391 15.6013C11.7391 15.6301 11.7391 15.6877 11.7391 15.7165V15.6877ZM11.4203 14.4489C11.4203 14.4489 11.2174 14.3336 11.2174 14.3048C11.2174 14.276 11.3333 14.3048 11.3913 14.3048C11.5942 14.3336 11.7971 14.4777 11.7681 14.5353C11.7681 14.5641 11.5362 14.5353 11.3913 14.4777L11.4203 14.4489ZM11.0145 9.17659L10.8696 9.11897C10.8696 9.11897 11.1015 9.11897 11.2754 9.11897C11.7681 9.11897 11.8551 9.2054 11.8841 9.26302C11.8841 9.26302 11.913 9.34945 11.8841 9.37826C11.8261 9.43588 11.6812 9.37826 11.0435 9.17659H11.0145ZM11.8551 12.5186C11.2174 12.3169 10.5217 12.1152 10.5217 12.0576C10.5217 12.0576 10.5217 12.0576 10.6377 12.0576C11.1015 12.0576 11.6522 12.2881 11.8841 12.3745V12.5186H11.8551ZM11.8841 11.8848C11.8841 11.8848 11.8841 11.9424 11.8841 11.9712C11.5073 11.7983 11.3044 11.7407 11.1884 11.7119C11.1594 11.7119 11.0145 11.7119 10.9565 11.5967C10.9565 11.5967 10.8986 11.539 10.9275 11.5102C10.9275 11.4814 11.1304 11.5102 11.913 11.7983C11.913 11.7983 11.913 11.8271 11.913 11.856L11.8841 11.8848ZM11.8841 11.2221C11.2754 10.9916 10.9565 10.8764 10.8116 10.8476C10.7536 10.8476 10.6087 10.8188 10.6087 10.7323C10.6087 10.7323 10.6087 10.7323 10.6087 10.6747C10.6377 10.6171 10.8406 10.6459 11.8841 11.0781C11.8841 11.1357 11.8841 11.1645 11.8841 11.2221ZM11.913 10.8476C11.913 10.8476 11.913 10.8476 11.913 10.8764C11.6232 10.79 11.1015 10.6459 10.9565 10.5307C10.9565 10.5307 10.8696 10.4731 10.8696 10.4442C10.8696 10.4442 10.9565 10.4442 10.9855 10.4442C11.1884 10.4731 11.6232 10.6459 11.913 10.7323C11.913 10.7612 11.913 10.8188 11.913 10.8476ZM11.942 9.60874V9.72398C11.5652 9.57993 11.3913 9.4935 11.3913 9.46469C11.3913 9.46469 11.5942 9.46469 11.942 9.55112V9.60874ZM11.971 8.48514C11.971 8.48514 11.7101 8.45633 11.7101 8.42752C11.7101 8.39871 11.913 8.36989 11.971 8.36989V8.51395V8.48514ZM12.2319 8.51395C12.4058 8.51395 12.6667 8.51395 12.6667 8.57157C12.6667 8.60038 12.4058 8.658 12.2319 8.68681V8.51395ZM12.2609 8.77324C12.2609 8.77324 12.4348 8.77324 12.4348 8.80205C12.4348 8.80205 12.2899 8.85967 12.2609 8.85967V8.77324ZM12.2899 9.83923C12.8986 9.7816 13.0435 9.7816 13.0435 9.83923C13.0435 9.86804 12.8406 9.92566 12.7536 9.95447C12.5797 10.0121 12.4058 10.0409 12.2899 10.0409V9.83923ZM12.2899 10.79V10.7323C12.6957 10.6459 12.9275 10.6171 12.9275 10.6459C12.9275 10.6459 12.7246 10.7612 12.2899 10.9052V10.8188V10.79ZM12.3188 11.4238C12.3188 11.4238 12.3188 11.395 12.3188 11.3662C13.0725 11.2221 13.2174 11.2221 13.2464 11.2221C13.2464 11.2221 13.1015 11.3086 13.0145 11.3374C12.7536 11.4526 12.4928 11.4814 12.3478 11.4814C12.3478 11.4814 12.3478 11.4238 12.3478 11.395L12.3188 11.4238ZM12.3188 11.7695V11.7119C12.7826 11.6543 13.0435 11.6543 13.0435 11.6831C13.0435 11.7119 12.8116 11.7695 12.3188 11.856V11.7695ZM12.3188 12.0864C12.7536 12.0288 12.9855 12 12.9855 12.0288C12.9855 12.0288 12.7826 12.1152 12.3188 12.2305V12.0864ZM12.3478 12.3745C12.3478 12.3745 12.6957 12.3745 12.6957 12.4322C12.6957 12.4898 12.4348 12.5474 12.3478 12.5474V12.3745ZM12.3478 12.7491C12.7826 12.6915 13.0145 12.6626 13.0145 12.6915C13.0145 12.7203 12.8116 12.8067 12.3478 12.9219V12.7203V12.7491ZM12.3478 13.2389V13.0948C12.6087 13.0084 12.8116 12.9507 12.9565 12.9219C13.0145 12.9219 13.1884 12.8355 13.4203 12.8643C13.4783 12.8643 13.5362 12.8643 13.5362 12.8643C13.5362 12.8931 13.3333 13.0084 12.3478 13.3253V13.21V13.2389ZM12.3478 13.527C12.6087 13.4693 12.8986 13.4405 12.8986 13.4981C12.8986 13.4981 12.8986 13.4981 12.8696 13.5558C12.6957 13.671 12.4348 13.6422 12.3478 13.6422V13.5558V13.527ZM12.3768 13.8151C13.0725 13.6422 13.2464 13.6134 13.2464 13.6422C13.2464 13.6422 13.0725 13.7286 13.0145 13.7574C12.7826 13.8727 12.5507 13.9015 12.3768 13.9303V13.8151ZM12.4058 14.7946C12.6667 14.7082 12.7536 14.7082 12.7536 14.737C12.7536 14.737 12.7536 14.7946 12.7246 14.8234C12.6957 14.8522 12.6377 14.881 12.5797 14.881C12.5507 14.881 12.4928 14.881 12.4058 14.881V14.7946ZM12.7536 15.7165C12.7536 15.7165 12.5797 15.7165 12.4348 15.7165V15.6013C12.4348 15.6013 12.6957 15.6013 12.7536 15.6013C12.7826 15.6013 12.8986 15.6301 12.8986 15.6589C12.8986 15.6877 12.7826 15.7165 12.7536 15.7165ZM12.8986 15.1692C12.8986 15.1692 12.4638 15.3132 12.4058 15.3132V15.2268V15.1692C12.5217 15.1692 12.6087 15.1403 12.6957 15.1115C12.8116 15.1115 12.8696 15.0539 12.8986 15.1115V15.198V15.1692ZM13.4493 14.3913C13.4493 14.3913 13.3044 14.3913 13.2754 14.3913C13.2754 14.3913 13.3913 14.3048 13.4783 14.3048C13.4783 14.3048 13.5362 14.3048 13.5362 14.3336C13.5362 14.3336 13.4493 14.3625 13.4203 14.3913H13.4493ZM13.5362 13.9591C13.5362 13.9591 13.3913 14.0167 13.2754 14.0167C13.1594 14.0167 12.9275 14.0744 12.3768 14.2472V14.132C12.5217 14.0744 12.6377 14.0167 12.7246 13.9591C12.8696 13.9015 12.9855 13.8727 13.1884 13.8151C13.1884 13.8151 13.3623 13.7574 13.5652 13.7574C13.6522 13.7574 13.7102 13.7574 13.7102 13.7574C13.7102 13.7863 13.6522 13.8439 13.6522 13.8439C13.5942 13.8727 13.5652 13.9015 13.5362 13.9015V13.9591Z" fill="#007E34"/>
</svg>
