<svg width="24" height="24" viewBox="0 0 24 24" fill="none" xmlns="http://www.w3.org/2000/svg">
<path d="M0.0561371 4.25H24.0001V19.75H0.0561371V4.25Z" fill="#10338C"/>
<path d="M10.4271 11.9864C10.4411 11.9728 10.4504 11.9592 10.4644 11.9456C10.4551 11.9592 10.4411 11.9728 10.4271 11.9864ZM8.83081 13.8854L9.34423 14.9232L10.4971 14.6649L9.98367 15.6982L10.9125 16.4143L9.75497 16.6681L9.75963 17.8193L8.83081 17.0987L7.90666 17.8193L7.91133 16.6681L6.7538 16.4143L7.68262 15.6982L7.16453 14.6649L8.32206 14.9232L8.83081 13.8854ZM18.0677 15.177L18.3104 15.671L18.8612 15.5487L18.6138 16.0427L19.0572 16.3826L18.5064 16.5004V17.0534L18.0677 16.7089L17.6243 17.0534L17.6289 16.5004L17.0782 16.3826L17.5216 16.0427L17.2742 15.5487L17.825 15.671L18.0677 15.177ZM15.7993 9.91973L16.042 10.4137L16.5928 10.2914L16.3454 10.7854L16.7888 11.1253L16.238 11.2476V11.796L15.7993 11.4516L15.3559 11.796L15.3606 11.2476L14.8051 11.1253L15.2485 10.7854L15.0012 10.2914L15.5519 10.4137L15.7993 9.91973ZM18.0677 6.91943L18.3104 7.41344L18.8612 7.29107L18.6138 7.78508L19.0572 8.12499L18.5064 8.24736V8.79575L18.0677 8.4513L17.6243 8.79575L17.6289 8.24736L17.0782 8.12499L17.5216 7.78508L17.2742 7.29107L17.825 7.41344L18.0677 6.91943ZM20.0514 9.17192L20.2941 9.66592L20.8448 9.54356L20.5974 10.0376L21.0408 10.3775L20.4901 10.4953V11.0482L20.0514 10.7038L19.6079 11.0482V10.4953L19.0572 10.3775L19.5006 10.0376L19.2532 9.54356L19.804 9.66592L20.0514 9.17192ZM18.6324 11.796L18.8238 12.3716H19.4446L18.9405 12.7251L19.1365 13.3007L18.6324 12.9427L18.1284 13.3007L18.3197 12.7251L17.8203 12.3716H18.4411L18.6324 11.796Z" fill="white"/>
<path d="M11.9487 4.25V5.63684L9.84364 6.77442H11.9487V9.46199H9.1902L11.9487 10.9485V11.9864H10.7025L7.27188 10.1327V11.9864H4.67678V9.78377L0.597433 11.9864H0V10.5996L2.10969 9.46199H0V6.77442H2.75846L0 5.28333V4.25H1.24621L4.67678 6.09912V4.25H7.27188V6.45263L11.3559 4.25H11.9487Z" fill="white"/>
<path d="M6.72112 4.25H5.22754V7.39079H0V8.84108H5.22754V11.9864H6.72112V8.84108H11.9487V7.39079H6.72112V4.25Z" fill="#D80027"/>
<path d="M7.27187 9.46198L11.9486 11.9864V11.2703L8.59742 9.46198H7.27187Z" fill="#0052B4"/>
<path d="M7.27187 9.46198L11.9486 11.9864V11.2703L8.59742 9.46198H7.27187Z" fill="white"/>
<path d="M7.27188 9.46198L11.9487 11.9864V11.2703L8.59743 9.46198H7.27188ZM3.35589 9.46198L0 11.2703V11.9864L4.67678 9.46198H3.35589Z" fill="#D80027"/>
<path d="M4.67678 6.77442L0 4.25V4.96155L3.35589 6.77442H4.67678Z" fill="#0052B4"/>
<path d="M4.67678 6.77442L0 4.25V4.96155L3.35589 6.77442H4.67678Z" fill="white"/>
<path d="M4.67678 6.77442L0 4.25V4.96155L3.35589 6.77442H4.67678ZM8.59743 6.77442L11.9487 4.96155V4.25L7.27188 6.77442H8.59743Z" fill="#D80027"/>
</svg>
