<svg width="24" height="24" viewBox="0 0 24 24" fill="none" xmlns="http://www.w3.org/2000/svg">
<path d="M0 4.25H24V19.75H0V4.25Z" fill="#C8102E"/>
<path d="M0 4.2547H12V12.0047H0V4.2547Z" fill="#012169"/>
<path d="M11.9766 4.25H10.9193L7.48538 6.46623V4.25H4.49123V6.46623L1.05731 4.25H0V5.2788L2.15673 6.67018H0V9.57076H2.15673L0 10.9621V11.9864H1.05731L4.49123 9.77018V11.9864H7.48538V9.77018L10.9193 11.9864H11.9766V10.9621L9.81988 9.57076H11.9766V6.67018H9.81988L11.9766 5.2788V4.25Z" fill="white"/>
<path d="M6.73684 4.25H5.23977V7.39532H0V8.84561H5.23977V11.9864H6.73684V8.84561H11.9766V7.39532H6.73684V4.25Z" fill="#C8102E"/>
<path d="M0 11.9866V11.488L2.92398 9.57093H3.98129L0.34152 11.9866H0ZM0.34152 4.2547L3.98129 6.66581H2.92398L0 4.75324V4.2547H0.34152ZM11.9766 4.2547V4.75324L9.05263 6.67034H7.99532L11.6351 4.2547H11.9766ZM11.6351 11.9866L7.99532 9.57093H9.05263L11.9766 11.488V11.9866H11.6351Z" fill="#C8102E"/>
<path d="M14.8257 8.77942V13.2975C14.8257 16.0082 18.5567 17.8156 18.5567 17.8156C18.5567 17.8156 22.2877 16.0082 22.2877 13.2975V8.77942H14.8257Z" fill="white"/>
<path d="M21.0232 16.0082H16.0903C17.1724 17.1449 18.5567 17.8157 18.5567 17.8157C18.5567 17.8157 19.9411 17.1449 21.0232 16.0082Z" fill="#2F8F22"/>
<path d="M18.5567 16.0082C19.5872 16.0082 20.4225 15.199 20.4225 14.2008C20.4225 13.2026 19.5872 12.3934 18.5567 12.3934C17.5263 12.3934 16.691 13.2026 16.691 14.2008C16.691 15.199 17.5263 16.0082 18.5567 16.0082Z" fill="#65B5D2"/>
<path d="M16.691 14.2012C17.2062 14.2012 17.6239 13.7966 17.6239 13.2975C17.6239 12.7984 17.2062 12.3938 16.691 12.3938C16.1758 12.3938 15.7581 12.7984 15.7581 13.2975C15.7581 13.7966 16.1758 14.2012 16.691 14.2012Z" fill="#C8102E"/>
<path d="M20.422 14.2012C20.9372 14.2012 21.3549 13.7966 21.3549 13.2975C21.3549 12.7984 20.9372 12.3938 20.422 12.3938C19.9068 12.3938 19.4891 12.7984 19.4891 13.2975C19.4891 13.7966 19.9068 14.2012 20.422 14.2012Z" fill="#C8102E"/>
<path d="M18.5567 12.3938C19.0719 12.3938 19.4896 11.9892 19.4896 11.4901C19.4896 10.991 19.0719 10.5864 18.5567 10.5864C18.0415 10.5864 17.6239 10.991 17.6239 11.4901C17.6239 11.9892 18.0415 12.3938 18.5567 12.3938Z" fill="#C8102E"/>
</svg>
