<svg width="24" height="24" viewBox="0 0 24 24" fill="none" xmlns="http://www.w3.org/2000/svg">
<path d="M0 4.25H24V19.75H0V4.25Z" fill="white"/>
<path d="M0 4.25H24V9.41667H0V4.25Z" fill="#D80027"/>
<path d="M0 14.5833H24V19.75H0V14.5833Z" fill="#0052B4"/>
<path d="M14.4702 9.3804V7.38624L15.2889 6.73361L16.1169 7.38624V9.3804H14.4702ZM9.52981 9.3804V7.38624L8.72045 6.73361L7.88303 7.38624V9.3804H9.52981ZM11.1766 9.3804V7.38624L12 6.73361L12.8234 7.38624V9.3804H11.1766Z" fill="#338AF3"/>
<path d="M14.4702 9.3804H12.8234V7.38624L13.6421 6.73361L14.4702 7.38624V9.3804ZM11.1766 9.3804H9.52982V7.38624L10.3485 6.73361L11.1766 7.38624V9.3804Z" fill="#0052B4"/>
<path d="M7.88303 9.3804V13.9987C7.88303 15.1 8.55671 16.0925 9.53917 16.6908C10.5357 17.2981 11.5088 17.357 12 17.357C12.4912 17.357 13.469 17.28 14.4608 16.6862C15.4433 16.0971 16.1169 15.0955 16.1169 13.9987V9.3804H7.88303Z" fill="white"/>
<path fill-rule="evenodd" clip-rule="evenodd" d="M7.85965 9.35776H16.1404V13.9987C16.1404 15.1047 15.4612 16.113 14.4731 16.7055C13.4762 17.3023 12.4936 17.3797 12 17.3797C11.5068 17.3797 10.5286 17.3205 9.52673 16.71C8.53887 16.1084 7.85965 15.1093 7.85965 13.9987V9.35776ZM7.90643 9.40308V13.9987C7.90643 15.0907 8.57458 16.0767 9.55163 16.6716C10.5428 17.2757 11.5108 17.3344 12 17.3344C12.4889 17.3344 13.4618 17.2577 14.4485 16.667C15.4254 16.0812 16.0936 15.0863 16.0936 13.9987V9.40308H7.90643Z" fill="#D80027"/>
<path d="M7.88303 9.3804H9.52981V10.9757H7.88303V9.3804ZM11.1766 9.3804H12.8234V10.9757H11.1766V9.3804ZM14.4702 9.3804H16.1169V10.9757H14.4702V9.3804ZM9.52981 10.9757H11.1766V12.571H9.52981V10.9757ZM12.8234 10.9757H14.4702V12.571H12.8234V10.9757ZM7.88303 12.571H9.52981V14.1664H7.88303V12.571ZM9.52981 14.1664H11.1766V15.7617H9.52981V14.1664ZM11.1766 12.571H12.8234V14.1664H11.1766V12.571ZM14.4702 12.571H16.1169V14.1664H14.4702V12.571ZM12.8234 14.1664H14.4702V15.7617H12.8234V14.1664ZM14.4702 16.6817C14.8725 16.437 15.2281 16.1243 15.4994 15.7617H14.4702V16.6817ZM8.50057 15.7617C8.77191 16.1243 9.12279 16.437 9.52981 16.6862V15.7617H8.50057ZM11.1766 15.7617V17.289C11.5134 17.3434 11.7988 17.357 12 17.357C12.2012 17.357 12.4865 17.3434 12.8234 17.2845V15.7617H11.1766Z" fill="#D80027"/>
</svg>
