<svg width="24" height="24" viewBox="0 0 24 24" fill="none" xmlns="http://www.w3.org/2000/svg">
<path d="M0 4.2498H24V19.75H0V4.2498Z" fill="#0052B4"/>
<path d="M18.7826 10.357L18 10.6097L17.2174 10.357L16.9565 9.72518L17.2174 9.09339H18.7826L18.5217 9.72518L18.7826 10.357Z" fill="#ACABB1"/>
<path d="M16.1739 10.357V13.1368C16.1739 14.491 18 14.9059 18 14.9059C18 14.9059 19.8261 14.491 19.8261 13.1368V10.357H16.1739Z" fill="#338AF3"/>
<path d="M16.3385 13.7954C16.7874 14.6303 18 14.9059 18 14.9059C18 14.9059 19.2126 14.6303 19.6615 13.7954L18 11.1151L16.3385 13.7954Z" fill="#6DA544"/>
<path d="M19.8261 13.1088L18 10.357L16.1739 13.1088V13.1368C16.1739 13.3874 16.2366 13.6058 16.3385 13.7954L18 11.2916L19.6615 13.7954C19.7634 13.6058 19.8261 13.3875 19.8261 13.1368V13.1088V13.1088Z" fill="#FFDA44"/>
<path d="M12 4.2498V5.63722L9.8828 6.77697H12V9.47247H9.22955L12 10.9635V11.9996H10.7494L7.30434 10.1457V11.9996H4.69566V9.79393L0.597375 11.9996H0V10.6122L2.1172 9.47247H0V6.77697H2.77045L0 5.28543V4.2498H1.25062L4.69566 6.10367V4.2498H7.30434V6.45547L11.4026 4.2498H12Z" fill="white"/>
<path d="M6.75 4.24958H5.25V7.39796H0V8.85109H5.25V11.9996H6.75V8.85109H12V7.39796H6.75V4.24958Z" fill="#D80027"/>
<path d="M7.30435 9.47247L12 11.9996V11.285L8.63218 9.47247H7.30435Z" fill="#0052B4"/>
<path d="M7.30435 9.47247L12 11.9996V11.285L8.63218 9.47247H7.30435Z" fill="white"/>
<path d="M7.30434 9.47247L12 11.9996V11.285L8.63217 9.47247H7.30434ZM3.36778 9.47247L0 11.285V11.9996L4.69566 9.47247H3.36778Z" fill="#D80027"/>
<path d="M4.69566 6.77675L0 4.24958V4.9642L3.36783 6.77675H4.69566Z" fill="#0052B4"/>
<path d="M4.69566 6.77675L0 4.24958V4.9642L3.36783 6.77675H4.69566Z" fill="white"/>
<path d="M4.69566 6.77675L0 4.24958V4.9642L3.36783 6.77675H4.69566ZM8.63222 6.77675L12 4.9642V4.24958L7.30434 6.77675H8.63222Z" fill="#D80027"/>
</svg>
