<svg width="24" height="24" viewBox="0 0 24 24" fill="none" xmlns="http://www.w3.org/2000/svg">
<path d="M0 4.25016H24V19.7498H0V4.25016Z" fill="white"/>
<path d="M0 9.41659H24V14.5831H0V9.41659Z" fill="#0052B4"/>
<path d="M0 14.5832H24V19.7497H0V14.5832Z" fill="#D80027"/>
<path d="M10.9503 9.3043V9.97805C10.9503 11.5257 8.8633 11.9998 8.8633 11.9998C8.8633 11.9998 6.77633 11.5257 6.77633 9.97805V9.3043L6.76953 7.29771L10.9434 7.28563L10.9503 9.3043V9.3043Z" fill="white"/>
<path d="M10.9503 9.3043V9.97805C10.9503 11.5257 8.8633 11.9998 8.8633 11.9998C8.8633 11.9998 6.77633 11.5257 6.77633 9.97805V9.3043L6.76953 7.29771L10.9434 7.28563L10.9503 9.3043V9.3043Z" fill="#0052B4"/>
<path d="M10.9503 9.3043V9.97805C10.9503 11.5257 8.86334 11.9998 8.86334 11.9998C8.86334 11.9998 6.77637 11.5257 6.77637 9.97805V9.3043L7.47237 9.97805L8.86334 8.96717L10.2548 9.97805L10.9503 9.3043V9.3043Z" fill="white"/>
</svg>
