<svg width="24" height="24" viewBox="0 0 24 24" fill="none" xmlns="http://www.w3.org/2000/svg">
<path d="M0 4.25H24V19.75H0V4.25Z" fill="white"/>
<path d="M0 4.25H24V9.41667H0V4.25Z" fill="#CE1126"/>
<path d="M0 14.5833H24V19.75H0V14.5833Z" fill="black"/>
<path d="M10.255 11.5332H8.88422C8.95439 11.2749 9.19299 11.0845 9.48305 11.0845V10.1826C8.62691 10.1826 7.93451 10.8579 7.93451 11.6828V12.4306H10.255C10.3392 12.4306 10.4094 12.4986 10.4094 12.5801V12.8793H7.31229V13.7812H11.3404V12.5801C11.3404 12.0045 10.8538 11.5332 10.255 11.5332V11.5332ZM12.5754 12.8838V10.1826H11.6491V13.7857H13.1977V12.8838H12.5754ZM15.6725 12.8838V10.1826H14.7462V12.8838H14.4374V11.9864H13.5064V13.7857H16.2947V12.8838H15.6725Z" fill="#547C31"/>
</svg>
