<svg width="24" height="24" viewBox="0 0 24 24" fill="none" xmlns="http://www.w3.org/2000/svg">
<path d="M0 4.25016H24V19.7498H0V4.25016Z" fill="white"/>
<path d="M24 4.25016V12H12L0 4.25016H24Z" fill="#0052B4"/>
<path d="M24 11.9999V19.7497H0L12 11.9999H24Z" fill="#D80027"/>
<path d="M7.58944 11.9999L6.31031 11.4171L6.9915 10.217L5.6025 10.4743L5.42648 9.11507L4.45898 10.1148L3.49153 9.11507L3.31551 10.4743L1.92656 10.2169L2.6077 11.417L1.32858 11.9999L2.6077 12.5827L1.92656 13.7828L3.31561 13.5254L3.49153 14.8847L4.45898 13.885L5.42648 14.8847L5.6025 13.5254L6.99145 13.7829L6.31026 12.5828L7.58944 11.9999ZM1.02136 5.71544L1.44703 6.29197L2.14448 6.0779L1.71005 6.64826L2.13572 7.22469L1.44155 7.00073L1.00711 7.57104L1.01259 6.86227L0.31842 6.63822L1.01592 6.42425L1.02136 5.71544ZM1.02136 16.4287L1.44703 17.0053L2.14448 16.7912L1.71005 17.3616L2.13572 17.938L1.44155 17.714L1.00711 18.2843L1.01259 17.5756L0.31842 17.3515L1.01592 17.1376L1.02136 16.4287ZM9.86226 11.0721L9.43659 11.6486L8.73914 11.4346L9.17358 12.0049L8.7479 12.5814L9.44208 12.3574L9.87651 12.9277L9.87103 12.219L10.5652 11.9949L9.8677 11.7809L9.86226 11.0721Z" fill="#FFDA44"/>
</svg>
