<svg width="24" height="24" viewBox="0 0 24 24" fill="none" xmlns="http://www.w3.org/2000/svg">
<path d="M0 4.25H24V19.75H0V4.25Z" fill="white"/>
<path d="M14.1193 12L24 5.61871V4.25H21.8807L12 10.6313L2.1193 4.25H0V5.61871L9.8807 12L0 18.3813V19.75H2.1193L12 13.3687L21.8807 19.75H24V18.3813L14.1193 12Z" fill="#D80027"/>
<path d="M10.9334 6.27133L11.9766 6.52513L13.0199 6.27133L13.207 5.32411L12.51 5.6187L11.9766 4.92075L11.4433 5.6187L10.7462 5.32411L10.9334 6.27133Z" fill="#FFDA44"/>
<path d="M10.9334 6.27135C10.9334 6.27135 10.7462 6.856 10.7462 7.62646C10.7462 8.89094 11.9766 9.49825 11.9766 9.49825C11.9766 9.49825 13.207 8.79576 13.207 7.62646C13.207 6.92851 13.0199 6.27135 13.0199 6.27135C13.0199 6.27135 12.641 6.04474 11.9766 6.04474C11.3123 6.04474 10.9334 6.27135 10.9334 6.27135Z" fill="#D80027"/>
</svg>
