<svg width="24" height="24" viewBox="0 0 24 24" fill="none" xmlns="http://www.w3.org/2000/svg">
<path d="M0.0233765 4.25H23.9766V5.6595H0.0233765V4.25ZM0.0233765 7.06901H23.9766V8.47851H0.0233765V7.06901ZM0.0233765 9.89254H23.9766V11.302H0.0233765V9.89254ZM0.0233765 12.7161H23.9766V14.1256H0.0233765V12.7161ZM0.0233765 15.5487H23.9766V16.9582H0.0233765V15.5487ZM0.0233765 18.3405H23.9766V19.75H0.0233765V18.3405Z" fill="#BF0A30"/>
<path d="M0.0233765 4.25H7.30291V11.302H0.0233765V4.25Z" fill="#002868"/>
<path d="M3.66312 5.61871L4.16371 7.1098H5.78242L4.47248 8.03436L4.97306 9.52544L3.66312 8.60541L2.35318 9.52544L2.85376 8.03436L1.54382 7.1098H3.16254L3.66312 5.61871Z" fill="white"/>
</svg>
