<svg width="24" height="24" viewBox="0 0 24 24" fill="none" xmlns="http://www.w3.org/2000/svg">
<path d="M0 4.25014H24V19.7503H0V4.25014Z" fill="#0052B4"/>
<path d="M19.9834 10.9735L19.936 10.8322L19.8886 10.9735L19.7411 11.4129H19.2632H19.1053L19.2344 11.5038L19.6197 11.775L19.4727 12.2132L19.4243 12.3577L19.5489 12.2699L19.936 11.9976L20.3229 12.2699L20.4476 12.3577L20.3991 12.2132L20.2521 11.775L20.6375 11.5038L20.7666 11.4129H20.6087H20.1307L19.9834 10.9735ZM18.1462 14.3825L18.0987 14.2412L18.0513 14.3825L17.8246 15.0587H17.0897H16.9318L17.0609 15.1496L17.6541 15.5672L17.4277 16.242L17.3792 16.3866L17.5039 16.2988L18.0987 15.8801L18.6936 16.2988L18.8183 16.3866L18.7698 16.242L18.5435 15.5672L19.1367 15.1496L19.2658 15.0587H19.1079H18.373L18.1462 14.3825ZM18.2156 8.80408L18.1682 8.66275L18.1208 8.80408L17.9336 9.36194H17.3272H17.1693L17.2985 9.45283L17.7877 9.79712L17.601 10.3537L17.5525 10.4982L17.6772 10.4104L18.1682 10.0649L18.6591 10.4104L18.7838 10.4982L18.7353 10.3537L18.5486 9.79712L19.0379 9.45284L19.1671 9.36194H19.0091H18.4027L18.2156 8.80408ZM16.4478 10.9529L16.4004 10.8116L16.353 10.9529L16.1262 11.629H15.3913H15.2334L15.3625 11.7199L15.9557 12.1374L15.7293 12.8123L15.6809 12.9569L15.8055 12.8691L16.4004 12.4505L16.9954 12.8691L17.12 12.9569L17.0715 12.8123L16.8451 12.1374L17.4383 11.7199L17.5675 11.629H17.4095H16.6746L16.4478 10.9529Z" fill="#D80027" stroke="white" stroke-width="0.1"/>
<path d="M12.0002 4.24968V5.6376L9.88253 6.77685H12.0002V9.47235H9.22932L12.0002 10.9639V11.9995H10.7492L7.30459 10.1456V11.9995H4.6959V9.79381L0.597666 11.9995H0.000244141V10.6121L2.11749 9.47235H0.000244141V6.77685H2.7707L0.000244141 5.28585V4.24968H1.25087L4.6959 6.10414V4.24968H7.30459V6.45539L11.4029 4.24968H12.0002Z" fill="white"/>
<path d="M6.75 4.24983H5.25V7.3983H0V8.85143H5.25V11.9999H6.75V8.85143H12V7.3983H6.75V4.24983Z" fill="#D80027"/>
<path d="M7.30432 9.47266L12 11.9999V11.2852L8.63215 9.47266H7.30432Z" fill="#0052B4"/>
<path d="M7.30432 9.47266L12 11.9999V11.2852L8.63215 9.47266H7.30432Z" fill="white"/>
<path d="M7.30434 9.47266L12 11.9999V11.2852L8.63217 9.47266H7.30434ZM3.36778 9.47266L0 11.2852V11.9999L4.69566 9.47266H3.36778Z" fill="#D80027"/>
<path d="M4.69566 6.77705L0 4.24983V4.9645L3.36783 6.77705H4.69566Z" fill="#0052B4"/>
<path d="M4.69566 6.77705L0 4.24983V4.9645L3.36783 6.77705H4.69566Z" fill="white"/>
<path d="M4.69566 6.77705L0 4.24983V4.9645L3.36783 6.77705H4.69566ZM8.63222 6.77705L12 4.9645V4.24983L7.30434 6.77705H8.63222Z" fill="#D80027"/>
</svg>
