<svg width="24" height="24" viewBox="0 0 24 24" fill="none" xmlns="http://www.w3.org/2000/svg">
<path d="M0 4.25H24V19.75H0V4.25Z" fill="#D80027"/>
<path d="M0 4.25H24V12H0V4.25Z" fill="#0052B4"/>
<path d="M6.98481 8.69606C6.98481 8.06155 6.45615 7.54942 5.80118 7.54942C5.49709 7.54942 5.22107 7.65819 5.01054 7.83948V7.16872H5.40352V6.40278H5.01054V6.02208H4.22457V6.40278H3.83159V7.16872H4.22457V7.84401C4.01405 7.66272 3.73802 7.55395 3.43393 7.55395C2.77896 7.55395 2.25031 8.06609 2.25031 8.70059C2.25031 9.0405 2.40469 9.34416 2.64329 9.55263V10.2279H6.58715V9.55263C6.8351 9.33962 6.98481 9.03144 6.98481 8.69606Z" fill="#FFDA44"/>
</svg>
