<svg width="24" height="24" viewBox="0 0 24 24" fill="none" xmlns="http://www.w3.org/2000/svg">
<path d="M0 4.25H24V19.75H0V4.25Z" fill="#1B4991"/>
<path d="M14.8865 9.08582V13.9126C14.8865 16.2648 18.0585 16.9854 18.0585 16.9854C18.0585 16.9854 21.2304 16.2648 21.2304 13.9126V9.08582H14.8865Z" fill="#00A2B8"/>
<path fill-rule="evenodd" clip-rule="evenodd" d="M14.8164 9.01784H21.3006V13.9126C21.3006 15.1231 20.4832 15.9094 19.6813 16.3889C19.2796 16.6291 18.8784 16.7946 18.578 16.9C18.4277 16.9527 18.3023 16.9905 18.2143 17.0151C18.1703 17.0275 18.1356 17.0365 18.1118 17.0425C18.0999 17.0455 18.0907 17.0477 18.0844 17.0492C18.0813 17.05 18.0789 17.0506 18.0772 17.0509L18.0753 17.0514L18.0746 17.0515C18.0745 17.0516 18.0745 17.0516 18.0585 16.9854C18.0425 17.0516 18.0424 17.0516 18.0424 17.0515L18.0417 17.0514L18.0398 17.0509C18.0381 17.0506 18.0357 17.05 18.0326 17.0492C18.0263 17.0477 18.0171 17.0455 18.0052 17.0425C17.9814 17.0365 17.9467 17.0275 17.9027 17.0151C17.8147 16.9905 17.6893 16.9527 17.539 16.9C17.2386 16.7946 16.8374 16.6291 16.4357 16.3889C15.6338 15.9094 14.8164 15.1231 14.8164 13.9126V9.01784ZM18.0585 16.9854L18.0425 17.0516L18.0585 17.0552L18.0745 17.0516L18.0585 16.9854ZM18.0585 16.9154C18.0634 16.9142 18.0694 16.9127 18.0764 16.9109C18.0991 16.9052 18.1326 16.8965 18.1753 16.8845C18.2607 16.8606 18.3832 16.8237 18.5302 16.7721C18.8245 16.6689 19.2163 16.5071 19.6076 16.2732C20.3916 15.8044 21.1602 15.0542 21.1602 13.9126V9.1538H14.9567V13.9126C14.9567 15.0542 15.7253 15.8044 16.5094 16.2732C16.9006 16.5071 17.2924 16.6689 17.5868 16.7721C17.7338 16.8237 17.8562 16.8606 17.9417 16.8845C17.9844 16.8965 18.0179 16.9052 18.0405 16.9109C18.0476 16.9127 18.0536 16.9142 18.0585 16.9154Z" fill="white"/>
<path d="M14.9567 13.8899C14.9567 16.1922 18.0585 16.8947 18.0585 16.8947C18.0585 16.8947 21.1602 16.1877 21.1602 13.8899H14.9567Z" fill="#A35023"/>
<path d="M19.4199 11.2794H18.5123V10.4001H17.6047V11.2794H16.7018V12.1586H17.6047V14.7918H18.5123V12.1586H19.4199V11.2794Z" fill="black"/>
<path d="M11.9766 4.25V5.63684L9.86199 6.77442H11.9766V9.46199H9.2117L11.9766 10.9485V11.9864H10.7275L7.28889 10.1327V11.9864H4.68772V9.78377L0.594152 11.9864H0V10.5996L2.11462 9.46199H0V6.77442H2.76491L0 5.28333V4.25H1.24912L4.68772 6.09912V4.25H7.28889V6.45263L11.3825 4.25H11.9766Z" fill="white"/>
<path d="M6.73684 4.25H5.23977V7.39079H0V8.84108H5.23977V11.9864H6.73684V8.84108H11.9766V7.39079H6.73684V4.25Z" fill="#D80027"/>
<path d="M7.28888 9.46199L11.9766 11.9864V11.2703L8.61753 9.46199H7.28888Z" fill="#0052B4"/>
<path d="M7.28888 9.46199L11.9766 11.9864V11.2703L8.61753 9.46199H7.28888Z" fill="white"/>
<path d="M7.28889 9.46199L11.9766 11.9864V11.2703L8.61754 9.46199H7.28889ZM3.35906 9.46199L0 11.2703V11.9864L4.68772 9.46199H3.35906Z" fill="#D80027"/>
<path d="M4.68772 6.76988L0 4.25V4.96155L3.35906 6.76988H4.68772Z" fill="#0052B4"/>
<path d="M4.68772 6.76988L0 4.25V4.96155L3.35906 6.76988H4.68772Z" fill="white"/>
<path d="M4.68772 6.76988L0 4.25V4.96155L3.35906 6.76988H4.68772ZM8.61754 6.76988L11.9766 4.96155V4.25L7.28889 6.76988H8.61754Z" fill="#D80027"/>
</svg>
