<svg width="24" height="24" viewBox="0 0 24 24" fill="none" xmlns="http://www.w3.org/2000/svg">
<path d="M0 4.00078H24V19.9992H0V4.00078Z" fill="white"/>
<path d="M18.6422 11.7961L16.2515 16.3758C16.2 16.4695 16.2375 16.5867 16.3359 16.6383C16.4297 16.6898 16.5469 16.6523 16.5984 16.5539L18.989 11.9742C19.0359 11.8758 18.9937 11.7586 18.8953 11.7164C18.8015 11.6742 18.6937 11.707 18.6422 11.7961Z" fill="#1583C4"/>
<path d="M18.9797 12.8133L16.2703 16.3477C16.2094 16.4367 16.2328 16.5586 16.3219 16.6195C16.4016 16.6758 16.5141 16.6617 16.5797 16.5867L19.2891 13.0523C19.3547 12.968 19.3407 12.8461 19.2516 12.7805C19.1672 12.7102 19.0453 12.7289 18.9797 12.8133Z" fill="#1583C4"/>
<path d="M17.7656 12.4992L16.2422 16.3945C16.2047 16.493 16.2515 16.6102 16.3547 16.6477C16.4531 16.6852 16.5703 16.6383 16.6078 16.5352L18.1312 12.6398C18.164 12.5367 18.1125 12.4289 18.0094 12.3914C17.9109 12.3633 17.8078 12.4102 17.7656 12.4992Z" fill="#1583C4"/>
<path d="M5.72344 12.0586C5.74219 12.1383 5.77969 12.2789 5.82657 12.457C5.90625 12.757 5.99532 13.057 6.08907 13.3336C6.19688 13.657 6.77813 14.8055 7.03594 15.1664C7.35938 15.6211 7.69688 16.0711 8.04375 16.507C8.11875 16.5961 8.25469 16.6055 8.34375 16.5305C8.42813 16.4555 8.44219 16.3289 8.37657 16.2398C8.03438 15.8086 7.70157 15.368 7.38282 14.918C7.18594 14.6461 6.57657 13.4602 6.49219 13.1977C6.35625 12.7898 6.23907 12.3727 6.13594 11.9555C6.1125 11.843 6 11.768 5.8875 11.7914C5.775 11.8148 5.7 11.9273 5.72344 12.0398C5.71875 12.0492 5.72344 12.0539 5.72344 12.0586Z" fill="#409347"/>
<path d="M13.9266 9.38671C13.9266 9.38671 13.1016 6.00702 12.2344 6.00702C11.911 6.00702 11.6766 5.97889 11.5125 6.30702C11.4703 6.38671 10.5422 6.23202 10.6172 7.28202C10.6407 7.60546 10.6688 6.82264 11.3157 7.12264C11.611 7.26327 10.5469 9.38202 10.5469 9.38202H13.9266V9.38671Z" fill="#FFD836" stroke="black" stroke-width="0.2" stroke-miterlimit="10"/>
<path fill-rule="evenodd" clip-rule="evenodd" d="M12.1642 5.98331C12.1873 5.98347 12.2107 5.98363 12.2344 5.98363C12.3506 5.98363 12.4637 6.04024 12.5715 6.13464C12.6794 6.22914 12.7842 6.36324 12.8844 6.52264C13.085 6.84151 13.2701 7.26573 13.4276 7.6887C13.5852 8.11192 13.7156 8.535 13.8066 8.85218C13.8521 9.0108 13.8878 9.14299 13.9121 9.23555C13.9242 9.28183 13.9335 9.3182 13.9398 9.34302C13.9413 9.34887 13.9426 9.35408 13.9437 9.35863H13.95V9.58118L13.9071 9.40541H10.509L10.526 9.37152L10.5469 9.38202C10.526 9.37152 10.526 9.37154 10.526 9.37152L10.526 9.37143L10.529 9.36549C10.531 9.36149 10.534 9.35555 10.5378 9.34779C10.5455 9.33227 10.5568 9.30948 10.571 9.28041C10.5995 9.22228 10.6399 9.13906 10.6874 9.03875C10.7825 8.83811 10.9061 8.56922 11.0204 8.29603C11.1349 8.02263 11.2397 7.7458 11.2975 7.52897C11.3265 7.42035 11.3432 7.32828 11.344 7.25983C11.3444 7.22558 11.3408 7.19873 11.3337 7.17917C11.3267 7.16001 11.3171 7.14927 11.3057 7.14381C11.1476 7.07054 11.0304 7.06473 10.9432 7.089C10.8557 7.11334 10.7947 7.16893 10.7512 7.22541C10.7294 7.25364 10.7122 7.28187 10.6982 7.30623C10.6941 7.31355 10.69 7.32082 10.6862 7.32774C10.6779 7.34269 10.6705 7.356 10.6645 7.36468C10.6621 7.3681 10.6594 7.37168 10.6564 7.37478C10.6536 7.37757 10.6488 7.38192 10.6418 7.38406C10.6331 7.38674 10.6238 7.38513 10.6165 7.37939C10.6106 7.3748 10.6075 7.36877 10.6059 7.36482C10.6024 7.35666 10.6003 7.34564 10.5986 7.3334C10.5969 7.32056 10.5954 7.30408 10.5939 7.28371C10.5749 7.01786 10.6192 6.8257 10.6992 6.68627C10.7793 6.5467 10.8939 6.46214 11.0113 6.40932C11.1284 6.35666 11.2487 6.33535 11.341 6.32217C11.3566 6.31994 11.3713 6.31796 11.3849 6.31611C11.4122 6.31243 11.4355 6.30928 11.4546 6.30573C11.4688 6.30308 11.4792 6.30045 11.4863 6.29774C11.49 6.29632 11.4918 6.29524 11.4925 6.29476C11.5769 6.12678 11.6812 6.04733 11.8073 6.01147C11.9125 5.98157 12.0325 5.9824 12.1642 5.98331ZM10.5847 9.35863H13.8955C13.8951 9.35729 13.8948 9.3559 13.8944 9.35448C13.8882 9.32979 13.8789 9.29356 13.8668 9.24743C13.8426 9.15516 13.807 9.02331 13.7616 8.86508C13.6708 8.54858 13.5408 8.12673 13.3838 7.70503C13.2266 7.28307 13.0429 6.86237 12.8448 6.54755C12.7458 6.39011 12.6438 6.26017 12.5407 6.16984C12.4374 6.07942 12.3349 6.03041 12.2344 6.03041C12.2098 6.03041 12.1859 6.03026 12.1626 6.03011C12.0304 6.02927 11.9183 6.02856 11.8201 6.05647C11.7076 6.08845 11.6129 6.15857 11.5334 6.31748L11.5332 6.31797C11.5264 6.33087 11.5132 6.33751 11.5031 6.3414C11.492 6.34568 11.4782 6.34893 11.4631 6.35172C11.4429 6.35549 11.4177 6.3589 11.3896 6.3627C11.3762 6.36451 11.3621 6.36641 11.3476 6.36848C11.2563 6.38152 11.1414 6.40211 11.0305 6.45199C10.92 6.5017 10.814 6.58033 10.7398 6.70956C10.6656 6.83893 10.622 7.0212 10.6405 7.28034C10.6413 7.29135 10.6421 7.30094 10.6429 7.30922C10.6431 7.30886 10.6433 7.3085 10.6435 7.30813C10.6476 7.3008 10.6522 7.29244 10.6576 7.28303C10.672 7.25778 10.6905 7.22749 10.7141 7.19684C10.7614 7.13554 10.8302 7.07189 10.9306 7.04393C11.0313 7.01592 11.1601 7.02474 11.3255 7.10142L11.3257 7.10152C11.3512 7.11366 11.3678 7.13594 11.3777 7.16322C11.3874 7.19014 11.3912 7.22324 11.3908 7.26038C11.3899 7.33471 11.372 7.43124 11.3427 7.54102C11.2841 7.76102 11.1782 8.04023 11.0636 8.3141C10.9489 8.58818 10.8249 8.85777 10.7297 9.05878C10.6821 9.15931 10.6416 9.24271 10.613 9.301C10.6016 9.32445 10.592 9.34383 10.5847 9.35863ZM10.623 7.34198C10.6228 7.34218 10.6228 7.34219 10.623 7.34198V7.34198Z" fill="#231F20"/>
<path d="M21.8251 6.17228L21.8249 6.17232L17.564 7.20357L17.5639 7.20359C16.6762 7.41934 16.0987 7.66014 15.7343 7.90483C15.3687 8.15031 15.2088 8.4062 15.178 8.65055C15.1475 8.89193 15.2464 9.09684 15.3445 9.23526C15.3652 9.26449 15.3862 9.29121 15.4064 9.31521L12.2344 9.84314L9.06239 9.31521C9.08262 9.29121 9.10361 9.26449 9.12431 9.23526C9.22237 9.09684 9.3213 8.89193 9.29083 8.65055C9.25998 8.4062 9.10003 8.15031 8.73445 7.90483C8.37004 7.66014 7.79261 7.41934 6.90488 7.20359L6.90479 7.20357L2.64386 6.17233C2.64386 6.17232 2.64385 6.17232 2.64385 6.17232C2.48567 6.13402 2.34445 6.12348 2.22615 6.1426C2.10731 6.1618 2.00539 6.21233 1.93992 6.30089C1.87416 6.38982 1.85644 6.50185 1.8756 6.62093C1.89461 6.73903 1.95036 6.86956 2.03933 7.00797L2.04548 7.01753L2.05362 7.02547L2.12345 6.95389L2.05368 7.02553L2.05385 7.0257L2.05455 7.02637L2.05728 7.02904L2.06805 7.03953L2.1101 7.08044L2.27046 7.23595C2.40905 7.37009 2.60807 7.5621 2.84983 7.79369C3.33334 8.25682 3.98798 8.87833 4.67233 9.51166C5.35651 10.1448 6.07112 10.7905 6.67438 11.3017C6.97594 11.5572 7.25059 11.7799 7.48023 11.9509C7.70688 12.1196 7.89809 12.2444 8.03022 12.2968C8.52486 12.4951 9.02166 12.4942 9.39161 12.4454C9.43031 12.4403 9.46769 12.4347 9.50361 12.4287C9.27215 12.6244 8.98695 12.9111 8.769 13.2774C8.65504 13.4669 8.58468 13.6677 8.51941 13.857L8.51412 13.8724C8.44986 14.0589 8.38983 14.2331 8.29752 14.3935C8.20416 14.5557 8.07784 14.7031 7.88088 14.8261C7.68265 14.9498 7.40834 15.0515 7.01543 15.1145L6.97843 15.1205L6.95444 15.1492C6.81304 15.3189 6.74022 15.5097 6.76445 15.7043C6.78868 15.8988 6.90733 16.0768 7.10736 16.2262L7.10802 16.2267C7.15921 16.2643 7.22136 16.2697 7.27458 16.2652C7.32941 16.2606 7.3901 16.2442 7.4531 16.2212C7.57952 16.1749 7.7337 16.0948 7.90259 15.9944C8.24147 15.793 8.65576 15.5001 9.05583 15.2008C9.30342 15.0155 9.54647 14.827 9.76412 14.655C9.67145 14.7809 9.5834 14.9114 9.51087 15.0381C9.40415 15.2247 9.32189 15.4186 9.32189 15.5836C9.32189 15.625 9.34104 15.6672 9.35632 15.697C9.37427 15.7319 9.39934 15.7725 9.42948 15.8168C9.48997 15.9058 9.57587 16.0173 9.67965 16.1423C9.88753 16.3928 10.1717 16.703 10.4791 17.0055C10.7863 17.3076 11.1189 17.6041 11.4236 17.8259C11.576 17.9367 11.7234 18.0304 11.8587 18.0967C11.9921 18.1621 12.1228 18.2055 12.2391 18.2055C12.3554 18.2055 12.486 18.1621 12.6195 18.0967C12.7548 18.0304 12.9022 17.9367 13.0545 17.8259C13.3593 17.6041 13.6919 17.3076 13.999 17.0055C14.3065 16.703 14.5906 16.3928 14.7985 16.1423C14.9023 16.0173 14.9882 15.9058 15.0487 15.8168C15.0788 15.7725 15.1039 15.7319 15.1218 15.697C15.1371 15.6672 15.1563 15.625 15.1563 15.5836C15.1563 15.4186 15.074 15.2247 14.9673 15.0381C14.8948 14.9114 14.8067 14.7809 14.714 14.6551C14.9317 14.827 15.1747 15.0155 15.4223 15.2008C15.8224 15.5001 16.2367 15.793 16.5756 15.9944C16.7445 16.0948 16.8986 16.1749 17.0251 16.2212C17.0881 16.2442 17.1487 16.2606 17.2036 16.2652C17.2568 16.2697 17.3189 16.2643 17.3701 16.2267C17.5762 16.0754 17.7234 15.8268 17.7649 15.6068C17.7856 15.4969 17.7823 15.3811 17.7323 15.2861C17.6788 15.1844 17.5803 15.1227 17.4492 15.1135L17.4486 15.1135C17.1346 15.0933 16.9001 15.0139 16.7173 14.8994C16.5343 14.7846 16.3975 14.6311 16.2842 14.4544C16.1701 14.2766 16.0816 14.0784 15.9927 13.8741C15.987 13.861 15.9813 13.8479 15.9756 13.8347C15.8934 13.6454 15.8091 13.4514 15.7045 13.2774C15.4841 12.9109 15.1987 12.6241 14.9676 12.4283C15.0042 12.4344 15.0424 12.4402 15.0819 12.4454C15.4519 12.4942 15.9488 12.4951 16.4435 12.2967C16.5754 12.2438 16.7665 12.1186 16.9931 11.9494C17.2226 11.7782 17.4971 11.5553 17.7984 11.2997C18.4012 10.7883 19.1152 10.1428 19.7988 9.50989C20.4826 8.87686 21.1366 8.25579 21.6197 7.79302C21.8612 7.56162 22.0601 7.36977 22.1985 7.23576L22.3587 7.08039L22.4007 7.03952L22.4115 7.02903L22.4142 7.02637L22.4149 7.0257L22.4151 7.02553L22.3453 6.95389L22.4152 7.02547L22.4233 7.01753L22.4294 7.00797C22.5184 6.86965 22.5744 6.73924 22.5938 6.62128C22.6133 6.50239 22.5963 6.39027 22.5308 6.30113C22.4656 6.21233 22.3636 6.16179 22.2446 6.14259C22.1261 6.12349 21.9843 6.13402 21.8251 6.17228Z" fill="#FFD836" stroke="black" stroke-width="0.2" stroke-miterlimit="10"/>
<path d="M9.43594 9.2414V13.0055C9.43594 15.1477 12.2344 15.8039 12.2344 15.8039C12.2344 15.8039 15.0328 15.1477 15.0328 13.0055V9.2414H9.43594Z" fill="white"/>
<path fill-rule="evenodd" clip-rule="evenodd" d="M9.43596 9.21801H15.0562V13.0055C15.0562 14.0884 14.3485 14.7942 13.6459 15.2279C13.2943 15.4449 12.943 15.5945 12.6796 15.6899C12.5479 15.7376 12.4381 15.7717 12.3611 15.794C12.3227 15.8051 12.2924 15.8133 12.2717 15.8186C12.2614 15.8213 12.2534 15.8233 12.248 15.8247C12.2453 15.8253 12.2433 15.8258 12.2419 15.8262L12.2403 15.8265L12.2399 15.8266L12.2398 15.8267C12.2398 15.8267 12.2397 15.8267 12.2344 15.8039C12.2291 15.8267 12.229 15.8267 12.229 15.8267L12.2289 15.8266L12.2285 15.8265L12.2269 15.8262C12.2255 15.8258 12.2235 15.8253 12.2208 15.8247C12.2154 15.8233 12.2074 15.8213 12.1971 15.8186C12.1764 15.8133 12.1461 15.8051 12.1077 15.794C12.0307 15.7717 11.9209 15.7376 11.7892 15.6899C11.5258 15.5945 11.1744 15.4449 10.8229 15.2279C10.1203 14.7942 9.41257 14.0884 9.41257 13.0055V9.2414H9.43596V9.21801ZM9.45935 9.26479V13.0055C9.45935 14.0647 10.1508 14.7581 10.8475 15.1881C11.1955 15.4029 11.5438 15.5513 11.8051 15.6459C11.9357 15.6932 12.0446 15.727 12.1206 15.749C12.1587 15.7601 12.1886 15.7681 12.2089 15.7734C12.219 15.776 12.2268 15.778 12.232 15.7792C12.2329 15.7795 12.2337 15.7797 12.2344 15.7798C12.2351 15.7797 12.2359 15.7795 12.2368 15.7792C12.242 15.778 12.2498 15.776 12.2599 15.7734C12.2802 15.7681 12.3101 15.7601 12.3481 15.749C12.4242 15.727 12.5331 15.6932 12.6637 15.6459C12.925 15.5513 13.2733 15.4029 13.6213 15.1881C14.318 14.7581 15.0094 14.0647 15.0094 13.0055V9.26479H9.45935ZM12.2344 15.8039L12.2291 15.8267L12.2344 15.8279L12.2397 15.8267L12.2344 15.8039Z" fill="#231F20"/>
<path d="M10.5562 10.4555V15.0164C10.9406 15.2977 11.3531 15.4945 11.6766 15.6211V10.4555H10.5562ZM13.9125 10.4555V15.0164C13.5281 15.2977 13.1156 15.4945 12.7922 15.6211V10.4555H13.9125Z" fill="#D80027"/>
<path d="M9.43594 9.2414H15.0328V11.018H9.43594V9.2414Z" fill="#0052B4"/>
<path d="M2.81718 13.868L1.79062 11.1445H0.735931L2.22656 14.932H3.40781L4.88437 11.1445H3.82968L2.81718 13.868ZM21.1641 11.1211H22.05V14.9508H21.1641V11.1211Z" fill="#1583C4"/>
</svg>
