<svg width="24" height="24" viewBox="0 0 24 24" fill="none" xmlns="http://www.w3.org/2000/svg">
<path d="M0 4.25H24V19.75H0V4.25Z" fill="#D01920"/>
<path d="M6.78262 8.29366H17.2174V15.7069H6.78262V8.29366Z" fill="#017C3B"/>
<path d="M13.2883 14.1902C12.0397 14.1902 11.0274 13.2096 11.0274 12C11.0274 10.7904 12.0397 9.80977 13.2883 9.80977C13.6777 9.80977 14.0439 9.90513 14.3638 10.073C13.8621 9.5977 13.1759 9.30435 12.4187 9.30435C10.882 9.30435 9.63614 10.5112 9.63614 12C9.63614 13.4888 10.882 14.6956 12.4187 14.6956C13.176 14.6956 13.8621 14.4022 14.3638 13.927C14.044 14.0949 13.6777 14.1902 13.2883 14.1902V14.1902Z" fill="white"/>
</svg>
