<svg width="24" height="24" viewBox="0 0 24 24" fill="none" xmlns="http://www.w3.org/2000/svg">
<path d="M0 4.25H24V19.75H0V4.25Z" fill="#D80027"/>
<path d="M23.9532 4.25H0V19.75" fill="#6DA544"/>
<path d="M14.3953 4.25L0 13.0651V19.75H9.67953L24 10.9803V4.25H14.3953Z" fill="#FFDA44"/>
<path d="M24 4.25H18.0211L0 15.5532V19.75H5.90409L24 8.40146V4.25Z" fill="black"/>
<path d="M6.60119 12.7251L8.06084 13.8129L9.57195 12.8067L8.95908 14.4836L10.4141 15.5668L8.58013 15.517L7.96259 17.1939L7.44329 15.4898L5.60938 15.4399L7.12049 14.4338L6.60119 12.7251ZM14.531 7.45877L15.9907 8.54196L17.5018 7.53582L16.8889 9.21272L18.3439 10.2959L16.51 10.2461L15.8924 11.923L15.3731 10.2189L13.5392 10.169L15.055 9.16286L14.531 7.45877Z" fill="white"/>
</svg>
