<svg width="24" height="24" viewBox="0 0 24 24" fill="none" xmlns="http://www.w3.org/2000/svg">
<path d="M0 4.25H24V19.75H0V4.25Z" fill="#E52D42"/>
<path d="M18.4 7.34093H16.2573L14.676 10.9757L13.0667 9.93786C13.0667 9.93786 11.9111 7.25935 11.4573 6.84693C11.0035 6.40731 10.5825 6.81973 9.16959 7.20044C7.78479 7.58114 7.72865 8.04795 7.19532 8.04795C6.97076 8.04795 6.26432 7.25482 5.89941 7.03728C5.33333 6.68377 5.10877 6.84693 5.24912 7.36359C5.30526 7.58114 5.75906 7.8576 6.03976 8.26549C6.40468 8.78669 6.63391 9.43932 6.63391 9.43932C6.63391 9.43932 7.14386 8.97251 7.42456 8.89093C7.84561 8.78216 8.32748 8.97251 8.89356 8.89093C9.6 8.78216 10.3626 8.39693 10.3626 8.39693L10.5591 10.3639C10.5591 10.3639 8.01871 12.6617 8.24327 13.5636C8.46783 14.4655 10.8678 15.5849 11.4339 16.4053C12 17.1984 11.0971 17.4975 11.0971 17.8827C11.0971 18.268 11.0129 18.7846 11.4339 18.6215C11.855 18.4583 11.9158 17.8012 12.3088 17.1984C12.5895 16.7905 12.7906 16.5684 12.8468 16.4053C12.931 15.9974 11.7474 14.955 11.0971 14.189C10.7883 13.8355 10.1661 13.3415 10.1661 13.3415L12 12C12 12 15.1626 13.2554 15.8643 12.8475C16.5708 12.4396 16.7672 8.39239 16.7672 8.39239L18.9661 7.8712L18.4 7.34093V7.34093Z" fill="white"/>
<path d="M13.0667 16.1424C12.786 16.1424 12.5286 15.9249 12.5286 15.6212C12.5286 15.3176 12.7532 15.1 13.0667 15.1C13.3474 15.1 13.6047 15.3176 13.6047 15.6212C13.6047 15.9249 13.3474 16.1424 13.0667 16.1424ZM15.2094 7.85761C14.9286 7.85761 14.6713 7.64007 14.6713 7.33641C14.6713 7.03276 14.8959 6.81522 15.2094 6.81522C15.4901 6.81522 15.7474 7.03276 15.7474 7.33641C15.7474 7.64007 15.4901 7.85761 15.2094 7.85761ZM15.2094 11.9864C14.9286 11.9864 14.6713 11.7689 14.6713 11.4652C14.6713 11.1933 14.8959 10.944 15.2094 10.944C15.4901 10.944 15.7474 11.1616 15.7474 11.4652C15.7193 11.7689 15.4901 11.9864 15.2094 11.9864ZM8.80467 14.0621C8.52397 14.0621 8.26666 13.8446 8.26666 13.5409C8.26666 13.269 8.49122 13.0197 8.80467 13.0197C9.11344 13.0197 9.34268 13.2373 9.34268 13.5409C9.34268 13.8446 9.08537 14.0621 8.80467 14.0621ZM10.9193 7.85761C10.6386 7.85761 10.3813 7.64007 10.3813 7.33641C10.3813 7.03276 10.6058 6.81522 10.9193 6.81522C11.2 6.81522 11.4573 7.03276 11.4573 7.33641C11.4573 7.64007 11.2327 7.85761 10.9193 7.85761ZM11.9906 11.9864C11.7099 11.9864 11.4526 11.5196 11.4526 10.9485C11.4526 10.3775 11.6772 9.91068 11.9906 9.91068C12.2713 9.91068 12.5286 10.3775 12.5286 10.9485C12.5286 11.5196 12.3041 11.9864 11.9906 11.9864ZM6.6573 9.93788C6.3766 9.93788 6.11929 9.72033 6.11929 9.41668C6.11929 9.11756 6.34385 8.89548 6.6573 8.89548C6.96608 8.89548 7.19532 9.11302 7.19532 9.41668C7.19532 9.7158 6.97076 9.93788 6.6573 9.93788Z" fill="#F8DD4E"/>
</svg>
