<svg width="24" height="24" viewBox="0 0 24 24" fill="none" xmlns="http://www.w3.org/2000/svg">
<path d="M0 4.25H24V19.75H0V4.25Z" fill="#D21034"/>
<path d="M0 12.0023H9.91406V15.8761H0V12.0023ZM14.0859 12.0023H24V15.8761H14.0859V12.0023Z" fill="#3A9927"/>
<path d="M0 4.25V8.12386H9.91406V4.25H14.0859V8.12386H24V4.25H0Z" fill="#003082"/>
<path d="M14.0859 8.12384H24V11.9977H14.0859V8.12384ZM0 8.12384H9.91406V11.9977H0V8.12384Z" fill="white"/>
<path d="M14.0859 19.75H9.91406V15.8761H0V19.75H24V15.8761H14.0859V19.75ZM4.95469 4.64056L5.35781 5.83043H6.64687L5.60156 6.56614L6.00469 7.75601L4.95469 7.02029L3.90937 7.75601L4.30781 6.56614L3.2625 5.83043H4.55625L4.95469 4.64056Z" fill="#FFCE00"/>
</svg>
